<?xml version="1.0" encoding="utf-8" standalone="no"?>
<!DOCTYPE svg PUBLIC "-//W3C//DTD SVG 1.1//EN"
  "http://www.w3.org/Graphics/SVG/1.1/DTD/svg11.dtd">
<svg xmlns:xlink="http://www.w3.org/1999/xlink" width="432pt" height="288pt" viewBox="0 0 432 288" xmlns="http://www.w3.org/2000/svg" version="1.1">
 <metadata>
  <rdf:RDF xmlns:dc="http://purl.org/dc/elements/1.1/" xmlns:cc="http://creativecommons.org/ns#" xmlns:rdf="http://www.w3.org/1999/02/22-rdf-syntax-ns#">
   <cc:Work>
    <dc:type rdf:resource="http://purl.org/dc/dcmitype/StillImage"/>
    <dc:date>2023-11-28T15:43:17.858271</dc:date>
    <dc:format>image/svg+xml</dc:format>
    <dc:creator>
     <cc:Agent>
      <dc:title>Matplotlib v3.5.1, https://matplotlib.org/</dc:title>
     </cc:Agent>
    </dc:creator>
   </cc:Work>
  </rdf:RDF>
 </metadata>
 <defs>
  <style type="text/css">*{stroke-linejoin: round; stroke-linecap: butt}</style>
 </defs>
 <g id="figure_1">
  <g id="patch_1">
   <path d="M 0 288 
L 432 288 
L 432 0 
L 0 0 
L 0 288 
z
" style="fill: none"/>
  </g>
  <g id="patch_2">
   <path d="M 112.68 252 
L 330.12 252 
L 330.12 34.56 
L 112.68 34.56 
z
" style="fill: #ffffff"/>
  </g>
  <g id="pane3d_1">
   <g id="patch_3">
    <path d="M 146.954742 216.121409 
L 205.001475 165.260608 
L 203.768729 37.06705 
L 141.640312 81.51643 
" style="fill: #f2f2f2; opacity: 0.5; stroke: #f2f2f2; stroke-linejoin: miter"/>
   </g>
  </g>
  <g id="pane3d_2">
   <g id="patch_4">
    <path d="M 205.001475 165.260608 
L 299.427599 193.754451 
L 304.421388 61.918407 
L 203.768729 37.06705 
" style="fill: #e6e6e6; opacity: 0.5; stroke: #e6e6e6; stroke-linejoin: miter"/>
   </g>
  </g>
  <g id="pane3d_3">
   <g id="patch_5">
    <path d="M 146.954742 216.121409 
L 245.976435 248.980376 
L 299.427599 193.754451 
L 205.001475 165.260608 
" style="fill: #ececec; opacity: 0.5; stroke: #ececec; stroke-linejoin: miter"/>
   </g>
  </g>
  <g id="axis3d_1">
   <g id="line2d_1">
    <path d="M 146.954742 216.121409 
L 245.976435 248.980376 
" style="fill: none; stroke: #000000; stroke-width: 0.8; stroke-linecap: square"/>
   </g>
   <g id="text_1">
    <!-- opinion 0 -->
    <g transform="translate(159.694457 268.315616)rotate(-341.642295)scale(0.1 -0.1)">
     <defs>
      <path id="DejaVuSans-6f" d="M 1959 3097 
Q 1497 3097 1228 2736 
Q 959 2375 959 1747 
Q 959 1119 1226 758 
Q 1494 397 1959 397 
Q 2419 397 2687 759 
Q 2956 1122 2956 1747 
Q 2956 2369 2687 2733 
Q 2419 3097 1959 3097 
z
M 1959 3584 
Q 2709 3584 3137 3096 
Q 3566 2609 3566 1747 
Q 3566 888 3137 398 
Q 2709 -91 1959 -91 
Q 1206 -91 779 398 
Q 353 888 353 1747 
Q 353 2609 779 3096 
Q 1206 3584 1959 3584 
z
" transform="scale(0.015625)"/>
      <path id="DejaVuSans-70" d="M 1159 525 
L 1159 -1331 
L 581 -1331 
L 581 3500 
L 1159 3500 
L 1159 2969 
Q 1341 3281 1617 3432 
Q 1894 3584 2278 3584 
Q 2916 3584 3314 3078 
Q 3713 2572 3713 1747 
Q 3713 922 3314 415 
Q 2916 -91 2278 -91 
Q 1894 -91 1617 61 
Q 1341 213 1159 525 
z
M 3116 1747 
Q 3116 2381 2855 2742 
Q 2594 3103 2138 3103 
Q 1681 3103 1420 2742 
Q 1159 2381 1159 1747 
Q 1159 1113 1420 752 
Q 1681 391 2138 391 
Q 2594 391 2855 752 
Q 3116 1113 3116 1747 
z
" transform="scale(0.015625)"/>
      <path id="DejaVuSans-69" d="M 603 3500 
L 1178 3500 
L 1178 0 
L 603 0 
L 603 3500 
z
M 603 4863 
L 1178 4863 
L 1178 4134 
L 603 4134 
L 603 4863 
z
" transform="scale(0.015625)"/>
      <path id="DejaVuSans-6e" d="M 3513 2113 
L 3513 0 
L 2938 0 
L 2938 2094 
Q 2938 2591 2744 2837 
Q 2550 3084 2163 3084 
Q 1697 3084 1428 2787 
Q 1159 2491 1159 1978 
L 1159 0 
L 581 0 
L 581 3500 
L 1159 3500 
L 1159 2956 
Q 1366 3272 1645 3428 
Q 1925 3584 2291 3584 
Q 2894 3584 3203 3211 
Q 3513 2838 3513 2113 
z
" transform="scale(0.015625)"/>
      <path id="DejaVuSans-20" transform="scale(0.015625)"/>
      <path id="DejaVuSans-30" d="M 2034 4250 
Q 1547 4250 1301 3770 
Q 1056 3291 1056 2328 
Q 1056 1369 1301 889 
Q 1547 409 2034 409 
Q 2525 409 2770 889 
Q 3016 1369 3016 2328 
Q 3016 3291 2770 3770 
Q 2525 4250 2034 4250 
z
M 2034 4750 
Q 2819 4750 3233 4129 
Q 3647 3509 3647 2328 
Q 3647 1150 3233 529 
Q 2819 -91 2034 -91 
Q 1250 -91 836 529 
Q 422 1150 422 2328 
Q 422 3509 836 4129 
Q 1250 4750 2034 4750 
z
" transform="scale(0.015625)"/>
     </defs>
     <use xlink:href="#DejaVuSans-6f"/>
     <use xlink:href="#DejaVuSans-70" x="61.181641"/>
     <use xlink:href="#DejaVuSans-69" x="124.658203"/>
     <use xlink:href="#DejaVuSans-6e" x="152.441406"/>
     <use xlink:href="#DejaVuSans-69" x="215.820312"/>
     <use xlink:href="#DejaVuSans-6f" x="243.603516"/>
     <use xlink:href="#DejaVuSans-6e" x="304.785156"/>
     <use xlink:href="#DejaVuSans-20" x="368.164062"/>
     <use xlink:href="#DejaVuSans-30" x="399.951172"/>
    </g>
   </g>
   <g id="Line3DCollection_1">
    <path d="M 148.854098 216.751684 
L 206.817899 165.808729 
L 205.700026 37.543891 
" style="fill: none; stroke: #b0b0b0; stroke-width: 0.8"/>
    <path d="M 167.250705 222.856341 
L 224.400669 171.114471 
L 224.404676 42.162109 
" style="fill: none; stroke: #b0b0b0; stroke-width: 0.8"/>
    <path d="M 185.947234 229.060523 
L 242.250458 176.500789 
L 243.411798 46.855009 
" style="fill: none; stroke: #b0b0b0; stroke-width: 0.8"/>
    <path d="M 204.95108 235.366684 
L 260.373394 181.96953 
L 262.728789 51.624415 
" style="fill: none; stroke: #b0b0b0; stroke-width: 0.8"/>
    <path d="M 224.269882 241.777359 
L 278.775795 187.522603 
L 282.363289 56.472215 
" style="fill: none; stroke: #b0b0b0; stroke-width: 0.8"/>
    <path d="M 243.911536 248.295168 
L 297.464177 193.161973 
L 302.323192 61.400358 
" style="fill: none; stroke: #b0b0b0; stroke-width: 0.8"/>
   </g>
   <g id="xtick_1">
    <g id="line2d_2">
     <path d="M 149.351073 216.314905 
L 147.85842 217.626761 
" style="fill: none; stroke: #000000; stroke-width: 0.8; stroke-linecap: square"/>
    </g>
    <g id="text_2">
     <!-- 0.0 -->
     <g transform="translate(135.078939 242.709112)scale(0.1 -0.1)">
      <defs>
       <path id="DejaVuSans-2e" d="M 684 794 
L 1344 794 
L 1344 0 
L 684 0 
L 684 794 
z
" transform="scale(0.015625)"/>
      </defs>
      <use xlink:href="#DejaVuSans-30"/>
      <use xlink:href="#DejaVuSans-2e" x="63.623047"/>
      <use xlink:href="#DejaVuSans-30" x="95.410156"/>
     </g>
    </g>
   </g>
   <g id="xtick_2">
    <g id="line2d_3">
     <path d="M 167.740968 222.412472 
L 166.268462 223.745635 
" style="fill: none; stroke: #000000; stroke-width: 0.8; stroke-linecap: square"/>
    </g>
    <g id="text_3">
     <!-- 0.2 -->
     <g transform="translate(153.443573 248.967364)scale(0.1 -0.1)">
      <defs>
       <path id="DejaVuSans-32" d="M 1228 531 
L 3431 531 
L 3431 0 
L 469 0 
L 469 531 
Q 828 903 1448 1529 
Q 2069 2156 2228 2338 
Q 2531 2678 2651 2914 
Q 2772 3150 2772 3378 
Q 2772 3750 2511 3984 
Q 2250 4219 1831 4219 
Q 1534 4219 1204 4116 
Q 875 4013 500 3803 
L 500 4441 
Q 881 4594 1212 4672 
Q 1544 4750 1819 4750 
Q 2544 4750 2975 4387 
Q 3406 4025 3406 3419 
Q 3406 3131 3298 2873 
Q 3191 2616 2906 2266 
Q 2828 2175 2409 1742 
Q 1991 1309 1228 531 
z
" transform="scale(0.015625)"/>
      </defs>
      <use xlink:href="#DejaVuSans-30"/>
      <use xlink:href="#DejaVuSans-2e" x="63.623047"/>
      <use xlink:href="#DejaVuSans-32" x="95.410156"/>
     </g>
    </g>
   </g>
   <g id="xtick_3">
    <g id="line2d_4">
     <path d="M 186.430498 228.609391 
L 184.978999 229.964383 
" style="fill: none; stroke: #000000; stroke-width: 0.8; stroke-linecap: square"/>
    </g>
    <g id="text_4">
     <!-- 0.4 -->
     <g transform="translate(172.107855 255.32773)scale(0.1 -0.1)">
      <defs>
       <path id="DejaVuSans-34" d="M 2419 4116 
L 825 1625 
L 2419 1625 
L 2419 4116 
z
M 2253 4666 
L 3047 4666 
L 3047 1625 
L 3713 1625 
L 3713 1100 
L 3047 1100 
L 3047 0 
L 2419 0 
L 2419 1100 
L 313 1100 
L 313 1709 
L 2253 4666 
z
" transform="scale(0.015625)"/>
      </defs>
      <use xlink:href="#DejaVuSans-30"/>
      <use xlink:href="#DejaVuSans-2e" x="63.623047"/>
      <use xlink:href="#DejaVuSans-34" x="95.410156"/>
     </g>
    </g>
   </g>
   <g id="xtick_4">
    <g id="line2d_5">
     <path d="M 205.427048 234.908108 
L 203.997447 236.285471 
" style="fill: none; stroke: #000000; stroke-width: 0.8; stroke-linecap: square"/>
    </g>
    <g id="text_5">
     <!-- 0.6 -->
     <g transform="translate(191.079181 261.792729)scale(0.1 -0.1)">
      <defs>
       <path id="DejaVuSans-36" d="M 2113 2584 
Q 1688 2584 1439 2293 
Q 1191 2003 1191 1497 
Q 1191 994 1439 701 
Q 1688 409 2113 409 
Q 2538 409 2786 701 
Q 3034 994 3034 1497 
Q 3034 2003 2786 2293 
Q 2538 2584 2113 2584 
z
M 3366 4563 
L 3366 3988 
Q 3128 4100 2886 4159 
Q 2644 4219 2406 4219 
Q 1781 4219 1451 3797 
Q 1122 3375 1075 2522 
Q 1259 2794 1537 2939 
Q 1816 3084 2150 3084 
Q 2853 3084 3261 2657 
Q 3669 2231 3669 1497 
Q 3669 778 3244 343 
Q 2819 -91 2113 -91 
Q 1303 -91 875 529 
Q 447 1150 447 2328 
Q 447 3434 972 4092 
Q 1497 4750 2381 4750 
Q 2619 4750 2861 4703 
Q 3103 4656 3366 4563 
z
" transform="scale(0.015625)"/>
      </defs>
      <use xlink:href="#DejaVuSans-30"/>
      <use xlink:href="#DejaVuSans-2e" x="63.623047"/>
      <use xlink:href="#DejaVuSans-36" x="95.410156"/>
     </g>
    </g>
   </g>
   <g id="xtick_5">
    <g id="line2d_6">
     <path d="M 224.738246 241.311154 
L 223.331472 242.711445 
" style="fill: none; stroke: #000000; stroke-width: 0.8; stroke-linecap: square"/>
    </g>
    <g id="text_6">
     <!-- 0.8 -->
     <g transform="translate(210.36519 268.364965)scale(0.1 -0.1)">
      <defs>
       <path id="DejaVuSans-38" d="M 2034 2216 
Q 1584 2216 1326 1975 
Q 1069 1734 1069 1313 
Q 1069 891 1326 650 
Q 1584 409 2034 409 
Q 2484 409 2743 651 
Q 3003 894 3003 1313 
Q 3003 1734 2745 1975 
Q 2488 2216 2034 2216 
z
M 1403 2484 
Q 997 2584 770 2862 
Q 544 3141 544 3541 
Q 544 4100 942 4425 
Q 1341 4750 2034 4750 
Q 2731 4750 3128 4425 
Q 3525 4100 3525 3541 
Q 3525 3141 3298 2862 
Q 3072 2584 2669 2484 
Q 3125 2378 3379 2068 
Q 3634 1759 3634 1313 
Q 3634 634 3220 271 
Q 2806 -91 2034 -91 
Q 1263 -91 848 271 
Q 434 634 434 1313 
Q 434 1759 690 2068 
Q 947 2378 1403 2484 
z
M 1172 3481 
Q 1172 3119 1398 2916 
Q 1625 2713 2034 2713 
Q 2441 2713 2670 2916 
Q 2900 3119 2900 3481 
Q 2900 3844 2670 4047 
Q 2441 4250 2034 4250 
Q 1625 4250 1398 4047 
Q 1172 3844 1172 3481 
z
" transform="scale(0.015625)"/>
      </defs>
      <use xlink:href="#DejaVuSans-30"/>
      <use xlink:href="#DejaVuSans-2e" x="63.623047"/>
      <use xlink:href="#DejaVuSans-38" x="95.410156"/>
     </g>
    </g>
   </g>
   <g id="xtick_6">
    <g id="line2d_7">
     <path d="M 244.371974 247.821141 
L 242.988993 249.244939 
" style="fill: none; stroke: #000000; stroke-width: 0.8; stroke-linecap: square"/>
    </g>
    <g id="text_7">
     <!-- 1.0 -->
     <g transform="translate(229.973778 275.047129)scale(0.1 -0.1)">
      <defs>
       <path id="DejaVuSans-31" d="M 794 531 
L 1825 531 
L 1825 4091 
L 703 3866 
L 703 4441 
L 1819 4666 
L 2450 4666 
L 2450 531 
L 3481 531 
L 3481 0 
L 794 0 
L 794 531 
z
" transform="scale(0.015625)"/>
      </defs>
      <use xlink:href="#DejaVuSans-31"/>
      <use xlink:href="#DejaVuSans-2e" x="63.623047"/>
      <use xlink:href="#DejaVuSans-30" x="95.410156"/>
     </g>
    </g>
   </g>
  </g>
  <g id="axis3d_2">
   <g id="line2d_8">
    <path d="M 299.427599 193.754451 
L 245.976435 248.980376 
" style="fill: none; stroke: #000000; stroke-width: 0.8; stroke-linecap: square"/>
   </g>
   <g id="text_8">
    <!-- opinion 1 -->
    <g transform="translate(280.963856 273.694032)rotate(-45.935591)scale(0.1 -0.1)">
     <use xlink:href="#DejaVuSans-6f"/>
     <use xlink:href="#DejaVuSans-70" x="61.181641"/>
     <use xlink:href="#DejaVuSans-69" x="124.658203"/>
     <use xlink:href="#DejaVuSans-6e" x="152.441406"/>
     <use xlink:href="#DejaVuSans-69" x="215.820312"/>
     <use xlink:href="#DejaVuSans-6f" x="243.603516"/>
     <use xlink:href="#DejaVuSans-6e" x="304.785156"/>
     <use xlink:href="#DejaVuSans-20" x="368.164062"/>
     <use xlink:href="#DejaVuSans-31" x="399.951172"/>
    </g>
   </g>
   <g id="Line3DCollection_2">
    <path d="M 142.976817 80.560236 
L 148.19781 215.032227 
L 247.124379 247.794317 
" style="fill: none; stroke: #b0b0b0; stroke-width: 0.8"/>
    <path d="M 155.600499 71.528703 
L 159.951125 204.733922 
L 257.971151 236.587395 
" style="fill: none; stroke: #b0b0b0; stroke-width: 0.8"/>
    <path d="M 167.860996 62.757009 
L 171.387407 194.713401 
L 268.512977 225.695545 
" style="fill: none; stroke: #b0b0b0; stroke-width: 0.8"/>
    <path d="M 179.773758 54.234099 
L 182.519315 184.959575 
L 278.762538 215.105663 
" style="fill: none; stroke: #b0b0b0; stroke-width: 0.8"/>
    <path d="M 191.353372 45.949538 
L 193.358839 175.461936 
L 288.731823 204.805363 
" style="fill: none; stroke: #b0b0b0; stroke-width: 0.8"/>
    <path d="M 202.613621 37.893465 
L 203.917351 166.210523 
L 298.432174 194.782928 
" style="fill: none; stroke: #b0b0b0; stroke-width: 0.8"/>
   </g>
   <g id="xtick_7">
    <g id="line2d_9">
     <path d="M 246.298833 247.520916 
L 248.777195 248.34169 
" style="fill: none; stroke: #000000; stroke-width: 0.8; stroke-linecap: square"/>
    </g>
    <g id="text_9">
     <!-- 0.0 -->
     <g transform="translate(249.475757 271.936615)scale(0.1 -0.1)">
      <use xlink:href="#DejaVuSans-30"/>
      <use xlink:href="#DejaVuSans-2e" x="63.623047"/>
      <use xlink:href="#DejaVuSans-30" x="95.410156"/>
     </g>
    </g>
   </g>
   <g id="xtick_8">
    <g id="line2d_10">
     <path d="M 257.153652 236.321733 
L 259.607832 237.119266 
" style="fill: none; stroke: #000000; stroke-width: 0.8; stroke-linecap: square"/>
    </g>
    <g id="text_10">
     <!-- 0.2 -->
     <g transform="translate(260.150559 260.520639)scale(0.1 -0.1)">
      <use xlink:href="#DejaVuSans-30"/>
      <use xlink:href="#DejaVuSans-2e" x="63.623047"/>
      <use xlink:href="#DejaVuSans-32" x="95.410156"/>
     </g>
    </g>
   </g>
   <g id="xtick_9">
    <g id="line2d_11">
     <path d="M 267.703402 225.437298 
L 270.13377 226.212562 
" style="fill: none; stroke: #000000; stroke-width: 0.8; stroke-linecap: square"/>
    </g>
    <g id="text_11">
     <!-- 0.4 -->
     <g transform="translate(270.525943 249.424869)scale(0.1 -0.1)">
      <use xlink:href="#DejaVuSans-30"/>
      <use xlink:href="#DejaVuSans-2e" x="63.623047"/>
      <use xlink:href="#DejaVuSans-34" x="95.410156"/>
     </g>
    </g>
   </g>
   <g id="xtick_10">
    <g id="line2d_12">
     <path d="M 277.960765 214.854525 
L 280.367689 215.608441 
" style="fill: none; stroke: #000000; stroke-width: 0.8; stroke-linecap: square"/>
    </g>
    <g id="text_12">
     <!-- 0.6 -->
     <g transform="translate(280.614333 238.636021)scale(0.1 -0.1)">
      <use xlink:href="#DejaVuSans-30"/>
      <use xlink:href="#DejaVuSans-2e" x="63.623047"/>
      <use xlink:href="#DejaVuSans-36" x="95.410156"/>
     </g>
    </g>
   </g>
   <g id="xtick_11">
    <g id="line2d_13">
     <path d="M 287.937731 204.561045 
L 290.321575 205.294483 
" style="fill: none; stroke: #000000; stroke-width: 0.8; stroke-linecap: square"/>
    </g>
    <g id="text_13">
     <!-- 0.8 -->
     <g transform="translate(290.427474 228.141533)scale(0.1 -0.1)">
      <use xlink:href="#DejaVuSans-30"/>
      <use xlink:href="#DejaVuSans-2e" x="63.623047"/>
      <use xlink:href="#DejaVuSans-38" x="95.410156"/>
     </g>
    </g>
   </g>
   <g id="xtick_12">
    <g id="line2d_14">
     <path d="M 297.645642 194.545155 
L 300.006768 195.258938 
" style="fill: none; stroke: #000000; stroke-width: 0.8; stroke-linecap: square"/>
    </g>
    <g id="text_14">
     <!-- 1.0 -->
     <g transform="translate(299.976479 217.92952)scale(0.1 -0.1)">
      <use xlink:href="#DejaVuSans-31"/>
      <use xlink:href="#DejaVuSans-2e" x="63.623047"/>
      <use xlink:href="#DejaVuSans-30" x="95.410156"/>
     </g>
    </g>
   </g>
  </g>
  <g id="axis3d_3">
   <g id="line2d_15">
    <path d="M 299.427599 193.754451 
L 304.421388 61.918407 
" style="fill: none; stroke: #000000; stroke-width: 0.8; stroke-linecap: square"/>
   </g>
   <g id="text_15">
    <!-- Iteration -->
    <g transform="translate(337.267902 146.771645)rotate(-87.830742)scale(0.1 -0.1)">
     <defs>
      <path id="DejaVuSans-49" d="M 628 4666 
L 1259 4666 
L 1259 0 
L 628 0 
L 628 4666 
z
" transform="scale(0.015625)"/>
      <path id="DejaVuSans-74" d="M 1172 4494 
L 1172 3500 
L 2356 3500 
L 2356 3053 
L 1172 3053 
L 1172 1153 
Q 1172 725 1289 603 
Q 1406 481 1766 481 
L 2356 481 
L 2356 0 
L 1766 0 
Q 1100 0 847 248 
Q 594 497 594 1153 
L 594 3053 
L 172 3053 
L 172 3500 
L 594 3500 
L 594 4494 
L 1172 4494 
z
" transform="scale(0.015625)"/>
      <path id="DejaVuSans-65" d="M 3597 1894 
L 3597 1613 
L 953 1613 
Q 991 1019 1311 708 
Q 1631 397 2203 397 
Q 2534 397 2845 478 
Q 3156 559 3463 722 
L 3463 178 
Q 3153 47 2828 -22 
Q 2503 -91 2169 -91 
Q 1331 -91 842 396 
Q 353 884 353 1716 
Q 353 2575 817 3079 
Q 1281 3584 2069 3584 
Q 2775 3584 3186 3129 
Q 3597 2675 3597 1894 
z
M 3022 2063 
Q 3016 2534 2758 2815 
Q 2500 3097 2075 3097 
Q 1594 3097 1305 2825 
Q 1016 2553 972 2059 
L 3022 2063 
z
" transform="scale(0.015625)"/>
      <path id="DejaVuSans-72" d="M 2631 2963 
Q 2534 3019 2420 3045 
Q 2306 3072 2169 3072 
Q 1681 3072 1420 2755 
Q 1159 2438 1159 1844 
L 1159 0 
L 581 0 
L 581 3500 
L 1159 3500 
L 1159 2956 
Q 1341 3275 1631 3429 
Q 1922 3584 2338 3584 
Q 2397 3584 2469 3576 
Q 2541 3569 2628 3553 
L 2631 2963 
z
" transform="scale(0.015625)"/>
      <path id="DejaVuSans-61" d="M 2194 1759 
Q 1497 1759 1228 1600 
Q 959 1441 959 1056 
Q 959 750 1161 570 
Q 1363 391 1709 391 
Q 2188 391 2477 730 
Q 2766 1069 2766 1631 
L 2766 1759 
L 2194 1759 
z
M 3341 1997 
L 3341 0 
L 2766 0 
L 2766 531 
Q 2569 213 2275 61 
Q 1981 -91 1556 -91 
Q 1019 -91 701 211 
Q 384 513 384 1019 
Q 384 1609 779 1909 
Q 1175 2209 1959 2209 
L 2766 2209 
L 2766 2266 
Q 2766 2663 2505 2880 
Q 2244 3097 1772 3097 
Q 1472 3097 1187 3025 
Q 903 2953 641 2809 
L 641 3341 
Q 956 3463 1253 3523 
Q 1550 3584 1831 3584 
Q 2591 3584 2966 3190 
Q 3341 2797 3341 1997 
z
" transform="scale(0.015625)"/>
     </defs>
     <use xlink:href="#DejaVuSans-49"/>
     <use xlink:href="#DejaVuSans-74" x="29.492188"/>
     <use xlink:href="#DejaVuSans-65" x="68.701172"/>
     <use xlink:href="#DejaVuSans-72" x="130.224609"/>
     <use xlink:href="#DejaVuSans-61" x="171.337891"/>
     <use xlink:href="#DejaVuSans-74" x="232.617188"/>
     <use xlink:href="#DejaVuSans-69" x="271.826172"/>
     <use xlink:href="#DejaVuSans-6f" x="299.609375"/>
     <use xlink:href="#DejaVuSans-6e" x="360.791016"/>
    </g>
   </g>
   <g id="Line3DCollection_3">
    <path d="M 299.521364 191.279063 
L 204.97827 162.847498 
L 146.855156 213.59907 
" style="fill: none; stroke: #b0b0b0; stroke-width: 0.8"/>
    <path d="M 300.665083 161.084865 
L 204.6954 133.431828 
L 145.639815 182.816679 
" style="fill: none; stroke: #b0b0b0; stroke-width: 0.8"/>
    <path d="M 301.844138 129.957819 
L 204.404142 103.143831 
L 144.385742 151.053244 
" style="fill: none; stroke: #b0b0b0; stroke-width: 0.8"/>
    <path d="M 303.060191 97.854016 
L 204.104117 71.944119 
L 143.091053 118.261105 
" style="fill: none; stroke: #b0b0b0; stroke-width: 0.8"/>
    <path d="M 304.315012 64.726747 
L 203.794922 39.790897 
L 141.753744 84.389467 
" style="fill: none; stroke: #b0b0b0; stroke-width: 0.8"/>
   </g>
   <g id="xtick_13">
    <g id="line2d_16">
     <path d="M 298.734602 191.042463 
L 301.096419 191.752723 
" style="fill: none; stroke: #000000; stroke-width: 0.8; stroke-linecap: square"/>
    </g>
    <g id="text_16">
     <!-- 0 -->
     <g transform="translate(311.337211 196.684905)scale(0.1 -0.1)">
      <use xlink:href="#DejaVuSans-30"/>
     </g>
    </g>
   </g>
   <g id="xtick_14">
    <g id="line2d_17">
     <path d="M 299.86598 160.854609 
L 302.264869 161.545833 
" style="fill: none; stroke: #000000; stroke-width: 0.8; stroke-linecap: square"/>
    </g>
    <g id="text_17">
     <!-- 5 -->
     <g transform="translate(312.704888 166.549579)scale(0.1 -0.1)">
      <defs>
       <path id="DejaVuSans-35" d="M 691 4666 
L 3169 4666 
L 3169 4134 
L 1269 4134 
L 1269 2991 
Q 1406 3038 1543 3061 
Q 1681 3084 1819 3084 
Q 2600 3084 3056 2656 
Q 3513 2228 3513 1497 
Q 3513 744 3044 326 
Q 2575 -91 1722 -91 
Q 1428 -91 1123 -41 
Q 819 9 494 109 
L 494 744 
Q 775 591 1075 516 
Q 1375 441 1709 441 
Q 2250 441 2565 725 
Q 2881 1009 2881 1497 
Q 2881 1984 2565 2268 
Q 2250 2553 1709 2553 
Q 1456 2553 1204 2497 
Q 953 2441 691 2322 
L 691 4666 
z
" transform="scale(0.015625)"/>
      </defs>
      <use xlink:href="#DejaVuSans-35"/>
     </g>
    </g>
   </g>
   <g id="xtick_15">
    <g id="line2d_18">
     <path d="M 301.032301 129.734414 
L 303.469442 130.405077 
" style="fill: none; stroke: #000000; stroke-width: 0.8; stroke-linecap: square"/>
    </g>
    <g id="text_18">
     <!-- 10 -->
     <g transform="translate(310.933438 135.486108)scale(0.1 -0.1)">
      <use xlink:href="#DejaVuSans-31"/>
      <use xlink:href="#DejaVuSans-30" x="63.623047"/>
     </g>
    </g>
   </g>
   <g id="xtick_16">
    <g id="line2d_19">
     <path d="M 302.235208 97.638008 
L 304.71184 98.286471 
" style="fill: none; stroke: #000000; stroke-width: 0.8; stroke-linecap: square"/>
    </g>
    <g id="text_19">
     <!-- 15 -->
     <g transform="translate(312.387338 103.450942)scale(0.1 -0.1)">
      <use xlink:href="#DejaVuSans-31"/>
      <use xlink:href="#DejaVuSans-35" x="63.623047"/>
     </g>
    </g>
   </g>
   <g id="xtick_17">
    <g id="line2d_20">
     <path d="M 303.47645 64.518727 
L 305.993873 65.14322 
" style="fill: none; stroke: #000000; stroke-width: 0.8; stroke-linecap: square"/>
    </g>
    <g id="text_20">
     <!-- 20 -->
     <g transform="translate(313.887441 70.397764)scale(0.1 -0.1)">
      <use xlink:href="#DejaVuSans-32"/>
      <use xlink:href="#DejaVuSans-30" x="63.623047"/>
     </g>
    </g>
   </g>
  </g>
  <g id="axes_1">
   <g id="line2d_21">
    <path d="M 233.987486 230.858855 
L 235.673413 221.529162 
L 233.853785 212.39306 
L 231.146387 203.112058 
L 225.479555 193.588783 
L 217.149197 182.796085 
L 216.73137 175.043797 
L 216.290809 168.438078 
L 215.875141 161.844404 
L 210.132452 153.573815 
L 210.268099 147.009085 
L 210.395636 140.413198 
L 210.515435 133.785284 
L 210.627849 127.124495 
L 210.733215 120.429998 
L 210.831853 113.700981 
L 210.924068 106.936647 
L 211.010148 100.136214 
L 211.090372 93.298915 
L 211.165 86.423994 
" clip-path="url(#p05b3d13a71)" style="fill: none; stroke: #1f77b4; stroke-width: 1.5; stroke-linecap: square"/>
   </g>
   <g id="line2d_22">
    <path d="M 200.706293 183.819021 
L 200.368282 179.877944 
L 202.823687 175.111154 
L 206.18364 169.057296 
L 209.983322 162.364439 
L 212.04328 156.534345 
L 214.83678 150.083798 
L 216.244372 145.041061 
L 217.551045 139.760495 
L 228.44102 137.696798 
L 227.742855 131.996386 
L 227.07424 126.22013 
L 226.433881 120.369371 
L 225.820538 114.445363 
L 225.233019 108.449284 
L 224.670182 102.382232 
L 224.130931 96.245233 
L 223.614218 90.03924 
L 223.119034 83.765137 
L 222.644417 77.423743 
" clip-path="url(#p05b3d13a71)" style="fill: none; stroke: #ff7f0e; stroke-width: 1.5; stroke-linecap: square"/>
   </g>
   <g id="line2d_23">
    <path d="M 266.604293 190.571714 
L 263.664007 184.441821 
L 260.52938 179.628504 
L 254.759596 173.788973 
L 242.676868 167.728876 
L 238.977561 161.944681 
L 236.972936 156.894729 
L 235.86936 151.048592 
L 234.94557 145.065378 
L 228.44102 137.696798 
L 227.742855 131.996386 
L 227.07424 126.22013 
L 226.433881 120.369371 
L 225.820538 114.445363 
L 225.233019 108.449284 
L 224.670182 102.382232 
L 224.130931 96.245233 
L 223.614218 90.03924 
L 223.119034 83.765137 
L 222.644417 77.423743 
" clip-path="url(#p05b3d13a71)" style="fill: none; stroke: #2ca02c; stroke-width: 1.5; stroke-linecap: square"/>
   </g>
   <g id="line2d_24">
    <path d="M 255.905432 183.159198 
L 249.187617 179.347202 
L 244.019458 175.086437 
L 239.831539 171.395152 
L 238.36072 166.442124 
L 238.977561 161.944681 
L 236.972936 156.894729 
L 235.86936 151.048592 
L 234.94557 145.065378 
L 228.44102 137.696798 
L 227.742855 131.996386 
L 227.07424 126.22013 
L 226.433881 120.369371 
L 225.820538 114.445363 
L 225.233019 108.449284 
L 224.670182 102.382232 
L 224.130931 96.245233 
L 223.614218 90.03924 
L 223.119034 83.765137 
L 222.644417 77.423743 
" clip-path="url(#p05b3d13a71)" style="fill: none; stroke: #d62728; stroke-width: 1.5; stroke-linecap: square"/>
   </g>
   <g id="line2d_25">
    <path d="M 235.109064 214.410137 
L 230.876414 206.647689 
L 224.126985 200.0874 
L 218.854943 195.126807 
L 218.506251 188.797032 
L 217.130124 181.714547 
L 216.73137 175.043797 
L 216.290809 168.438078 
L 215.875141 161.844404 
L 210.132452 153.573815 
L 210.268099 147.009085 
L 210.395636 140.413198 
L 210.515435 133.785284 
L 210.627849 127.124495 
L 210.733215 120.429998 
L 210.831853 113.700981 
L 210.924068 106.936647 
L 211.010148 100.136214 
L 211.090372 93.298915 
L 211.165 86.423994 
" clip-path="url(#p05b3d13a71)" style="fill: none; stroke: #9467bd; stroke-width: 1.5; stroke-linecap: square"/>
   </g>
   <g id="line2d_26">
    <path d="M 209.669669 219.942733 
L 208.576224 212.208666 
L 209.16425 204.204752 
L 209.668667 196.049046 
L 211.912177 189.307932 
L 216.277401 182.519875 
L 216.73137 175.043797 
L 216.290809 168.438078 
L 215.875141 161.844404 
L 210.132452 153.573815 
L 210.268099 147.009085 
L 210.395636 140.413198 
L 210.515435 133.785284 
L 210.627849 127.124495 
L 210.733215 120.429998 
L 210.831853 113.700981 
L 210.924068 106.936647 
L 211.010148 100.136214 
L 211.090372 93.298915 
L 211.165 86.423994 
" clip-path="url(#p05b3d13a71)" style="fill: none; stroke: #8c564b; stroke-width: 1.5; stroke-linecap: square"/>
   </g>
   <g id="line2d_27">
    <path d="M 251.640815 225.655839 
L 244.03501 218.052927 
L 236.242652 211.344289 
L 231.571186 202.576497 
L 223.315265 192.889422 
L 217.149197 182.796085 
L 216.73137 175.043797 
L 216.290809 168.438078 
L 215.875141 161.844404 
L 210.132452 153.573815 
L 210.268099 147.009085 
L 210.395636 140.413198 
L 210.515435 133.785284 
L 210.627849 127.124495 
L 210.733215 120.429998 
L 210.831853 113.700981 
L 210.924068 106.936647 
L 211.010148 100.136214 
L 211.090372 93.298915 
L 211.165 86.423994 
" clip-path="url(#p05b3d13a71)" style="fill: none; stroke: #e377c2; stroke-width: 1.5; stroke-linecap: square"/>
   </g>
   <g id="line2d_28">
    <path d="M 259.050705 193.448169 
L 255.935795 184.522893 
L 249.563559 178.478383 
L 244.98429 173.032758 
L 242.342223 167.638819 
L 238.977561 161.944681 
L 236.972936 156.894729 
L 235.86936 151.048592 
L 234.94557 145.065378 
L 228.44102 137.696798 
L 227.742855 131.996386 
L 227.07424 126.22013 
L 226.433881 120.369371 
L 225.820538 114.445363 
L 225.233019 108.449284 
L 224.670182 102.382232 
L 224.130931 96.245233 
L 223.614218 90.03924 
L 223.119034 83.765137 
L 222.644417 77.423743 
" clip-path="url(#p05b3d13a71)" style="fill: none; stroke: #7f7f7f; stroke-width: 1.5; stroke-linecap: square"/>
   </g>
   <g id="line2d_29">
    <path d="M 211.145119 210.319797 
L 211.285787 205.293892 
L 209.491284 201.599734 
L 210.199111 195.548026 
L 211.912177 189.307932 
L 216.277401 182.519875 
L 216.73137 175.043797 
L 216.290809 168.438078 
L 215.875141 161.844404 
L 210.132452 153.573815 
L 210.268099 147.009085 
L 210.395636 140.413198 
L 210.515435 133.785284 
L 210.627849 127.124495 
L 210.733215 120.429998 
L 210.831853 113.700981 
L 210.924068 106.936647 
L 211.010148 100.136214 
L 211.090372 93.298915 
L 211.165 86.423994 
" clip-path="url(#p05b3d13a71)" style="fill: none; stroke: #bcbd22; stroke-width: 1.5; stroke-linecap: square"/>
   </g>
   <g id="line2d_30">
    <path d="M 280.963264 189.943149 
L 275.437473 186.254607 
L 267.842537 181.246364 
L 261.65163 175.671851 
L 253.562944 170.457535 
L 239.898416 162.165588 
L 236.972936 156.894729 
L 235.86936 151.048592 
L 234.94557 145.065378 
L 228.44102 137.696798 
L 227.742855 131.996386 
L 227.07424 126.22013 
L 226.433881 120.369371 
L 225.820538 114.445363 
L 225.233019 108.449284 
L 224.670182 102.382232 
L 224.130931 96.245233 
L 223.614218 90.03924 
L 223.119034 83.765137 
L 222.644417 77.423743 
" clip-path="url(#p05b3d13a71)" style="fill: none; stroke: #17becf; stroke-width: 1.5; stroke-linecap: square"/>
   </g>
   <g id="line2d_31">
    <path d="M 212.410582 211.371748 
L 211.600173 206.029184 
L 209.908373 202.12129 
L 210.008466 195.723397 
L 211.912177 189.307932 
L 216.277401 182.519875 
L 216.73137 175.043797 
L 216.290809 168.438078 
L 215.875141 161.844404 
L 210.132452 153.573815 
L 210.268099 147.009085 
L 210.395636 140.413198 
L 210.515435 133.785284 
L 210.627849 127.124495 
L 210.733215 120.429998 
L 210.831853 113.700981 
L 210.924068 106.936647 
L 211.010148 100.136214 
L 211.090372 93.298915 
L 211.165 86.423994 
" clip-path="url(#p05b3d13a71)" style="fill: none; stroke: #1f77b4; stroke-width: 1.5; stroke-linecap: square"/>
   </g>
   <g id="line2d_32">
    <path d="M 234.522358 219.732129 
L 229.349436 212.594077 
L 222.55531 206.585545 
L 218.516487 198.306348 
L 217.054897 190.834138 
L 216.277401 182.519875 
L 216.73137 175.043797 
L 216.290809 168.438078 
L 215.875141 161.844404 
L 210.132452 153.573815 
L 210.268099 147.009085 
L 210.395636 140.413198 
L 210.515435 133.785284 
L 210.627849 127.124495 
L 210.733215 120.429998 
L 210.831853 113.700981 
L 210.924068 106.936647 
L 211.010148 100.136214 
L 211.090372 93.298915 
L 211.165 86.423994 
" clip-path="url(#p05b3d13a71)" style="fill: none; stroke: #ff7f0e; stroke-width: 1.5; stroke-linecap: square"/>
   </g>
   <g id="line2d_33">
    <path d="M 243.098774 185.524478 
L 241.17442 180.334093 
L 238.843631 175.38604 
L 237.401959 170.632027 
L 237.412519 166.103115 
L 238.977561 161.944681 
L 236.972936 156.894729 
L 235.86936 151.048592 
L 234.94557 145.065378 
L 228.44102 137.696798 
L 227.742855 131.996386 
L 227.07424 126.22013 
L 226.433881 120.369371 
L 225.820538 114.445363 
L 225.233019 108.449284 
L 224.670182 102.382232 
L 224.130931 96.245233 
L 223.614218 90.03924 
L 223.119034 83.765137 
L 222.644417 77.423743 
" clip-path="url(#p05b3d13a71)" style="fill: none; stroke: #2ca02c; stroke-width: 1.5; stroke-linecap: square"/>
   </g>
   <g id="line2d_34">
    <path d="M 237.578012 222.418108 
L 232.731787 215.375309 
L 229.276841 209.60198 
L 225.733827 200.672526 
L 217.22612 190.899326 
L 216.277401 182.519875 
L 216.73137 175.043797 
L 216.290809 168.438078 
L 215.875141 161.844404 
L 210.132452 153.573815 
L 210.268099 147.009085 
L 210.395636 140.413198 
L 210.515435 133.785284 
L 210.627849 127.124495 
L 210.733215 120.429998 
L 210.831853 113.700981 
L 210.924068 106.936647 
L 211.010148 100.136214 
L 211.090372 93.298915 
L 211.165 86.423994 
" clip-path="url(#p05b3d13a71)" style="fill: none; stroke: #d62728; stroke-width: 1.5; stroke-linecap: square"/>
   </g>
   <g id="line2d_35">
    <path d="M 150.676513 213.102539 
L 165.485646 205.249524 
L 177.814224 196.413128 
L 184.383074 188.584681 
L 187.811631 181.897776 
L 191.207727 174.922106 
L 194.221285 168.283678 
L 196.328851 162.501295 
L 198.162833 156.631743 
L 210.132452 153.573815 
L 210.268099 147.009085 
L 210.395636 140.413198 
L 210.515435 133.785284 
L 210.627849 127.124495 
L 210.733215 120.429998 
L 210.831853 113.700981 
L 210.924068 106.936647 
L 211.010148 100.136214 
L 211.090372 93.298915 
L 211.165 86.423994 
" clip-path="url(#p05b3d13a71)" style="fill: none; stroke: #9467bd; stroke-width: 1.5; stroke-linecap: square"/>
   </g>
   <g id="line2d_36">
    <path d="M 280.842517 193.154425 
L 275.075619 187.309339 
L 268.086857 181.710909 
L 261.65163 175.671851 
L 253.562944 170.457535 
L 239.898416 162.165588 
L 236.972936 156.894729 
L 235.86936 151.048592 
L 234.94557 145.065378 
L 228.44102 137.696798 
L 227.742855 131.996386 
L 227.07424 126.22013 
L 226.433881 120.369371 
L 225.820538 114.445363 
L 225.233019 108.449284 
L 224.670182 102.382232 
L 224.130931 96.245233 
L 223.614218 90.03924 
L 223.119034 83.765137 
L 222.644417 77.423743 
" clip-path="url(#p05b3d13a71)" style="fill: none; stroke: #8c564b; stroke-width: 1.5; stroke-linecap: square"/>
   </g>
   <g id="line2d_37">
    <path d="M 202.091142 203.205044 
L 203.581436 197.512615 
L 203.764947 193.261865 
L 201.154081 189.573246 
L 202.5747 183.861287 
L 205.675614 178.174478 
L 209.086909 172.643427 
L 209.427494 166.295994 
L 209.80002 159.959144 
L 210.132452 153.573815 
L 210.268099 147.009085 
L 210.395636 140.413198 
L 210.515435 133.785284 
L 210.627849 127.124495 
L 210.733215 120.429998 
L 210.831853 113.700981 
L 210.924068 106.936647 
L 211.010148 100.136214 
L 211.090372 93.298915 
L 211.165 86.423994 
" clip-path="url(#p05b3d13a71)" style="fill: none; stroke: #e377c2; stroke-width: 1.5; stroke-linecap: square"/>
   </g>
   <g id="line2d_38">
    <path d="M 200.367879 191.516274 
L 199.855964 185.760709 
L 199.276357 180.362155 
L 199.160711 175.774019 
L 199.24733 171.504541 
L 199.697799 167.153763 
L 194.595125 167.974206 
L 196.328851 162.501295 
L 198.162833 156.631743 
L 210.132452 153.573815 
L 210.268099 147.009085 
L 210.395636 140.413198 
L 210.515435 133.785284 
L 210.627849 127.124495 
L 210.733215 120.429998 
L 210.831853 113.700981 
L 210.924068 106.936647 
L 211.010148 100.136214 
L 211.090372 93.298915 
L 211.165 86.423994 
" clip-path="url(#p05b3d13a71)" style="fill: none; stroke: #7f7f7f; stroke-width: 1.5; stroke-linecap: square"/>
   </g>
   <g id="line2d_39">
    <path d="M 247.188526 189.469996 
L 245.162851 181.577818 
L 242.145438 176.398825 
L 239.831539 171.395152 
L 238.36072 166.442124 
L 238.977561 161.944681 
L 236.972936 156.894729 
L 235.86936 151.048592 
L 234.94557 145.065378 
L 228.44102 137.696798 
L 227.742855 131.996386 
L 227.07424 126.22013 
L 226.433881 120.369371 
L 225.820538 114.445363 
L 225.233019 108.449284 
L 224.670182 102.382232 
L 224.130931 96.245233 
L 223.614218 90.03924 
L 223.119034 83.765137 
L 222.644417 77.423743 
" clip-path="url(#p05b3d13a71)" style="fill: none; stroke: #bcbd22; stroke-width: 1.5; stroke-linecap: square"/>
   </g>
   <g id="line2d_40">
    <path d="M 218.914341 173.429657 
L 215.211189 169.77187 
L 214.378376 165.970919 
L 213.687753 163.04358 
L 213.830231 158.840884 
L 214.464159 154.354415 
L 214.83678 150.083798 
L 216.244372 145.041061 
L 217.551045 139.760495 
L 228.44102 137.696798 
L 227.742855 131.996386 
L 227.07424 126.22013 
L 226.433881 120.369371 
L 225.820538 114.445363 
L 225.233019 108.449284 
L 224.670182 102.382232 
L 224.130931 96.245233 
L 223.614218 90.03924 
L 223.119034 83.765137 
L 222.644417 77.423743 
" clip-path="url(#p05b3d13a71)" style="fill: none; stroke: #17becf; stroke-width: 1.5; stroke-linecap: square"/>
   </g>
   <g id="line2d_41">
    <path d="M 189.503756 224.533652 
L 196.22493 214.629762 
L 204.598901 204.28693 
L 208.779523 195.976607 
L 211.912177 189.307932 
L 216.277401 182.519875 
L 216.73137 175.043797 
L 216.290809 168.438078 
L 215.875141 161.844404 
L 210.132452 153.573815 
L 210.268099 147.009085 
L 210.395636 140.413198 
L 210.515435 133.785284 
L 210.627849 127.124495 
L 210.733215 120.429998 
L 210.831853 113.700981 
L 210.924068 106.936647 
L 211.010148 100.136214 
L 211.090372 93.298915 
L 211.165 86.423994 
" clip-path="url(#p05b3d13a71)" style="fill: none; stroke: #1f77b4; stroke-width: 1.5; stroke-linecap: square"/>
   </g>
   <g id="line2d_42">
    <path d="M 241.500588 179.41644 
L 240.543397 177.147058 
L 239.670671 173.759494 
L 237.401959 170.632027 
L 237.412519 166.103115 
L 238.977561 161.944681 
L 236.972936 156.894729 
L 235.86936 151.048592 
L 234.94557 145.065378 
L 228.44102 137.696798 
L 227.742855 131.996386 
L 227.07424 126.22013 
L 226.433881 120.369371 
L 225.820538 114.445363 
L 225.233019 108.449284 
L 224.670182 102.382232 
L 224.130931 96.245233 
L 223.614218 90.03924 
L 223.119034 83.765137 
L 222.644417 77.423743 
" clip-path="url(#p05b3d13a71)" style="fill: none; stroke: #ff7f0e; stroke-width: 1.5; stroke-linecap: square"/>
   </g>
   <g id="line2d_43">
    <path d="M 178.042375 199.626681 
L 181.756939 195.663512 
L 183.644682 192.463161 
L 185.33409 187.805635 
L 187.811631 181.897776 
L 191.207727 174.922106 
L 194.221285 168.283678 
L 196.328851 162.501295 
L 198.162833 156.631743 
L 210.132452 153.573815 
L 210.268099 147.009085 
L 210.395636 140.413198 
L 210.515435 133.785284 
L 210.627849 127.124495 
L 210.733215 120.429998 
L 210.831853 113.700981 
L 210.924068 106.936647 
L 211.010148 100.136214 
L 211.090372 93.298915 
L 211.165 86.423994 
" clip-path="url(#p05b3d13a71)" style="fill: none; stroke: #2ca02c; stroke-width: 1.5; stroke-linecap: square"/>
   </g>
   <g id="line2d_44">
    <path d="M 283.818833 203.955254 
L 274.739231 194.528379 
L 267.063104 184.584775 
L 260.703974 177.16563 
L 253.562944 170.457535 
L 239.898416 162.165588 
L 236.972936 156.894729 
L 235.86936 151.048592 
L 234.94557 145.065378 
L 228.44102 137.696798 
L 227.742855 131.996386 
L 227.07424 126.22013 
L 226.433881 120.369371 
L 225.820538 114.445363 
L 225.233019 108.449284 
L 224.670182 102.382232 
L 224.130931 96.245233 
L 223.614218 90.03924 
L 223.119034 83.765137 
L 222.644417 77.423743 
" clip-path="url(#p05b3d13a71)" style="fill: none; stroke: #d62728; stroke-width: 1.5; stroke-linecap: square"/>
   </g>
   <g id="line2d_45">
    <path d="M 167.93111 208.971214 
L 174.625816 201.908707 
L 180.305383 195.352691 
L 184.567305 188.44952 
L 187.811631 181.897776 
L 191.207727 174.922106 
L 194.221285 168.283678 
L 196.328851 162.501295 
L 198.162833 156.631743 
L 210.132452 153.573815 
L 210.268099 147.009085 
L 210.395636 140.413198 
L 210.515435 133.785284 
L 210.627849 127.124495 
L 210.733215 120.429998 
L 210.831853 113.700981 
L 210.924068 106.936647 
L 211.010148 100.136214 
L 211.090372 93.298915 
L 211.165 86.423994 
" clip-path="url(#p05b3d13a71)" style="fill: none; stroke: #9467bd; stroke-width: 1.5; stroke-linecap: square"/>
   </g>
   <g id="line2d_46">
    <path d="M 230.983028 193.652926 
L 229.283969 188.859818 
L 229.231206 183.261198 
L 230.238687 177.100505 
L 233.577094 169.561982 
L 236.599618 164.072186 
L 236.972936 156.894729 
L 235.86936 151.048592 
L 234.94557 145.065378 
L 228.44102 137.696798 
L 227.742855 131.996386 
L 227.07424 126.22013 
L 226.433881 120.369371 
L 225.820538 114.445363 
L 225.233019 108.449284 
L 224.670182 102.382232 
L 224.130931 96.245233 
L 223.614218 90.03924 
L 223.119034 83.765137 
L 222.644417 77.423743 
" clip-path="url(#p05b3d13a71)" style="fill: none; stroke: #8c564b; stroke-width: 1.5; stroke-linecap: square"/>
   </g>
   <g id="line2d_47">
    <path d="M 204.967533 168.272727 
L 210.607314 167.734855 
L 212.819678 165.433421 
L 213.780284 162.420059 
L 213.830231 158.840884 
L 214.464159 154.354415 
L 214.83678 150.083798 
L 216.244372 145.041061 
L 217.551045 139.760495 
L 228.44102 137.696798 
L 227.742855 131.996386 
L 227.07424 126.22013 
L 226.433881 120.369371 
L 225.820538 114.445363 
L 225.233019 108.449284 
L 224.670182 102.382232 
L 224.130931 96.245233 
L 223.614218 90.03924 
L 223.119034 83.765137 
L 222.644417 77.423743 
" clip-path="url(#p05b3d13a71)" style="fill: none; stroke: #e377c2; stroke-width: 1.5; stroke-linecap: square"/>
   </g>
   <g id="line2d_48">
    <path d="M 206.149218 209.439448 
L 208.53085 205.357449 
L 208.043276 202.016543 
L 209.285487 195.48576 
L 211.912177 189.307932 
L 216.277401 182.519875 
L 216.73137 175.043797 
L 216.290809 168.438078 
L 215.875141 161.844404 
L 210.132452 153.573815 
L 210.268099 147.009085 
L 210.395636 140.413198 
L 210.515435 133.785284 
L 210.627849 127.124495 
L 210.733215 120.429998 
L 210.831853 113.700981 
L 210.924068 106.936647 
L 211.010148 100.136214 
L 211.090372 93.298915 
L 211.165 86.423994 
" clip-path="url(#p05b3d13a71)" style="fill: none; stroke: #7f7f7f; stroke-width: 1.5; stroke-linecap: square"/>
   </g>
   <g id="line2d_49">
    <path d="M 198.970898 190.02972 
L 197.450408 184.161259 
L 198.406391 180.059052 
L 198.70383 175.645622 
L 199.24733 171.504541 
L 199.697799 167.153763 
L 194.595125 167.974206 
L 196.328851 162.501295 
L 198.162833 156.631743 
L 210.132452 153.573815 
L 210.268099 147.009085 
L 210.395636 140.413198 
L 210.515435 133.785284 
L 210.627849 127.124495 
L 210.733215 120.429998 
L 210.831853 113.700981 
L 210.924068 106.936647 
L 211.010148 100.136214 
L 211.090372 93.298915 
L 211.165 86.423994 
" clip-path="url(#p05b3d13a71)" style="fill: none; stroke: #bcbd22; stroke-width: 1.5; stroke-linecap: square"/>
   </g>
   <g id="line2d_50">
    <path d="M 227.625597 201.066947 
L 226.208186 194.27469 
L 224.543977 188.571336 
L 223.185934 183.633733 
L 222.683469 179.526443 
L 217.459374 181.405127 
L 216.73137 175.043797 
L 216.290809 168.438078 
L 215.875141 161.844404 
L 210.132452 153.573815 
L 210.268099 147.009085 
L 210.395636 140.413198 
L 210.515435 133.785284 
L 210.627849 127.124495 
L 210.733215 120.429998 
L 210.831853 113.700981 
L 210.924068 106.936647 
L 211.010148 100.136214 
L 211.090372 93.298915 
L 211.165 86.423994 
" clip-path="url(#p05b3d13a71)" style="fill: none; stroke: #17becf; stroke-width: 1.5; stroke-linecap: square"/>
   </g>
   <g id="line2d_51">
    <path d="M 203.196965 223.047316 
L 204.86537 213.69923 
L 207.32233 204.515316 
L 209.502726 196.215363 
L 211.912177 189.307932 
L 216.277401 182.519875 
L 216.73137 175.043797 
L 216.290809 168.438078 
L 215.875141 161.844404 
L 210.132452 153.573815 
L 210.268099 147.009085 
L 210.395636 140.413198 
L 210.515435 133.785284 
L 210.627849 127.124495 
L 210.733215 120.429998 
L 210.831853 113.700981 
L 210.924068 106.936647 
L 211.010148 100.136214 
L 211.090372 93.298915 
L 211.165 86.423994 
" clip-path="url(#p05b3d13a71)" style="fill: none; stroke: #1f77b4; stroke-width: 1.5; stroke-linecap: square"/>
   </g>
   <g id="line2d_52">
    <path d="M 182.41677 221.210087 
L 187.583408 211.659973 
L 193.944323 200.541764 
L 197.723506 192.380813 
L 200.546565 185.679836 
L 204.802957 178.953794 
L 209.086909 172.643427 
L 209.427494 166.295994 
L 209.80002 159.959144 
L 210.132452 153.573815 
L 210.268099 147.009085 
L 210.395636 140.413198 
L 210.515435 133.785284 
L 210.627849 127.124495 
L 210.733215 120.429998 
L 210.831853 113.700981 
L 210.924068 106.936647 
L 211.010148 100.136214 
L 211.090372 93.298915 
L 211.165 86.423994 
" clip-path="url(#p05b3d13a71)" style="fill: none; stroke: #ff7f0e; stroke-width: 1.5; stroke-linecap: square"/>
   </g>
   <g id="line2d_53">
    <path d="M 200.761734 185.094201 
L 199.651403 181.03078 
L 199.667855 177.842883 
L 199.981574 174.464499 
L 201.98508 169.021325 
L 204.594812 162.777825 
L 212.91326 151.796919 
L 216.244372 145.041061 
L 217.551045 139.760495 
L 228.44102 137.696798 
L 227.742855 131.996386 
L 227.07424 126.22013 
L 226.433881 120.369371 
L 225.820538 114.445363 
L 225.233019 108.449284 
L 224.670182 102.382232 
L 224.130931 96.245233 
L 223.614218 90.03924 
L 223.119034 83.765137 
L 222.644417 77.423743 
" clip-path="url(#p05b3d13a71)" style="fill: none; stroke: #2ca02c; stroke-width: 1.5; stroke-linecap: square"/>
   </g>
   <g id="line2d_54">
    <path d="M 188.898594 179.796347 
L 196.342598 178.211914 
L 202.0514 174.845034 
L 206.18364 169.057296 
L 209.983322 162.364439 
L 212.04328 156.534345 
L 214.83678 150.083798 
L 216.244372 145.041061 
L 217.551045 139.760495 
L 228.44102 137.696798 
L 227.742855 131.996386 
L 227.07424 126.22013 
L 226.433881 120.369371 
L 225.820538 114.445363 
L 225.233019 108.449284 
L 224.670182 102.382232 
L 224.130931 96.245233 
L 223.614218 90.03924 
L 223.119034 83.765137 
L 222.644417 77.423743 
" clip-path="url(#p05b3d13a71)" style="fill: none; stroke: #d62728; stroke-width: 1.5; stroke-linecap: square"/>
   </g>
   <g id="line2d_55">
    <path d="M 196.486014 222.754873 
L 200.538766 214.109257 
L 206.590177 204.268252 
L 209.502726 196.215363 
L 211.912177 189.307932 
L 216.277401 182.519875 
L 216.73137 175.043797 
L 216.290809 168.438078 
L 215.875141 161.844404 
L 210.132452 153.573815 
L 210.268099 147.009085 
L 210.395636 140.413198 
L 210.515435 133.785284 
L 210.627849 127.124495 
L 210.733215 120.429998 
L 210.831853 113.700981 
L 210.924068 106.936647 
L 211.010148 100.136214 
L 211.090372 93.298915 
L 211.165 86.423994 
" clip-path="url(#p05b3d13a71)" style="fill: none; stroke: #9467bd; stroke-width: 1.5; stroke-linecap: square"/>
   </g>
   <g id="line2d_56">
    <path d="M 288.13736 192.999964 
L 278.339411 187.489237 
L 269.679401 181.774899 
L 262.310895 175.847027 
L 253.562944 170.457535 
L 239.898416 162.165588 
L 236.972936 156.894729 
L 235.86936 151.048592 
L 234.94557 145.065378 
L 228.44102 137.696798 
L 227.742855 131.996386 
L 227.07424 126.22013 
L 226.433881 120.369371 
L 225.820538 114.445363 
L 225.233019 108.449284 
L 224.670182 102.382232 
L 224.130931 96.245233 
L 223.614218 90.03924 
L 223.119034 83.765137 
L 222.644417 77.423743 
" clip-path="url(#p05b3d13a71)" style="fill: none; stroke: #8c564b; stroke-width: 1.5; stroke-linecap: square"/>
   </g>
   <g id="line2d_57">
    <path d="M 229.820959 198.102843 
L 228.116534 192.480657 
L 225.549488 187.628579 
L 223.855166 183.00613 
L 224.054882 178.255172 
L 224.920291 174.744618 
L 217.075102 174.72521 
L 216.290809 168.438078 
L 215.875141 161.844404 
L 210.132452 153.573815 
L 210.268099 147.009085 
L 210.395636 140.413198 
L 210.515435 133.785284 
L 210.627849 127.124495 
L 210.733215 120.429998 
L 210.831853 113.700981 
L 210.924068 106.936647 
L 211.010148 100.136214 
L 211.090372 93.298915 
L 211.165 86.423994 
" clip-path="url(#p05b3d13a71)" style="fill: none; stroke: #e377c2; stroke-width: 1.5; stroke-linecap: square"/>
   </g>
   <g id="line2d_58">
    <path d="M 171.563363 217.374189 
L 175.068447 207.754889 
L 180.868322 196.820153 
L 185.020075 188.578002 
L 187.811631 181.897776 
L 191.207727 174.922106 
L 194.221285 168.283678 
L 196.328851 162.501295 
L 198.162833 156.631743 
L 210.132452 153.573815 
L 210.268099 147.009085 
L 210.395636 140.413198 
L 210.515435 133.785284 
L 210.627849 127.124495 
L 210.733215 120.429998 
L 210.831853 113.700981 
L 210.924068 106.936647 
L 211.010148 100.136214 
L 211.090372 93.298915 
L 211.165 86.423994 
" clip-path="url(#p05b3d13a71)" style="fill: none; stroke: #7f7f7f; stroke-width: 1.5; stroke-linecap: square"/>
   </g>
   <g id="line2d_59">
    <path d="M 194.295609 188.535345 
L 196.049813 183.717368 
L 197.550301 179.80648 
L 198.70383 175.645622 
L 199.24733 171.504541 
L 199.697799 167.153763 
L 194.595125 167.974206 
L 196.328851 162.501295 
L 198.162833 156.631743 
L 210.132452 153.573815 
L 210.268099 147.009085 
L 210.395636 140.413198 
L 210.515435 133.785284 
L 210.627849 127.124495 
L 210.733215 120.429998 
L 210.831853 113.700981 
L 210.924068 106.936647 
L 211.010148 100.136214 
L 211.090372 93.298915 
L 211.165 86.423994 
" clip-path="url(#p05b3d13a71)" style="fill: none; stroke: #bcbd22; stroke-width: 1.5; stroke-linecap: square"/>
   </g>
   <g id="line2d_60">
    <path d="M 260.564249 228.072944 
L 250.123867 219.369541 
L 237.851089 211.869169 
L 232.747666 202.960285 
L 227.498738 194.254115 
L 217.149197 182.796085 
L 216.73137 175.043797 
L 216.290809 168.438078 
L 215.875141 161.844404 
L 210.132452 153.573815 
L 210.268099 147.009085 
L 210.395636 140.413198 
L 210.515435 133.785284 
L 210.627849 127.124495 
L 210.733215 120.429998 
L 210.831853 113.700981 
L 210.924068 106.936647 
L 211.010148 100.136214 
L 211.090372 93.298915 
L 211.165 86.423994 
" clip-path="url(#p05b3d13a71)" style="fill: none; stroke: #17becf; stroke-width: 1.5; stroke-linecap: square"/>
   </g>
   <g id="line2d_61">
    <path d="M 293.692125 193.43067 
L 282.218272 188.153311 
L 270.809969 182.0657 
L 262.90904 176.025842 
L 254.10636 170.619356 
L 239.993718 162.193797 
L 236.972936 156.894729 
L 235.86936 151.048592 
L 234.94557 145.065378 
L 228.44102 137.696798 
L 227.742855 131.996386 
L 227.07424 126.22013 
L 226.433881 120.369371 
L 225.820538 114.445363 
L 225.233019 108.449284 
L 224.670182 102.382232 
L 224.130931 96.245233 
L 223.614218 90.03924 
L 223.119034 83.765137 
L 222.644417 77.423743 
" clip-path="url(#p05b3d13a71)" style="fill: none; stroke: #1f77b4; stroke-width: 1.5; stroke-linecap: square"/>
   </g>
   <g id="line2d_62">
    <path d="M 227.499444 203.014659 
L 224.44472 197.348112 
L 222.239633 192.066421 
L 221.412995 185.27421 
L 222.683469 179.526443 
L 217.459374 181.405127 
L 216.73137 175.043797 
L 216.290809 168.438078 
L 215.875141 161.844404 
L 210.132452 153.573815 
L 210.268099 147.009085 
L 210.395636 140.413198 
L 210.515435 133.785284 
L 210.627849 127.124495 
L 210.733215 120.429998 
L 210.831853 113.700981 
L 210.924068 106.936647 
L 211.010148 100.136214 
L 211.090372 93.298915 
L 211.165 86.423994 
" clip-path="url(#p05b3d13a71)" style="fill: none; stroke: #ff7f0e; stroke-width: 1.5; stroke-linecap: square"/>
   </g>
   <g id="line2d_63">
    <path d="M 204.746339 171.355187 
L 210.47818 168.51527 
L 212.819678 165.433421 
L 213.780284 162.420059 
L 213.830231 158.840884 
L 214.464159 154.354415 
L 214.83678 150.083798 
L 216.244372 145.041061 
L 217.551045 139.760495 
L 228.44102 137.696798 
L 227.742855 131.996386 
L 227.07424 126.22013 
L 226.433881 120.369371 
L 225.820538 114.445363 
L 225.233019 108.449284 
L 224.670182 102.382232 
L 224.130931 96.245233 
L 223.614218 90.03924 
L 223.119034 83.765137 
L 222.644417 77.423743 
" clip-path="url(#p05b3d13a71)" style="fill: none; stroke: #2ca02c; stroke-width: 1.5; stroke-linecap: square"/>
   </g>
   <g id="line2d_64">
    <path d="M 252.87474 229.215693 
L 243.579428 220.615686 
L 236.287652 212.202339 
L 232.003196 202.948313 
L 227.498738 194.254115 
L 217.149197 182.796085 
L 216.73137 175.043797 
L 216.290809 168.438078 
L 215.875141 161.844404 
L 210.132452 153.573815 
L 210.268099 147.009085 
L 210.395636 140.413198 
L 210.515435 133.785284 
L 210.627849 127.124495 
L 210.733215 120.429998 
L 210.831853 113.700981 
L 210.924068 106.936647 
L 211.010148 100.136214 
L 211.090372 93.298915 
L 211.165 86.423994 
" clip-path="url(#p05b3d13a71)" style="fill: none; stroke: #d62728; stroke-width: 1.5; stroke-linecap: square"/>
   </g>
   <g id="line2d_65">
    <path d="M 218.442292 213.933865 
L 214.863277 207.969599 
L 211.034484 202.956028 
L 211.466133 196.176286 
L 211.912177 189.307932 
L 216.277401 182.519875 
L 216.73137 175.043797 
L 216.290809 168.438078 
L 215.875141 161.844404 
L 210.132452 153.573815 
L 210.268099 147.009085 
L 210.395636 140.413198 
L 210.515435 133.785284 
L 210.627849 127.124495 
L 210.733215 120.429998 
L 210.831853 113.700981 
L 210.924068 106.936647 
L 211.010148 100.136214 
L 211.090372 93.298915 
L 211.165 86.423994 
" clip-path="url(#p05b3d13a71)" style="fill: none; stroke: #9467bd; stroke-width: 1.5; stroke-linecap: square"/>
   </g>
   <g id="line2d_66">
    <path d="M 245.348036 210.997924 
L 239.555315 205.551912 
L 235.395652 200.409347 
L 223.460082 196.171686 
L 219.195345 188.813029 
L 217.130124 181.714547 
L 216.73137 175.043797 
L 216.290809 168.438078 
L 215.875141 161.844404 
L 210.132452 153.573815 
L 210.268099 147.009085 
L 210.395636 140.413198 
L 210.515435 133.785284 
L 210.627849 127.124495 
L 210.733215 120.429998 
L 210.831853 113.700981 
L 210.924068 106.936647 
L 211.010148 100.136214 
L 211.090372 93.298915 
L 211.165 86.423994 
" clip-path="url(#p05b3d13a71)" style="fill: none; stroke: #8c564b; stroke-width: 1.5; stroke-linecap: square"/>
   </g>
   <g id="line2d_67">
    <path d="M 264.718736 184.685168 
L 256.710407 180.891949 
L 248.375849 175.893529 
L 243.319011 170.820952 
L 241.511176 167.427819 
L 238.977561 161.944681 
L 236.972936 156.894729 
L 235.86936 151.048592 
L 234.94557 145.065378 
L 228.44102 137.696798 
L 227.742855 131.996386 
L 227.07424 126.22013 
L 226.433881 120.369371 
L 225.820538 114.445363 
L 225.233019 108.449284 
L 224.670182 102.382232 
L 224.130931 96.245233 
L 223.614218 90.03924 
L 223.119034 83.765137 
L 222.644417 77.423743 
" clip-path="url(#p05b3d13a71)" style="fill: none; stroke: #e377c2; stroke-width: 1.5; stroke-linecap: square"/>
   </g>
   <g id="line2d_68">
    <path d="M 255.402965 224.515687 
L 246.942985 216.669166 
L 237.773787 210.660149 
L 232.33297 202.585032 
L 227.498738 194.254115 
L 217.149197 182.796085 
L 216.73137 175.043797 
L 216.290809 168.438078 
L 215.875141 161.844404 
L 210.132452 153.573815 
L 210.268099 147.009085 
L 210.395636 140.413198 
L 210.515435 133.785284 
L 210.627849 127.124495 
L 210.733215 120.429998 
L 210.831853 113.700981 
L 210.924068 106.936647 
L 211.010148 100.136214 
L 211.090372 93.298915 
L 211.165 86.423994 
" clip-path="url(#p05b3d13a71)" style="fill: none; stroke: #7f7f7f; stroke-width: 1.5; stroke-linecap: square"/>
   </g>
   <g id="line2d_69">
    <path d="M 222.119675 214.563341 
L 217.828588 208.269854 
L 213.221755 203.634738 
L 212.528619 196.496141 
L 212.586125 189.517631 
L 216.277401 182.519875 
L 216.73137 175.043797 
L 216.290809 168.438078 
L 215.875141 161.844404 
L 210.132452 153.573815 
L 210.268099 147.009085 
L 210.395636 140.413198 
L 210.515435 133.785284 
L 210.627849 127.124495 
L 210.733215 120.429998 
L 210.831853 113.700981 
L 210.924068 106.936647 
L 211.010148 100.136214 
L 211.090372 93.298915 
L 211.165 86.423994 
" clip-path="url(#p05b3d13a71)" style="fill: none; stroke: #bcbd22; stroke-width: 1.5; stroke-linecap: square"/>
   </g>
   <g id="line2d_70">
    <path d="M 229.228322 180.24468 
L 229.419256 176.469881 
L 230.729972 173.00076 
L 232.124658 169.151702 
L 234.856044 165.324507 
L 238.782949 161.887072 
L 236.972936 156.894729 
L 235.86936 151.048592 
L 234.94557 145.065378 
L 228.44102 137.696798 
L 227.742855 131.996386 
L 227.07424 126.22013 
L 226.433881 120.369371 
L 225.820538 114.445363 
L 225.233019 108.449284 
L 224.670182 102.382232 
L 224.130931 96.245233 
L 223.614218 90.03924 
L 223.119034 83.765137 
L 222.644417 77.423743 
" clip-path="url(#p05b3d13a71)" style="fill: none; stroke: #17becf; stroke-width: 1.5; stroke-linecap: square"/>
   </g>
   <g id="line2d_71">
    <path d="M 190.573489 203.757445 
L 190.148991 198.671049 
L 186.373064 194.725906 
L 186.926847 188.526068 
L 188.282811 182.032515 
L 191.207727 174.922106 
L 194.221285 168.283678 
L 196.328851 162.501295 
L 198.162833 156.631743 
L 210.132452 153.573815 
L 210.268099 147.009085 
L 210.395636 140.413198 
L 210.515435 133.785284 
L 210.627849 127.124495 
L 210.733215 120.429998 
L 210.831853 113.700981 
L 210.924068 106.936647 
L 211.010148 100.136214 
L 211.090372 93.298915 
L 211.165 86.423994 
" clip-path="url(#p05b3d13a71)" style="fill: none; stroke: #1f77b4; stroke-width: 1.5; stroke-linecap: square"/>
   </g>
   <g id="line2d_72">
    <path d="M 201.165749 216.727372 
L 203.986148 210.478322 
L 206.92866 203.475844 
L 209.668667 196.049046 
L 211.912177 189.307932 
L 216.277401 182.519875 
L 216.73137 175.043797 
L 216.290809 168.438078 
L 215.875141 161.844404 
L 210.132452 153.573815 
L 210.268099 147.009085 
L 210.395636 140.413198 
L 210.515435 133.785284 
L 210.627849 127.124495 
L 210.733215 120.429998 
L 210.831853 113.700981 
L 210.924068 106.936647 
L 211.010148 100.136214 
L 211.090372 93.298915 
L 211.165 86.423994 
" clip-path="url(#p05b3d13a71)" style="fill: none; stroke: #ff7f0e; stroke-width: 1.5; stroke-linecap: square"/>
   </g>
   <g id="line2d_73">
    <path d="M 240.236736 219.789323 
L 235.00036 213.104226 
L 230.276148 208.579249 
L 225.733827 200.672526 
L 217.22612 190.899326 
L 216.277401 182.519875 
L 216.73137 175.043797 
L 216.290809 168.438078 
L 215.875141 161.844404 
L 210.132452 153.573815 
L 210.268099 147.009085 
L 210.395636 140.413198 
L 210.515435 133.785284 
L 210.627849 127.124495 
L 210.733215 120.429998 
L 210.831853 113.700981 
L 210.924068 106.936647 
L 211.010148 100.136214 
L 211.090372 93.298915 
L 211.165 86.423994 
" clip-path="url(#p05b3d13a71)" style="fill: none; stroke: #2ca02c; stroke-width: 1.5; stroke-linecap: square"/>
   </g>
   <g id="line2d_74">
    <path d="M 225.434311 203.077509 
L 222.331716 197.956951 
L 219.790403 193.011366 
L 217.732451 188.657206 
L 214.415276 186.971959 
L 217.130124 181.714547 
L 216.73137 175.043797 
L 216.290809 168.438078 
L 215.875141 161.844404 
L 210.132452 153.573815 
L 210.268099 147.009085 
L 210.395636 140.413198 
L 210.515435 133.785284 
L 210.627849 127.124495 
L 210.733215 120.429998 
L 210.831853 113.700981 
L 210.924068 106.936647 
L 211.010148 100.136214 
L 211.090372 93.298915 
L 211.165 86.423994 
" clip-path="url(#p05b3d13a71)" style="fill: none; stroke: #d62728; stroke-width: 1.5; stroke-linecap: square"/>
   </g>
   <g id="line2d_75">
    <path d="M 244.234622 215.725155 
L 240.26296 208.057068 
L 237.771902 201.780332 
L 228.833867 198.025237 
L 219.516115 188.921469 
L 217.130124 181.714547 
L 216.73137 175.043797 
L 216.290809 168.438078 
L 215.875141 161.844404 
L 210.132452 153.573815 
L 210.268099 147.009085 
L 210.395636 140.413198 
L 210.515435 133.785284 
L 210.627849 127.124495 
L 210.733215 120.429998 
L 210.831853 113.700981 
L 210.924068 106.936647 
L 211.010148 100.136214 
L 211.090372 93.298915 
L 211.165 86.423994 
" clip-path="url(#p05b3d13a71)" style="fill: none; stroke: #9467bd; stroke-width: 1.5; stroke-linecap: square"/>
   </g>
   <g id="line2d_76">
    <path d="M 171.455059 210.34054 
L 175.512109 202.187917 
L 180.305383 195.352691 
L 184.567305 188.44952 
L 187.811631 181.897776 
L 191.207727 174.922106 
L 194.221285 168.283678 
L 196.328851 162.501295 
L 198.162833 156.631743 
L 210.132452 153.573815 
L 210.268099 147.009085 
L 210.395636 140.413198 
L 210.515435 133.785284 
L 210.627849 127.124495 
L 210.733215 120.429998 
L 210.831853 113.700981 
L 210.924068 106.936647 
L 211.010148 100.136214 
L 211.090372 93.298915 
L 211.165 86.423994 
" clip-path="url(#p05b3d13a71)" style="fill: none; stroke: #8c564b; stroke-width: 1.5; stroke-linecap: square"/>
   </g>
   <g id="line2d_77">
    <path d="M 239.273852 203.210253 
L 236.494156 196.10481 
L 230.357492 189.870049 
L 226.08438 184.03596 
L 224.069553 179.073835 
L 224.920291 174.744618 
L 217.075102 174.72521 
L 216.290809 168.438078 
L 215.875141 161.844404 
L 210.132452 153.573815 
L 210.268099 147.009085 
L 210.395636 140.413198 
L 210.515435 133.785284 
L 210.627849 127.124495 
L 210.733215 120.429998 
L 210.831853 113.700981 
L 210.924068 106.936647 
L 211.010148 100.136214 
L 211.090372 93.298915 
L 211.165 86.423994 
" clip-path="url(#p05b3d13a71)" style="fill: none; stroke: #e377c2; stroke-width: 1.5; stroke-linecap: square"/>
   </g>
   <g id="line2d_78">
    <path d="M 208.543745 205.069043 
L 210.768811 199.462988 
L 213.608497 195.155736 
L 212.142222 192.811747 
L 214.077648 187.282596 
L 217.130124 181.714547 
L 216.73137 175.043797 
L 216.290809 168.438078 
L 215.875141 161.844404 
L 210.132452 153.573815 
L 210.268099 147.009085 
L 210.395636 140.413198 
L 210.515435 133.785284 
L 210.627849 127.124495 
L 210.733215 120.429998 
L 210.831853 113.700981 
L 210.924068 106.936647 
L 211.010148 100.136214 
L 211.090372 93.298915 
L 211.165 86.423994 
" clip-path="url(#p05b3d13a71)" style="fill: none; stroke: #7f7f7f; stroke-width: 1.5; stroke-linecap: square"/>
   </g>
   <g id="line2d_79">
    <path d="M 213.151861 178.033471 
L 212.390441 171.531589 
L 212.833806 167.377339 
L 213.438596 163.263586 
L 213.830231 158.840884 
L 214.464159 154.354415 
L 214.83678 150.083798 
L 216.244372 145.041061 
L 217.551045 139.760495 
L 228.44102 137.696798 
L 227.742855 131.996386 
L 227.07424 126.22013 
L 226.433881 120.369371 
L 225.820538 114.445363 
L 225.233019 108.449284 
L 224.670182 102.382232 
L 224.130931 96.245233 
L 223.614218 90.03924 
L 223.119034 83.765137 
L 222.644417 77.423743 
" clip-path="url(#p05b3d13a71)" style="fill: none; stroke: #bcbd22; stroke-width: 1.5; stroke-linecap: square"/>
   </g>
   <g id="line2d_80">
    <path d="M 231.57056 202.927467 
L 228.900283 195.101319 
L 227.21408 189.385641 
L 225.703272 184.388046 
L 223.351709 179.739882 
L 217.459374 181.405127 
L 216.73137 175.043797 
L 216.290809 168.438078 
L 215.875141 161.844404 
L 210.132452 153.573815 
L 210.268099 147.009085 
L 210.395636 140.413198 
L 210.515435 133.785284 
L 210.627849 127.124495 
L 210.733215 120.429998 
L 210.831853 113.700981 
L 210.924068 106.936647 
L 211.010148 100.136214 
L 211.090372 93.298915 
L 211.165 86.423994 
" clip-path="url(#p05b3d13a71)" style="fill: none; stroke: #17becf; stroke-width: 1.5; stroke-linecap: square"/>
   </g>
   <g id="line2d_81">
    <path d="M 195.492424 218.201609 
L 200.541754 210.15119 
L 204.921274 203.100056 
L 208.779523 195.976607 
L 211.912177 189.307932 
L 216.277401 182.519875 
L 216.73137 175.043797 
L 216.290809 168.438078 
L 215.875141 161.844404 
L 210.132452 153.573815 
L 210.268099 147.009085 
L 210.395636 140.413198 
L 210.515435 133.785284 
L 210.627849 127.124495 
L 210.733215 120.429998 
L 210.831853 113.700981 
L 210.924068 106.936647 
L 211.010148 100.136214 
L 211.090372 93.298915 
L 211.165 86.423994 
" clip-path="url(#p05b3d13a71)" style="fill: none; stroke: #1f77b4; stroke-width: 1.5; stroke-linecap: square"/>
   </g>
   <g id="line2d_82">
    <path d="M 213.37407 196.596016 
L 214.697342 190.770669 
L 217.39308 186.397639 
L 220.068135 182.721705 
L 221.470765 179.174979 
L 217.459374 181.405127 
L 216.73137 175.043797 
L 216.290809 168.438078 
L 215.875141 161.844404 
L 210.132452 153.573815 
L 210.268099 147.009085 
L 210.395636 140.413198 
L 210.515435 133.785284 
L 210.627849 127.124495 
L 210.733215 120.429998 
L 210.831853 113.700981 
L 210.924068 106.936647 
L 211.010148 100.136214 
L 211.090372 93.298915 
L 211.165 86.423994 
" clip-path="url(#p05b3d13a71)" style="fill: none; stroke: #ff7f0e; stroke-width: 1.5; stroke-linecap: square"/>
   </g>
   <g id="line2d_83">
    <path d="M 178.879307 219.375626 
L 184.096961 210.28334 
L 190.08382 198.985987 
L 195.337445 191.704571 
L 200.142887 185.566689 
L 204.802957 178.953794 
L 209.086909 172.643427 
L 209.427494 166.295994 
L 209.80002 159.959144 
L 210.132452 153.573815 
L 210.268099 147.009085 
L 210.395636 140.413198 
L 210.515435 133.785284 
L 210.627849 127.124495 
L 210.733215 120.429998 
L 210.831853 113.700981 
L 210.924068 106.936647 
L 211.010148 100.136214 
L 211.090372 93.298915 
L 211.165 86.423994 
" clip-path="url(#p05b3d13a71)" style="fill: none; stroke: #2ca02c; stroke-width: 1.5; stroke-linecap: square"/>
   </g>
   <g id="line2d_84">
    <path d="M 206.950183 208.941456 
L 209.541944 204.436105 
L 209.608275 200.597556 
L 209.476031 195.310697 
L 211.912177 189.307932 
L 216.277401 182.519875 
L 216.73137 175.043797 
L 216.290809 168.438078 
L 215.875141 161.844404 
L 210.132452 153.573815 
L 210.268099 147.009085 
L 210.395636 140.413198 
L 210.515435 133.785284 
L 210.627849 127.124495 
L 210.733215 120.429998 
L 210.831853 113.700981 
L 210.924068 106.936647 
L 211.010148 100.136214 
L 211.090372 93.298915 
L 211.165 86.423994 
" clip-path="url(#p05b3d13a71)" style="fill: none; stroke: #d62728; stroke-width: 1.5; stroke-linecap: square"/>
   </g>
   <g id="line2d_85">
    <path d="M 195.55572 219.355605 
L 202.243662 211.118559 
L 206.209754 203.720803 
L 208.779523 195.976607 
L 211.912177 189.307932 
L 216.277401 182.519875 
L 216.73137 175.043797 
L 216.290809 168.438078 
L 215.875141 161.844404 
L 210.132452 153.573815 
L 210.268099 147.009085 
L 210.395636 140.413198 
L 210.515435 133.785284 
L 210.627849 127.124495 
L 210.733215 120.429998 
L 210.831853 113.700981 
L 210.924068 106.936647 
L 211.010148 100.136214 
L 211.090372 93.298915 
L 211.165 86.423994 
" clip-path="url(#p05b3d13a71)" style="fill: none; stroke: #9467bd; stroke-width: 1.5; stroke-linecap: square"/>
   </g>
   <g id="line2d_86">
    <path d="M 185.936124 209.358083 
L 185.907945 203.949721 
L 186.422367 196.567867 
L 186.556181 188.840653 
L 188.282811 182.032515 
L 191.207727 174.922106 
L 194.221285 168.283678 
L 196.328851 162.501295 
L 198.162833 156.631743 
L 210.132452 153.573815 
L 210.268099 147.009085 
L 210.395636 140.413198 
L 210.515435 133.785284 
L 210.627849 127.124495 
L 210.733215 120.429998 
L 210.831853 113.700981 
L 210.924068 106.936647 
L 211.010148 100.136214 
L 211.090372 93.298915 
L 211.165 86.423994 
" clip-path="url(#p05b3d13a71)" style="fill: none; stroke: #8c564b; stroke-width: 1.5; stroke-linecap: square"/>
   </g>
   <g id="line2d_87">
    <path d="M 188.058411 222.601444 
L 192.48752 213.245 
L 201.851823 203.111902 
L 207.966428 195.720951 
L 211.552099 189.185468 
L 216.277401 182.519875 
L 216.73137 175.043797 
L 216.290809 168.438078 
L 215.875141 161.844404 
L 210.132452 153.573815 
L 210.268099 147.009085 
L 210.395636 140.413198 
L 210.515435 133.785284 
L 210.627849 127.124495 
L 210.733215 120.429998 
L 210.831853 113.700981 
L 210.924068 106.936647 
L 211.010148 100.136214 
L 211.090372 93.298915 
L 211.165 86.423994 
" clip-path="url(#p05b3d13a71)" style="fill: none; stroke: #e377c2; stroke-width: 1.5; stroke-linecap: square"/>
   </g>
   <g id="line2d_88">
    <path d="M 160.879346 211.82604 
L 169.287696 205.261836 
L 178.894491 195.589683 
L 184.567305 188.44952 
L 187.811631 181.897776 
L 191.207727 174.922106 
L 194.221285 168.283678 
L 196.328851 162.501295 
L 198.162833 156.631743 
L 210.132452 153.573815 
L 210.268099 147.009085 
L 210.395636 140.413198 
L 210.515435 133.785284 
L 210.627849 127.124495 
L 210.733215 120.429998 
L 210.831853 113.700981 
L 210.924068 106.936647 
L 211.010148 100.136214 
L 211.090372 93.298915 
L 211.165 86.423994 
" clip-path="url(#p05b3d13a71)" style="fill: none; stroke: #7f7f7f; stroke-width: 1.5; stroke-linecap: square"/>
   </g>
   <g id="line2d_89">
    <path d="M 179.976778 190.080673 
L 187.51998 188.395957 
L 191.169313 184.867893 
L 191.140463 182.64454 
L 190.558219 179.633893 
L 192.15077 174.141661 
L 194.221285 168.283678 
L 196.328851 162.501295 
L 198.162833 156.631743 
L 210.132452 153.573815 
L 210.268099 147.009085 
L 210.395636 140.413198 
L 210.515435 133.785284 
L 210.627849 127.124495 
L 210.733215 120.429998 
L 210.831853 113.700981 
L 210.924068 106.936647 
L 211.010148 100.136214 
L 211.090372 93.298915 
L 211.165 86.423994 
" clip-path="url(#p05b3d13a71)" style="fill: none; stroke: #bcbd22; stroke-width: 1.5; stroke-linecap: square"/>
   </g>
   <g id="line2d_90">
    <path d="M 157.929735 207.802907 
L 170.752681 202.538964 
L 179.107132 195.440208 
L 184.567305 188.44952 
L 187.811631 181.897776 
L 191.207727 174.922106 
L 194.221285 168.283678 
L 196.328851 162.501295 
L 198.162833 156.631743 
L 210.132452 153.573815 
L 210.268099 147.009085 
L 210.395636 140.413198 
L 210.515435 133.785284 
L 210.627849 127.124495 
L 210.733215 120.429998 
L 210.831853 113.700981 
L 210.924068 106.936647 
L 211.010148 100.136214 
L 211.090372 93.298915 
L 211.165 86.423994 
" clip-path="url(#p05b3d13a71)" style="fill: none; stroke: #17becf; stroke-width: 1.5; stroke-linecap: square"/>
   </g>
   <g id="line2d_91">
    <path d="M 270.450658 190.94305 
L 265.775027 185.015889 
L 261.555905 179.896643 
L 255.198424 173.893727 
L 242.676868 167.728876 
L 238.977561 161.944681 
L 236.972936 156.894729 
L 235.86936 151.048592 
L 234.94557 145.065378 
L 228.44102 137.696798 
L 227.742855 131.996386 
L 227.07424 126.22013 
L 226.433881 120.369371 
L 225.820538 114.445363 
L 225.233019 108.449284 
L 224.670182 102.382232 
L 224.130931 96.245233 
L 223.614218 90.03924 
L 223.119034 83.765137 
L 222.644417 77.423743 
" clip-path="url(#p05b3d13a71)" style="fill: none; stroke: #1f77b4; stroke-width: 1.5; stroke-linecap: square"/>
   </g>
   <g id="line2d_92">
    <path d="M 186.465334 205.711769 
L 186.566551 200.36276 
L 185.100288 195.349224 
L 186.019559 188.241022 
L 187.811631 181.897776 
L 191.207727 174.922106 
L 194.221285 168.283678 
L 196.328851 162.501295 
L 198.162833 156.631743 
L 210.132452 153.573815 
L 210.268099 147.009085 
L 210.395636 140.413198 
L 210.515435 133.785284 
L 210.627849 127.124495 
L 210.733215 120.429998 
L 210.831853 113.700981 
L 210.924068 106.936647 
L 211.010148 100.136214 
L 211.090372 93.298915 
L 211.165 86.423994 
" clip-path="url(#p05b3d13a71)" style="fill: none; stroke: #ff7f0e; stroke-width: 1.5; stroke-linecap: square"/>
   </g>
   <g id="line2d_93">
    <path d="M 167.757542 210.464412 
L 173.624031 202.711174 
L 179.89778 195.686826 
L 184.567305 188.44952 
L 187.811631 181.897776 
L 191.207727 174.922106 
L 194.221285 168.283678 
L 196.328851 162.501295 
L 198.162833 156.631743 
L 210.132452 153.573815 
L 210.268099 147.009085 
L 210.395636 140.413198 
L 210.515435 133.785284 
L 210.627849 127.124495 
L 210.733215 120.429998 
L 210.831853 113.700981 
L 210.924068 106.936647 
L 211.010148 100.136214 
L 211.090372 93.298915 
L 211.165 86.423994 
" clip-path="url(#p05b3d13a71)" style="fill: none; stroke: #2ca02c; stroke-width: 1.5; stroke-linecap: square"/>
   </g>
   <g id="line2d_94">
    <path d="M 214.058389 231.12477 
L 213.282242 220.048387 
L 213.321541 206.701186 
L 212.31375 197.078933 
L 212.910557 189.618578 
L 216.277401 182.519875 
L 216.73137 175.043797 
L 216.290809 168.438078 
L 215.875141 161.844404 
L 210.132452 153.573815 
L 210.268099 147.009085 
L 210.395636 140.413198 
L 210.515435 133.785284 
L 210.627849 127.124495 
L 210.733215 120.429998 
L 210.831853 113.700981 
L 210.924068 106.936647 
L 211.010148 100.136214 
L 211.090372 93.298915 
L 211.165 86.423994 
" clip-path="url(#p05b3d13a71)" style="fill: none; stroke: #d62728; stroke-width: 1.5; stroke-linecap: square"/>
   </g>
   <g id="line2d_95">
    <path d="M 221.736235 199.73676 
L 223.402928 193.429806 
L 223.816924 188.33645 
L 223.185934 183.633733 
L 222.683469 179.526443 
L 217.459374 181.405127 
L 216.73137 175.043797 
L 216.290809 168.438078 
L 215.875141 161.844404 
L 210.132452 153.573815 
L 210.268099 147.009085 
L 210.395636 140.413198 
L 210.515435 133.785284 
L 210.627849 127.124495 
L 210.733215 120.429998 
L 210.831853 113.700981 
L 210.924068 106.936647 
L 211.010148 100.136214 
L 211.090372 93.298915 
L 211.165 86.423994 
" clip-path="url(#p05b3d13a71)" style="fill: none; stroke: #9467bd; stroke-width: 1.5; stroke-linecap: square"/>
   </g>
   <g id="line2d_96">
    <path d="M 242.238797 196.824821 
L 237.653886 191.36125 
L 233.654747 184.604544 
L 232.726186 177.862797 
L 234.232932 169.780606 
L 236.599618 164.072186 
L 236.972936 156.894729 
L 235.86936 151.048592 
L 234.94557 145.065378 
L 228.44102 137.696798 
L 227.742855 131.996386 
L 227.07424 126.22013 
L 226.433881 120.369371 
L 225.820538 114.445363 
L 225.233019 108.449284 
L 224.670182 102.382232 
L 224.130931 96.245233 
L 223.614218 90.03924 
L 223.119034 83.765137 
L 222.644417 77.423743 
" clip-path="url(#p05b3d13a71)" style="fill: none; stroke: #8c564b; stroke-width: 1.5; stroke-linecap: square"/>
   </g>
   <g id="line2d_97">
    <path d="M 173.664293 201.23894 
L 178.838236 197.2865 
L 181.498445 193.95548 
L 185.120098 187.977728 
L 187.811631 181.897776 
L 191.207727 174.922106 
L 194.221285 168.283678 
L 196.328851 162.501295 
L 198.162833 156.631743 
L 210.132452 153.573815 
L 210.268099 147.009085 
L 210.395636 140.413198 
L 210.515435 133.785284 
L 210.627849 127.124495 
L 210.733215 120.429998 
L 210.831853 113.700981 
L 210.924068 106.936647 
L 211.010148 100.136214 
L 211.090372 93.298915 
L 211.165 86.423994 
" clip-path="url(#p05b3d13a71)" style="fill: none; stroke: #e377c2; stroke-width: 1.5; stroke-linecap: square"/>
   </g>
   <g id="line2d_98">
    <path d="M 214.542159 223.852653 
L 213.776053 214.338499 
L 211.893409 205.27572 
L 212.025752 196.98838 
L 212.586125 189.517631 
L 216.277401 182.519875 
L 216.73137 175.043797 
L 216.290809 168.438078 
L 215.875141 161.844404 
L 210.132452 153.573815 
L 210.268099 147.009085 
L 210.395636 140.413198 
L 210.515435 133.785284 
L 210.627849 127.124495 
L 210.733215 120.429998 
L 210.831853 113.700981 
L 210.924068 106.936647 
L 211.010148 100.136214 
L 211.090372 93.298915 
L 211.165 86.423994 
" clip-path="url(#p05b3d13a71)" style="fill: none; stroke: #7f7f7f; stroke-width: 1.5; stroke-linecap: square"/>
   </g>
   <g id="line2d_99">
    <path d="M 184.544987 206.123463 
L 183.91436 200.777187 
L 183.140682 195.0028 
L 186.019559 188.241022 
L 187.811631 181.897776 
L 191.207727 174.922106 
L 194.221285 168.283678 
L 196.328851 162.501295 
L 198.162833 156.631743 
L 210.132452 153.573815 
L 210.268099 147.009085 
L 210.395636 140.413198 
L 210.515435 133.785284 
L 210.627849 127.124495 
L 210.733215 120.429998 
L 210.831853 113.700981 
L 210.924068 106.936647 
L 211.010148 100.136214 
L 211.090372 93.298915 
L 211.165 86.423994 
" clip-path="url(#p05b3d13a71)" style="fill: none; stroke: #bcbd22; stroke-width: 1.5; stroke-linecap: square"/>
   </g>
   <g id="line2d_100">
    <path d="M 256.177133 181.813849 
L 249.227703 178.966811 
L 244.316952 174.819618 
L 241.205115 170.162242 
L 238.36072 166.442124 
L 238.977561 161.944681 
L 236.972936 156.894729 
L 235.86936 151.048592 
L 234.94557 145.065378 
L 228.44102 137.696798 
L 227.742855 131.996386 
L 227.07424 126.22013 
L 226.433881 120.369371 
L 225.820538 114.445363 
L 225.233019 108.449284 
L 224.670182 102.382232 
L 224.130931 96.245233 
L 223.614218 90.03924 
L 223.119034 83.765137 
L 222.644417 77.423743 
" clip-path="url(#p05b3d13a71)" style="fill: none; stroke: #17becf; stroke-width: 1.5; stroke-linecap: square"/>
   </g>
   <g id="line2d_101">
    <path d="M 213.875866 187.623491 
L 213.475913 183.728648 
L 212.832546 178.411364 
L 215.273664 173.414075 
L 221.792501 166.1653 
L 225.12204 160.818454 
L 229.062751 154.866371 
L 228.73731 149.257825 
L 228.602182 143.510451 
L 228.44102 137.696798 
L 227.742855 131.996386 
L 227.07424 126.22013 
L 226.433881 120.369371 
L 225.820538 114.445363 
L 225.233019 108.449284 
L 224.670182 102.382232 
L 224.130931 96.245233 
L 223.614218 90.03924 
L 223.119034 83.765137 
L 222.644417 77.423743 
" clip-path="url(#p05b3d13a71)" style="fill: none; stroke: #1f77b4; stroke-width: 1.5; stroke-linecap: square"/>
   </g>
   <g id="line2d_102">
    <path d="M 248.609295 178.168235 
L 244.516172 177.352601 
L 241.034805 173.85948 
L 238.771125 169.398813 
L 237.412519 166.103115 
L 238.977561 161.944681 
L 236.972936 156.894729 
L 235.86936 151.048592 
L 234.94557 145.065378 
L 228.44102 137.696798 
L 227.742855 131.996386 
L 227.07424 126.22013 
L 226.433881 120.369371 
L 225.820538 114.445363 
L 225.233019 108.449284 
L 224.670182 102.382232 
L 224.130931 96.245233 
L 223.614218 90.03924 
L 223.119034 83.765137 
L 222.644417 77.423743 
" clip-path="url(#p05b3d13a71)" style="fill: none; stroke: #ff7f0e; stroke-width: 1.5; stroke-linecap: square"/>
   </g>
   <g id="line2d_103">
    <path d="M 203.076962 210.729097 
L 204.891282 205.827997 
L 206.350421 201.776148 
L 209.285487 195.48576 
L 211.912177 189.307932 
L 216.277401 182.519875 
L 216.73137 175.043797 
L 216.290809 168.438078 
L 215.875141 161.844404 
L 210.132452 153.573815 
L 210.268099 147.009085 
L 210.395636 140.413198 
L 210.515435 133.785284 
L 210.627849 127.124495 
L 210.733215 120.429998 
L 210.831853 113.700981 
L 210.924068 106.936647 
L 211.010148 100.136214 
L 211.090372 93.298915 
L 211.165 86.423994 
" clip-path="url(#p05b3d13a71)" style="fill: none; stroke: #2ca02c; stroke-width: 1.5; stroke-linecap: square"/>
   </g>
   <g id="line2d_104">
    <path d="M 240.129108 183.532442 
L 239.495184 179.486644 
L 238.843631 175.38604 
L 237.401959 170.632027 
L 237.412519 166.103115 
L 238.977561 161.944681 
L 236.972936 156.894729 
L 235.86936 151.048592 
L 234.94557 145.065378 
L 228.44102 137.696798 
L 227.742855 131.996386 
L 227.07424 126.22013 
L 226.433881 120.369371 
L 225.820538 114.445363 
L 225.233019 108.449284 
L 224.670182 102.382232 
L 224.130931 96.245233 
L 223.614218 90.03924 
L 223.119034 83.765137 
L 222.644417 77.423743 
" clip-path="url(#p05b3d13a71)" style="fill: none; stroke: #d62728; stroke-width: 1.5; stroke-linecap: square"/>
   </g>
   <g id="line2d_105">
    <path d="M 213.641765 185.512211 
L 213.357283 181.017915 
L 213.671217 174.297172 
L 214.687518 167.862424 
L 213.270644 161.664045 
L 213.876224 154.89152 
L 214.83678 150.083798 
L 216.244372 145.041061 
L 217.551045 139.760495 
L 228.44102 137.696798 
L 227.742855 131.996386 
L 227.07424 126.22013 
L 226.433881 120.369371 
L 225.820538 114.445363 
L 225.233019 108.449284 
L 224.670182 102.382232 
L 224.130931 96.245233 
L 223.614218 90.03924 
L 223.119034 83.765137 
L 222.644417 77.423743 
" clip-path="url(#p05b3d13a71)" style="fill: none; stroke: #9467bd; stroke-width: 1.5; stroke-linecap: square"/>
   </g>
   <g id="line2d_106">
    <path d="M 157.953492 210.870624 
L 168.353105 205.155035 
L 178.894491 195.589683 
L 184.567305 188.44952 
L 187.811631 181.897776 
L 191.207727 174.922106 
L 194.221285 168.283678 
L 196.328851 162.501295 
L 198.162833 156.631743 
L 210.132452 153.573815 
L 210.268099 147.009085 
L 210.395636 140.413198 
L 210.515435 133.785284 
L 210.627849 127.124495 
L 210.733215 120.429998 
L 210.831853 113.700981 
L 210.924068 106.936647 
L 211.010148 100.136214 
L 211.090372 93.298915 
L 211.165 86.423994 
" clip-path="url(#p05b3d13a71)" style="fill: none; stroke: #8c564b; stroke-width: 1.5; stroke-linecap: square"/>
   </g>
   <g id="line2d_107">
    <path d="M 237.77296 202.795468 
L 235.369838 195.793137 
L 229.630578 189.662764 
L 226.08438 184.03596 
L 224.069553 179.073835 
L 224.920291 174.744618 
L 217.075102 174.72521 
L 216.290809 168.438078 
L 215.875141 161.844404 
L 210.132452 153.573815 
L 210.268099 147.009085 
L 210.395636 140.413198 
L 210.515435 133.785284 
L 210.627849 127.124495 
L 210.733215 120.429998 
L 210.831853 113.700981 
L 210.924068 106.936647 
L 211.010148 100.136214 
L 211.090372 93.298915 
L 211.165 86.423994 
" clip-path="url(#p05b3d13a71)" style="fill: none; stroke: #e377c2; stroke-width: 1.5; stroke-linecap: square"/>
   </g>
   <g id="line2d_108">
    <path d="M 186.62248 189.433761 
L 191.170695 186.12849 
L 194.383181 182.256148 
L 197.936959 176.30528 
L 198.525352 172.166352 
L 192.518992 173.844191 
L 194.221285 168.283678 
L 196.328851 162.501295 
L 198.162833 156.631743 
L 210.132452 153.573815 
L 210.268099 147.009085 
L 210.395636 140.413198 
L 210.515435 133.785284 
L 210.627849 127.124495 
L 210.733215 120.429998 
L 210.831853 113.700981 
L 210.924068 106.936647 
L 211.010148 100.136214 
L 211.090372 93.298915 
L 211.165 86.423994 
" clip-path="url(#p05b3d13a71)" style="fill: none; stroke: #7f7f7f; stroke-width: 1.5; stroke-linecap: square"/>
   </g>
   <g id="line2d_109">
    <path d="M 228.538951 207.350307 
L 223.236746 202.232584 
L 220.604805 196.473636 
L 215.371169 193.814458 
L 214.417451 187.387935 
L 217.130124 181.714547 
L 216.73137 175.043797 
L 216.290809 168.438078 
L 215.875141 161.844404 
L 210.132452 153.573815 
L 210.268099 147.009085 
L 210.395636 140.413198 
L 210.515435 133.785284 
L 210.627849 127.124495 
L 210.733215 120.429998 
L 210.831853 113.700981 
L 210.924068 106.936647 
L 211.010148 100.136214 
L 211.090372 93.298915 
L 211.165 86.423994 
" clip-path="url(#p05b3d13a71)" style="fill: none; stroke: #bcbd22; stroke-width: 1.5; stroke-linecap: square"/>
   </g>
   <g id="line2d_110">
    <path d="M 244.484747 218.687617 
L 243.997732 212.047476 
L 239.793025 205.843078 
L 233.589221 200.289016 
L 224.146409 191.690646 
L 217.999859 181.988703 
L 216.73137 175.043797 
L 216.290809 168.438078 
L 215.875141 161.844404 
L 210.132452 153.573815 
L 210.268099 147.009085 
L 210.395636 140.413198 
L 210.515435 133.785284 
L 210.627849 127.124495 
L 210.733215 120.429998 
L 210.831853 113.700981 
L 210.924068 106.936647 
L 211.010148 100.136214 
L 211.090372 93.298915 
L 211.165 86.423994 
" clip-path="url(#p05b3d13a71)" style="fill: none; stroke: #17becf; stroke-width: 1.5; stroke-linecap: square"/>
   </g>
   <g id="line2d_111">
    <path d="M 179.738726 210.422723 
L 180.944438 203.405427 
L 182.256204 195.715998 
L 185.469603 188.712372 
L 187.811631 181.897776 
L 191.207727 174.922106 
L 194.221285 168.283678 
L 196.328851 162.501295 
L 198.162833 156.631743 
L 210.132452 153.573815 
L 210.268099 147.009085 
L 210.395636 140.413198 
L 210.515435 133.785284 
L 210.627849 127.124495 
L 210.733215 120.429998 
L 210.831853 113.700981 
L 210.924068 106.936647 
L 211.010148 100.136214 
L 211.090372 93.298915 
L 211.165 86.423994 
" clip-path="url(#p05b3d13a71)" style="fill: none; stroke: #1f77b4; stroke-width: 1.5; stroke-linecap: square"/>
   </g>
   <g id="line2d_112">
    <path d="M 214.544791 214.065552 
L 211.948302 207.735473 
L 209.293378 202.690347 
L 210.008466 195.723397 
L 211.912177 189.307932 
L 216.277401 182.519875 
L 216.73137 175.043797 
L 216.290809 168.438078 
L 215.875141 161.844404 
L 210.132452 153.573815 
L 210.268099 147.009085 
L 210.395636 140.413198 
L 210.515435 133.785284 
L 210.627849 127.124495 
L 210.733215 120.429998 
L 210.831853 113.700981 
L 210.924068 106.936647 
L 211.010148 100.136214 
L 211.090372 93.298915 
L 211.165 86.423994 
" clip-path="url(#p05b3d13a71)" style="fill: none; stroke: #ff7f0e; stroke-width: 1.5; stroke-linecap: square"/>
   </g>
   <g id="line2d_113">
    <path d="M 271.752533 191.421689 
L 269.864592 186.238965 
L 265.549236 181.01003 
L 261.029931 175.485988 
L 253.562944 170.457535 
L 239.898416 162.165588 
L 236.972936 156.894729 
L 235.86936 151.048592 
L 234.94557 145.065378 
L 228.44102 137.696798 
L 227.742855 131.996386 
L 227.07424 126.22013 
L 226.433881 120.369371 
L 225.820538 114.445363 
L 225.233019 108.449284 
L 224.670182 102.382232 
L 224.130931 96.245233 
L 223.614218 90.03924 
L 223.119034 83.765137 
L 222.644417 77.423743 
" clip-path="url(#p05b3d13a71)" style="fill: none; stroke: #2ca02c; stroke-width: 1.5; stroke-linecap: square"/>
   </g>
   <g id="line2d_114">
    <path d="M 239.369632 192.240512 
L 236.153218 186.383614 
L 236.547982 178.81776 
L 234.995203 172.80887 
L 236.742411 166.713584 
L 238.397321 162.463581 
L 236.972936 156.894729 
L 235.86936 151.048592 
L 234.94557 145.065378 
L 228.44102 137.696798 
L 227.742855 131.996386 
L 227.07424 126.22013 
L 226.433881 120.369371 
L 225.820538 114.445363 
L 225.233019 108.449284 
L 224.670182 102.382232 
L 224.130931 96.245233 
L 223.614218 90.03924 
L 223.119034 83.765137 
L 222.644417 77.423743 
" clip-path="url(#p05b3d13a71)" style="fill: none; stroke: #d62728; stroke-width: 1.5; stroke-linecap: square"/>
   </g>
   <g id="line2d_115">
    <path d="M 208.284554 181.46809 
L 206.929403 175.142152 
L 210.054665 169.449152 
L 212.379085 163.723673 
L 213.830231 158.840884 
L 214.464159 154.354415 
L 214.83678 150.083798 
L 216.244372 145.041061 
L 217.551045 139.760495 
L 228.44102 137.696798 
L 227.742855 131.996386 
L 227.07424 126.22013 
L 226.433881 120.369371 
L 225.820538 114.445363 
L 225.233019 108.449284 
L 224.670182 102.382232 
L 224.130931 96.245233 
L 223.614218 90.03924 
L 223.119034 83.765137 
L 222.644417 77.423743 
" clip-path="url(#p05b3d13a71)" style="fill: none; stroke: #9467bd; stroke-width: 1.5; stroke-linecap: square"/>
   </g>
   <g id="line2d_116">
    <path d="M 192.989672 193.020726 
L 192.122113 188.544232 
L 192.748627 184.868819 
L 192.789842 181.190648 
L 190.558219 179.633893 
L 192.15077 174.141661 
L 194.221285 168.283678 
L 196.328851 162.501295 
L 198.162833 156.631743 
L 210.132452 153.573815 
L 210.268099 147.009085 
L 210.395636 140.413198 
L 210.515435 133.785284 
L 210.627849 127.124495 
L 210.733215 120.429998 
L 210.831853 113.700981 
L 210.924068 106.936647 
L 211.010148 100.136214 
L 211.090372 93.298915 
L 211.165 86.423994 
" clip-path="url(#p05b3d13a71)" style="fill: none; stroke: #8c564b; stroke-width: 1.5; stroke-linecap: square"/>
   </g>
   <g id="line2d_117">
    <path d="M 158.001242 212.277974 
L 168.590684 205.429608 
L 178.622722 195.813046 
L 184.567305 188.44952 
L 187.811631 181.897776 
L 191.207727 174.922106 
L 194.221285 168.283678 
L 196.328851 162.501295 
L 198.162833 156.631743 
L 210.132452 153.573815 
L 210.268099 147.009085 
L 210.395636 140.413198 
L 210.515435 133.785284 
L 210.627849 127.124495 
L 210.733215 120.429998 
L 210.831853 113.700981 
L 210.924068 106.936647 
L 211.010148 100.136214 
L 211.090372 93.298915 
L 211.165 86.423994 
" clip-path="url(#p05b3d13a71)" style="fill: none; stroke: #e377c2; stroke-width: 1.5; stroke-linecap: square"/>
   </g>
   <g id="line2d_118">
    <path d="M 187.9897 223.378336 
L 193.781274 213.718093 
L 202.150879 203.196108 
L 207.966428 195.720951 
L 211.552099 189.185468 
L 216.277401 182.519875 
L 216.73137 175.043797 
L 216.290809 168.438078 
L 215.875141 161.844404 
L 210.132452 153.573815 
L 210.268099 147.009085 
L 210.395636 140.413198 
L 210.515435 133.785284 
L 210.627849 127.124495 
L 210.733215 120.429998 
L 210.831853 113.700981 
L 210.924068 106.936647 
L 211.010148 100.136214 
L 211.090372 93.298915 
L 211.165 86.423994 
" clip-path="url(#p05b3d13a71)" style="fill: none; stroke: #7f7f7f; stroke-width: 1.5; stroke-linecap: square"/>
   </g>
   <g id="line2d_119">
    <path d="M 215.122965 175.908404 
L 212.228716 171.10764 
L 212.833806 167.377339 
L 213.438596 163.263586 
L 213.830231 158.840884 
L 214.464159 154.354415 
L 214.83678 150.083798 
L 216.244372 145.041061 
L 217.551045 139.760495 
L 228.44102 137.696798 
L 227.742855 131.996386 
L 227.07424 126.22013 
L 226.433881 120.369371 
L 225.820538 114.445363 
L 225.233019 108.449284 
L 224.670182 102.382232 
L 224.130931 96.245233 
L 223.614218 90.03924 
L 223.119034 83.765137 
L 222.644417 77.423743 
" clip-path="url(#p05b3d13a71)" style="fill: none; stroke: #bcbd22; stroke-width: 1.5; stroke-linecap: square"/>
   </g>
   <g id="line2d_120">
    <path d="M 274.977722 212.333417 
L 265.607247 203.758875 
L 255.034319 196.157494 
L 247.488009 189.581198 
L 242.210345 181.060196 
L 230.58423 170.67022 
L 235.084559 158.571901 
L 235.86936 151.048592 
L 234.94557 145.065378 
L 228.44102 137.696798 
L 227.742855 131.996386 
L 227.07424 126.22013 
L 226.433881 120.369371 
L 225.820538 114.445363 
L 225.233019 108.449284 
L 224.670182 102.382232 
L 224.130931 96.245233 
L 223.614218 90.03924 
L 223.119034 83.765137 
L 222.644417 77.423743 
" clip-path="url(#p05b3d13a71)" style="fill: none; stroke: #17becf; stroke-width: 1.5; stroke-linecap: square"/>
   </g>
   <g id="line2d_121">
    <path d="M 191.953923 221.588217 
L 196.988928 213.30421 
L 204.353691 203.600143 
L 208.779523 195.976607 
L 211.912177 189.307932 
L 216.277401 182.519875 
L 216.73137 175.043797 
L 216.290809 168.438078 
L 215.875141 161.844404 
L 210.132452 153.573815 
L 210.268099 147.009085 
L 210.395636 140.413198 
L 210.515435 133.785284 
L 210.627849 127.124495 
L 210.733215 120.429998 
L 210.831853 113.700981 
L 210.924068 106.936647 
L 211.010148 100.136214 
L 211.090372 93.298915 
L 211.165 86.423994 
" clip-path="url(#p05b3d13a71)" style="fill: none; stroke: #1f77b4; stroke-width: 1.5; stroke-linecap: square"/>
   </g>
   <g id="text_21">
    <!-- 2D model -->
    <g transform="translate(192.372187 28.56)scale(0.12 -0.12)">
     <defs>
      <path id="DejaVuSans-44" d="M 1259 4147 
L 1259 519 
L 2022 519 
Q 2988 519 3436 956 
Q 3884 1394 3884 2338 
Q 3884 3275 3436 3711 
Q 2988 4147 2022 4147 
L 1259 4147 
z
M 628 4666 
L 1925 4666 
Q 3281 4666 3915 4102 
Q 4550 3538 4550 2338 
Q 4550 1131 3912 565 
Q 3275 0 1925 0 
L 628 0 
L 628 4666 
z
" transform="scale(0.015625)"/>
      <path id="DejaVuSans-6d" d="M 3328 2828 
Q 3544 3216 3844 3400 
Q 4144 3584 4550 3584 
Q 5097 3584 5394 3201 
Q 5691 2819 5691 2113 
L 5691 0 
L 5113 0 
L 5113 2094 
Q 5113 2597 4934 2840 
Q 4756 3084 4391 3084 
Q 3944 3084 3684 2787 
Q 3425 2491 3425 1978 
L 3425 0 
L 2847 0 
L 2847 2094 
Q 2847 2600 2669 2842 
Q 2491 3084 2119 3084 
Q 1678 3084 1418 2786 
Q 1159 2488 1159 1978 
L 1159 0 
L 581 0 
L 581 3500 
L 1159 3500 
L 1159 2956 
Q 1356 3278 1631 3431 
Q 1906 3584 2284 3584 
Q 2666 3584 2933 3390 
Q 3200 3197 3328 2828 
z
" transform="scale(0.015625)"/>
      <path id="DejaVuSans-64" d="M 2906 2969 
L 2906 4863 
L 3481 4863 
L 3481 0 
L 2906 0 
L 2906 525 
Q 2725 213 2448 61 
Q 2172 -91 1784 -91 
Q 1150 -91 751 415 
Q 353 922 353 1747 
Q 353 2572 751 3078 
Q 1150 3584 1784 3584 
Q 2172 3584 2448 3432 
Q 2725 3281 2906 2969 
z
M 947 1747 
Q 947 1113 1208 752 
Q 1469 391 1925 391 
Q 2381 391 2643 752 
Q 2906 1113 2906 1747 
Q 2906 2381 2643 2742 
Q 2381 3103 1925 3103 
Q 1469 3103 1208 2742 
Q 947 2381 947 1747 
z
" transform="scale(0.015625)"/>
      <path id="DejaVuSans-6c" d="M 603 4863 
L 1178 4863 
L 1178 0 
L 603 0 
L 603 4863 
z
" transform="scale(0.015625)"/>
     </defs>
     <use xlink:href="#DejaVuSans-32"/>
     <use xlink:href="#DejaVuSans-44" x="63.623047"/>
     <use xlink:href="#DejaVuSans-20" x="140.625"/>
     <use xlink:href="#DejaVuSans-6d" x="172.412109"/>
     <use xlink:href="#DejaVuSans-6f" x="269.824219"/>
     <use xlink:href="#DejaVuSans-64" x="331.005859"/>
     <use xlink:href="#DejaVuSans-65" x="394.482422"/>
     <use xlink:href="#DejaVuSans-6c" x="456.005859"/>
    </g>
   </g>
  </g>
 </g>
 <defs>
  <clipPath id="p05b3d13a71">
   <rect x="112.68" y="34.56" width="217.44" height="217.44"/>
  </clipPath>
 </defs>
</svg>
