<?xml version="1.0" encoding="utf-8" standalone="no"?>
<!DOCTYPE svg PUBLIC "-//W3C//DTD SVG 1.1//EN"
  "http://www.w3.org/Graphics/SVG/1.1/DTD/svg11.dtd">
<svg xmlns:xlink="http://www.w3.org/1999/xlink" width="432pt" height="288pt" viewBox="0 0 432 288" xmlns="http://www.w3.org/2000/svg" version="1.1">
 <metadata>
  <rdf:RDF xmlns:dc="http://purl.org/dc/elements/1.1/" xmlns:cc="http://creativecommons.org/ns#" xmlns:rdf="http://www.w3.org/1999/02/22-rdf-syntax-ns#">
   <cc:Work>
    <dc:type rdf:resource="http://purl.org/dc/dcmitype/StillImage"/>
    <dc:date>2023-11-28T14:51:00.392381</dc:date>
    <dc:format>image/svg+xml</dc:format>
    <dc:creator>
     <cc:Agent>
      <dc:title>Matplotlib v3.5.1, https://matplotlib.org/</dc:title>
     </cc:Agent>
    </dc:creator>
   </cc:Work>
  </rdf:RDF>
 </metadata>
 <defs>
  <style type="text/css">*{stroke-linejoin: round; stroke-linecap: butt}</style>
 </defs>
 <g id="figure_1">
  <g id="patch_1">
   <path d="M 0 288 
L 432 288 
L 432 0 
L 0 0 
L 0 288 
z
" style="fill: none"/>
  </g>
  <g id="axes_1">
   <g id="patch_2">
    <path d="M 54 252 
L 388.8 252 
L 388.8 34.56 
L 54 34.56 
z
" style="fill: #ffffff"/>
   </g>
   <g id="matplotlib.axis_1">
    <g id="xtick_1">
     <g id="line2d_1">
      <defs>
       <path id="m61019b40b3" d="M 0 0 
L 0 3.5 
" style="stroke: #000000; stroke-width: 0.8"/>
      </defs>
      <g>
       <use xlink:href="#m61019b40b3" x="69.218182" y="252" style="stroke: #000000; stroke-width: 0.8"/>
      </g>
     </g>
     <g id="text_1">
      <!-- 0 -->
      <g transform="translate(66.036932 266.598437)scale(0.1 -0.1)">
       <defs>
        <path id="DejaVuSans-30" d="M 2034 4250 
Q 1547 4250 1301 3770 
Q 1056 3291 1056 2328 
Q 1056 1369 1301 889 
Q 1547 409 2034 409 
Q 2525 409 2770 889 
Q 3016 1369 3016 2328 
Q 3016 3291 2770 3770 
Q 2525 4250 2034 4250 
z
M 2034 4750 
Q 2819 4750 3233 4129 
Q 3647 3509 3647 2328 
Q 3647 1150 3233 529 
Q 2819 -91 2034 -91 
Q 1250 -91 836 529 
Q 422 1150 422 2328 
Q 422 3509 836 4129 
Q 1250 4750 2034 4750 
z
" transform="scale(0.015625)"/>
       </defs>
       <use xlink:href="#DejaVuSans-30"/>
      </g>
     </g>
    </g>
    <g id="xtick_2">
     <g id="line2d_2">
      <g>
       <use xlink:href="#m61019b40b3" x="101.256459" y="252" style="stroke: #000000; stroke-width: 0.8"/>
      </g>
     </g>
     <g id="text_2">
      <!-- 2 -->
      <g transform="translate(98.075209 266.598437)scale(0.1 -0.1)">
       <defs>
        <path id="DejaVuSans-32" d="M 1228 531 
L 3431 531 
L 3431 0 
L 469 0 
L 469 531 
Q 828 903 1448 1529 
Q 2069 2156 2228 2338 
Q 2531 2678 2651 2914 
Q 2772 3150 2772 3378 
Q 2772 3750 2511 3984 
Q 2250 4219 1831 4219 
Q 1534 4219 1204 4116 
Q 875 4013 500 3803 
L 500 4441 
Q 881 4594 1212 4672 
Q 1544 4750 1819 4750 
Q 2544 4750 2975 4387 
Q 3406 4025 3406 3419 
Q 3406 3131 3298 2873 
Q 3191 2616 2906 2266 
Q 2828 2175 2409 1742 
Q 1991 1309 1228 531 
z
" transform="scale(0.015625)"/>
       </defs>
       <use xlink:href="#DejaVuSans-32"/>
      </g>
     </g>
    </g>
    <g id="xtick_3">
     <g id="line2d_3">
      <g>
       <use xlink:href="#m61019b40b3" x="133.294737" y="252" style="stroke: #000000; stroke-width: 0.8"/>
      </g>
     </g>
     <g id="text_3">
      <!-- 4 -->
      <g transform="translate(130.113487 266.598437)scale(0.1 -0.1)">
       <defs>
        <path id="DejaVuSans-34" d="M 2419 4116 
L 825 1625 
L 2419 1625 
L 2419 4116 
z
M 2253 4666 
L 3047 4666 
L 3047 1625 
L 3713 1625 
L 3713 1100 
L 3047 1100 
L 3047 0 
L 2419 0 
L 2419 1100 
L 313 1100 
L 313 1709 
L 2253 4666 
z
" transform="scale(0.015625)"/>
       </defs>
       <use xlink:href="#DejaVuSans-34"/>
      </g>
     </g>
    </g>
    <g id="xtick_4">
     <g id="line2d_4">
      <g>
       <use xlink:href="#m61019b40b3" x="165.333014" y="252" style="stroke: #000000; stroke-width: 0.8"/>
      </g>
     </g>
     <g id="text_4">
      <!-- 6 -->
      <g transform="translate(162.151764 266.598437)scale(0.1 -0.1)">
       <defs>
        <path id="DejaVuSans-36" d="M 2113 2584 
Q 1688 2584 1439 2293 
Q 1191 2003 1191 1497 
Q 1191 994 1439 701 
Q 1688 409 2113 409 
Q 2538 409 2786 701 
Q 3034 994 3034 1497 
Q 3034 2003 2786 2293 
Q 2538 2584 2113 2584 
z
M 3366 4563 
L 3366 3988 
Q 3128 4100 2886 4159 
Q 2644 4219 2406 4219 
Q 1781 4219 1451 3797 
Q 1122 3375 1075 2522 
Q 1259 2794 1537 2939 
Q 1816 3084 2150 3084 
Q 2853 3084 3261 2657 
Q 3669 2231 3669 1497 
Q 3669 778 3244 343 
Q 2819 -91 2113 -91 
Q 1303 -91 875 529 
Q 447 1150 447 2328 
Q 447 3434 972 4092 
Q 1497 4750 2381 4750 
Q 2619 4750 2861 4703 
Q 3103 4656 3366 4563 
z
" transform="scale(0.015625)"/>
       </defs>
       <use xlink:href="#DejaVuSans-36"/>
      </g>
     </g>
    </g>
    <g id="xtick_5">
     <g id="line2d_5">
      <g>
       <use xlink:href="#m61019b40b3" x="197.371292" y="252" style="stroke: #000000; stroke-width: 0.8"/>
      </g>
     </g>
     <g id="text_5">
      <!-- 8 -->
      <g transform="translate(194.190042 266.598437)scale(0.1 -0.1)">
       <defs>
        <path id="DejaVuSans-38" d="M 2034 2216 
Q 1584 2216 1326 1975 
Q 1069 1734 1069 1313 
Q 1069 891 1326 650 
Q 1584 409 2034 409 
Q 2484 409 2743 651 
Q 3003 894 3003 1313 
Q 3003 1734 2745 1975 
Q 2488 2216 2034 2216 
z
M 1403 2484 
Q 997 2584 770 2862 
Q 544 3141 544 3541 
Q 544 4100 942 4425 
Q 1341 4750 2034 4750 
Q 2731 4750 3128 4425 
Q 3525 4100 3525 3541 
Q 3525 3141 3298 2862 
Q 3072 2584 2669 2484 
Q 3125 2378 3379 2068 
Q 3634 1759 3634 1313 
Q 3634 634 3220 271 
Q 2806 -91 2034 -91 
Q 1263 -91 848 271 
Q 434 634 434 1313 
Q 434 1759 690 2068 
Q 947 2378 1403 2484 
z
M 1172 3481 
Q 1172 3119 1398 2916 
Q 1625 2713 2034 2713 
Q 2441 2713 2670 2916 
Q 2900 3119 2900 3481 
Q 2900 3844 2670 4047 
Q 2441 4250 2034 4250 
Q 1625 4250 1398 4047 
Q 1172 3844 1172 3481 
z
" transform="scale(0.015625)"/>
       </defs>
       <use xlink:href="#DejaVuSans-38"/>
      </g>
     </g>
    </g>
    <g id="xtick_6">
     <g id="line2d_6">
      <g>
       <use xlink:href="#m61019b40b3" x="229.409569" y="252" style="stroke: #000000; stroke-width: 0.8"/>
      </g>
     </g>
     <g id="text_6">
      <!-- 10 -->
      <g transform="translate(223.047069 266.598437)scale(0.1 -0.1)">
       <defs>
        <path id="DejaVuSans-31" d="M 794 531 
L 1825 531 
L 1825 4091 
L 703 3866 
L 703 4441 
L 1819 4666 
L 2450 4666 
L 2450 531 
L 3481 531 
L 3481 0 
L 794 0 
L 794 531 
z
" transform="scale(0.015625)"/>
       </defs>
       <use xlink:href="#DejaVuSans-31"/>
       <use xlink:href="#DejaVuSans-30" x="63.623047"/>
      </g>
     </g>
    </g>
    <g id="xtick_7">
     <g id="line2d_7">
      <g>
       <use xlink:href="#m61019b40b3" x="261.447847" y="252" style="stroke: #000000; stroke-width: 0.8"/>
      </g>
     </g>
     <g id="text_7">
      <!-- 12 -->
      <g transform="translate(255.085347 266.598437)scale(0.1 -0.1)">
       <use xlink:href="#DejaVuSans-31"/>
       <use xlink:href="#DejaVuSans-32" x="63.623047"/>
      </g>
     </g>
    </g>
    <g id="xtick_8">
     <g id="line2d_8">
      <g>
       <use xlink:href="#m61019b40b3" x="293.486124" y="252" style="stroke: #000000; stroke-width: 0.8"/>
      </g>
     </g>
     <g id="text_8">
      <!-- 14 -->
      <g transform="translate(287.123624 266.598437)scale(0.1 -0.1)">
       <use xlink:href="#DejaVuSans-31"/>
       <use xlink:href="#DejaVuSans-34" x="63.623047"/>
      </g>
     </g>
    </g>
    <g id="xtick_9">
     <g id="line2d_9">
      <g>
       <use xlink:href="#m61019b40b3" x="325.524402" y="252" style="stroke: #000000; stroke-width: 0.8"/>
      </g>
     </g>
     <g id="text_9">
      <!-- 16 -->
      <g transform="translate(319.161902 266.598437)scale(0.1 -0.1)">
       <use xlink:href="#DejaVuSans-31"/>
       <use xlink:href="#DejaVuSans-36" x="63.623047"/>
      </g>
     </g>
    </g>
    <g id="xtick_10">
     <g id="line2d_10">
      <g>
       <use xlink:href="#m61019b40b3" x="357.562679" y="252" style="stroke: #000000; stroke-width: 0.8"/>
      </g>
     </g>
     <g id="text_10">
      <!-- 18 -->
      <g transform="translate(351.200179 266.598437)scale(0.1 -0.1)">
       <use xlink:href="#DejaVuSans-31"/>
       <use xlink:href="#DejaVuSans-38" x="63.623047"/>
      </g>
     </g>
    </g>
    <g id="text_11">
     <!-- Iteration -->
     <g transform="translate(191.707969 283.315938)scale(0.14 -0.14)">
      <defs>
       <path id="DejaVuSans-49" d="M 628 4666 
L 1259 4666 
L 1259 0 
L 628 0 
L 628 4666 
z
" transform="scale(0.015625)"/>
       <path id="DejaVuSans-74" d="M 1172 4494 
L 1172 3500 
L 2356 3500 
L 2356 3053 
L 1172 3053 
L 1172 1153 
Q 1172 725 1289 603 
Q 1406 481 1766 481 
L 2356 481 
L 2356 0 
L 1766 0 
Q 1100 0 847 248 
Q 594 497 594 1153 
L 594 3053 
L 172 3053 
L 172 3500 
L 594 3500 
L 594 4494 
L 1172 4494 
z
" transform="scale(0.015625)"/>
       <path id="DejaVuSans-65" d="M 3597 1894 
L 3597 1613 
L 953 1613 
Q 991 1019 1311 708 
Q 1631 397 2203 397 
Q 2534 397 2845 478 
Q 3156 559 3463 722 
L 3463 178 
Q 3153 47 2828 -22 
Q 2503 -91 2169 -91 
Q 1331 -91 842 396 
Q 353 884 353 1716 
Q 353 2575 817 3079 
Q 1281 3584 2069 3584 
Q 2775 3584 3186 3129 
Q 3597 2675 3597 1894 
z
M 3022 2063 
Q 3016 2534 2758 2815 
Q 2500 3097 2075 3097 
Q 1594 3097 1305 2825 
Q 1016 2553 972 2059 
L 3022 2063 
z
" transform="scale(0.015625)"/>
       <path id="DejaVuSans-72" d="M 2631 2963 
Q 2534 3019 2420 3045 
Q 2306 3072 2169 3072 
Q 1681 3072 1420 2755 
Q 1159 2438 1159 1844 
L 1159 0 
L 581 0 
L 581 3500 
L 1159 3500 
L 1159 2956 
Q 1341 3275 1631 3429 
Q 1922 3584 2338 3584 
Q 2397 3584 2469 3576 
Q 2541 3569 2628 3553 
L 2631 2963 
z
" transform="scale(0.015625)"/>
       <path id="DejaVuSans-61" d="M 2194 1759 
Q 1497 1759 1228 1600 
Q 959 1441 959 1056 
Q 959 750 1161 570 
Q 1363 391 1709 391 
Q 2188 391 2477 730 
Q 2766 1069 2766 1631 
L 2766 1759 
L 2194 1759 
z
M 3341 1997 
L 3341 0 
L 2766 0 
L 2766 531 
Q 2569 213 2275 61 
Q 1981 -91 1556 -91 
Q 1019 -91 701 211 
Q 384 513 384 1019 
Q 384 1609 779 1909 
Q 1175 2209 1959 2209 
L 2766 2209 
L 2766 2266 
Q 2766 2663 2505 2880 
Q 2244 3097 1772 3097 
Q 1472 3097 1187 3025 
Q 903 2953 641 2809 
L 641 3341 
Q 956 3463 1253 3523 
Q 1550 3584 1831 3584 
Q 2591 3584 2966 3190 
Q 3341 2797 3341 1997 
z
" transform="scale(0.015625)"/>
       <path id="DejaVuSans-69" d="M 603 3500 
L 1178 3500 
L 1178 0 
L 603 0 
L 603 3500 
z
M 603 4863 
L 1178 4863 
L 1178 4134 
L 603 4134 
L 603 4863 
z
" transform="scale(0.015625)"/>
       <path id="DejaVuSans-6f" d="M 1959 3097 
Q 1497 3097 1228 2736 
Q 959 2375 959 1747 
Q 959 1119 1226 758 
Q 1494 397 1959 397 
Q 2419 397 2687 759 
Q 2956 1122 2956 1747 
Q 2956 2369 2687 2733 
Q 2419 3097 1959 3097 
z
M 1959 3584 
Q 2709 3584 3137 3096 
Q 3566 2609 3566 1747 
Q 3566 888 3137 398 
Q 2709 -91 1959 -91 
Q 1206 -91 779 398 
Q 353 888 353 1747 
Q 353 2609 779 3096 
Q 1206 3584 1959 3584 
z
" transform="scale(0.015625)"/>
       <path id="DejaVuSans-6e" d="M 3513 2113 
L 3513 0 
L 2938 0 
L 2938 2094 
Q 2938 2591 2744 2837 
Q 2550 3084 2163 3084 
Q 1697 3084 1428 2787 
Q 1159 2491 1159 1978 
L 1159 0 
L 581 0 
L 581 3500 
L 1159 3500 
L 1159 2956 
Q 1366 3272 1645 3428 
Q 1925 3584 2291 3584 
Q 2894 3584 3203 3211 
Q 3513 2838 3513 2113 
z
" transform="scale(0.015625)"/>
      </defs>
      <use xlink:href="#DejaVuSans-49"/>
      <use xlink:href="#DejaVuSans-74" x="29.492188"/>
      <use xlink:href="#DejaVuSans-65" x="68.701172"/>
      <use xlink:href="#DejaVuSans-72" x="130.224609"/>
      <use xlink:href="#DejaVuSans-61" x="171.337891"/>
      <use xlink:href="#DejaVuSans-74" x="232.617188"/>
      <use xlink:href="#DejaVuSans-69" x="271.826172"/>
      <use xlink:href="#DejaVuSans-6f" x="299.609375"/>
      <use xlink:href="#DejaVuSans-6e" x="360.791016"/>
     </g>
    </g>
   </g>
   <g id="matplotlib.axis_2">
    <g id="ytick_1">
     <g id="line2d_11">
      <defs>
       <path id="m7a5d555d8f" d="M 0 0 
L -3.5 0 
" style="stroke: #000000; stroke-width: 0.8"/>
      </defs>
      <g>
       <use xlink:href="#m7a5d555d8f" x="54" y="242.845018" style="stroke: #000000; stroke-width: 0.8"/>
      </g>
     </g>
     <g id="text_12">
      <!-- 0.0 -->
      <g transform="translate(31.096875 246.644237)scale(0.1 -0.1)">
       <defs>
        <path id="DejaVuSans-2e" d="M 684 794 
L 1344 794 
L 1344 0 
L 684 0 
L 684 794 
z
" transform="scale(0.015625)"/>
       </defs>
       <use xlink:href="#DejaVuSans-30"/>
       <use xlink:href="#DejaVuSans-2e" x="63.623047"/>
       <use xlink:href="#DejaVuSans-30" x="95.410156"/>
      </g>
     </g>
    </g>
    <g id="ytick_2">
     <g id="line2d_12">
      <g>
       <use xlink:href="#m7a5d555d8f" x="54" y="202.584555" style="stroke: #000000; stroke-width: 0.8"/>
      </g>
     </g>
     <g id="text_13">
      <!-- 0.2 -->
      <g transform="translate(31.096875 206.383774)scale(0.1 -0.1)">
       <use xlink:href="#DejaVuSans-30"/>
       <use xlink:href="#DejaVuSans-2e" x="63.623047"/>
       <use xlink:href="#DejaVuSans-32" x="95.410156"/>
      </g>
     </g>
    </g>
    <g id="ytick_3">
     <g id="line2d_13">
      <g>
       <use xlink:href="#m7a5d555d8f" x="54" y="162.324093" style="stroke: #000000; stroke-width: 0.8"/>
      </g>
     </g>
     <g id="text_14">
      <!-- 0.4 -->
      <g transform="translate(31.096875 166.123312)scale(0.1 -0.1)">
       <use xlink:href="#DejaVuSans-30"/>
       <use xlink:href="#DejaVuSans-2e" x="63.623047"/>
       <use xlink:href="#DejaVuSans-34" x="95.410156"/>
      </g>
     </g>
    </g>
    <g id="ytick_4">
     <g id="line2d_14">
      <g>
       <use xlink:href="#m7a5d555d8f" x="54" y="122.06363" style="stroke: #000000; stroke-width: 0.8"/>
      </g>
     </g>
     <g id="text_15">
      <!-- 0.6 -->
      <g transform="translate(31.096875 125.862849)scale(0.1 -0.1)">
       <use xlink:href="#DejaVuSans-30"/>
       <use xlink:href="#DejaVuSans-2e" x="63.623047"/>
       <use xlink:href="#DejaVuSans-36" x="95.410156"/>
      </g>
     </g>
    </g>
    <g id="ytick_5">
     <g id="line2d_15">
      <g>
       <use xlink:href="#m7a5d555d8f" x="54" y="81.803168" style="stroke: #000000; stroke-width: 0.8"/>
      </g>
     </g>
     <g id="text_16">
      <!-- 0.8 -->
      <g transform="translate(31.096875 85.602387)scale(0.1 -0.1)">
       <use xlink:href="#DejaVuSans-30"/>
       <use xlink:href="#DejaVuSans-2e" x="63.623047"/>
       <use xlink:href="#DejaVuSans-38" x="95.410156"/>
      </g>
     </g>
    </g>
    <g id="ytick_6">
     <g id="line2d_16">
      <g>
       <use xlink:href="#m7a5d555d8f" x="54" y="41.542706" style="stroke: #000000; stroke-width: 0.8"/>
      </g>
     </g>
     <g id="text_17">
      <!-- 1.0 -->
      <g transform="translate(31.096875 45.341924)scale(0.1 -0.1)">
       <use xlink:href="#DejaVuSans-31"/>
       <use xlink:href="#DejaVuSans-2e" x="63.623047"/>
       <use xlink:href="#DejaVuSans-30" x="95.410156"/>
      </g>
     </g>
    </g>
    <g id="text_18">
     <!-- Opinion -->
     <g transform="translate(24.185312 170.279219)rotate(-90)scale(0.14 -0.14)">
      <defs>
       <path id="DejaVuSans-4f" d="M 2522 4238 
Q 1834 4238 1429 3725 
Q 1025 3213 1025 2328 
Q 1025 1447 1429 934 
Q 1834 422 2522 422 
Q 3209 422 3611 934 
Q 4013 1447 4013 2328 
Q 4013 3213 3611 3725 
Q 3209 4238 2522 4238 
z
M 2522 4750 
Q 3503 4750 4090 4092 
Q 4678 3434 4678 2328 
Q 4678 1225 4090 567 
Q 3503 -91 2522 -91 
Q 1538 -91 948 565 
Q 359 1222 359 2328 
Q 359 3434 948 4092 
Q 1538 4750 2522 4750 
z
" transform="scale(0.015625)"/>
       <path id="DejaVuSans-70" d="M 1159 525 
L 1159 -1331 
L 581 -1331 
L 581 3500 
L 1159 3500 
L 1159 2969 
Q 1341 3281 1617 3432 
Q 1894 3584 2278 3584 
Q 2916 3584 3314 3078 
Q 3713 2572 3713 1747 
Q 3713 922 3314 415 
Q 2916 -91 2278 -91 
Q 1894 -91 1617 61 
Q 1341 213 1159 525 
z
M 3116 1747 
Q 3116 2381 2855 2742 
Q 2594 3103 2138 3103 
Q 1681 3103 1420 2742 
Q 1159 2381 1159 1747 
Q 1159 1113 1420 752 
Q 1681 391 2138 391 
Q 2594 391 2855 752 
Q 3116 1113 3116 1747 
z
" transform="scale(0.015625)"/>
      </defs>
      <use xlink:href="#DejaVuSans-4f"/>
      <use xlink:href="#DejaVuSans-70" x="78.710938"/>
      <use xlink:href="#DejaVuSans-69" x="142.1875"/>
      <use xlink:href="#DejaVuSans-6e" x="169.970703"/>
      <use xlink:href="#DejaVuSans-69" x="233.349609"/>
      <use xlink:href="#DejaVuSans-6f" x="261.132812"/>
      <use xlink:href="#DejaVuSans-6e" x="322.314453"/>
     </g>
    </g>
   </g>
   <g id="line2d_17">
    <path d="M 69.218182 215.465297 
L 85.237321 205.115148 
L 101.256459 198.43386 
L 117.275598 192.101997 
L 133.294737 187.700081 
L 149.313876 181.909149 
L 165.333014 177.858556 
L 181.352153 177.329024 
L 197.371292 176.920301 
L 213.390431 176.318843 
L 229.409569 175.67939 
L 245.428708 175.071393 
L 261.447847 174.493305 
L 277.466986 173.943656 
L 293.486124 173.421046 
L 309.505263 172.924145 
L 325.524402 172.451688 
L 341.543541 172.002473 
L 357.562679 171.575356 
L 373.581818 171.169251 
" clip-path="url(#pfcc891f371)" style="fill: none; stroke: #000080; stroke-width: 1.5; stroke-linecap: square"/>
   </g>
   <g id="line2d_18">
    <path d="M 69.218182 108.568756 
L 85.237321 114.999942 
L 101.256459 116.347012 
L 117.275598 112.97583 
L 133.294737 107.302967 
L 149.313876 106.125526 
L 165.333014 102.411692 
L 181.352153 104.654638 
L 197.371292 106.38985 
L 213.390431 109.796264 
L 229.409569 112.429289 
L 245.428708 114.932785 
L 261.447847 117.313126 
L 277.466986 119.576369 
L 293.486124 121.728276 
L 309.505263 123.774322 
L 325.524402 125.719717 
L 341.543541 127.569411 
L 357.562679 129.328112 
L 373.581818 131.000296 
" clip-path="url(#pfcc891f371)" style="fill: none; stroke: #000089; stroke-width: 1.5; stroke-linecap: square"/>
   </g>
   <g id="line2d_19">
    <path d="M 69.218182 66.489709 
L 85.237321 68.879199 
L 101.256459 75.69535 
L 117.275598 81.875682 
L 133.294737 93.381354 
L 149.313876 97.94982 
L 165.333014 103.37207 
L 181.352153 105.55746 
L 197.371292 107.264885 
L 213.390431 109.796264 
L 229.409569 112.429289 
L 245.428708 114.932785 
L 261.447847 117.313126 
L 277.466986 119.576369 
L 293.486124 121.728276 
L 309.505263 123.774322 
L 325.524402 125.719717 
L 341.543541 127.569411 
L 357.562679 129.328112 
L 373.581818 131.000296 
" clip-path="url(#pfcc891f371)" style="fill: none; stroke: #000096; stroke-width: 1.5; stroke-linecap: square"/>
   </g>
   <g id="line2d_20">
    <path d="M 69.218182 53.352572 
L 85.237321 66.607789 
L 101.256459 77.036142 
L 117.275598 88.427596 
L 133.294737 93.379663 
L 149.313876 97.94982 
L 165.333014 103.37207 
L 181.352153 105.55746 
L 197.371292 107.264885 
L 213.390431 109.796264 
L 229.409569 112.429289 
L 245.428708 114.932785 
L 261.447847 117.313126 
L 277.466986 119.576369 
L 293.486124 121.728276 
L 309.505263 123.774322 
L 325.524402 125.719717 
L 341.543541 127.569411 
L 357.562679 129.328112 
L 373.581818 131.000296 
" clip-path="url(#pfcc891f371)" style="fill: none; stroke: #00009f; stroke-width: 1.5; stroke-linecap: square"/>
   </g>
   <g id="line2d_21">
    <path d="M 69.218182 167.825908 
L 85.237321 166.864454 
L 101.256459 171.781789 
L 117.275598 180.103775 
L 133.294737 180.00666 
L 149.313876 178.723056 
L 165.333014 177.858556 
L 181.352153 177.329024 
L 197.371292 176.920301 
L 213.390431 176.318843 
L 229.409569 175.67939 
L 245.428708 175.071393 
L 261.447847 174.493305 
L 277.466986 173.943656 
L 293.486124 173.421046 
L 309.505263 172.924145 
L 325.524402 172.451688 
L 341.543541 172.002473 
L 357.562679 171.575356 
L 373.581818 171.169251 
" clip-path="url(#pfcc891f371)" style="fill: none; stroke: #0000ad; stroke-width: 1.5; stroke-linecap: square"/>
   </g>
   <g id="line2d_22">
    <path d="M 69.218182 207.049103 
L 85.237321 203.394841 
L 101.256459 197.466928 
L 117.275598 191.203339 
L 133.294737 187.527037 
L 149.313876 181.885543 
L 165.333014 177.858556 
L 181.352153 177.329024 
L 197.371292 176.920301 
L 213.390431 176.318843 
L 229.409569 175.67939 
L 245.428708 175.071393 
L 261.447847 174.493305 
L 277.466986 173.943656 
L 293.486124 173.421046 
L 309.505263 172.924145 
L 325.524402 172.451688 
L 341.543541 172.002473 
L 357.562679 171.575356 
L 373.581818 171.169251 
" clip-path="url(#pfcc891f371)" style="fill: none; stroke: #0000b6; stroke-width: 1.5; stroke-linecap: square"/>
   </g>
   <g id="line2d_23">
    <path d="M 69.218182 184.882877 
L 85.237321 187.700021 
L 101.256459 193.280123 
L 117.275598 190.172912 
L 133.294737 187.624547 
L 149.313876 181.909149 
L 165.333014 177.858556 
L 181.352153 177.329024 
L 197.371292 176.920301 
L 213.390431 176.318843 
L 229.409569 175.67939 
L 245.428708 175.071393 
L 261.447847 174.493305 
L 277.466986 173.943656 
L 293.486124 173.421046 
L 309.505263 172.924145 
L 325.524402 172.451688 
L 341.543541 172.002473 
L 357.562679 171.575356 
L 373.581818 171.169251 
" clip-path="url(#pfcc891f371)" style="fill: none; stroke: #0000c4; stroke-width: 1.5; stroke-linecap: square"/>
   </g>
   <g id="line2d_24">
    <path d="M 69.218182 82.631995 
L 85.237321 76.481033 
L 101.256459 82.464809 
L 117.275598 88.718039 
L 133.294737 93.411867 
L 149.313876 97.94982 
L 165.333014 103.37207 
L 181.352153 105.55746 
L 197.371292 107.264885 
L 213.390431 109.796264 
L 229.409569 112.429289 
L 245.428708 114.932785 
L 261.447847 117.313126 
L 277.466986 119.576369 
L 293.486124 121.728276 
L 309.505263 123.774322 
L 325.524402 125.719717 
L 341.543541 127.569411 
L 357.562679 129.328112 
L 373.581818 131.000296 
" clip-path="url(#pfcc891f371)" style="fill: none; stroke: #0000cd; stroke-width: 1.5; stroke-linecap: square"/>
   </g>
   <g id="line2d_25">
    <path d="M 69.218182 178.157799 
L 85.237321 181.00932 
L 101.256459 189.641949 
L 117.275598 189.259001 
L 133.294737 187.527037 
L 149.313876 181.885543 
L 165.333014 177.858556 
L 181.352153 177.329024 
L 197.371292 176.920301 
L 213.390431 176.318843 
L 229.409569 175.67939 
L 245.428708 175.071393 
L 261.447847 174.493305 
L 277.466986 173.943656 
L 293.486124 173.421046 
L 309.505263 172.924145 
L 325.524402 172.451688 
L 341.543541 172.002473 
L 357.562679 171.575356 
L 373.581818 171.169251 
" clip-path="url(#pfcc891f371)" style="fill: none; stroke: #0000da; stroke-width: 1.5; stroke-linecap: square"/>
   </g>
   <g id="line2d_26">
    <path d="M 69.218182 50.818622 
L 85.237321 63.399056 
L 101.256459 73.869337 
L 117.275598 81.315473 
L 133.294737 91.761243 
L 149.313876 97.786258 
L 165.333014 103.37207 
L 181.352153 105.55746 
L 197.371292 107.264885 
L 213.390431 109.796264 
L 229.409569 112.429289 
L 245.428708 114.932785 
L 261.447847 117.313126 
L 277.466986 119.576369 
L 293.486124 121.728276 
L 309.505263 123.774322 
L 325.524402 125.719717 
L 341.543541 127.569411 
L 357.562679 129.328112 
L 373.581818 131.000296 
" clip-path="url(#pfcc891f371)" style="fill: none; stroke: #0000e8; stroke-width: 1.5; stroke-linecap: square"/>
   </g>
   <g id="line2d_27">
    <path d="M 69.218182 180.02969 
L 85.237321 182.853242 
L 101.256459 190.77021 
L 117.275598 189.944427 
L 133.294737 187.527037 
L 149.313876 181.885543 
L 165.333014 177.858556 
L 181.352153 177.329024 
L 197.371292 176.920301 
L 213.390431 176.318843 
L 229.409569 175.67939 
L 245.428708 175.071393 
L 261.447847 174.493305 
L 277.466986 173.943656 
L 293.486124 173.421046 
L 309.505263 172.924145 
L 325.524402 172.451688 
L 341.543541 172.002473 
L 357.562679 171.575356 
L 373.581818 171.169251 
" clip-path="url(#pfcc891f371)" style="fill: none; stroke: #0000f1; stroke-width: 1.5; stroke-linecap: square"/>
   </g>
   <g id="line2d_28">
    <path d="M 69.218182 183.671105 
L 85.237321 185.482162 
L 101.256459 192.083866 
L 117.275598 189.683654 
L 133.294737 187.310618 
L 149.313876 181.885543 
L 165.333014 177.858556 
L 181.352153 177.329024 
L 197.371292 176.920301 
L 213.390431 176.318843 
L 229.409569 175.67939 
L 245.428708 175.071393 
L 261.447847 174.493305 
L 277.466986 173.943656 
L 293.486124 173.421046 
L 309.505263 172.924145 
L 325.524402 172.451688 
L 341.543541 172.002473 
L 357.562679 171.575356 
L 373.581818 171.169251 
" clip-path="url(#pfcc891f371)" style="fill: none; stroke: #0000ff; stroke-width: 1.5; stroke-linecap: square"/>
   </g>
   <g id="line2d_29">
    <path d="M 69.218182 73.146424 
L 85.237321 77.394029 
L 101.256459 82.911187 
L 117.275598 88.318695 
L 133.294737 93.201139 
L 149.313876 97.94982 
L 165.333014 103.37207 
L 181.352153 105.55746 
L 197.371292 107.264885 
L 213.390431 109.796264 
L 229.409569 112.429289 
L 245.428708 114.932785 
L 261.447847 117.313126 
L 277.466986 119.576369 
L 293.486124 121.728276 
L 309.505263 123.774322 
L 325.524402 125.719717 
L 341.543541 127.569411 
L 357.562679 129.328112 
L 373.581818 131.000296 
" clip-path="url(#pfcc891f371)" style="fill: none; stroke: #0000ff; stroke-width: 1.5; stroke-linecap: square"/>
   </g>
   <g id="line2d_30">
    <path d="M 69.218182 188.522094 
L 85.237321 190.35414 
L 101.256459 194.619416 
L 117.275598 189.970492 
L 133.294737 187.345495 
L 149.313876 181.885543 
L 165.333014 177.858556 
L 181.352153 177.329024 
L 197.371292 176.920301 
L 213.390431 176.318843 
L 229.409569 175.67939 
L 245.428708 175.071393 
L 261.447847 174.493305 
L 277.466986 173.943656 
L 293.486124 173.421046 
L 309.505263 172.924145 
L 325.524402 172.451688 
L 341.543541 172.002473 
L 357.562679 171.575356 
L 373.581818 171.169251 
" clip-path="url(#pfcc891f371)" style="fill: none; stroke: #0004ff; stroke-width: 1.5; stroke-linecap: square"/>
   </g>
   <g id="line2d_31">
    <path d="M 69.218182 242.116364 
L 85.237321 223.207223 
L 101.256459 203.792064 
L 117.275598 192.625483 
L 133.294737 187.789947 
L 149.313876 182.23089 
L 165.333014 178.137285 
L 181.352153 177.586456 
L 197.371292 177.168711 
L 213.390431 176.318843 
L 229.409569 175.67939 
L 245.428708 175.071393 
L 261.447847 174.493305 
L 277.466986 173.943656 
L 293.486124 173.421046 
L 309.505263 172.924145 
L 325.524402 172.451688 
L 341.543541 172.002473 
L 357.562679 171.575356 
L 373.581818 171.169251 
" clip-path="url(#pfcc891f371)" style="fill: none; stroke: #000cff; stroke-width: 1.5; stroke-linecap: square"/>
   </g>
   <g id="line2d_32">
    <path d="M 69.218182 61.019111 
L 85.237321 67.053017 
L 101.256459 75.097465 
L 117.275598 81.315473 
L 133.294737 91.761243 
L 149.313876 97.786258 
L 165.333014 103.37207 
L 181.352153 105.55746 
L 197.371292 107.264885 
L 213.390431 109.796264 
L 229.409569 112.429289 
L 245.428708 114.932785 
L 261.447847 117.313126 
L 277.466986 119.576369 
L 293.486124 121.728276 
L 309.505263 123.774322 
L 325.524402 125.719717 
L 341.543541 127.569411 
L 357.562679 129.328112 
L 373.581818 131.000296 
" clip-path="url(#pfcc891f371)" style="fill: none; stroke: #0018ff; stroke-width: 1.5; stroke-linecap: square"/>
   </g>
   <g id="line2d_33">
    <path d="M 69.218182 165.822076 
L 85.237321 165.357919 
L 101.256459 170.512175 
L 117.275598 180.049727 
L 133.294737 180.018381 
L 149.313876 178.660324 
L 165.333014 177.639178 
L 181.352153 177.112918 
L 197.371292 176.709798 
L 213.390431 176.318843 
L 229.409569 175.67939 
L 245.428708 175.071393 
L 261.447847 174.493305 
L 277.466986 173.943656 
L 293.486124 173.421046 
L 309.505263 172.924145 
L 325.524402 172.451688 
L 341.543541 172.002473 
L 357.562679 171.575356 
L 373.581818 171.169251 
" clip-path="url(#pfcc891f371)" style="fill: none; stroke: #0020ff; stroke-width: 1.5; stroke-linecap: square"/>
   </g>
   <g id="line2d_34">
    <path d="M 69.218182 132.511179 
L 85.237321 133.575044 
L 101.256459 135.909321 
L 117.275598 140.416567 
L 133.294737 145.854176 
L 149.313876 150.852997 
L 165.333014 176.860875 
L 181.352153 177.586456 
L 197.371292 177.168711 
L 213.390431 176.318843 
L 229.409569 175.67939 
L 245.428708 175.071393 
L 261.447847 174.493305 
L 277.466986 173.943656 
L 293.486124 173.421046 
L 309.505263 172.924145 
L 325.524402 172.451688 
L 341.543541 172.002473 
L 357.562679 171.575356 
L 373.581818 171.169251 
" clip-path="url(#pfcc891f371)" style="fill: none; stroke: #002cff; stroke-width: 1.5; stroke-linecap: square"/>
   </g>
   <g id="line2d_35">
    <path d="M 69.218182 81.574849 
L 85.237321 77.498378 
L 101.256459 82.96336 
L 117.275598 88.427596 
L 133.294737 93.379663 
L 149.313876 97.94982 
L 165.333014 103.37207 
L 181.352153 105.55746 
L 197.371292 107.264885 
L 213.390431 109.796264 
L 229.409569 112.429289 
L 245.428708 114.932785 
L 261.447847 117.313126 
L 277.466986 119.576369 
L 293.486124 121.728276 
L 309.505263 123.774322 
L 325.524402 125.719717 
L 341.543541 127.569411 
L 357.562679 129.328112 
L 373.581818 131.000296 
" clip-path="url(#pfcc891f371)" style="fill: none; stroke: #0038ff; stroke-width: 1.5; stroke-linecap: square"/>
   </g>
   <g id="line2d_36">
    <path d="M 69.218182 58.099364 
L 85.237321 68.818435 
L 101.256459 76.40961 
L 117.275598 86.796416 
L 133.294737 92.449259 
L 149.313876 96.881699 
L 165.333014 102.411692 
L 181.352153 104.654638 
L 197.371292 106.38985 
L 213.390431 109.796264 
L 229.409569 112.429289 
L 245.428708 114.932785 
L 261.447847 117.313126 
L 277.466986 119.576369 
L 293.486124 121.728276 
L 309.505263 123.774322 
L 325.524402 125.719717 
L 341.543541 127.569411 
L 357.562679 129.328112 
L 373.581818 131.000296 
" clip-path="url(#pfcc891f371)" style="fill: none; stroke: #0040ff; stroke-width: 1.5; stroke-linecap: square"/>
   </g>
   <g id="line2d_37">
    <path d="M 69.218182 238.304798 
L 85.237321 221.542135 
L 101.256459 201.880402 
L 117.275598 191.805866 
L 133.294737 187.527037 
L 149.313876 181.885543 
L 165.333014 177.858556 
L 181.352153 177.329024 
L 197.371292 176.920301 
L 213.390431 176.318843 
L 229.409569 175.67939 
L 245.428708 175.071393 
L 261.447847 174.493305 
L 277.466986 173.943656 
L 293.486124 173.421046 
L 309.505263 172.924145 
L 325.524402 172.451688 
L 341.543541 172.002473 
L 357.562679 171.575356 
L 373.581818 171.169251 
" clip-path="url(#pfcc891f371)" style="fill: none; stroke: #004cff; stroke-width: 1.5; stroke-linecap: square"/>
   </g>
   <g id="line2d_38">
    <path d="M 69.218182 55.332889 
L 85.237321 67.914779 
L 101.256459 76.978323 
L 117.275598 88.318695 
L 133.294737 93.201139 
L 149.313876 97.94982 
L 165.333014 103.37207 
L 181.352153 105.55746 
L 197.371292 107.264885 
L 213.390431 109.796264 
L 229.409569 112.429289 
L 245.428708 114.932785 
L 261.447847 117.313126 
L 277.466986 119.576369 
L 293.486124 121.728276 
L 309.505263 123.774322 
L 325.524402 125.719717 
L 341.543541 127.569411 
L 357.562679 129.328112 
L 373.581818 131.000296 
" clip-path="url(#pfcc891f371)" style="fill: none; stroke: #0054ff; stroke-width: 1.5; stroke-linecap: square"/>
   </g>
   <g id="line2d_39">
    <path d="M 69.218182 177.88655 
L 85.237321 180.308562 
L 101.256459 186.853222 
L 117.275598 189.454722 
L 133.294737 187.789947 
L 149.313876 182.23089 
L 165.333014 178.137285 
L 181.352153 177.586456 
L 197.371292 177.168711 
L 213.390431 176.318843 
L 229.409569 175.67939 
L 245.428708 175.071393 
L 261.447847 174.493305 
L 277.466986 173.943656 
L 293.486124 173.421046 
L 309.505263 172.924145 
L 325.524402 172.451688 
L 341.543541 172.002473 
L 357.562679 171.575356 
L 373.581818 171.169251 
" clip-path="url(#pfcc891f371)" style="fill: none; stroke: #0060ff; stroke-width: 1.5; stroke-linecap: square"/>
   </g>
   <g id="line2d_40">
    <path d="M 69.218182 91.513115 
L 85.237321 89.773001 
L 101.256459 85.04284 
L 117.275598 86.895825 
L 133.294737 91.761243 
L 149.313876 97.786258 
L 165.333014 103.37207 
L 181.352153 105.55746 
L 197.371292 107.264885 
L 213.390431 109.796264 
L 229.409569 112.429289 
L 245.428708 114.932785 
L 261.447847 117.313126 
L 277.466986 119.576369 
L 293.486124 121.728276 
L 309.505263 123.774322 
L 325.524402 125.719717 
L 341.543541 127.569411 
L 357.562679 129.328112 
L 373.581818 131.000296 
" clip-path="url(#pfcc891f371)" style="fill: none; stroke: #0068ff; stroke-width: 1.5; stroke-linecap: square"/>
   </g>
   <g id="line2d_41">
    <path d="M 69.218182 214.427724 
L 85.237321 205.161949 
L 101.256459 198.405029 
L 117.275598 192.058082 
L 133.294737 187.789947 
L 149.313876 182.23089 
L 165.333014 178.137285 
L 181.352153 177.586456 
L 197.371292 177.168711 
L 213.390431 176.318843 
L 229.409569 175.67939 
L 245.428708 175.071393 
L 261.447847 174.493305 
L 277.466986 173.943656 
L 293.486124 173.421046 
L 309.505263 172.924145 
L 325.524402 172.451688 
L 341.543541 172.002473 
L 357.562679 171.575356 
L 373.581818 171.169251 
" clip-path="url(#pfcc891f371)" style="fill: none; stroke: #0074ff; stroke-width: 1.5; stroke-linecap: square"/>
   </g>
   <g id="line2d_42">
    <path d="M 69.218182 109.912991 
L 85.237321 115.17538 
L 101.256459 116.538328 
L 117.275598 115.294659 
L 133.294737 107.685676 
L 149.313876 106.885559 
L 165.333014 103.37207 
L 181.352153 105.55746 
L 197.371292 107.264885 
L 213.390431 109.796264 
L 229.409569 112.429289 
L 245.428708 114.932785 
L 261.447847 117.313126 
L 277.466986 119.576369 
L 293.486124 121.728276 
L 309.505263 123.774322 
L 325.524402 125.719717 
L 341.543541 127.569411 
L 357.562679 129.328112 
L 373.581818 131.000296 
" clip-path="url(#pfcc891f371)" style="fill: none; stroke: #0080ff; stroke-width: 1.5; stroke-linecap: square"/>
   </g>
   <g id="line2d_43">
    <path d="M 69.218182 55.102194 
L 85.237321 66.742466 
L 101.256459 76.1896 
L 117.275598 84.713433 
L 133.294737 92.449259 
L 149.313876 96.881699 
L 165.333014 102.411692 
L 181.352153 104.654638 
L 197.371292 106.38985 
L 213.390431 109.796264 
L 229.409569 112.429289 
L 245.428708 114.932785 
L 261.447847 117.313126 
L 277.466986 119.576369 
L 293.486124 121.728276 
L 309.505263 123.774322 
L 325.524402 125.719717 
L 341.543541 127.569411 
L 357.562679 129.328112 
L 373.581818 131.000296 
" clip-path="url(#pfcc891f371)" style="fill: none; stroke: #0088ff; stroke-width: 1.5; stroke-linecap: square"/>
   </g>
   <g id="line2d_44">
    <path d="M 69.218182 180.245937 
L 85.237321 183.739601 
L 101.256459 192.178528 
L 117.275598 189.913795 
L 133.294737 187.527037 
L 149.313876 181.885543 
L 165.333014 177.858556 
L 181.352153 177.329024 
L 197.371292 176.920301 
L 213.390431 176.318843 
L 229.409569 175.67939 
L 245.428708 175.071393 
L 261.447847 174.493305 
L 277.466986 173.943656 
L 293.486124 173.421046 
L 309.505263 172.924145 
L 325.524402 172.451688 
L 341.543541 172.002473 
L 357.562679 171.575356 
L 373.581818 171.169251 
" clip-path="url(#pfcc891f371)" style="fill: none; stroke: #0094ff; stroke-width: 1.5; stroke-linecap: square"/>
   </g>
   <g id="line2d_45">
    <path d="M 69.218182 129.321904 
L 85.237321 130.975163 
L 101.256459 135.80437 
L 117.275598 140.452975 
L 133.294737 145.854176 
L 149.313876 150.852997 
L 165.333014 176.860875 
L 181.352153 177.586456 
L 197.371292 177.168711 
L 213.390431 176.318843 
L 229.409569 175.67939 
L 245.428708 175.071393 
L 261.447847 174.493305 
L 277.466986 173.943656 
L 293.486124 173.421046 
L 309.505263 172.924145 
L 325.524402 172.451688 
L 341.543541 172.002473 
L 357.562679 171.575356 
L 373.581818 171.169251 
" clip-path="url(#pfcc891f371)" style="fill: none; stroke: #009cff; stroke-width: 1.5; stroke-linecap: square"/>
   </g>
   <g id="line2d_46">
    <path d="M 69.218182 135.512215 
L 85.237321 134.515845 
L 101.256459 137.124248 
L 117.275598 141.880394 
L 133.294737 148.48907 
L 149.313876 177.504618 
L 165.333014 177.858556 
L 181.352153 177.329024 
L 197.371292 176.920301 
L 213.390431 176.318843 
L 229.409569 175.67939 
L 245.428708 175.071393 
L 261.447847 174.493305 
L 277.466986 173.943656 
L 293.486124 173.421046 
L 309.505263 172.924145 
L 325.524402 172.451688 
L 341.543541 172.002473 
L 357.562679 171.575356 
L 373.581818 171.169251 
" clip-path="url(#pfcc891f371)" style="fill: none; stroke: #00a8ff; stroke-width: 1.5; stroke-linecap: square"/>
   </g>
   <g id="line2d_47">
    <path d="M 69.218182 221.687671 
L 85.237321 211.023555 
L 101.256459 200.045186 
L 117.275598 191.838913 
L 133.294737 187.527037 
L 149.313876 181.885543 
L 165.333014 177.858556 
L 181.352153 177.329024 
L 197.371292 176.920301 
L 213.390431 176.318843 
L 229.409569 175.67939 
L 245.428708 175.071393 
L 261.447847 174.493305 
L 277.466986 173.943656 
L 293.486124 173.421046 
L 309.505263 172.924145 
L 325.524402 172.451688 
L 341.543541 172.002473 
L 357.562679 171.575356 
L 373.581818 171.169251 
" clip-path="url(#pfcc891f371)" style="fill: none; stroke: #00b0ff; stroke-width: 1.5; stroke-linecap: square"/>
   </g>
   <g id="line2d_48">
    <path d="M 69.218182 235.556642 
L 85.237321 221.065563 
L 101.256459 200.866823 
L 117.275598 191.456439 
L 133.294737 187.256831 
L 149.313876 181.779381 
L 165.333014 177.639178 
L 181.352153 177.112918 
L 197.371292 176.709798 
L 213.390431 176.318843 
L 229.409569 175.67939 
L 245.428708 175.071393 
L 261.447847 174.493305 
L 277.466986 173.943656 
L 293.486124 173.421046 
L 309.505263 172.924145 
L 325.524402 172.451688 
L 341.543541 172.002473 
L 357.562679 171.575356 
L 373.581818 171.169251 
" clip-path="url(#pfcc891f371)" style="fill: none; stroke: #00bcff; stroke-width: 1.5; stroke-linecap: square"/>
   </g>
   <g id="line2d_49">
    <path d="M 69.218182 112.463325 
L 85.237321 119.252924 
L 101.256459 127.802916 
L 117.275598 135.623934 
L 133.294737 135.647081 
L 149.313876 132.764321 
L 165.333014 109.693951 
L 181.352153 104.654638 
L 197.371292 106.38985 
L 213.390431 109.796264 
L 229.409569 112.429289 
L 245.428708 114.932785 
L 261.447847 117.313126 
L 277.466986 119.576369 
L 293.486124 121.728276 
L 309.505263 123.774322 
L 325.524402 125.719717 
L 341.543541 127.569411 
L 357.562679 129.328112 
L 373.581818 131.000296 
" clip-path="url(#pfcc891f371)" style="fill: none; stroke: #00c4ff; stroke-width: 1.5; stroke-linecap: square"/>
   </g>
   <g id="line2d_50">
    <path d="M 69.218182 107.449559 
L 85.237321 113.683885 
L 101.256459 116.254958 
L 117.275598 112.97583 
L 133.294737 107.302967 
L 149.313876 106.125526 
L 165.333014 102.411692 
L 181.352153 104.654638 
L 197.371292 106.38985 
L 213.390431 109.796264 
L 229.409569 112.429289 
L 245.428708 114.932785 
L 261.447847 117.313126 
L 277.466986 119.576369 
L 293.486124 121.728276 
L 309.505263 123.774322 
L 325.524402 125.719717 
L 341.543541 127.569411 
L 357.562679 129.328112 
L 373.581818 131.000296 
" clip-path="url(#pfcc891f371)" style="fill: none; stroke: #00d0ff; stroke-width: 1.5; stroke-linecap: square"/>
   </g>
   <g id="line2d_51">
    <path d="M 69.218182 226.998248 
L 85.237321 216.135911 
L 101.256459 200.004841 
L 117.275598 191.838913 
L 133.294737 187.527037 
L 149.313876 181.885543 
L 165.333014 177.858556 
L 181.352153 177.329024 
L 197.371292 176.920301 
L 213.390431 176.318843 
L 229.409569 175.67939 
L 245.428708 175.071393 
L 261.447847 174.493305 
L 277.466986 173.943656 
L 293.486124 173.421046 
L 309.505263 172.924145 
L 325.524402 172.451688 
L 341.543541 172.002473 
L 357.562679 171.575356 
L 373.581818 171.169251 
" clip-path="url(#pfcc891f371)" style="fill: none; stroke: #00dcfe; stroke-width: 1.5; stroke-linecap: square"/>
   </g>
   <g id="line2d_52">
    <path d="M 69.218182 53.604186 
L 85.237321 64.526662 
L 101.256459 73.795648 
L 117.275598 81.24652 
L 133.294737 91.761243 
L 149.313876 97.786258 
L 165.333014 103.37207 
L 181.352153 105.55746 
L 197.371292 107.264885 
L 213.390431 109.796264 
L 229.409569 112.429289 
L 245.428708 114.932785 
L 261.447847 117.313126 
L 277.466986 119.576369 
L 293.486124 121.728276 
L 309.505263 123.774322 
L 325.524402 125.719717 
L 341.543541 127.569411 
L 357.562679 129.328112 
L 373.581818 131.000296 
" clip-path="url(#pfcc891f371)" style="fill: none; stroke: #00e4f8; stroke-width: 1.5; stroke-linecap: square"/>
   </g>
   <g id="line2d_53">
    <path d="M 69.218182 124.534562 
L 85.237321 127.303581 
L 101.256459 133.329194 
L 117.275598 139.355101 
L 133.294737 143.36356 
L 149.313876 150.676643 
L 165.333014 176.594263 
L 181.352153 177.329024 
L 197.371292 176.920301 
L 213.390431 176.318843 
L 229.409569 175.67939 
L 245.428708 175.071393 
L 261.447847 174.493305 
L 277.466986 173.943656 
L 293.486124 173.421046 
L 309.505263 172.924145 
L 325.524402 172.451688 
L 341.543541 172.002473 
L 357.562679 171.575356 
L 373.581818 171.169251 
" clip-path="url(#pfcc891f371)" style="fill: none; stroke: #09f0ee; stroke-width: 1.5; stroke-linecap: square"/>
   </g>
   <g id="line2d_54">
    <path d="M 69.218182 234.813734 
L 85.237321 221.4941 
L 101.256459 202.14925 
L 117.275598 192.017247 
L 133.294737 187.789947 
L 149.313876 182.23089 
L 165.333014 178.137285 
L 181.352153 177.586456 
L 197.371292 177.168711 
L 213.390431 176.318843 
L 229.409569 175.67939 
L 245.428708 175.071393 
L 261.447847 174.493305 
L 277.466986 173.943656 
L 293.486124 173.421046 
L 309.505263 172.924145 
L 325.524402 172.451688 
L 341.543541 172.002473 
L 357.562679 171.575356 
L 373.581818 171.169251 
" clip-path="url(#pfcc891f371)" style="fill: none; stroke: #0ff8e7; stroke-width: 1.5; stroke-linecap: square"/>
   </g>
   <g id="line2d_55">
    <path d="M 69.218182 129.229988 
L 85.237321 130.949186 
L 101.256459 135.840938 
L 117.275598 140.452975 
L 133.294737 145.854176 
L 149.313876 150.852997 
L 165.333014 176.860875 
L 181.352153 177.586456 
L 197.371292 177.168711 
L 213.390431 176.318843 
L 229.409569 175.67939 
L 245.428708 175.071393 
L 261.447847 174.493305 
L 277.466986 173.943656 
L 293.486124 173.421046 
L 309.505263 172.924145 
L 325.524402 172.451688 
L 341.543541 172.002473 
L 357.562679 171.575356 
L 373.581818 171.169251 
" clip-path="url(#pfcc891f371)" style="fill: none; stroke: #19ffde; stroke-width: 1.5; stroke-linecap: square"/>
   </g>
   <g id="line2d_56">
    <path d="M 69.218182 183.614268 
L 85.237321 185.920314 
L 101.256459 193.321703 
L 117.275598 190.213741 
L 133.294737 187.807878 
L 149.313876 181.909149 
L 165.333014 177.858556 
L 181.352153 177.329024 
L 197.371292 176.920301 
L 213.390431 176.318843 
L 229.409569 175.67939 
L 245.428708 175.071393 
L 261.447847 174.493305 
L 277.466986 173.943656 
L 293.486124 173.421046 
L 309.505263 172.924145 
L 325.524402 172.451688 
L 341.543541 172.002473 
L 357.562679 171.575356 
L 373.581818 171.169251 
" clip-path="url(#pfcc891f371)" style="fill: none; stroke: #1fffd7; stroke-width: 1.5; stroke-linecap: square"/>
   </g>
   <g id="line2d_57">
    <path d="M 69.218182 49.679517 
L 85.237321 62.938967 
L 101.256459 73.64205 
L 117.275598 81.24652 
L 133.294737 91.761243 
L 149.313876 97.786258 
L 165.333014 103.37207 
L 181.352153 105.55746 
L 197.371292 107.264885 
L 213.390431 109.796264 
L 229.409569 112.429289 
L 245.428708 114.932785 
L 261.447847 117.313126 
L 277.466986 119.576369 
L 293.486124 121.728276 
L 309.505263 123.774322 
L 325.524402 125.719717 
L 341.543541 127.569411 
L 357.562679 129.328112 
L 373.581818 131.000296 
" clip-path="url(#pfcc891f371)" style="fill: none; stroke: #29ffce; stroke-width: 1.5; stroke-linecap: square"/>
   </g>
   <g id="line2d_58">
    <path d="M 69.218182 141.443816 
L 85.237321 145.383127 
L 101.256459 149.78407 
L 117.275598 148.482456 
L 133.294737 148.48907 
L 149.313876 177.504618 
L 165.333014 177.858556 
L 181.352153 177.329024 
L 197.371292 176.920301 
L 213.390431 176.318843 
L 229.409569 175.67939 
L 245.428708 175.071393 
L 261.447847 174.493305 
L 277.466986 173.943656 
L 293.486124 173.421046 
L 309.505263 172.924145 
L 325.524402 172.451688 
L 341.543541 172.002473 
L 357.562679 171.575356 
L 373.581818 171.169251 
" clip-path="url(#pfcc891f371)" style="fill: none; stroke: #30ffc7; stroke-width: 1.5; stroke-linecap: square"/>
   </g>
   <g id="line2d_59">
    <path d="M 69.218182 65.278795 
L 85.237321 69.379549 
L 101.256459 76.1896 
L 117.275598 84.713433 
L 133.294737 92.449259 
L 149.313876 96.881699 
L 165.333014 102.411692 
L 181.352153 104.654638 
L 197.371292 106.38985 
L 213.390431 109.796264 
L 229.409569 112.429289 
L 245.428708 114.932785 
L 261.447847 117.313126 
L 277.466986 119.576369 
L 293.486124 121.728276 
L 309.505263 123.774322 
L 325.524402 125.719717 
L 341.543541 127.569411 
L 357.562679 129.328112 
L 373.581818 131.000296 
" clip-path="url(#pfcc891f371)" style="fill: none; stroke: #39ffbe; stroke-width: 1.5; stroke-linecap: square"/>
   </g>
   <g id="line2d_60">
    <path d="M 69.218182 193.799047 
L 85.237321 195.38529 
L 101.256459 195.687662 
L 117.275598 190.853796 
L 133.294737 187.807878 
L 149.313876 181.909149 
L 165.333014 177.858556 
L 181.352153 177.329024 
L 197.371292 176.920301 
L 213.390431 176.318843 
L 229.409569 175.67939 
L 245.428708 175.071393 
L 261.447847 174.493305 
L 277.466986 173.943656 
L 293.486124 173.421046 
L 309.505263 172.924145 
L 325.524402 172.451688 
L 341.543541 172.002473 
L 357.562679 171.575356 
L 373.581818 171.169251 
" clip-path="url(#pfcc891f371)" style="fill: none; stroke: #43ffb4; stroke-width: 1.5; stroke-linecap: square"/>
   </g>
   <g id="line2d_61">
    <path d="M 69.218182 181.842142 
L 85.237321 185.461151 
L 101.256459 192.152349 
L 117.275598 189.929764 
L 133.294737 187.527037 
L 149.313876 181.885543 
L 165.333014 177.858556 
L 181.352153 177.329024 
L 197.371292 176.920301 
L 213.390431 176.318843 
L 229.409569 175.67939 
L 245.428708 175.071393 
L 261.447847 174.493305 
L 277.466986 173.943656 
L 293.486124 173.421046 
L 309.505263 172.924145 
L 325.524402 172.451688 
L 341.543541 172.002473 
L 357.562679 171.575356 
L 373.581818 171.169251 
" clip-path="url(#pfcc891f371)" style="fill: none; stroke: #49ffad; stroke-width: 1.5; stroke-linecap: square"/>
   </g>
   <g id="line2d_62">
    <path d="M 69.218182 148.401373 
L 85.237321 155.643653 
L 101.256459 162.360307 
L 117.275598 178.948071 
L 133.294737 179.424566 
L 149.313876 178.723056 
L 165.333014 177.858556 
L 181.352153 177.329024 
L 197.371292 176.920301 
L 213.390431 176.318843 
L 229.409569 175.67939 
L 245.428708 175.071393 
L 261.447847 174.493305 
L 277.466986 173.943656 
L 293.486124 173.421046 
L 309.505263 172.924145 
L 325.524402 172.451688 
L 341.543541 172.002473 
L 357.562679 171.575356 
L 373.581818 171.169251 
" clip-path="url(#pfcc891f371)" style="fill: none; stroke: #53ffa4; stroke-width: 1.5; stroke-linecap: square"/>
   </g>
   <g id="line2d_63">
    <path d="M 69.218182 49.724964 
L 85.237321 64.306071 
L 101.256459 75.443232 
L 117.275598 83.310871 
L 133.294737 93.527583 
L 149.313876 97.94982 
L 165.333014 103.37207 
L 181.352153 105.55746 
L 197.371292 107.264885 
L 213.390431 109.796264 
L 229.409569 112.429289 
L 245.428708 114.932785 
L 261.447847 117.313126 
L 277.466986 119.576369 
L 293.486124 121.728276 
L 309.505263 123.774322 
L 325.524402 125.719717 
L 341.543541 127.569411 
L 357.562679 129.328112 
L 373.581818 131.000296 
" clip-path="url(#pfcc891f371)" style="fill: none; stroke: #5aff9d; stroke-width: 1.5; stroke-linecap: square"/>
   </g>
   <g id="line2d_64">
    <path d="M 69.218182 178.222343 
L 85.237321 181.105776 
L 101.256459 189.93509 
L 117.275598 189.506928 
L 133.294737 187.807878 
L 149.313876 181.909149 
L 165.333014 177.858556 
L 181.352153 177.329024 
L 197.371292 176.920301 
L 213.390431 176.318843 
L 229.409569 175.67939 
L 245.428708 175.071393 
L 261.447847 174.493305 
L 277.466986 173.943656 
L 293.486124 173.421046 
L 309.505263 172.924145 
L 325.524402 172.451688 
L 341.543541 172.002473 
L 357.562679 171.575356 
L 373.581818 171.169251 
" clip-path="url(#pfcc891f371)" style="fill: none; stroke: #63ff94; stroke-width: 1.5; stroke-linecap: square"/>
   </g>
   <g id="line2d_65">
    <path d="M 69.218182 180.259076 
L 85.237321 183.598882 
L 101.256459 192.109356 
L 117.275598 189.889253 
L 133.294737 187.527037 
L 149.313876 181.885543 
L 165.333014 177.858556 
L 181.352153 177.329024 
L 197.371292 176.920301 
L 213.390431 176.318843 
L 229.409569 175.67939 
L 245.428708 175.071393 
L 261.447847 174.493305 
L 277.466986 173.943656 
L 293.486124 173.421046 
L 309.505263 172.924145 
L 325.524402 172.451688 
L 341.543541 172.002473 
L 357.562679 171.575356 
L 373.581818 171.169251 
" clip-path="url(#pfcc891f371)" style="fill: none; stroke: #6aff8d; stroke-width: 1.5; stroke-linecap: square"/>
   </g>
   <g id="line2d_66">
    <path d="M 69.218182 69.844338 
L 85.237321 76.455342 
L 101.256459 83.109948 
L 117.275598 88.642582 
L 133.294737 93.147821 
L 149.313876 97.94982 
L 165.333014 103.37207 
L 181.352153 105.55746 
L 197.371292 107.264885 
L 213.390431 109.796264 
L 229.409569 112.429289 
L 245.428708 114.932785 
L 261.447847 117.313126 
L 277.466986 119.576369 
L 293.486124 121.728276 
L 309.505263 123.774322 
L 325.524402 125.719717 
L 341.543541 127.569411 
L 357.562679 129.328112 
L 373.581818 131.000296 
" clip-path="url(#pfcc891f371)" style="fill: none; stroke: #73ff83; stroke-width: 1.5; stroke-linecap: square"/>
   </g>
   <g id="line2d_67">
    <path d="M 69.218182 178.232479 
L 85.237321 181.303009 
L 101.256459 190.954464 
L 117.275598 190.102564 
L 133.294737 187.754739 
L 149.313876 182.23089 
L 165.333014 178.137285 
L 181.352153 177.586456 
L 197.371292 177.168711 
L 213.390431 176.318843 
L 229.409569 175.67939 
L 245.428708 175.071393 
L 261.447847 174.493305 
L 277.466986 173.943656 
L 293.486124 173.421046 
L 309.505263 172.924145 
L 325.524402 172.451688 
L 341.543541 172.002473 
L 357.562679 171.575356 
L 373.581818 171.169251 
" clip-path="url(#pfcc891f371)" style="fill: none; stroke: #7dff7a; stroke-width: 1.5; stroke-linecap: square"/>
   </g>
   <g id="line2d_68">
    <path d="M 69.218182 205.757986 
L 85.237321 202.666503 
L 101.256459 197.414417 
L 117.275598 191.203339 
L 133.294737 187.527037 
L 149.313876 181.885543 
L 165.333014 177.858556 
L 181.352153 177.329024 
L 197.371292 176.920301 
L 213.390431 176.318843 
L 229.409569 175.67939 
L 245.428708 175.071393 
L 261.447847 174.493305 
L 277.466986 173.943656 
L 293.486124 173.421046 
L 309.505263 172.924145 
L 325.524402 172.451688 
L 341.543541 172.002473 
L 357.562679 171.575356 
L 373.581818 171.169251 
" clip-path="url(#pfcc891f371)" style="fill: none; stroke: #83ff73; stroke-width: 1.5; stroke-linecap: square"/>
   </g>
   <g id="line2d_69">
    <path d="M 69.218182 178.596269 
L 85.237321 181.77809 
L 101.256459 190.779895 
L 117.275598 189.970492 
L 133.294737 187.345495 
L 149.313876 181.885543 
L 165.333014 177.858556 
L 181.352153 177.329024 
L 197.371292 176.920301 
L 213.390431 176.318843 
L 229.409569 175.67939 
L 245.428708 175.071393 
L 261.447847 174.493305 
L 277.466986 173.943656 
L 293.486124 173.421046 
L 309.505263 172.924145 
L 325.524402 172.451688 
L 341.543541 172.002473 
L 357.562679 171.575356 
L 373.581818 171.169251 
" clip-path="url(#pfcc891f371)" style="fill: none; stroke: #8dff6a; stroke-width: 1.5; stroke-linecap: square"/>
   </g>
   <g id="line2d_70">
    <path d="M 69.218182 143.566582 
L 85.237321 149.171207 
L 101.256459 154.882667 
L 117.275598 162.025687 
L 133.294737 178.363269 
L 149.313876 178.723056 
L 165.333014 177.858556 
L 181.352153 177.329024 
L 197.371292 176.920301 
L 213.390431 176.318843 
L 229.409569 175.67939 
L 245.428708 175.071393 
L 261.447847 174.493305 
L 277.466986 173.943656 
L 293.486124 173.421046 
L 309.505263 172.924145 
L 325.524402 172.451688 
L 341.543541 172.002473 
L 357.562679 171.575356 
L 373.581818 171.169251 
" clip-path="url(#pfcc891f371)" style="fill: none; stroke: #94ff63; stroke-width: 1.5; stroke-linecap: square"/>
   </g>
   <g id="line2d_71">
    <path d="M 69.218182 163.21821 
L 85.237321 162.328662 
L 101.256459 164.203057 
L 117.275598 179.455951 
L 133.294737 179.451103 
L 149.313876 178.723056 
L 165.333014 177.858556 
L 181.352153 177.329024 
L 197.371292 176.920301 
L 213.390431 176.318843 
L 229.409569 175.67939 
L 245.428708 175.071393 
L 261.447847 174.493305 
L 277.466986 173.943656 
L 293.486124 173.421046 
L 309.505263 172.924145 
L 325.524402 172.451688 
L 341.543541 172.002473 
L 357.562679 171.575356 
L 373.581818 171.169251 
" clip-path="url(#pfcc891f371)" style="fill: none; stroke: #9dff5a; stroke-width: 1.5; stroke-linecap: square"/>
   </g>
   <g id="line2d_72">
    <path d="M 69.218182 215.059376 
L 85.237321 205.144978 
L 101.256459 198.405029 
L 117.275598 192.058082 
L 133.294737 187.789947 
L 149.313876 182.23089 
L 165.333014 178.137285 
L 181.352153 177.586456 
L 197.371292 177.168711 
L 213.390431 176.318843 
L 229.409569 175.67939 
L 245.428708 175.071393 
L 261.447847 174.493305 
L 277.466986 173.943656 
L 293.486124 173.421046 
L 309.505263 172.924145 
L 325.524402 172.451688 
L 341.543541 172.002473 
L 357.562679 171.575356 
L 373.581818 171.169251 
" clip-path="url(#pfcc891f371)" style="fill: none; stroke: #a4ff53; stroke-width: 1.5; stroke-linecap: square"/>
   </g>
   <g id="line2d_73">
    <path d="M 69.218182 130.991442 
L 85.237321 130.391077 
L 101.256459 135.619431 
L 117.275598 140.402586 
L 133.294737 145.83541 
L 149.313876 150.676643 
L 165.333014 176.594263 
L 181.352153 177.329024 
L 197.371292 176.920301 
L 213.390431 176.318843 
L 229.409569 175.67939 
L 245.428708 175.071393 
L 261.447847 174.493305 
L 277.466986 173.943656 
L 293.486124 173.421046 
L 309.505263 172.924145 
L 325.524402 172.451688 
L 341.543541 172.002473 
L 357.562679 171.575356 
L 373.581818 171.169251 
" clip-path="url(#pfcc891f371)" style="fill: none; stroke: #adff49; stroke-width: 1.5; stroke-linecap: square"/>
   </g>
   <g id="line2d_74">
    <path d="M 69.218182 165.262207 
L 85.237321 164.416176 
L 101.256459 166.982096 
L 117.275598 179.469434 
L 133.294737 179.589628 
L 149.313876 178.723056 
L 165.333014 177.858556 
L 181.352153 177.329024 
L 197.371292 176.920301 
L 213.390431 176.318843 
L 229.409569 175.67939 
L 245.428708 175.071393 
L 261.447847 174.493305 
L 277.466986 173.943656 
L 293.486124 173.421046 
L 309.505263 172.924145 
L 325.524402 172.451688 
L 341.543541 172.002473 
L 357.562679 171.575356 
L 373.581818 171.169251 
" clip-path="url(#pfcc891f371)" style="fill: none; stroke: #b4ff43; stroke-width: 1.5; stroke-linecap: square"/>
   </g>
   <g id="line2d_75">
    <path d="M 69.218182 78.407339 
L 85.237321 77.183028 
L 101.256459 82.397503 
L 117.275598 87.73778 
L 133.294737 92.449259 
L 149.313876 96.881699 
L 165.333014 102.411692 
L 181.352153 104.654638 
L 197.371292 106.38985 
L 213.390431 109.796264 
L 229.409569 112.429289 
L 245.428708 114.932785 
L 261.447847 117.313126 
L 277.466986 119.576369 
L 293.486124 121.728276 
L 309.505263 123.774322 
L 325.524402 125.719717 
L 341.543541 127.569411 
L 357.562679 129.328112 
L 373.581818 131.000296 
" clip-path="url(#pfcc891f371)" style="fill: none; stroke: #beff39; stroke-width: 1.5; stroke-linecap: square"/>
   </g>
   <g id="line2d_76">
    <path d="M 69.218182 137.367516 
L 85.237321 134.480905 
L 101.256459 137.090428 
L 117.275598 141.822554 
L 133.294737 148.517065 
L 149.313876 177.504618 
L 165.333014 177.858556 
L 181.352153 177.329024 
L 197.371292 176.920301 
L 213.390431 176.318843 
L 229.409569 175.67939 
L 245.428708 175.071393 
L 261.447847 174.493305 
L 277.466986 173.943656 
L 293.486124 173.421046 
L 309.505263 172.924145 
L 325.524402 172.451688 
L 341.543541 172.002473 
L 357.562679 171.575356 
L 373.581818 171.169251 
" clip-path="url(#pfcc891f371)" style="fill: none; stroke: #c7ff30; stroke-width: 1.5; stroke-linecap: square"/>
   </g>
   <g id="line2d_77">
    <path d="M 69.218182 215.14432 
L 85.237321 204.894043 
L 101.256459 198.170664 
L 117.275598 191.805866 
L 133.294737 187.527037 
L 149.313876 181.885543 
L 165.333014 177.858556 
L 181.352153 177.329024 
L 197.371292 176.920301 
L 213.390431 176.318843 
L 229.409569 175.67939 
L 245.428708 175.071393 
L 261.447847 174.493305 
L 277.466986 173.943656 
L 293.486124 173.421046 
L 309.505263 172.924145 
L 325.524402 172.451688 
L 341.543541 172.002473 
L 357.562679 171.575356 
L 373.581818 171.169251 
" clip-path="url(#pfcc891f371)" style="fill: none; stroke: #ceff29; stroke-width: 1.5; stroke-linecap: square"/>
   </g>
   <g id="line2d_78">
    <path d="M 69.218182 135.527355 
L 85.237321 134.758367 
L 101.256459 137.236785 
L 117.275598 142.019537 
L 133.294737 148.546878 
L 149.313876 177.504618 
L 165.333014 177.858556 
L 181.352153 177.329024 
L 197.371292 176.920301 
L 213.390431 176.318843 
L 229.409569 175.67939 
L 245.428708 175.071393 
L 261.447847 174.493305 
L 277.466986 173.943656 
L 293.486124 173.421046 
L 309.505263 172.924145 
L 325.524402 172.451688 
L 341.543541 172.002473 
L 357.562679 171.575356 
L 373.581818 171.169251 
" clip-path="url(#pfcc891f371)" style="fill: none; stroke: #d7ff1f; stroke-width: 1.5; stroke-linecap: square"/>
   </g>
   <g id="line2d_79">
    <path d="M 69.218182 233.686215 
L 85.237321 220.366681 
L 101.256459 199.921627 
L 117.275598 191.672635 
L 133.294737 187.293509 
L 149.313876 181.779381 
L 165.333014 177.639178 
L 181.352153 177.112918 
L 197.371292 176.709798 
L 213.390431 176.318843 
L 229.409569 175.67939 
L 245.428708 175.071393 
L 261.447847 174.493305 
L 277.466986 173.943656 
L 293.486124 173.421046 
L 309.505263 172.924145 
L 325.524402 172.451688 
L 341.543541 172.002473 
L 357.562679 171.575356 
L 373.581818 171.169251 
" clip-path="url(#pfcc891f371)" style="fill: none; stroke: #deff19; stroke-width: 1.5; stroke-linecap: square"/>
   </g>
   <g id="line2d_80">
    <path d="M 69.218182 178.056312 
L 85.237321 180.127638 
L 101.256459 186.625012 
L 117.275598 189.22913 
L 133.294737 187.527037 
L 149.313876 181.885543 
L 165.333014 177.858556 
L 181.352153 177.329024 
L 197.371292 176.920301 
L 213.390431 176.318843 
L 229.409569 175.67939 
L 245.428708 175.071393 
L 261.447847 174.493305 
L 277.466986 173.943656 
L 293.486124 173.421046 
L 309.505263 172.924145 
L 325.524402 172.451688 
L 341.543541 172.002473 
L 357.562679 171.575356 
L 373.581818 171.169251 
" clip-path="url(#pfcc891f371)" style="fill: none; stroke: #e7ff0f; stroke-width: 1.5; stroke-linecap: square"/>
   </g>
   <g id="line2d_81">
    <path d="M 69.218182 218.335014 
L 85.237321 206.091378 
L 101.256459 198.778232 
L 117.275598 191.805866 
L 133.294737 187.527037 
L 149.313876 181.885543 
L 165.333014 177.858556 
L 181.352153 177.329024 
L 197.371292 176.920301 
L 213.390431 176.318843 
L 229.409569 175.67939 
L 245.428708 175.071393 
L 261.447847 174.493305 
L 277.466986 173.943656 
L 293.486124 173.421046 
L 309.505263 172.924145 
L 325.524402 172.451688 
L 341.543541 172.002473 
L 357.562679 171.575356 
L 373.581818 171.169251 
" clip-path="url(#pfcc891f371)" style="fill: none; stroke: #eeff09; stroke-width: 1.5; stroke-linecap: square"/>
   </g>
   <g id="line2d_82">
    <path d="M 69.218182 198.797044 
L 85.237321 200.591319 
L 101.256459 196.282207 
L 117.275598 191.369869 
L 133.294737 187.754739 
L 149.313876 182.23089 
L 165.333014 178.137285 
L 181.352153 177.586456 
L 197.371292 177.168711 
L 213.390431 176.318843 
L 229.409569 175.67939 
L 245.428708 175.071393 
L 261.447847 174.493305 
L 277.466986 173.943656 
L 293.486124 173.421046 
L 309.505263 172.924145 
L 325.524402 172.451688 
L 341.543541 172.002473 
L 357.562679 171.575356 
L 373.581818 171.169251 
" clip-path="url(#pfcc891f371)" style="fill: none; stroke: #f8f500; stroke-width: 1.5; stroke-linecap: square"/>
   </g>
   <g id="line2d_83">
    <path d="M 69.218182 234.267229 
L 85.237321 221.053417 
L 101.256459 201.017574 
L 117.275598 191.805866 
L 133.294737 187.496457 
L 149.313876 181.885543 
L 165.333014 177.858556 
L 181.352153 177.329024 
L 197.371292 176.920301 
L 213.390431 176.318843 
L 229.409569 175.67939 
L 245.428708 175.071393 
L 261.447847 174.493305 
L 277.466986 173.943656 
L 293.486124 173.421046 
L 309.505263 172.924145 
L 325.524402 172.451688 
L 341.543541 172.002473 
L 357.562679 171.575356 
L 373.581818 171.169251 
" clip-path="url(#pfcc891f371)" style="fill: none; stroke: #feed00; stroke-width: 1.5; stroke-linecap: square"/>
   </g>
   <g id="line2d_84">
    <path d="M 69.218182 229.080766 
L 85.237321 219.728639 
L 101.256459 200.401055 
L 117.275598 192.058082 
L 133.294737 187.789947 
L 149.313876 182.23089 
L 165.333014 178.137285 
L 181.352153 177.586456 
L 197.371292 177.168711 
L 213.390431 176.318843 
L 229.409569 175.67939 
L 245.428708 175.071393 
L 261.447847 174.493305 
L 277.466986 173.943656 
L 293.486124 173.421046 
L 309.505263 172.924145 
L 325.524402 172.451688 
L 341.543541 172.002473 
L 357.562679 171.575356 
L 373.581818 171.169251 
" clip-path="url(#pfcc891f371)" style="fill: none; stroke: #ffe200; stroke-width: 1.5; stroke-linecap: square"/>
   </g>
   <g id="line2d_85">
    <path d="M 69.218182 147.598441 
L 85.237321 153.246293 
L 101.256459 157.225551 
L 117.275598 168.735928 
L 133.294737 178.522424 
L 149.313876 179.026466 
L 165.333014 178.137285 
L 181.352153 177.586456 
L 197.371292 177.168711 
L 213.390431 176.318843 
L 229.409569 175.67939 
L 245.428708 175.071393 
L 261.447847 174.493305 
L 277.466986 173.943656 
L 293.486124 173.421046 
L 309.505263 172.924145 
L 325.524402 172.451688 
L 341.543541 172.002473 
L 357.562679 171.575356 
L 373.581818 171.169251 
" clip-path="url(#pfcc891f371)" style="fill: none; stroke: #ffd700; stroke-width: 1.5; stroke-linecap: square"/>
   </g>
   <g id="line2d_86">
    <path d="M 69.218182 220.401774 
L 85.237321 210.571827 
L 101.256459 199.769365 
L 117.275598 192.058082 
L 133.294737 187.789947 
L 149.313876 182.23089 
L 165.333014 178.137285 
L 181.352153 177.586456 
L 197.371292 177.168711 
L 213.390431 176.318843 
L 229.409569 175.67939 
L 245.428708 175.071393 
L 261.447847 174.493305 
L 277.466986 173.943656 
L 293.486124 173.421046 
L 309.505263 172.924145 
L 325.524402 172.451688 
L 341.543541 172.002473 
L 357.562679 171.575356 
L 373.581818 171.169251 
" clip-path="url(#pfcc891f371)" style="fill: none; stroke: #ffd000; stroke-width: 1.5; stroke-linecap: square"/>
   </g>
   <g id="line2d_87">
    <path d="M 69.218182 63.986252 
L 85.237321 68.677317 
L 101.256459 75.56766 
L 117.275598 81.792202 
L 133.294737 93.381354 
L 149.313876 97.94982 
L 165.333014 103.37207 
L 181.352153 105.55746 
L 197.371292 107.264885 
L 213.390431 109.796264 
L 229.409569 112.429289 
L 245.428708 114.932785 
L 261.447847 117.313126 
L 277.466986 119.576369 
L 293.486124 121.728276 
L 309.505263 123.774322 
L 325.524402 125.719717 
L 341.543541 127.569411 
L 357.562679 129.328112 
L 373.581818 131.000296 
" clip-path="url(#pfcc891f371)" style="fill: none; stroke: #ffc400; stroke-width: 1.5; stroke-linecap: square"/>
   </g>
   <g id="line2d_88">
    <path d="M 69.218182 187.769221 
L 85.237321 189.582812 
L 101.256459 193.954499 
L 117.275598 190.102564 
L 133.294737 187.789947 
L 149.313876 182.23089 
L 165.333014 178.137285 
L 181.352153 177.586456 
L 197.371292 177.168711 
L 213.390431 176.318843 
L 229.409569 175.67939 
L 245.428708 175.071393 
L 261.447847 174.493305 
L 277.466986 173.943656 
L 293.486124 173.421046 
L 309.505263 172.924145 
L 325.524402 172.451688 
L 341.543541 172.002473 
L 357.562679 171.575356 
L 373.581818 171.169251 
" clip-path="url(#pfcc891f371)" style="fill: none; stroke: #ffbd00; stroke-width: 1.5; stroke-linecap: square"/>
   </g>
   <g id="line2d_89">
    <path d="M 69.218182 218.843832 
L 85.237321 208.404341 
L 101.256459 199.754833 
L 117.275598 192.058082 
L 133.294737 187.789947 
L 149.313876 182.23089 
L 165.333014 178.137285 
L 181.352153 177.586456 
L 197.371292 177.168711 
L 213.390431 176.318843 
L 229.409569 175.67939 
L 245.428708 175.071393 
L 261.447847 174.493305 
L 277.466986 173.943656 
L 293.486124 173.421046 
L 309.505263 172.924145 
L 325.524402 172.451688 
L 341.543541 172.002473 
L 357.562679 171.575356 
L 373.581818 171.169251 
" clip-path="url(#pfcc891f371)" style="fill: none; stroke: #ffb200; stroke-width: 1.5; stroke-linecap: square"/>
   </g>
   <g id="line2d_90">
    <path d="M 69.218182 234.201366 
L 85.237321 221.233032 
L 101.256459 200.83729 
L 117.275598 191.779957 
L 133.294737 187.527037 
L 149.313876 181.885543 
L 165.333014 177.858556 
L 181.352153 177.329024 
L 197.371292 176.920301 
L 213.390431 176.318843 
L 229.409569 175.67939 
L 245.428708 175.071393 
L 261.447847 174.493305 
L 277.466986 173.943656 
L 293.486124 173.421046 
L 309.505263 172.924145 
L 325.524402 172.451688 
L 341.543541 172.002473 
L 357.562679 171.575356 
L 373.581818 171.169251 
" clip-path="url(#pfcc891f371)" style="fill: none; stroke: #ffab00; stroke-width: 1.5; stroke-linecap: square"/>
   </g>
   <g id="line2d_91">
    <path d="M 69.218182 137.069591 
L 85.237321 134.602077 
L 101.256459 137.09368 
L 117.275598 141.880394 
L 133.294737 148.48907 
L 149.313876 177.504618 
L 165.333014 177.858556 
L 181.352153 177.329024 
L 197.371292 176.920301 
L 213.390431 176.318843 
L 229.409569 175.67939 
L 245.428708 175.071393 
L 261.447847 174.493305 
L 277.466986 173.943656 
L 293.486124 173.421046 
L 309.505263 172.924145 
L 325.524402 172.451688 
L 341.543541 172.002473 
L 357.562679 171.575356 
L 373.581818 171.169251 
" clip-path="url(#pfcc891f371)" style="fill: none; stroke: #ff9f00; stroke-width: 1.5; stroke-linecap: square"/>
   </g>
   <g id="line2d_92">
    <path d="M 69.218182 108.930308 
L 85.237321 114.924969 
L 101.256459 116.502838 
L 117.275598 115.316936 
L 133.294737 107.754204 
L 149.313876 106.885559 
L 165.333014 103.37207 
L 181.352153 105.55746 
L 197.371292 107.264885 
L 213.390431 109.796264 
L 229.409569 112.429289 
L 245.428708 114.932785 
L 261.447847 117.313126 
L 277.466986 119.576369 
L 293.486124 121.728276 
L 309.505263 123.774322 
L 325.524402 125.719717 
L 341.543541 127.569411 
L 357.562679 129.328112 
L 373.581818 131.000296 
" clip-path="url(#pfcc891f371)" style="fill: none; stroke: #ff9400; stroke-width: 1.5; stroke-linecap: square"/>
   </g>
   <g id="line2d_93">
    <path d="M 69.218182 186.731715 
L 85.237321 187.803336 
L 101.256459 193.221828 
L 117.275598 190.159352 
L 133.294737 187.789947 
L 149.313876 182.23089 
L 165.333014 178.137285 
L 181.352153 177.586456 
L 197.371292 177.168711 
L 213.390431 176.318843 
L 229.409569 175.67939 
L 245.428708 175.071393 
L 261.447847 174.493305 
L 277.466986 173.943656 
L 293.486124 173.421046 
L 309.505263 172.924145 
L 325.524402 172.451688 
L 341.543541 172.002473 
L 357.562679 171.575356 
L 373.581818 171.169251 
" clip-path="url(#pfcc891f371)" style="fill: none; stroke: #ff8d00; stroke-width: 1.5; stroke-linecap: square"/>
   </g>
   <g id="line2d_94">
    <path d="M 69.218182 213.590353 
L 85.237321 204.697557 
L 101.256459 198.051499 
L 117.275598 191.779957 
L 133.294737 187.527037 
L 149.313876 181.885543 
L 165.333014 177.858556 
L 181.352153 177.329024 
L 197.371292 176.920301 
L 213.390431 176.318843 
L 229.409569 175.67939 
L 245.428708 175.071393 
L 261.447847 174.493305 
L 277.466986 173.943656 
L 293.486124 173.421046 
L 309.505263 172.924145 
L 325.524402 172.451688 
L 341.543541 172.002473 
L 357.562679 171.575356 
L 373.581818 171.169251 
" clip-path="url(#pfcc891f371)" style="fill: none; stroke: #ff8200; stroke-width: 1.5; stroke-linecap: square"/>
   </g>
   <g id="line2d_95">
    <path d="M 69.218182 190.756591 
L 85.237321 193.255304 
L 101.256459 194.758775 
L 117.275598 190.102564 
L 133.294737 187.789947 
L 149.313876 182.23089 
L 165.333014 178.137285 
L 181.352153 177.586456 
L 197.371292 177.168711 
L 213.390431 176.318843 
L 229.409569 175.67939 
L 245.428708 175.071393 
L 261.447847 174.493305 
L 277.466986 173.943656 
L 293.486124 173.421046 
L 309.505263 172.924145 
L 325.524402 172.451688 
L 341.543541 172.002473 
L 357.562679 171.575356 
L 373.581818 171.169251 
" clip-path="url(#pfcc891f371)" style="fill: none; stroke: #ff7a00; stroke-width: 1.5; stroke-linecap: square"/>
   </g>
   <g id="line2d_96">
    <path d="M 69.218182 48.80318 
L 85.237321 65.362978 
L 101.256459 75.907987 
L 117.275598 83.227924 
L 133.294737 93.379663 
L 149.313876 97.94982 
L 165.333014 103.37207 
L 181.352153 105.55746 
L 197.371292 107.264885 
L 213.390431 109.796264 
L 229.409569 112.429289 
L 245.428708 114.932785 
L 261.447847 117.313126 
L 277.466986 119.576369 
L 293.486124 121.728276 
L 309.505263 123.774322 
L 325.524402 125.719717 
L 341.543541 127.569411 
L 357.562679 129.328112 
L 373.581818 131.000296 
" clip-path="url(#pfcc891f371)" style="fill: none; stroke: #ff6f00; stroke-width: 1.5; stroke-linecap: square"/>
   </g>
   <g id="line2d_97">
    <path d="M 69.218182 107.69901 
L 85.237321 114.399106 
L 101.256459 117.073769 
L 117.275598 117.956596 
L 133.294737 108.118782 
L 149.313876 107.383337 
L 165.333014 104.320799 
L 181.352153 106.484659 
L 197.371292 108.165394 
L 213.390431 109.796264 
L 229.409569 112.429289 
L 245.428708 114.932785 
L 261.447847 117.313126 
L 277.466986 119.576369 
L 293.486124 121.728276 
L 309.505263 123.774322 
L 325.524402 125.719717 
L 341.543541 127.569411 
L 357.562679 129.328112 
L 373.581818 131.000296 
" clip-path="url(#pfcc891f371)" style="fill: none; stroke: #ff6800; stroke-width: 1.5; stroke-linecap: square"/>
   </g>
   <g id="line2d_98">
    <path d="M 69.218182 44.443636 
L 85.237321 64.75313 
L 101.256459 75.993894 
L 117.275598 83.116447 
L 133.294737 93.201139 
L 149.313876 97.94982 
L 165.333014 103.37207 
L 181.352153 105.55746 
L 197.371292 107.264885 
L 213.390431 109.796264 
L 229.409569 112.429289 
L 245.428708 114.932785 
L 261.447847 117.313126 
L 277.466986 119.576369 
L 293.486124 121.728276 
L 309.505263 123.774322 
L 325.524402 125.719717 
L 341.543541 127.569411 
L 357.562679 129.328112 
L 373.581818 131.000296 
" clip-path="url(#pfcc891f371)" style="fill: none; stroke: #ff5d00; stroke-width: 1.5; stroke-linecap: square"/>
   </g>
   <g id="line2d_99">
    <path d="M 69.218182 186.828759 
L 85.237321 188.464935 
L 101.256459 193.03668 
L 117.275598 189.913795 
L 133.294737 187.527037 
L 149.313876 181.885543 
L 165.333014 177.858556 
L 181.352153 177.329024 
L 197.371292 176.920301 
L 213.390431 176.318843 
L 229.409569 175.67939 
L 245.428708 175.071393 
L 261.447847 174.493305 
L 277.466986 173.943656 
L 293.486124 173.421046 
L 309.505263 172.924145 
L 325.524402 172.451688 
L 341.543541 172.002473 
L 357.562679 171.575356 
L 373.581818 171.169251 
" clip-path="url(#pfcc891f371)" style="fill: none; stroke: #ff5500; stroke-width: 1.5; stroke-linecap: square"/>
   </g>
   <g id="line2d_100">
    <path d="M 69.218182 69.727093 
L 85.237321 76.328622 
L 101.256459 82.911187 
L 117.275598 88.318695 
L 133.294737 93.201139 
L 149.313876 97.94982 
L 165.333014 103.37207 
L 181.352153 105.55746 
L 197.371292 107.264885 
L 213.390431 109.796264 
L 229.409569 112.429289 
L 245.428708 114.932785 
L 261.447847 117.313126 
L 277.466986 119.576369 
L 293.486124 121.728276 
L 309.505263 123.774322 
L 325.524402 125.719717 
L 341.543541 127.569411 
L 357.562679 129.328112 
L 373.581818 131.000296 
" clip-path="url(#pfcc891f371)" style="fill: none; stroke: #ff4a00; stroke-width: 1.5; stroke-linecap: square"/>
   </g>
   <g id="line2d_101">
    <path d="M 69.218182 101.388697 
L 85.237321 106.11998 
L 101.256459 103.47063 
L 117.275598 101.139413 
L 133.294737 101.96959 
L 149.313876 99.15657 
L 165.333014 102.411692 
L 181.352153 104.654638 
L 197.371292 106.38985 
L 213.390431 109.796264 
L 229.409569 112.429289 
L 245.428708 114.932785 
L 261.447847 117.313126 
L 277.466986 119.576369 
L 293.486124 121.728276 
L 309.505263 123.774322 
L 325.524402 125.719717 
L 341.543541 127.569411 
L 357.562679 129.328112 
L 373.581818 131.000296 
" clip-path="url(#pfcc891f371)" style="fill: none; stroke: #ff3f00; stroke-width: 1.5; stroke-linecap: square"/>
   </g>
   <g id="line2d_102">
    <path d="M 69.218182 229.092314 
L 85.237321 220.287674 
L 101.256459 200.401055 
L 117.275598 192.058082 
L 133.294737 187.789947 
L 149.313876 182.23089 
L 165.333014 178.137285 
L 181.352153 177.586456 
L 197.371292 177.168711 
L 213.390431 176.318843 
L 229.409569 175.67939 
L 245.428708 175.071393 
L 261.447847 174.493305 
L 277.466986 173.943656 
L 293.486124 173.421046 
L 309.505263 172.924145 
L 325.524402 172.451688 
L 341.543541 172.002473 
L 357.562679 171.575356 
L 373.581818 171.169251 
" clip-path="url(#pfcc891f371)" style="fill: none; stroke: #ff3800; stroke-width: 1.5; stroke-linecap: square"/>
   </g>
   <g id="line2d_103">
    <path d="M 69.218182 131.157888 
L 85.237321 130.504789 
L 101.256459 135.671685 
L 117.275598 140.402586 
L 133.294737 145.83541 
L 149.313876 150.676643 
L 165.333014 176.594263 
L 181.352153 177.329024 
L 197.371292 176.920301 
L 213.390431 176.318843 
L 229.409569 175.67939 
L 245.428708 175.071393 
L 261.447847 174.493305 
L 277.466986 173.943656 
L 293.486124 173.421046 
L 309.505263 172.924145 
L 325.524402 172.451688 
L 341.543541 172.002473 
L 357.562679 171.575356 
L 373.581818 171.169251 
" clip-path="url(#pfcc891f371)" style="fill: none; stroke: #ff2d00; stroke-width: 1.5; stroke-linecap: square"/>
   </g>
   <g id="line2d_104">
    <path d="M 69.218182 139.296347 
L 85.237321 142.93441 
L 101.256459 146.302664 
L 117.275598 143.193101 
L 133.294737 148.555296 
L 149.313876 177.795149 
L 165.333014 178.137285 
L 181.352153 177.586456 
L 197.371292 177.168711 
L 213.390431 176.318843 
L 229.409569 175.67939 
L 245.428708 175.071393 
L 261.447847 174.493305 
L 277.466986 173.943656 
L 293.486124 173.421046 
L 309.505263 172.924145 
L 325.524402 172.451688 
L 341.543541 172.002473 
L 357.562679 171.575356 
L 373.581818 171.169251 
" clip-path="url(#pfcc891f371)" style="fill: none; stroke: #ff2500; stroke-width: 1.5; stroke-linecap: square"/>
   </g>
   <g id="line2d_105">
    <path d="M 69.218182 153.305929 
L 85.237321 160.988768 
L 101.256459 164.400954 
L 117.275598 179.449724 
L 133.294737 179.589628 
L 149.313876 178.723056 
L 165.333014 177.858556 
L 181.352153 177.329024 
L 197.371292 176.920301 
L 213.390431 176.318843 
L 229.409569 175.67939 
L 245.428708 175.071393 
L 261.447847 174.493305 
L 277.466986 173.943656 
L 293.486124 173.421046 
L 309.505263 172.924145 
L 325.524402 172.451688 
L 341.543541 172.002473 
L 357.562679 171.575356 
L 373.581818 171.169251 
" clip-path="url(#pfcc891f371)" style="fill: none; stroke: #ff1a00; stroke-width: 1.5; stroke-linecap: square"/>
   </g>
   <g id="line2d_106">
    <path d="M 69.218182 171.539152 
L 85.237321 170.496887 
L 101.256459 174.207821 
L 117.275598 181.716732 
L 133.294737 183.364797 
L 149.313876 178.743688 
L 165.333014 177.858556 
L 181.352153 177.329024 
L 197.371292 176.920301 
L 213.390431 176.318843 
L 229.409569 175.67939 
L 245.428708 175.071393 
L 261.447847 174.493305 
L 277.466986 173.943656 
L 293.486124 173.421046 
L 309.505263 172.924145 
L 325.524402 172.451688 
L 341.543541 172.002473 
L 357.562679 171.575356 
L 373.581818 171.169251 
" clip-path="url(#pfcc891f371)" style="fill: none; stroke: #ff1300; stroke-width: 1.5; stroke-linecap: square"/>
   </g>
   <g id="line2d_107">
    <path d="M 69.218182 207.605215 
L 85.237321 203.6188 
L 101.256459 197.656701 
L 117.275598 191.996722 
L 133.294737 187.789947 
L 149.313876 182.23089 
L 165.333014 178.137285 
L 181.352153 177.586456 
L 197.371292 177.168711 
L 213.390431 176.318843 
L 229.409569 175.67939 
L 245.428708 175.071393 
L 261.447847 174.493305 
L 277.466986 173.943656 
L 293.486124 173.421046 
L 309.505263 172.924145 
L 325.524402 172.451688 
L 341.543541 172.002473 
L 357.562679 171.575356 
L 373.581818 171.169251 
" clip-path="url(#pfcc891f371)" style="fill: none; stroke: #f10800; stroke-width: 1.5; stroke-linecap: square"/>
   </g>
   <g id="line2d_108">
    <path d="M 69.218182 185.821165 
L 85.237321 187.469493 
L 101.256459 192.98056 
L 117.275598 189.944427 
L 133.294737 187.527037 
L 149.313876 181.885543 
L 165.333014 177.858556 
L 181.352153 177.329024 
L 197.371292 176.920301 
L 213.390431 176.318843 
L 229.409569 175.67939 
L 245.428708 175.071393 
L 261.447847 174.493305 
L 277.466986 173.943656 
L 293.486124 173.421046 
L 309.505263 172.924145 
L 325.524402 172.451688 
L 341.543541 172.002473 
L 357.562679 171.575356 
L 373.581818 171.169251 
" clip-path="url(#pfcc891f371)" style="fill: none; stroke: #e80000; stroke-width: 1.5; stroke-linecap: square"/>
   </g>
   <g id="line2d_109">
    <path d="M 69.218182 64.244695 
L 85.237321 68.635272 
L 101.256459 75.29263 
L 117.275598 81.315473 
L 133.294737 91.761243 
L 149.313876 97.786258 
L 165.333014 103.37207 
L 181.352153 105.55746 
L 197.371292 107.264885 
L 213.390431 109.796264 
L 229.409569 112.429289 
L 245.428708 114.932785 
L 261.447847 117.313126 
L 277.466986 119.576369 
L 293.486124 121.728276 
L 309.505263 123.774322 
L 325.524402 125.719717 
L 341.543541 127.569411 
L 357.562679 129.328112 
L 373.581818 131.000296 
" clip-path="url(#pfcc891f371)" style="fill: none; stroke: #da0000; stroke-width: 1.5; stroke-linecap: square"/>
   </g>
   <g id="line2d_110">
    <path d="M 69.218182 97.608104 
L 85.237321 101.054865 
L 101.256459 95.861951 
L 117.275598 97.448045 
L 133.294737 95.761477 
L 149.313876 100.134498 
L 165.333014 103.37207 
L 181.352153 105.55746 
L 197.371292 107.264885 
L 213.390431 109.796264 
L 229.409569 112.429289 
L 245.428708 114.932785 
L 261.447847 117.313126 
L 277.466986 119.576369 
L 293.486124 121.728276 
L 309.505263 123.774322 
L 325.524402 125.719717 
L 341.543541 127.569411 
L 357.562679 129.328112 
L 373.581818 131.000296 
" clip-path="url(#pfcc891f371)" style="fill: none; stroke: #cd0000; stroke-width: 1.5; stroke-linecap: square"/>
   </g>
   <g id="line2d_111">
    <path d="M 69.218182 93.937292 
L 85.237321 93.901671 
L 101.256459 91.65863 
L 117.275598 90.21968 
L 133.294737 92.449259 
L 149.313876 96.881699 
L 165.333014 102.411692 
L 181.352153 104.654638 
L 197.371292 106.38985 
L 213.390431 109.796264 
L 229.409569 112.429289 
L 245.428708 114.932785 
L 261.447847 117.313126 
L 277.466986 119.576369 
L 293.486124 121.728276 
L 309.505263 123.774322 
L 325.524402 125.719717 
L 341.543541 127.569411 
L 357.562679 129.328112 
L 373.581818 131.000296 
" clip-path="url(#pfcc891f371)" style="fill: none; stroke: #c40000; stroke-width: 1.5; stroke-linecap: square"/>
   </g>
   <g id="line2d_112">
    <path d="M 69.218182 144.079937 
L 85.237321 149.341792 
L 101.256459 155.744579 
L 117.275598 162.832931 
L 133.294737 178.522424 
L 149.313876 179.026466 
L 165.333014 178.137285 
L 181.352153 177.586456 
L 197.371292 177.168711 
L 213.390431 176.318843 
L 229.409569 175.67939 
L 245.428708 175.071393 
L 261.447847 174.493305 
L 277.466986 173.943656 
L 293.486124 173.421046 
L 309.505263 172.924145 
L 325.524402 172.451688 
L 341.543541 172.002473 
L 357.562679 171.575356 
L 373.581818 171.169251 
" clip-path="url(#pfcc891f371)" style="fill: none; stroke: #b60000; stroke-width: 1.5; stroke-linecap: square"/>
   </g>
   <g id="line2d_113">
    <path d="M 69.218182 233.021305 
L 85.237321 220.851245 
L 101.256459 201.301958 
L 117.275598 192.058082 
L 133.294737 187.789947 
L 149.313876 182.23089 
L 165.333014 178.137285 
L 181.352153 177.586456 
L 197.371292 177.168711 
L 213.390431 176.318843 
L 229.409569 175.67939 
L 245.428708 175.071393 
L 261.447847 174.493305 
L 277.466986 173.943656 
L 293.486124 173.421046 
L 309.505263 172.924145 
L 325.524402 172.451688 
L 341.543541 172.002473 
L 357.562679 171.575356 
L 373.581818 171.169251 
" clip-path="url(#pfcc891f371)" style="fill: none; stroke: #ad0000; stroke-width: 1.5; stroke-linecap: square"/>
   </g>
   <g id="line2d_114">
    <path d="M 69.218182 236.485976 
L 85.237321 221.205146 
L 101.256459 200.98586 
L 117.275598 191.805866 
L 133.294737 187.496457 
L 149.313876 181.885543 
L 165.333014 177.858556 
L 181.352153 177.329024 
L 197.371292 176.920301 
L 213.390431 176.318843 
L 229.409569 175.67939 
L 245.428708 175.071393 
L 261.447847 174.493305 
L 277.466986 173.943656 
L 293.486124 173.421046 
L 309.505263 172.924145 
L 325.524402 172.451688 
L 341.543541 172.002473 
L 357.562679 171.575356 
L 373.581818 171.169251 
" clip-path="url(#pfcc891f371)" style="fill: none; stroke: #9f0000; stroke-width: 1.5; stroke-linecap: square"/>
   </g>
   <g id="line2d_115">
    <path d="M 69.218182 69.736129 
L 85.237321 75.986553 
L 101.256459 82.397503 
L 117.275598 87.73778 
L 133.294737 92.449259 
L 149.313876 96.881699 
L 165.333014 102.411692 
L 181.352153 104.654638 
L 197.371292 106.38985 
L 213.390431 109.796264 
L 229.409569 112.429289 
L 245.428708 114.932785 
L 261.447847 117.313126 
L 277.466986 119.576369 
L 293.486124 121.728276 
L 309.505263 123.774322 
L 325.524402 125.719717 
L 341.543541 127.569411 
L 357.562679 129.328112 
L 373.581818 131.000296 
" clip-path="url(#pfcc891f371)" style="fill: none; stroke: #960000; stroke-width: 1.5; stroke-linecap: square"/>
   </g>
   <g id="line2d_116">
    <path d="M 69.218182 124.884902 
L 85.237321 126.237586 
L 101.256459 131.617593 
L 117.275598 137.31776 
L 133.294737 135.099811 
L 149.313876 132.998799 
L 165.333014 110.434745 
L 181.352153 105.55746 
L 197.371292 107.264885 
L 213.390431 109.796264 
L 229.409569 112.429289 
L 245.428708 114.932785 
L 261.447847 117.313126 
L 277.466986 119.576369 
L 293.486124 121.728276 
L 309.505263 123.774322 
L 325.524402 125.719717 
L 341.543541 127.569411 
L 357.562679 129.328112 
L 373.581818 131.000296 
" clip-path="url(#pfcc891f371)" style="fill: none; stroke: #890000; stroke-width: 1.5; stroke-linecap: square"/>
   </g>
   <g id="patch_3">
    <path d="M 54 252 
L 54 34.56 
" style="fill: none; stroke: #000000; stroke-width: 0.8; stroke-linejoin: miter; stroke-linecap: square"/>
   </g>
   <g id="patch_4">
    <path d="M 388.8 252 
L 388.8 34.56 
" style="fill: none; stroke: #000000; stroke-width: 0.8; stroke-linejoin: miter; stroke-linecap: square"/>
   </g>
   <g id="patch_5">
    <path d="M 54 252 
L 388.8 252 
" style="fill: none; stroke: #000000; stroke-width: 0.8; stroke-linejoin: miter; stroke-linecap: square"/>
   </g>
   <g id="patch_6">
    <path d="M 54 34.56 
L 388.8 34.56 
" style="fill: none; stroke: #000000; stroke-width: 0.8; stroke-linejoin: miter; stroke-linecap: square"/>
   </g>
   <g id="text_19">
    <!-- topic 1 with confidence interval 0.2 -->
    <g transform="translate(88.722656 28.56)scale(0.15 -0.15)">
     <defs>
      <path id="DejaVuSans-63" d="M 3122 3366 
L 3122 2828 
Q 2878 2963 2633 3030 
Q 2388 3097 2138 3097 
Q 1578 3097 1268 2742 
Q 959 2388 959 1747 
Q 959 1106 1268 751 
Q 1578 397 2138 397 
Q 2388 397 2633 464 
Q 2878 531 3122 666 
L 3122 134 
Q 2881 22 2623 -34 
Q 2366 -91 2075 -91 
Q 1284 -91 818 406 
Q 353 903 353 1747 
Q 353 2603 823 3093 
Q 1294 3584 2113 3584 
Q 2378 3584 2631 3529 
Q 2884 3475 3122 3366 
z
" transform="scale(0.015625)"/>
      <path id="DejaVuSans-20" transform="scale(0.015625)"/>
      <path id="DejaVuSans-77" d="M 269 3500 
L 844 3500 
L 1563 769 
L 2278 3500 
L 2956 3500 
L 3675 769 
L 4391 3500 
L 4966 3500 
L 4050 0 
L 3372 0 
L 2619 2869 
L 1863 0 
L 1184 0 
L 269 3500 
z
" transform="scale(0.015625)"/>
      <path id="DejaVuSans-68" d="M 3513 2113 
L 3513 0 
L 2938 0 
L 2938 2094 
Q 2938 2591 2744 2837 
Q 2550 3084 2163 3084 
Q 1697 3084 1428 2787 
Q 1159 2491 1159 1978 
L 1159 0 
L 581 0 
L 581 4863 
L 1159 4863 
L 1159 2956 
Q 1366 3272 1645 3428 
Q 1925 3584 2291 3584 
Q 2894 3584 3203 3211 
Q 3513 2838 3513 2113 
z
" transform="scale(0.015625)"/>
      <path id="DejaVuSans-66" d="M 2375 4863 
L 2375 4384 
L 1825 4384 
Q 1516 4384 1395 4259 
Q 1275 4134 1275 3809 
L 1275 3500 
L 2222 3500 
L 2222 3053 
L 1275 3053 
L 1275 0 
L 697 0 
L 697 3053 
L 147 3053 
L 147 3500 
L 697 3500 
L 697 3744 
Q 697 4328 969 4595 
Q 1241 4863 1831 4863 
L 2375 4863 
z
" transform="scale(0.015625)"/>
      <path id="DejaVuSans-64" d="M 2906 2969 
L 2906 4863 
L 3481 4863 
L 3481 0 
L 2906 0 
L 2906 525 
Q 2725 213 2448 61 
Q 2172 -91 1784 -91 
Q 1150 -91 751 415 
Q 353 922 353 1747 
Q 353 2572 751 3078 
Q 1150 3584 1784 3584 
Q 2172 3584 2448 3432 
Q 2725 3281 2906 2969 
z
M 947 1747 
Q 947 1113 1208 752 
Q 1469 391 1925 391 
Q 2381 391 2643 752 
Q 2906 1113 2906 1747 
Q 2906 2381 2643 2742 
Q 2381 3103 1925 3103 
Q 1469 3103 1208 2742 
Q 947 2381 947 1747 
z
" transform="scale(0.015625)"/>
      <path id="DejaVuSans-76" d="M 191 3500 
L 800 3500 
L 1894 563 
L 2988 3500 
L 3597 3500 
L 2284 0 
L 1503 0 
L 191 3500 
z
" transform="scale(0.015625)"/>
      <path id="DejaVuSans-6c" d="M 603 4863 
L 1178 4863 
L 1178 0 
L 603 0 
L 603 4863 
z
" transform="scale(0.015625)"/>
     </defs>
     <use xlink:href="#DejaVuSans-74"/>
     <use xlink:href="#DejaVuSans-6f" x="39.208984"/>
     <use xlink:href="#DejaVuSans-70" x="100.390625"/>
     <use xlink:href="#DejaVuSans-69" x="163.867188"/>
     <use xlink:href="#DejaVuSans-63" x="191.650391"/>
     <use xlink:href="#DejaVuSans-20" x="246.630859"/>
     <use xlink:href="#DejaVuSans-31" x="278.417969"/>
     <use xlink:href="#DejaVuSans-20" x="342.041016"/>
     <use xlink:href="#DejaVuSans-77" x="373.828125"/>
     <use xlink:href="#DejaVuSans-69" x="455.615234"/>
     <use xlink:href="#DejaVuSans-74" x="483.398438"/>
     <use xlink:href="#DejaVuSans-68" x="522.607422"/>
     <use xlink:href="#DejaVuSans-20" x="585.986328"/>
     <use xlink:href="#DejaVuSans-63" x="617.773438"/>
     <use xlink:href="#DejaVuSans-6f" x="672.753906"/>
     <use xlink:href="#DejaVuSans-6e" x="733.935547"/>
     <use xlink:href="#DejaVuSans-66" x="797.314453"/>
     <use xlink:href="#DejaVuSans-69" x="832.519531"/>
     <use xlink:href="#DejaVuSans-64" x="860.302734"/>
     <use xlink:href="#DejaVuSans-65" x="923.779297"/>
     <use xlink:href="#DejaVuSans-6e" x="985.302734"/>
     <use xlink:href="#DejaVuSans-63" x="1048.681641"/>
     <use xlink:href="#DejaVuSans-65" x="1103.662109"/>
     <use xlink:href="#DejaVuSans-20" x="1165.185547"/>
     <use xlink:href="#DejaVuSans-69" x="1196.972656"/>
     <use xlink:href="#DejaVuSans-6e" x="1224.755859"/>
     <use xlink:href="#DejaVuSans-74" x="1288.134766"/>
     <use xlink:href="#DejaVuSans-65" x="1327.34375"/>
     <use xlink:href="#DejaVuSans-72" x="1388.867188"/>
     <use xlink:href="#DejaVuSans-76" x="1429.980469"/>
     <use xlink:href="#DejaVuSans-61" x="1489.160156"/>
     <use xlink:href="#DejaVuSans-6c" x="1550.439453"/>
     <use xlink:href="#DejaVuSans-20" x="1578.222656"/>
     <use xlink:href="#DejaVuSans-30" x="1610.009766"/>
     <use xlink:href="#DejaVuSans-2e" x="1673.632812"/>
     <use xlink:href="#DejaVuSans-32" x="1705.419922"/>
    </g>
   </g>
  </g>
 </g>
 <defs>
  <clipPath id="pfcc891f371">
   <rect x="54" y="34.56" width="334.8" height="217.44"/>
  </clipPath>
 </defs>
</svg>
