<?xml version="1.0" encoding="utf-8" standalone="no"?>
<!DOCTYPE svg PUBLIC "-//W3C//DTD SVG 1.1//EN"
  "http://www.w3.org/Graphics/SVG/1.1/DTD/svg11.dtd">
<svg xmlns:xlink="http://www.w3.org/1999/xlink" width="432pt" height="288pt" viewBox="0 0 432 288" xmlns="http://www.w3.org/2000/svg" version="1.1">
 <metadata>
  <rdf:RDF xmlns:dc="http://purl.org/dc/elements/1.1/" xmlns:cc="http://creativecommons.org/ns#" xmlns:rdf="http://www.w3.org/1999/02/22-rdf-syntax-ns#">
   <cc:Work>
    <dc:type rdf:resource="http://purl.org/dc/dcmitype/StillImage"/>
    <dc:date>2023-11-27T23:24:21.147919</dc:date>
    <dc:format>image/svg+xml</dc:format>
    <dc:creator>
     <cc:Agent>
      <dc:title>Matplotlib v3.5.1, https://matplotlib.org/</dc:title>
     </cc:Agent>
    </dc:creator>
   </cc:Work>
  </rdf:RDF>
 </metadata>
 <defs>
  <style type="text/css">*{stroke-linejoin: round; stroke-linecap: butt}</style>
 </defs>
 <g id="figure_1">
  <g id="patch_1">
   <path d="M 0 288 
L 432 288 
L 432 0 
L 0 0 
L 0 288 
z
" style="fill: none"/>
  </g>
  <g id="axes_1">
   <g id="patch_2">
    <path d="M 54 252 
L 388.8 252 
L 388.8 34.56 
L 54 34.56 
z
" style="fill: #ffffff"/>
   </g>
   <g id="matplotlib.axis_1">
    <g id="xtick_1">
     <g id="line2d_1">
      <defs>
       <path id="m63d0c04e83" d="M 0 0 
L 0 3.5 
" style="stroke: #000000; stroke-width: 0.8"/>
      </defs>
      <g>
       <use xlink:href="#m63d0c04e83" x="69.218182" y="252" style="stroke: #000000; stroke-width: 0.8"/>
      </g>
     </g>
     <g id="text_1">
      <!-- 0 -->
      <g transform="translate(66.036932 266.598437)scale(0.1 -0.1)">
       <defs>
        <path id="DejaVuSans-30" d="M 2034 4250 
Q 1547 4250 1301 3770 
Q 1056 3291 1056 2328 
Q 1056 1369 1301 889 
Q 1547 409 2034 409 
Q 2525 409 2770 889 
Q 3016 1369 3016 2328 
Q 3016 3291 2770 3770 
Q 2525 4250 2034 4250 
z
M 2034 4750 
Q 2819 4750 3233 4129 
Q 3647 3509 3647 2328 
Q 3647 1150 3233 529 
Q 2819 -91 2034 -91 
Q 1250 -91 836 529 
Q 422 1150 422 2328 
Q 422 3509 836 4129 
Q 1250 4750 2034 4750 
z
" transform="scale(0.015625)"/>
       </defs>
       <use xlink:href="#DejaVuSans-30"/>
      </g>
     </g>
    </g>
    <g id="xtick_2">
     <g id="line2d_2">
      <g>
       <use xlink:href="#m63d0c04e83" x="101.256459" y="252" style="stroke: #000000; stroke-width: 0.8"/>
      </g>
     </g>
     <g id="text_2">
      <!-- 2 -->
      <g transform="translate(98.075209 266.598437)scale(0.1 -0.1)">
       <defs>
        <path id="DejaVuSans-32" d="M 1228 531 
L 3431 531 
L 3431 0 
L 469 0 
L 469 531 
Q 828 903 1448 1529 
Q 2069 2156 2228 2338 
Q 2531 2678 2651 2914 
Q 2772 3150 2772 3378 
Q 2772 3750 2511 3984 
Q 2250 4219 1831 4219 
Q 1534 4219 1204 4116 
Q 875 4013 500 3803 
L 500 4441 
Q 881 4594 1212 4672 
Q 1544 4750 1819 4750 
Q 2544 4750 2975 4387 
Q 3406 4025 3406 3419 
Q 3406 3131 3298 2873 
Q 3191 2616 2906 2266 
Q 2828 2175 2409 1742 
Q 1991 1309 1228 531 
z
" transform="scale(0.015625)"/>
       </defs>
       <use xlink:href="#DejaVuSans-32"/>
      </g>
     </g>
    </g>
    <g id="xtick_3">
     <g id="line2d_3">
      <g>
       <use xlink:href="#m63d0c04e83" x="133.294737" y="252" style="stroke: #000000; stroke-width: 0.8"/>
      </g>
     </g>
     <g id="text_3">
      <!-- 4 -->
      <g transform="translate(130.113487 266.598437)scale(0.1 -0.1)">
       <defs>
        <path id="DejaVuSans-34" d="M 2419 4116 
L 825 1625 
L 2419 1625 
L 2419 4116 
z
M 2253 4666 
L 3047 4666 
L 3047 1625 
L 3713 1625 
L 3713 1100 
L 3047 1100 
L 3047 0 
L 2419 0 
L 2419 1100 
L 313 1100 
L 313 1709 
L 2253 4666 
z
" transform="scale(0.015625)"/>
       </defs>
       <use xlink:href="#DejaVuSans-34"/>
      </g>
     </g>
    </g>
    <g id="xtick_4">
     <g id="line2d_4">
      <g>
       <use xlink:href="#m63d0c04e83" x="165.333014" y="252" style="stroke: #000000; stroke-width: 0.8"/>
      </g>
     </g>
     <g id="text_4">
      <!-- 6 -->
      <g transform="translate(162.151764 266.598437)scale(0.1 -0.1)">
       <defs>
        <path id="DejaVuSans-36" d="M 2113 2584 
Q 1688 2584 1439 2293 
Q 1191 2003 1191 1497 
Q 1191 994 1439 701 
Q 1688 409 2113 409 
Q 2538 409 2786 701 
Q 3034 994 3034 1497 
Q 3034 2003 2786 2293 
Q 2538 2584 2113 2584 
z
M 3366 4563 
L 3366 3988 
Q 3128 4100 2886 4159 
Q 2644 4219 2406 4219 
Q 1781 4219 1451 3797 
Q 1122 3375 1075 2522 
Q 1259 2794 1537 2939 
Q 1816 3084 2150 3084 
Q 2853 3084 3261 2657 
Q 3669 2231 3669 1497 
Q 3669 778 3244 343 
Q 2819 -91 2113 -91 
Q 1303 -91 875 529 
Q 447 1150 447 2328 
Q 447 3434 972 4092 
Q 1497 4750 2381 4750 
Q 2619 4750 2861 4703 
Q 3103 4656 3366 4563 
z
" transform="scale(0.015625)"/>
       </defs>
       <use xlink:href="#DejaVuSans-36"/>
      </g>
     </g>
    </g>
    <g id="xtick_5">
     <g id="line2d_5">
      <g>
       <use xlink:href="#m63d0c04e83" x="197.371292" y="252" style="stroke: #000000; stroke-width: 0.8"/>
      </g>
     </g>
     <g id="text_5">
      <!-- 8 -->
      <g transform="translate(194.190042 266.598437)scale(0.1 -0.1)">
       <defs>
        <path id="DejaVuSans-38" d="M 2034 2216 
Q 1584 2216 1326 1975 
Q 1069 1734 1069 1313 
Q 1069 891 1326 650 
Q 1584 409 2034 409 
Q 2484 409 2743 651 
Q 3003 894 3003 1313 
Q 3003 1734 2745 1975 
Q 2488 2216 2034 2216 
z
M 1403 2484 
Q 997 2584 770 2862 
Q 544 3141 544 3541 
Q 544 4100 942 4425 
Q 1341 4750 2034 4750 
Q 2731 4750 3128 4425 
Q 3525 4100 3525 3541 
Q 3525 3141 3298 2862 
Q 3072 2584 2669 2484 
Q 3125 2378 3379 2068 
Q 3634 1759 3634 1313 
Q 3634 634 3220 271 
Q 2806 -91 2034 -91 
Q 1263 -91 848 271 
Q 434 634 434 1313 
Q 434 1759 690 2068 
Q 947 2378 1403 2484 
z
M 1172 3481 
Q 1172 3119 1398 2916 
Q 1625 2713 2034 2713 
Q 2441 2713 2670 2916 
Q 2900 3119 2900 3481 
Q 2900 3844 2670 4047 
Q 2441 4250 2034 4250 
Q 1625 4250 1398 4047 
Q 1172 3844 1172 3481 
z
" transform="scale(0.015625)"/>
       </defs>
       <use xlink:href="#DejaVuSans-38"/>
      </g>
     </g>
    </g>
    <g id="xtick_6">
     <g id="line2d_6">
      <g>
       <use xlink:href="#m63d0c04e83" x="229.409569" y="252" style="stroke: #000000; stroke-width: 0.8"/>
      </g>
     </g>
     <g id="text_6">
      <!-- 10 -->
      <g transform="translate(223.047069 266.598437)scale(0.1 -0.1)">
       <defs>
        <path id="DejaVuSans-31" d="M 794 531 
L 1825 531 
L 1825 4091 
L 703 3866 
L 703 4441 
L 1819 4666 
L 2450 4666 
L 2450 531 
L 3481 531 
L 3481 0 
L 794 0 
L 794 531 
z
" transform="scale(0.015625)"/>
       </defs>
       <use xlink:href="#DejaVuSans-31"/>
       <use xlink:href="#DejaVuSans-30" x="63.623047"/>
      </g>
     </g>
    </g>
    <g id="xtick_7">
     <g id="line2d_7">
      <g>
       <use xlink:href="#m63d0c04e83" x="261.447847" y="252" style="stroke: #000000; stroke-width: 0.8"/>
      </g>
     </g>
     <g id="text_7">
      <!-- 12 -->
      <g transform="translate(255.085347 266.598437)scale(0.1 -0.1)">
       <use xlink:href="#DejaVuSans-31"/>
       <use xlink:href="#DejaVuSans-32" x="63.623047"/>
      </g>
     </g>
    </g>
    <g id="xtick_8">
     <g id="line2d_8">
      <g>
       <use xlink:href="#m63d0c04e83" x="293.486124" y="252" style="stroke: #000000; stroke-width: 0.8"/>
      </g>
     </g>
     <g id="text_8">
      <!-- 14 -->
      <g transform="translate(287.123624 266.598437)scale(0.1 -0.1)">
       <use xlink:href="#DejaVuSans-31"/>
       <use xlink:href="#DejaVuSans-34" x="63.623047"/>
      </g>
     </g>
    </g>
    <g id="xtick_9">
     <g id="line2d_9">
      <g>
       <use xlink:href="#m63d0c04e83" x="325.524402" y="252" style="stroke: #000000; stroke-width: 0.8"/>
      </g>
     </g>
     <g id="text_9">
      <!-- 16 -->
      <g transform="translate(319.161902 266.598437)scale(0.1 -0.1)">
       <use xlink:href="#DejaVuSans-31"/>
       <use xlink:href="#DejaVuSans-36" x="63.623047"/>
      </g>
     </g>
    </g>
    <g id="xtick_10">
     <g id="line2d_10">
      <g>
       <use xlink:href="#m63d0c04e83" x="357.562679" y="252" style="stroke: #000000; stroke-width: 0.8"/>
      </g>
     </g>
     <g id="text_10">
      <!-- 18 -->
      <g transform="translate(351.200179 266.598437)scale(0.1 -0.1)">
       <use xlink:href="#DejaVuSans-31"/>
       <use xlink:href="#DejaVuSans-38" x="63.623047"/>
      </g>
     </g>
    </g>
    <g id="text_11">
     <!-- Iteration -->
     <g transform="translate(191.707969 283.315938)scale(0.14 -0.14)">
      <defs>
       <path id="DejaVuSans-49" d="M 628 4666 
L 1259 4666 
L 1259 0 
L 628 0 
L 628 4666 
z
" transform="scale(0.015625)"/>
       <path id="DejaVuSans-74" d="M 1172 4494 
L 1172 3500 
L 2356 3500 
L 2356 3053 
L 1172 3053 
L 1172 1153 
Q 1172 725 1289 603 
Q 1406 481 1766 481 
L 2356 481 
L 2356 0 
L 1766 0 
Q 1100 0 847 248 
Q 594 497 594 1153 
L 594 3053 
L 172 3053 
L 172 3500 
L 594 3500 
L 594 4494 
L 1172 4494 
z
" transform="scale(0.015625)"/>
       <path id="DejaVuSans-65" d="M 3597 1894 
L 3597 1613 
L 953 1613 
Q 991 1019 1311 708 
Q 1631 397 2203 397 
Q 2534 397 2845 478 
Q 3156 559 3463 722 
L 3463 178 
Q 3153 47 2828 -22 
Q 2503 -91 2169 -91 
Q 1331 -91 842 396 
Q 353 884 353 1716 
Q 353 2575 817 3079 
Q 1281 3584 2069 3584 
Q 2775 3584 3186 3129 
Q 3597 2675 3597 1894 
z
M 3022 2063 
Q 3016 2534 2758 2815 
Q 2500 3097 2075 3097 
Q 1594 3097 1305 2825 
Q 1016 2553 972 2059 
L 3022 2063 
z
" transform="scale(0.015625)"/>
       <path id="DejaVuSans-72" d="M 2631 2963 
Q 2534 3019 2420 3045 
Q 2306 3072 2169 3072 
Q 1681 3072 1420 2755 
Q 1159 2438 1159 1844 
L 1159 0 
L 581 0 
L 581 3500 
L 1159 3500 
L 1159 2956 
Q 1341 3275 1631 3429 
Q 1922 3584 2338 3584 
Q 2397 3584 2469 3576 
Q 2541 3569 2628 3553 
L 2631 2963 
z
" transform="scale(0.015625)"/>
       <path id="DejaVuSans-61" d="M 2194 1759 
Q 1497 1759 1228 1600 
Q 959 1441 959 1056 
Q 959 750 1161 570 
Q 1363 391 1709 391 
Q 2188 391 2477 730 
Q 2766 1069 2766 1631 
L 2766 1759 
L 2194 1759 
z
M 3341 1997 
L 3341 0 
L 2766 0 
L 2766 531 
Q 2569 213 2275 61 
Q 1981 -91 1556 -91 
Q 1019 -91 701 211 
Q 384 513 384 1019 
Q 384 1609 779 1909 
Q 1175 2209 1959 2209 
L 2766 2209 
L 2766 2266 
Q 2766 2663 2505 2880 
Q 2244 3097 1772 3097 
Q 1472 3097 1187 3025 
Q 903 2953 641 2809 
L 641 3341 
Q 956 3463 1253 3523 
Q 1550 3584 1831 3584 
Q 2591 3584 2966 3190 
Q 3341 2797 3341 1997 
z
" transform="scale(0.015625)"/>
       <path id="DejaVuSans-69" d="M 603 3500 
L 1178 3500 
L 1178 0 
L 603 0 
L 603 3500 
z
M 603 4863 
L 1178 4863 
L 1178 4134 
L 603 4134 
L 603 4863 
z
" transform="scale(0.015625)"/>
       <path id="DejaVuSans-6f" d="M 1959 3097 
Q 1497 3097 1228 2736 
Q 959 2375 959 1747 
Q 959 1119 1226 758 
Q 1494 397 1959 397 
Q 2419 397 2687 759 
Q 2956 1122 2956 1747 
Q 2956 2369 2687 2733 
Q 2419 3097 1959 3097 
z
M 1959 3584 
Q 2709 3584 3137 3096 
Q 3566 2609 3566 1747 
Q 3566 888 3137 398 
Q 2709 -91 1959 -91 
Q 1206 -91 779 398 
Q 353 888 353 1747 
Q 353 2609 779 3096 
Q 1206 3584 1959 3584 
z
" transform="scale(0.015625)"/>
       <path id="DejaVuSans-6e" d="M 3513 2113 
L 3513 0 
L 2938 0 
L 2938 2094 
Q 2938 2591 2744 2837 
Q 2550 3084 2163 3084 
Q 1697 3084 1428 2787 
Q 1159 2491 1159 1978 
L 1159 0 
L 581 0 
L 581 3500 
L 1159 3500 
L 1159 2956 
Q 1366 3272 1645 3428 
Q 1925 3584 2291 3584 
Q 2894 3584 3203 3211 
Q 3513 2838 3513 2113 
z
" transform="scale(0.015625)"/>
      </defs>
      <use xlink:href="#DejaVuSans-49"/>
      <use xlink:href="#DejaVuSans-74" x="29.492188"/>
      <use xlink:href="#DejaVuSans-65" x="68.701172"/>
      <use xlink:href="#DejaVuSans-72" x="130.224609"/>
      <use xlink:href="#DejaVuSans-61" x="171.337891"/>
      <use xlink:href="#DejaVuSans-74" x="232.617188"/>
      <use xlink:href="#DejaVuSans-69" x="271.826172"/>
      <use xlink:href="#DejaVuSans-6f" x="299.609375"/>
      <use xlink:href="#DejaVuSans-6e" x="360.791016"/>
     </g>
    </g>
   </g>
   <g id="matplotlib.axis_2">
    <g id="ytick_1">
     <g id="line2d_11">
      <defs>
       <path id="m594eada137" d="M 0 0 
L -3.5 0 
" style="stroke: #000000; stroke-width: 0.8"/>
      </defs>
      <g>
       <use xlink:href="#m594eada137" x="54" y="245.630652" style="stroke: #000000; stroke-width: 0.8"/>
      </g>
     </g>
     <g id="text_12">
      <!-- 0.0 -->
      <g transform="translate(31.096875 249.429871)scale(0.1 -0.1)">
       <defs>
        <path id="DejaVuSans-2e" d="M 684 794 
L 1344 794 
L 1344 0 
L 684 0 
L 684 794 
z
" transform="scale(0.015625)"/>
       </defs>
       <use xlink:href="#DejaVuSans-30"/>
       <use xlink:href="#DejaVuSans-2e" x="63.623047"/>
       <use xlink:href="#DejaVuSans-30" x="95.410156"/>
      </g>
     </g>
    </g>
    <g id="ytick_2">
     <g id="line2d_12">
      <g>
       <use xlink:href="#m594eada137" x="54" y="203.78362" style="stroke: #000000; stroke-width: 0.8"/>
      </g>
     </g>
     <g id="text_13">
      <!-- 0.2 -->
      <g transform="translate(31.096875 207.582839)scale(0.1 -0.1)">
       <use xlink:href="#DejaVuSans-30"/>
       <use xlink:href="#DejaVuSans-2e" x="63.623047"/>
       <use xlink:href="#DejaVuSans-32" x="95.410156"/>
      </g>
     </g>
    </g>
    <g id="ytick_3">
     <g id="line2d_13">
      <g>
       <use xlink:href="#m594eada137" x="54" y="161.936588" style="stroke: #000000; stroke-width: 0.8"/>
      </g>
     </g>
     <g id="text_14">
      <!-- 0.4 -->
      <g transform="translate(31.096875 165.735807)scale(0.1 -0.1)">
       <use xlink:href="#DejaVuSans-30"/>
       <use xlink:href="#DejaVuSans-2e" x="63.623047"/>
       <use xlink:href="#DejaVuSans-34" x="95.410156"/>
      </g>
     </g>
    </g>
    <g id="ytick_4">
     <g id="line2d_14">
      <g>
       <use xlink:href="#m594eada137" x="54" y="120.089556" style="stroke: #000000; stroke-width: 0.8"/>
      </g>
     </g>
     <g id="text_15">
      <!-- 0.6 -->
      <g transform="translate(31.096875 123.888774)scale(0.1 -0.1)">
       <use xlink:href="#DejaVuSans-30"/>
       <use xlink:href="#DejaVuSans-2e" x="63.623047"/>
       <use xlink:href="#DejaVuSans-36" x="95.410156"/>
      </g>
     </g>
    </g>
    <g id="ytick_5">
     <g id="line2d_15">
      <g>
       <use xlink:href="#m594eada137" x="54" y="78.242523" style="stroke: #000000; stroke-width: 0.8"/>
      </g>
     </g>
     <g id="text_16">
      <!-- 0.8 -->
      <g transform="translate(31.096875 82.041742)scale(0.1 -0.1)">
       <use xlink:href="#DejaVuSans-30"/>
       <use xlink:href="#DejaVuSans-2e" x="63.623047"/>
       <use xlink:href="#DejaVuSans-38" x="95.410156"/>
      </g>
     </g>
    </g>
    <g id="ytick_6">
     <g id="line2d_16">
      <g>
       <use xlink:href="#m594eada137" x="54" y="36.395491" style="stroke: #000000; stroke-width: 0.8"/>
      </g>
     </g>
     <g id="text_17">
      <!-- 1.0 -->
      <g transform="translate(31.096875 40.19471)scale(0.1 -0.1)">
       <use xlink:href="#DejaVuSans-31"/>
       <use xlink:href="#DejaVuSans-2e" x="63.623047"/>
       <use xlink:href="#DejaVuSans-30" x="95.410156"/>
      </g>
     </g>
    </g>
    <g id="text_18">
     <!-- Opinion -->
     <g transform="translate(24.185312 170.279219)rotate(-90)scale(0.14 -0.14)">
      <defs>
       <path id="DejaVuSans-4f" d="M 2522 4238 
Q 1834 4238 1429 3725 
Q 1025 3213 1025 2328 
Q 1025 1447 1429 934 
Q 1834 422 2522 422 
Q 3209 422 3611 934 
Q 4013 1447 4013 2328 
Q 4013 3213 3611 3725 
Q 3209 4238 2522 4238 
z
M 2522 4750 
Q 3503 4750 4090 4092 
Q 4678 3434 4678 2328 
Q 4678 1225 4090 567 
Q 3503 -91 2522 -91 
Q 1538 -91 948 565 
Q 359 1222 359 2328 
Q 359 3434 948 4092 
Q 1538 4750 2522 4750 
z
" transform="scale(0.015625)"/>
       <path id="DejaVuSans-70" d="M 1159 525 
L 1159 -1331 
L 581 -1331 
L 581 3500 
L 1159 3500 
L 1159 2969 
Q 1341 3281 1617 3432 
Q 1894 3584 2278 3584 
Q 2916 3584 3314 3078 
Q 3713 2572 3713 1747 
Q 3713 922 3314 415 
Q 2916 -91 2278 -91 
Q 1894 -91 1617 61 
Q 1341 213 1159 525 
z
M 3116 1747 
Q 3116 2381 2855 2742 
Q 2594 3103 2138 3103 
Q 1681 3103 1420 2742 
Q 1159 2381 1159 1747 
Q 1159 1113 1420 752 
Q 1681 391 2138 391 
Q 2594 391 2855 752 
Q 3116 1113 3116 1747 
z
" transform="scale(0.015625)"/>
      </defs>
      <use xlink:href="#DejaVuSans-4f"/>
      <use xlink:href="#DejaVuSans-70" x="78.710938"/>
      <use xlink:href="#DejaVuSans-69" x="142.1875"/>
      <use xlink:href="#DejaVuSans-6e" x="169.970703"/>
      <use xlink:href="#DejaVuSans-69" x="233.349609"/>
      <use xlink:href="#DejaVuSans-6f" x="261.132812"/>
      <use xlink:href="#DejaVuSans-6e" x="322.314453"/>
     </g>
    </g>
   </g>
   <g id="line2d_17">
    <path d="M 69.218182 225.039737 
L 85.237321 219.537053 
L 101.256459 211.025878 
L 117.275598 203.229769 
L 133.294737 198.990864 
L 149.313876 195.98365 
L 165.333014 193.858702 
L 181.352153 191.884739 
L 197.371292 190.041948 
L 213.390431 188.31392 
L 229.409569 171.036735 
L 245.428708 170.83423 
L 261.447847 170.686404 
L 277.466986 170.535213 
L 293.486124 170.37254 
L 309.505263 170.208109 
L 325.524402 170.04622 
L 341.543541 169.887068 
L 357.562679 169.708307 
L 373.581818 169.529287 
" clip-path="url(#pe276eb661e)" style="fill: none; stroke: #000080; stroke-width: 1.5; stroke-linecap: square"/>
   </g>
   <g id="line2d_18">
    <path d="M 69.218182 50.252229 
L 85.237321 68.605879 
L 101.256459 79.575175 
L 117.275598 82.821315 
L 133.294737 83.955782 
L 149.313876 85.04039 
L 165.333014 86.126894 
L 181.352153 87.196083 
L 197.371292 88.246956 
L 213.390431 89.279589 
L 229.409569 90.294328 
L 245.428708 91.247737 
L 261.447847 92.718053 
L 277.466986 93.824504 
L 293.486124 94.997917 
L 309.505263 96.133214 
L 325.524402 97.244936 
L 341.543541 98.33691 
L 357.562679 99.541475 
L 373.581818 100.628466 
" clip-path="url(#pe276eb661e)" style="fill: none; stroke: #000089; stroke-width: 1.5; stroke-linecap: square"/>
   </g>
   <g id="line2d_19">
    <path d="M 69.218182 236.615674 
L 85.237321 220.641196 
L 101.256459 211.275111 
L 117.275598 202.148913 
L 133.294737 197.928762 
L 149.313876 195.548824 
L 165.333014 193.519403 
L 181.352153 191.582056 
L 197.371292 189.762884 
L 213.390431 188.055575 
L 229.409569 170.939176 
L 245.428708 170.826813 
L 261.447847 170.691399 
L 277.466986 170.486559 
L 293.486124 170.318615 
L 309.505263 170.154545 
L 325.524402 169.993517 
L 341.543541 169.835268 
L 357.562679 169.66045 
L 373.581818 169.474224 
" clip-path="url(#pe276eb661e)" style="fill: none; stroke: #000096; stroke-width: 1.5; stroke-linecap: square"/>
   </g>
   <g id="line2d_20">
    <path d="M 69.218182 139.268177 
L 85.237321 143.528178 
L 101.256459 148.066355 
L 117.275598 151.082596 
L 133.294737 153.714033 
L 149.313876 154.866714 
L 165.333014 155.755919 
L 181.352153 156.527579 
L 197.371292 157.226373 
L 213.390431 157.860577 
L 229.409569 171.03506 
L 245.428708 170.885741 
L 261.447847 170.744718 
L 277.466986 170.585794 
L 293.486124 170.417009 
L 309.505263 170.251582 
L 325.524402 170.088898 
L 341.543541 169.828706 
L 357.562679 169.65638 
L 373.581818 169.454803 
" clip-path="url(#pe276eb661e)" style="fill: none; stroke: #00009f; stroke-width: 1.5; stroke-linecap: square"/>
   </g>
   <g id="line2d_21">
    <path d="M 69.218182 167.261951 
L 85.237321 162.823024 
L 101.256459 157.385705 
L 117.275598 154.088591 
L 133.294737 153.714033 
L 149.313876 154.866714 
L 165.333014 155.755919 
L 181.352153 156.527579 
L 197.371292 157.226373 
L 213.390431 157.860577 
L 229.409569 171.03506 
L 245.428708 170.885741 
L 261.447847 170.744718 
L 277.466986 170.585794 
L 293.486124 170.417009 
L 309.505263 170.251582 
L 325.524402 170.088898 
L 341.543541 169.828706 
L 357.562679 169.65638 
L 373.581818 169.454803 
" clip-path="url(#pe276eb661e)" style="fill: none; stroke: #0000ad; stroke-width: 1.5; stroke-linecap: square"/>
   </g>
   <g id="line2d_22">
    <path d="M 69.218182 211.130731 
L 85.237321 210.663216 
L 101.256459 206.270995 
L 117.275598 201.647835 
L 133.294737 197.928762 
L 149.313876 195.548824 
L 165.333014 193.519403 
L 181.352153 191.582056 
L 197.371292 189.762884 
L 213.390431 188.055575 
L 229.409569 170.939176 
L 245.428708 170.826813 
L 261.447847 170.691399 
L 277.466986 170.486559 
L 293.486124 170.318615 
L 309.505263 170.154545 
L 325.524402 169.993517 
L 341.543541 169.835268 
L 357.562679 169.66045 
L 373.581818 169.474224 
" clip-path="url(#pe276eb661e)" style="fill: none; stroke: #0000b6; stroke-width: 1.5; stroke-linecap: square"/>
   </g>
   <g id="line2d_23">
    <path d="M 69.218182 219.031118 
L 85.237321 214.865687 
L 101.256459 209.475591 
L 117.275598 202.267491 
L 133.294737 198.622391 
L 149.313876 196.036336 
L 165.333014 193.92561 
L 181.352153 191.967184 
L 197.371292 190.129483 
L 213.390431 188.405438 
L 229.409569 171.058236 
L 245.428708 170.908646 
L 261.447847 170.767193 
L 277.466986 170.607951 
L 293.486124 170.438809 
L 309.505263 170.273006 
L 325.524402 170.109955 
L 341.543541 169.949707 
L 357.562679 169.65638 
L 373.581818 169.454803 
" clip-path="url(#pe276eb661e)" style="fill: none; stroke: #0000c4; stroke-width: 1.5; stroke-linecap: square"/>
   </g>
   <g id="line2d_24">
    <path d="M 69.218182 169.18962 
L 85.237321 164.335994 
L 101.256459 160.239909 
L 117.275598 155.123147 
L 133.294737 154.804822 
L 149.313876 155.074582 
L 165.333014 155.855343 
L 181.352153 156.607244 
L 197.371292 157.295094 
L 213.390431 157.920732 
L 229.409569 170.939176 
L 245.428708 170.826813 
L 261.447847 170.691399 
L 277.466986 170.486559 
L 293.486124 170.318615 
L 309.505263 170.154545 
L 325.524402 169.993517 
L 341.543541 169.835268 
L 357.562679 169.66045 
L 373.581818 169.474224 
" clip-path="url(#pe276eb661e)" style="fill: none; stroke: #0000cd; stroke-width: 1.5; stroke-linecap: square"/>
   </g>
   <g id="line2d_25">
    <path d="M 69.218182 81.946699 
L 85.237321 81.24122 
L 101.256459 80.477583 
L 117.275598 82.024568 
L 133.294737 83.120983 
L 149.313876 84.248711 
L 165.333014 85.354317 
L 181.352153 86.442607 
L 197.371292 87.51125 
L 213.390431 88.560852 
L 229.409569 89.550945 
L 245.428708 90.583698 
L 261.447847 91.559519 
L 277.466986 92.664935 
L 293.486124 93.838378 
L 309.505263 94.987981 
L 325.524402 96.118552 
L 341.543541 97.229723 
L 357.562679 99.435338 
L 373.581818 100.821065 
" clip-path="url(#pe276eb661e)" style="fill: none; stroke: #0000da; stroke-width: 1.5; stroke-linecap: square"/>
   </g>
   <g id="line2d_26">
    <path d="M 69.218182 98.676062 
L 85.237321 93.781068 
L 101.256459 84.44187 
L 117.275598 82.454643 
L 133.294737 83.591956 
L 149.313876 84.744738 
L 165.333014 85.841492 
L 181.352153 86.915662 
L 197.371292 87.971139 
L 213.390431 89.008202 
L 229.409569 90.027278 
L 245.428708 90.980616 
L 261.447847 91.950886 
L 277.466986 93.050152 
L 293.486124 94.217022 
L 309.505263 95.360122 
L 325.524402 96.484298 
L 341.543541 98.246893 
L 357.562679 99.435338 
L 373.581818 100.821065 
" clip-path="url(#pe276eb661e)" style="fill: none; stroke: #0000e8; stroke-width: 1.5; stroke-linecap: square"/>
   </g>
   <g id="line2d_27">
    <path d="M 69.218182 193.122991 
L 85.237321 193.251136 
L 101.256459 198.840797 
L 117.275598 202.244307 
L 133.294737 197.901084 
L 149.313876 195.548824 
L 165.333014 193.519403 
L 181.352153 191.582056 
L 197.371292 189.762884 
L 213.390431 188.055575 
L 229.409569 170.939176 
L 245.428708 170.826813 
L 261.447847 170.691399 
L 277.466986 170.486559 
L 293.486124 170.318615 
L 309.505263 170.154545 
L 325.524402 169.993517 
L 341.543541 169.835268 
L 357.562679 169.66045 
L 373.581818 169.474224 
" clip-path="url(#pe276eb661e)" style="fill: none; stroke: #0000f1; stroke-width: 1.5; stroke-linecap: square"/>
   </g>
   <g id="line2d_28">
    <path d="M 69.218182 189.229762 
L 85.237321 187.189873 
L 101.256459 186.568679 
L 117.275598 189.372447 
L 133.294737 197.928762 
L 149.313876 195.548824 
L 165.333014 193.519403 
L 181.352153 191.582056 
L 197.371292 189.762884 
L 213.390431 188.055575 
L 229.409569 170.939176 
L 245.428708 170.826813 
L 261.447847 170.691399 
L 277.466986 170.486559 
L 293.486124 170.318615 
L 309.505263 170.154545 
L 325.524402 169.993517 
L 341.543541 169.835268 
L 357.562679 169.66045 
L 373.581818 169.474224 
" clip-path="url(#pe276eb661e)" style="fill: none; stroke: #0000ff; stroke-width: 1.5; stroke-linecap: square"/>
   </g>
   <g id="line2d_29">
    <path d="M 69.218182 151.084518 
L 85.237321 151.187903 
L 101.256459 150.392243 
L 117.275598 153.616748 
L 133.294737 154.00293 
L 149.313876 155.074582 
L 165.333014 155.855343 
L 181.352153 156.607244 
L 197.371292 157.295094 
L 213.390431 157.920732 
L 229.409569 170.939176 
L 245.428708 170.826813 
L 261.447847 170.691399 
L 277.466986 170.486559 
L 293.486124 170.318615 
L 309.505263 170.154545 
L 325.524402 169.993517 
L 341.543541 169.835268 
L 357.562679 169.66045 
L 373.581818 169.474224 
" clip-path="url(#pe276eb661e)" style="fill: none; stroke: #0000ff; stroke-width: 1.5; stroke-linecap: square"/>
   </g>
   <g id="line2d_30">
    <path d="M 69.218182 119.287306 
L 85.237321 127.35963 
L 101.256459 141.414081 
L 117.275598 150.332807 
L 133.294737 153.714033 
L 149.313876 154.866714 
L 165.333014 155.755919 
L 181.352153 156.527579 
L 197.371292 157.226373 
L 213.390431 157.860577 
L 229.409569 171.03506 
L 245.428708 170.885741 
L 261.447847 170.744718 
L 277.466986 170.585794 
L 293.486124 170.417009 
L 309.505263 170.251582 
L 325.524402 170.088898 
L 341.543541 169.828706 
L 357.562679 169.65638 
L 373.581818 169.454803 
" clip-path="url(#pe276eb661e)" style="fill: none; stroke: #0004ff; stroke-width: 1.5; stroke-linecap: square"/>
   </g>
   <g id="line2d_31">
    <path d="M 69.218182 142.832247 
L 85.237321 146.199857 
L 101.256459 148.94904 
L 117.275598 152.196867 
L 133.294737 154.00293 
L 149.313876 155.074582 
L 165.333014 155.855343 
L 181.352153 156.607244 
L 197.371292 157.295094 
L 213.390431 157.920732 
L 229.409569 170.939176 
L 245.428708 170.826813 
L 261.447847 170.691399 
L 277.466986 170.486559 
L 293.486124 170.318615 
L 309.505263 170.154545 
L 325.524402 169.993517 
L 341.543541 169.835268 
L 357.562679 169.66045 
L 373.581818 169.474224 
" clip-path="url(#pe276eb661e)" style="fill: none; stroke: #000cff; stroke-width: 1.5; stroke-linecap: square"/>
   </g>
   <g id="line2d_32">
    <path d="M 69.218182 183.133138 
L 85.237321 181.682919 
L 101.256459 178.931545 
L 117.275598 174.495926 
L 133.294737 173.359167 
L 149.313876 173.020117 
L 165.333014 172.576388 
L 181.352153 172.144534 
L 197.371292 171.728802 
L 213.390431 171.327323 
L 229.409569 170.939176 
L 245.428708 170.826813 
L 261.447847 170.691399 
L 277.466986 170.486559 
L 293.486124 170.318615 
L 309.505263 170.154545 
L 325.524402 169.993517 
L 341.543541 169.835268 
L 357.562679 169.66045 
L 373.581818 169.474224 
" clip-path="url(#pe276eb661e)" style="fill: none; stroke: #0018ff; stroke-width: 1.5; stroke-linecap: square"/>
   </g>
   <g id="line2d_33">
    <path d="M 69.218182 155.396117 
L 85.237321 154.002884 
L 101.256459 153.438222 
L 117.275598 153.412747 
L 133.294737 153.898038 
L 149.313876 155.027839 
L 165.333014 155.871313 
L 181.352153 156.634113 
L 197.371292 157.328518 
L 213.390431 157.95932 
L 229.409569 171.058236 
L 245.428708 170.908646 
L 261.447847 170.767193 
L 277.466986 170.607951 
L 293.486124 170.438809 
L 309.505263 170.273006 
L 325.524402 170.109955 
L 341.543541 169.949707 
L 357.562679 169.65638 
L 373.581818 169.454803 
" clip-path="url(#pe276eb661e)" style="fill: none; stroke: #0020ff; stroke-width: 1.5; stroke-linecap: square"/>
   </g>
   <g id="line2d_34">
    <path d="M 69.218182 44.443636 
L 85.237321 64.177584 
L 101.256459 78.975528 
L 117.275598 82.024568 
L 133.294737 83.120983 
L 149.313876 84.248711 
L 165.333014 85.354317 
L 181.352153 86.442607 
L 197.371292 87.51125 
L 213.390431 88.560852 
L 229.409569 89.550945 
L 245.428708 90.583698 
L 261.447847 91.559519 
L 277.466986 92.664935 
L 293.486124 93.838378 
L 309.505263 94.987981 
L 325.524402 96.118552 
L 341.543541 97.229723 
L 357.562679 99.435338 
L 373.581818 100.821065 
" clip-path="url(#pe276eb661e)" style="fill: none; stroke: #002cff; stroke-width: 1.5; stroke-linecap: square"/>
   </g>
   <g id="line2d_35">
    <path d="M 69.218182 81.336193 
L 85.237321 78.482732 
L 101.256459 80.27063 
L 117.275598 81.832433 
L 133.294737 83.093923 
L 149.313876 84.21547 
L 165.333014 85.324126 
L 181.352153 86.410632 
L 197.371292 87.477334 
L 213.390431 88.525124 
L 229.409569 89.554527 
L 245.428708 90.548887 
L 261.447847 91.527612 
L 277.466986 92.576406 
L 293.486124 93.708196 
L 309.505263 94.854891 
L 325.524402 95.986672 
L 341.543541 97.099933 
L 357.562679 98.336434 
L 373.581818 99.748204 
" clip-path="url(#pe276eb661e)" style="fill: none; stroke: #0038ff; stroke-width: 1.5; stroke-linecap: square"/>
   </g>
   <g id="line2d_36">
    <path d="M 69.218182 182.673647 
L 85.237321 182.472814 
L 101.256459 179.892668 
L 117.275598 181.642232 
L 133.294737 174.55744 
L 149.313876 173.16327 
L 165.333014 172.71451 
L 181.352153 172.278712 
L 197.371292 171.857772 
L 213.390431 171.451211 
L 229.409569 171.058236 
L 245.428708 170.908646 
L 261.447847 170.767193 
L 277.466986 170.607951 
L 293.486124 170.438809 
L 309.505263 170.273006 
L 325.524402 170.109955 
L 341.543541 169.949707 
L 357.562679 169.65638 
L 373.581818 169.454803 
" clip-path="url(#pe276eb661e)" style="fill: none; stroke: #0040ff; stroke-width: 1.5; stroke-linecap: square"/>
   </g>
   <g id="line2d_37">
    <path d="M 69.218182 160.891872 
L 85.237321 158.506133 
L 101.256459 157.541559 
L 117.275598 155.488392 
L 133.294737 155.122653 
L 149.313876 155.28466 
L 165.333014 156.048717 
L 181.352153 156.794159 
L 197.371292 157.481731 
L 213.390431 158.107515 
L 229.409569 171.084001 
L 245.428708 170.969575 
L 261.447847 170.643889 
L 277.466986 170.486559 
L 293.486124 170.318615 
L 309.505263 170.154545 
L 325.524402 169.993517 
L 341.543541 169.835268 
L 357.562679 169.66045 
L 373.581818 169.474224 
" clip-path="url(#pe276eb661e)" style="fill: none; stroke: #004cff; stroke-width: 1.5; stroke-linecap: square"/>
   </g>
   <g id="line2d_38">
    <path d="M 69.218182 235.318455 
L 85.237321 220.067829 
L 101.256459 210.413491 
L 117.275598 202.112483 
L 133.294737 197.928762 
L 149.313876 195.548824 
L 165.333014 193.519403 
L 181.352153 191.582056 
L 197.371292 189.762884 
L 213.390431 188.055575 
L 229.409569 170.939176 
L 245.428708 170.826813 
L 261.447847 170.691399 
L 277.466986 170.486559 
L 293.486124 170.318615 
L 309.505263 170.154545 
L 325.524402 169.993517 
L 341.543541 169.835268 
L 357.562679 169.66045 
L 373.581818 169.474224 
" clip-path="url(#pe276eb661e)" style="fill: none; stroke: #0054ff; stroke-width: 1.5; stroke-linecap: square"/>
   </g>
   <g id="line2d_39">
    <path d="M 69.218182 216.414481 
L 85.237321 214.598874 
L 101.256459 209.563695 
L 117.275598 202.240172 
L 133.294737 198.596332 
L 149.313876 196.036336 
L 165.333014 193.92561 
L 181.352153 191.967184 
L 197.371292 190.129483 
L 213.390431 188.405438 
L 229.409569 171.058236 
L 245.428708 170.908646 
L 261.447847 170.767193 
L 277.466986 170.607951 
L 293.486124 170.438809 
L 309.505263 170.273006 
L 325.524402 170.109955 
L 341.543541 169.949707 
L 357.562679 169.65638 
L 373.581818 169.454803 
" clip-path="url(#pe276eb661e)" style="fill: none; stroke: #0060ff; stroke-width: 1.5; stroke-linecap: square"/>
   </g>
   <g id="line2d_40">
    <path d="M 69.218182 242.116364 
L 85.237321 222.986307 
L 101.256459 212.162649 
L 117.275598 204.388309 
L 133.294737 198.596332 
L 149.313876 196.036336 
L 165.333014 193.92561 
L 181.352153 191.967184 
L 197.371292 190.129483 
L 213.390431 188.405438 
L 229.409569 171.058236 
L 245.428708 170.908646 
L 261.447847 170.767193 
L 277.466986 170.607951 
L 293.486124 170.438809 
L 309.505263 170.273006 
L 325.524402 170.109955 
L 341.543541 169.949707 
L 357.562679 169.65638 
L 373.581818 169.454803 
" clip-path="url(#pe276eb661e)" style="fill: none; stroke: #0068ff; stroke-width: 1.5; stroke-linecap: square"/>
   </g>
   <g id="line2d_41">
    <path d="M 69.218182 70.699381 
L 85.237321 76.237528 
L 101.256459 81.077326 
L 117.275598 82.72173 
L 133.294737 83.955782 
L 149.313876 85.04039 
L 165.333014 86.126894 
L 181.352153 87.196083 
L 197.371292 88.246956 
L 213.390431 89.279589 
L 229.409569 90.294328 
L 245.428708 91.247737 
L 261.447847 92.718053 
L 277.466986 93.824504 
L 293.486124 94.997917 
L 309.505263 96.133214 
L 325.524402 97.244936 
L 341.543541 98.33691 
L 357.562679 99.541475 
L 373.581818 100.628466 
" clip-path="url(#pe276eb661e)" style="fill: none; stroke: #0074ff; stroke-width: 1.5; stroke-linecap: square"/>
   </g>
   <g id="line2d_42">
    <path d="M 69.218182 70.188019 
L 85.237321 75.913212 
L 101.256459 81.117822 
L 117.275598 82.821315 
L 133.294737 83.955782 
L 149.313876 85.04039 
L 165.333014 86.126894 
L 181.352153 87.196083 
L 197.371292 88.246956 
L 213.390431 89.279589 
L 229.409569 90.294328 
L 245.428708 91.247737 
L 261.447847 92.718053 
L 277.466986 93.824504 
L 293.486124 94.997917 
L 309.505263 96.133214 
L 325.524402 97.244936 
L 341.543541 98.33691 
L 357.562679 99.541475 
L 373.581818 100.628466 
" clip-path="url(#pe276eb661e)" style="fill: none; stroke: #0080ff; stroke-width: 1.5; stroke-linecap: square"/>
   </g>
   <g id="line2d_43">
    <path d="M 69.218182 158.827828 
L 85.237321 155.893723 
L 101.256459 154.191632 
L 117.275598 152.887212 
L 133.294737 153.714033 
L 149.313876 154.866714 
L 165.333014 155.755919 
L 181.352153 156.527579 
L 197.371292 157.226373 
L 213.390431 157.860577 
L 229.409569 171.03506 
L 245.428708 170.885741 
L 261.447847 170.744718 
L 277.466986 170.585794 
L 293.486124 170.417009 
L 309.505263 170.251582 
L 325.524402 170.088898 
L 341.543541 169.828706 
L 357.562679 169.65638 
L 373.581818 169.454803 
" clip-path="url(#pe276eb661e)" style="fill: none; stroke: #0088ff; stroke-width: 1.5; stroke-linecap: square"/>
   </g>
   <g id="line2d_44">
    <path d="M 69.218182 142.281384 
L 85.237321 144.688523 
L 101.256459 148.01555 
L 117.275598 151.04738 
L 133.294737 153.714033 
L 149.313876 154.866714 
L 165.333014 155.755919 
L 181.352153 156.527579 
L 197.371292 157.226373 
L 213.390431 157.860577 
L 229.409569 171.03506 
L 245.428708 170.885741 
L 261.447847 170.744718 
L 277.466986 170.585794 
L 293.486124 170.417009 
L 309.505263 170.251582 
L 325.524402 170.088898 
L 341.543541 169.828706 
L 357.562679 169.65638 
L 373.581818 169.454803 
" clip-path="url(#pe276eb661e)" style="fill: none; stroke: #0094ff; stroke-width: 1.5; stroke-linecap: square"/>
   </g>
   <g id="line2d_45">
    <path d="M 69.218182 121.686915 
L 85.237321 129.878637 
L 101.256459 142.349262 
L 117.275598 150.332807 
L 133.294737 153.714033 
L 149.313876 154.866714 
L 165.333014 155.755919 
L 181.352153 156.527579 
L 197.371292 157.226373 
L 213.390431 157.860577 
L 229.409569 171.03506 
L 245.428708 170.885741 
L 261.447847 170.744718 
L 277.466986 170.585794 
L 293.486124 170.417009 
L 309.505263 170.251582 
L 325.524402 170.088898 
L 341.543541 169.828706 
L 357.562679 169.65638 
L 373.581818 169.454803 
" clip-path="url(#pe276eb661e)" style="fill: none; stroke: #009cff; stroke-width: 1.5; stroke-linecap: square"/>
   </g>
   <g id="line2d_46">
    <path d="M 69.218182 79.316463 
L 85.237321 78.20272 
L 101.256459 80.675835 
L 117.275598 82.071788 
L 133.294737 83.006982 
L 149.313876 84.137728 
L 165.333014 85.245584 
L 181.352153 86.335081 
L 197.371292 87.405283 
L 213.390431 88.456598 
L 229.409569 89.373916 
L 245.428708 90.406165 
L 261.447847 91.384098 
L 277.466986 93.824504 
L 293.486124 94.997917 
L 309.505263 96.133214 
L 325.524402 97.244936 
L 341.543541 98.33691 
L 357.562679 99.541475 
L 373.581818 100.628466 
" clip-path="url(#pe276eb661e)" style="fill: none; stroke: #00a8ff; stroke-width: 1.5; stroke-linecap: square"/>
   </g>
   <g id="line2d_47">
    <path d="M 69.218182 86.577255 
L 85.237321 82.627648 
L 101.256459 80.342852 
L 117.275598 81.832433 
L 133.294737 83.093923 
L 149.313876 84.21547 
L 165.333014 85.324126 
L 181.352153 86.410632 
L 197.371292 87.477334 
L 213.390431 88.525124 
L 229.409569 89.554527 
L 245.428708 90.548887 
L 261.447847 91.527612 
L 277.466986 92.576406 
L 293.486124 93.708196 
L 309.505263 94.854891 
L 325.524402 95.986672 
L 341.543541 97.099933 
L 357.562679 98.336434 
L 373.581818 99.748204 
" clip-path="url(#pe276eb661e)" style="fill: none; stroke: #00b0ff; stroke-width: 1.5; stroke-linecap: square"/>
   </g>
   <g id="line2d_48">
    <path d="M 69.218182 148.183803 
L 85.237321 149.808498 
L 101.256459 148.606364 
L 117.275598 152.092228 
L 133.294737 153.898038 
L 149.313876 155.027839 
L 165.333014 155.871313 
L 181.352153 156.634113 
L 197.371292 157.328518 
L 213.390431 157.95932 
L 229.409569 171.058236 
L 245.428708 170.908646 
L 261.447847 170.767193 
L 277.466986 170.607951 
L 293.486124 170.438809 
L 309.505263 170.273006 
L 325.524402 170.109955 
L 341.543541 169.949707 
L 357.562679 169.65638 
L 373.581818 169.454803 
" clip-path="url(#pe276eb661e)" style="fill: none; stroke: #00bcff; stroke-width: 1.5; stroke-linecap: square"/>
   </g>
   <g id="line2d_49">
    <path d="M 69.218182 174.866191 
L 85.237321 172.401371 
L 101.256459 163.548492 
L 117.275598 154.828394 
L 133.294737 153.496436 
L 149.313876 154.664439 
L 165.333014 155.578668 
L 181.352153 156.365903 
L 197.371292 157.072385 
L 213.390431 157.713133 
L 229.409569 171.036735 
L 245.428708 170.83423 
L 261.447847 170.686404 
L 277.466986 170.535213 
L 293.486124 170.37254 
L 309.505263 170.208109 
L 325.524402 170.04622 
L 341.543541 169.887068 
L 357.562679 169.708307 
L 373.581818 169.529287 
" clip-path="url(#pe276eb661e)" style="fill: none; stroke: #00c4ff; stroke-width: 1.5; stroke-linecap: square"/>
   </g>
   <g id="line2d_50">
    <path d="M 69.218182 189.187891 
L 85.237321 186.800833 
L 101.256459 187.398765 
L 117.275598 189.984575 
L 133.294737 198.199731 
L 149.313876 195.900275 
L 165.333014 193.910428 
L 181.352153 191.966823 
L 197.371292 190.138032 
L 213.390431 188.421387 
L 229.409569 171.084001 
L 245.428708 170.969575 
L 261.447847 170.643889 
L 277.466986 170.486559 
L 293.486124 170.318615 
L 309.505263 170.154545 
L 325.524402 169.993517 
L 341.543541 169.835268 
L 357.562679 169.66045 
L 373.581818 169.474224 
" clip-path="url(#pe276eb661e)" style="fill: none; stroke: #00d0ff; stroke-width: 1.5; stroke-linecap: square"/>
   </g>
   <g id="line2d_51">
    <path d="M 69.218182 155.255308 
L 85.237321 153.64044 
L 101.256459 152.900662 
L 117.275598 152.853265 
L 133.294737 153.714033 
L 149.313876 154.866714 
L 165.333014 155.755919 
L 181.352153 156.527579 
L 197.371292 157.226373 
L 213.390431 157.860577 
L 229.409569 171.03506 
L 245.428708 170.885741 
L 261.447847 170.744718 
L 277.466986 170.585794 
L 293.486124 170.417009 
L 309.505263 170.251582 
L 325.524402 170.088898 
L 341.543541 169.828706 
L 357.562679 169.65638 
L 373.581818 169.454803 
" clip-path="url(#pe276eb661e)" style="fill: none; stroke: #00dcfe; stroke-width: 1.5; stroke-linecap: square"/>
   </g>
   <g id="line2d_52">
    <path d="M 69.218182 191.089963 
L 85.237321 189.195391 
L 101.256459 192.018452 
L 117.275598 198.059168 
L 133.294737 198.622391 
L 149.313876 196.036336 
L 165.333014 193.92561 
L 181.352153 191.967184 
L 197.371292 190.129483 
L 213.390431 188.405438 
L 229.409569 171.058236 
L 245.428708 170.908646 
L 261.447847 170.767193 
L 277.466986 170.607951 
L 293.486124 170.438809 
L 309.505263 170.273006 
L 325.524402 170.109955 
L 341.543541 169.949707 
L 357.562679 169.65638 
L 373.581818 169.454803 
" clip-path="url(#pe276eb661e)" style="fill: none; stroke: #00e4f8; stroke-width: 1.5; stroke-linecap: square"/>
   </g>
   <g id="line2d_53">
    <path d="M 69.218182 210.821925 
L 85.237321 210.880136 
L 101.256459 207.115017 
L 117.275598 202.808182 
L 133.294737 198.990864 
L 149.313876 195.98365 
L 165.333014 193.858702 
L 181.352153 191.884739 
L 197.371292 190.041948 
L 213.390431 188.31392 
L 229.409569 171.036735 
L 245.428708 170.83423 
L 261.447847 170.686404 
L 277.466986 170.535213 
L 293.486124 170.37254 
L 309.505263 170.208109 
L 325.524402 170.04622 
L 341.543541 169.887068 
L 357.562679 169.708307 
L 373.581818 169.529287 
" clip-path="url(#pe276eb661e)" style="fill: none; stroke: #09f0ee; stroke-width: 1.5; stroke-linecap: square"/>
   </g>
   <g id="line2d_54">
    <path d="M 69.218182 222.838715 
L 85.237321 216.526957 
L 101.256459 208.499975 
L 117.275598 201.375195 
L 133.294737 197.928762 
L 149.313876 195.548824 
L 165.333014 193.519403 
L 181.352153 191.582056 
L 197.371292 189.762884 
L 213.390431 188.055575 
L 229.409569 170.939176 
L 245.428708 170.826813 
L 261.447847 170.691399 
L 277.466986 170.486559 
L 293.486124 170.318615 
L 309.505263 170.154545 
L 325.524402 169.993517 
L 341.543541 169.835268 
L 357.562679 169.66045 
L 373.581818 169.474224 
" clip-path="url(#pe276eb661e)" style="fill: none; stroke: #0ff8e7; stroke-width: 1.5; stroke-linecap: square"/>
   </g>
   <g id="line2d_55">
    <path d="M 69.218182 183.158752 
L 85.237321 183.019625 
L 101.256459 181.348708 
L 117.275598 187.348193 
L 133.294737 196.148609 
L 149.313876 195.900275 
L 165.333014 193.910428 
L 181.352153 191.966823 
L 197.371292 190.138032 
L 213.390431 188.421387 
L 229.409569 171.084001 
L 245.428708 170.969575 
L 261.447847 170.643889 
L 277.466986 170.486559 
L 293.486124 170.318615 
L 309.505263 170.154545 
L 325.524402 169.993517 
L 341.543541 169.835268 
L 357.562679 169.66045 
L 373.581818 169.474224 
" clip-path="url(#pe276eb661e)" style="fill: none; stroke: #19ffde; stroke-width: 1.5; stroke-linecap: square"/>
   </g>
   <g id="line2d_56">
    <path d="M 69.218182 81.25798 
L 85.237321 77.919168 
L 101.256459 80.150074 
L 117.275598 81.832433 
L 133.294737 83.093923 
L 149.313876 84.21547 
L 165.333014 85.324126 
L 181.352153 86.410632 
L 197.371292 87.477334 
L 213.390431 88.525124 
L 229.409569 89.554527 
L 245.428708 90.548887 
L 261.447847 91.527612 
L 277.466986 92.576406 
L 293.486124 93.708196 
L 309.505263 94.854891 
L 325.524402 95.986672 
L 341.543541 97.099933 
L 357.562679 98.336434 
L 373.581818 99.748204 
" clip-path="url(#pe276eb661e)" style="fill: none; stroke: #1fffd7; stroke-width: 1.5; stroke-linecap: square"/>
   </g>
   <g id="line2d_57">
    <path d="M 69.218182 52.551708 
L 85.237321 69.151184 
L 101.256459 79.027662 
L 117.275598 82.071788 
L 133.294737 83.006982 
L 149.313876 84.137728 
L 165.333014 85.245584 
L 181.352153 86.335081 
L 197.371292 87.405283 
L 213.390431 88.456598 
L 229.409569 89.373916 
L 245.428708 90.406165 
L 261.447847 91.384098 
L 277.466986 93.824504 
L 293.486124 94.997917 
L 309.505263 96.133214 
L 325.524402 97.244936 
L 341.543541 98.33691 
L 357.562679 99.541475 
L 373.581818 100.628466 
" clip-path="url(#pe276eb661e)" style="fill: none; stroke: #29ffce; stroke-width: 1.5; stroke-linecap: square"/>
   </g>
   <g id="line2d_58">
    <path d="M 69.218182 84.080084 
L 85.237321 84.810138 
L 101.256459 80.769089 
L 117.275598 82.507005 
L 133.294737 83.591956 
L 149.313876 84.744738 
L 165.333014 85.841492 
L 181.352153 86.915662 
L 197.371292 87.971139 
L 213.390431 89.008202 
L 229.409569 90.027278 
L 245.428708 90.980616 
L 261.447847 91.950886 
L 277.466986 93.050152 
L 293.486124 94.217022 
L 309.505263 95.360122 
L 325.524402 96.484298 
L 341.543541 98.246893 
L 357.562679 99.435338 
L 373.581818 100.821065 
" clip-path="url(#pe276eb661e)" style="fill: none; stroke: #30ffc7; stroke-width: 1.5; stroke-linecap: square"/>
   </g>
   <g id="line2d_59">
    <path d="M 69.218182 74.44788 
L 85.237321 75.889471 
L 101.256459 81.117822 
L 117.275598 82.821315 
L 133.294737 83.955782 
L 149.313876 85.04039 
L 165.333014 86.126894 
L 181.352153 87.196083 
L 197.371292 88.246956 
L 213.390431 89.279589 
L 229.409569 90.294328 
L 245.428708 91.247737 
L 261.447847 92.718053 
L 277.466986 93.824504 
L 293.486124 94.997917 
L 309.505263 96.133214 
L 325.524402 97.244936 
L 341.543541 98.33691 
L 357.562679 99.541475 
L 373.581818 100.628466 
" clip-path="url(#pe276eb661e)" style="fill: none; stroke: #39ffbe; stroke-width: 1.5; stroke-linecap: square"/>
   </g>
   <g id="line2d_60">
    <path d="M 69.218182 227.120636 
L 85.237321 219.48943 
L 101.256459 211.162307 
L 117.275598 202.990862 
L 133.294737 198.622391 
L 149.313876 196.036336 
L 165.333014 193.92561 
L 181.352153 191.967184 
L 197.371292 190.129483 
L 213.390431 188.405438 
L 229.409569 171.058236 
L 245.428708 170.908646 
L 261.447847 170.767193 
L 277.466986 170.607951 
L 293.486124 170.438809 
L 309.505263 170.273006 
L 325.524402 170.109955 
L 341.543541 169.949707 
L 357.562679 169.65638 
L 373.581818 169.454803 
" clip-path="url(#pe276eb661e)" style="fill: none; stroke: #43ffb4; stroke-width: 1.5; stroke-linecap: square"/>
   </g>
   <g id="line2d_61">
    <path d="M 69.218182 112.927996 
L 85.237321 120.591792 
L 101.256459 133.608133 
L 117.275598 150.530591 
L 133.294737 154.216669 
L 149.313876 155.28466 
L 165.333014 156.048717 
L 181.352153 156.794159 
L 197.371292 157.481731 
L 213.390431 158.107515 
L 229.409569 171.084001 
L 245.428708 170.969575 
L 261.447847 170.643889 
L 277.466986 170.486559 
L 293.486124 170.318615 
L 309.505263 170.154545 
L 325.524402 169.993517 
L 341.543541 169.835268 
L 357.562679 169.66045 
L 373.581818 169.474224 
" clip-path="url(#pe276eb661e)" style="fill: none; stroke: #49ffad; stroke-width: 1.5; stroke-linecap: square"/>
   </g>
   <g id="line2d_62">
    <path d="M 69.218182 124.957054 
L 85.237321 131.459483 
L 101.256459 142.790698 
L 117.275598 150.250785 
L 133.294737 152.632453 
L 149.313876 154.664439 
L 165.333014 155.578668 
L 181.352153 156.365903 
L 197.371292 157.072385 
L 213.390431 157.713133 
L 229.409569 171.036735 
L 245.428708 170.83423 
L 261.447847 170.686404 
L 277.466986 170.535213 
L 293.486124 170.37254 
L 309.505263 170.208109 
L 325.524402 170.04622 
L 341.543541 169.887068 
L 357.562679 169.708307 
L 373.581818 169.529287 
" clip-path="url(#pe276eb661e)" style="fill: none; stroke: #53ffa4; stroke-width: 1.5; stroke-linecap: square"/>
   </g>
   <g id="line2d_63">
    <path d="M 69.218182 143.152728 
L 85.237321 143.66884 
L 101.256459 147.901182 
L 117.275598 150.689396 
L 133.294737 153.496436 
L 149.313876 154.664439 
L 165.333014 155.578668 
L 181.352153 156.365903 
L 197.371292 157.072385 
L 213.390431 157.713133 
L 229.409569 171.036735 
L 245.428708 170.83423 
L 261.447847 170.686404 
L 277.466986 170.535213 
L 293.486124 170.37254 
L 309.505263 170.208109 
L 325.524402 170.04622 
L 341.543541 169.887068 
L 357.562679 169.708307 
L 373.581818 169.529287 
" clip-path="url(#pe276eb661e)" style="fill: none; stroke: #5aff9d; stroke-width: 1.5; stroke-linecap: square"/>
   </g>
   <g id="line2d_64">
    <path d="M 69.218182 162.241282 
L 85.237321 161.036808 
L 101.256459 157.513984 
L 117.275598 155.143348 
L 133.294737 154.804822 
L 149.313876 155.074582 
L 165.333014 155.855343 
L 181.352153 156.607244 
L 197.371292 157.295094 
L 213.390431 157.920732 
L 229.409569 170.939176 
L 245.428708 170.826813 
L 261.447847 170.691399 
L 277.466986 170.486559 
L 293.486124 170.318615 
L 309.505263 170.154545 
L 325.524402 169.993517 
L 341.543541 169.835268 
L 357.562679 169.66045 
L 373.581818 169.474224 
" clip-path="url(#pe276eb661e)" style="fill: none; stroke: #63ff94; stroke-width: 1.5; stroke-linecap: square"/>
   </g>
   <g id="line2d_65">
    <path d="M 69.218182 168.356001 
L 85.237321 165.081617 
L 101.256459 160.096294 
L 117.275598 155.488392 
L 133.294737 155.122653 
L 149.313876 155.28466 
L 165.333014 156.048717 
L 181.352153 156.794159 
L 197.371292 157.481731 
L 213.390431 158.107515 
L 229.409569 171.084001 
L 245.428708 170.969575 
L 261.447847 170.643889 
L 277.466986 170.486559 
L 293.486124 170.318615 
L 309.505263 170.154545 
L 325.524402 169.993517 
L 341.543541 169.835268 
L 357.562679 169.66045 
L 373.581818 169.474224 
" clip-path="url(#pe276eb661e)" style="fill: none; stroke: #6aff8d; stroke-width: 1.5; stroke-linecap: square"/>
   </g>
   <g id="line2d_66">
    <path d="M 69.218182 238.958687 
L 85.237321 221.936374 
L 101.256459 211.824064 
L 117.275598 204.185191 
L 133.294737 198.990864 
L 149.313876 195.98365 
L 165.333014 193.858702 
L 181.352153 191.884739 
L 197.371292 190.041948 
L 213.390431 188.31392 
L 229.409569 171.036735 
L 245.428708 170.83423 
L 261.447847 170.686404 
L 277.466986 170.535213 
L 293.486124 170.37254 
L 309.505263 170.208109 
L 325.524402 170.04622 
L 341.543541 169.887068 
L 357.562679 169.708307 
L 373.581818 169.529287 
" clip-path="url(#pe276eb661e)" style="fill: none; stroke: #73ff83; stroke-width: 1.5; stroke-linecap: square"/>
   </g>
   <g id="line2d_67">
    <path d="M 69.218182 224.040493 
L 85.237321 217.459048 
L 101.256459 210.097832 
L 117.275598 202.740249 
L 133.294737 198.83671 
L 149.313876 195.927757 
L 165.333014 193.792877 
L 181.352153 191.837624 
L 197.371292 190.005173 
L 213.390431 188.286231 
L 229.409569 171.03506 
L 245.428708 170.885741 
L 261.447847 170.744718 
L 277.466986 170.585794 
L 293.486124 170.417009 
L 309.505263 170.251582 
L 325.524402 170.088898 
L 341.543541 169.828706 
L 357.562679 169.65638 
L 373.581818 169.454803 
" clip-path="url(#pe276eb661e)" style="fill: none; stroke: #7dff7a; stroke-width: 1.5; stroke-linecap: square"/>
   </g>
   <g id="line2d_68">
    <path d="M 69.218182 60.250992 
L 85.237321 72.290342 
L 101.256459 79.69049 
L 117.275598 82.821315 
L 133.294737 83.955782 
L 149.313876 85.04039 
L 165.333014 86.126894 
L 181.352153 87.196083 
L 197.371292 88.246956 
L 213.390431 89.279589 
L 229.409569 90.294328 
L 245.428708 91.247737 
L 261.447847 92.718053 
L 277.466986 93.824504 
L 293.486124 94.997917 
L 309.505263 96.133214 
L 325.524402 97.244936 
L 341.543541 98.33691 
L 357.562679 99.541475 
L 373.581818 100.628466 
" clip-path="url(#pe276eb661e)" style="fill: none; stroke: #83ff73; stroke-width: 1.5; stroke-linecap: square"/>
   </g>
   <g id="line2d_69">
    <path d="M 69.218182 58.678773 
L 85.237321 71.814791 
L 101.256459 79.051354 
L 117.275598 81.832433 
L 133.294737 83.093923 
L 149.313876 84.21547 
L 165.333014 85.324126 
L 181.352153 86.410632 
L 197.371292 87.477334 
L 213.390431 88.525124 
L 229.409569 89.554527 
L 245.428708 90.548887 
L 261.447847 91.527612 
L 277.466986 92.576406 
L 293.486124 93.708196 
L 309.505263 94.854891 
L 325.524402 95.986672 
L 341.543541 97.099933 
L 357.562679 98.336434 
L 373.581818 99.748204 
" clip-path="url(#pe276eb661e)" style="fill: none; stroke: #8dff6a; stroke-width: 1.5; stroke-linecap: square"/>
   </g>
   <g id="line2d_70">
    <path d="M 69.218182 73.289937 
L 85.237321 75.742602 
L 101.256459 79.563292 
L 117.275598 81.832433 
L 133.294737 83.093923 
L 149.313876 84.21547 
L 165.333014 85.324126 
L 181.352153 86.410632 
L 197.371292 87.477334 
L 213.390431 88.525124 
L 229.409569 89.554527 
L 245.428708 90.548887 
L 261.447847 91.527612 
L 277.466986 92.576406 
L 293.486124 93.708196 
L 309.505263 94.854891 
L 325.524402 95.986672 
L 341.543541 97.099933 
L 357.562679 98.336434 
L 373.581818 99.748204 
" clip-path="url(#pe276eb661e)" style="fill: none; stroke: #94ff63; stroke-width: 1.5; stroke-linecap: square"/>
   </g>
   <g id="line2d_71">
    <path d="M 69.218182 81.372853 
L 85.237321 78.521757 
L 101.256459 80.513704 
L 117.275598 82.454643 
L 133.294737 83.591956 
L 149.313876 84.744738 
L 165.333014 85.841492 
L 181.352153 86.915662 
L 197.371292 87.971139 
L 213.390431 89.008202 
L 229.409569 90.027278 
L 245.428708 90.980616 
L 261.447847 91.950886 
L 277.466986 93.050152 
L 293.486124 94.217022 
L 309.505263 95.360122 
L 325.524402 96.484298 
L 341.543541 98.246893 
L 357.562679 99.435338 
L 373.581818 100.821065 
" clip-path="url(#pe276eb661e)" style="fill: none; stroke: #9dff5a; stroke-width: 1.5; stroke-linecap: square"/>
   </g>
   <g id="line2d_72">
    <path d="M 69.218182 138.265415 
L 85.237321 142.330921 
L 101.256459 147.961817 
L 117.275598 151.432876 
L 133.294737 153.898038 
L 149.313876 155.027839 
L 165.333014 155.871313 
L 181.352153 156.634113 
L 197.371292 157.328518 
L 213.390431 157.95932 
L 229.409569 171.058236 
L 245.428708 170.908646 
L 261.447847 170.767193 
L 277.466986 170.607951 
L 293.486124 170.438809 
L 309.505263 170.273006 
L 325.524402 170.109955 
L 341.543541 169.949707 
L 357.562679 169.65638 
L 373.581818 169.454803 
" clip-path="url(#pe276eb661e)" style="fill: none; stroke: #a4ff53; stroke-width: 1.5; stroke-linecap: square"/>
   </g>
   <g id="line2d_73">
    <path d="M 69.218182 114.138843 
L 85.237321 121.677751 
L 101.256459 132.510372 
L 117.275598 150.359992 
L 133.294737 154.00293 
L 149.313876 155.074582 
L 165.333014 155.855343 
L 181.352153 156.607244 
L 197.371292 157.295094 
L 213.390431 157.920732 
L 229.409569 170.939176 
L 245.428708 170.826813 
L 261.447847 170.691399 
L 277.466986 170.486559 
L 293.486124 170.318615 
L 309.505263 170.154545 
L 325.524402 169.993517 
L 341.543541 169.835268 
L 357.562679 169.66045 
L 373.581818 169.474224 
" clip-path="url(#pe276eb661e)" style="fill: none; stroke: #adff49; stroke-width: 1.5; stroke-linecap: square"/>
   </g>
   <g id="line2d_74">
    <path d="M 69.218182 217.010231 
L 85.237321 214.859408 
L 101.256459 209.662316 
L 117.275598 202.636195 
L 133.294737 198.83671 
L 149.313876 195.927757 
L 165.333014 193.792877 
L 181.352153 191.837624 
L 197.371292 190.005173 
L 213.390431 188.286231 
L 229.409569 171.03506 
L 245.428708 170.885741 
L 261.447847 170.744718 
L 277.466986 170.585794 
L 293.486124 170.417009 
L 309.505263 170.251582 
L 325.524402 170.088898 
L 341.543541 169.828706 
L 357.562679 169.65638 
L 373.581818 169.454803 
" clip-path="url(#pe276eb661e)" style="fill: none; stroke: #b4ff43; stroke-width: 1.5; stroke-linecap: square"/>
   </g>
   <g id="line2d_75">
    <path d="M 69.218182 60.649702 
L 85.237321 72.706891 
L 101.256459 79.285344 
L 117.275598 82.024568 
L 133.294737 83.120983 
L 149.313876 84.248711 
L 165.333014 85.354317 
L 181.352153 86.442607 
L 197.371292 87.51125 
L 213.390431 88.560852 
L 229.409569 89.550945 
L 245.428708 90.583698 
L 261.447847 91.559519 
L 277.466986 92.664935 
L 293.486124 93.838378 
L 309.505263 94.987981 
L 325.524402 96.118552 
L 341.543541 97.229723 
L 357.562679 99.435338 
L 373.581818 100.821065 
" clip-path="url(#pe276eb661e)" style="fill: none; stroke: #beff39; stroke-width: 1.5; stroke-linecap: square"/>
   </g>
   <g id="line2d_76">
    <path d="M 69.218182 210.906059 
L 85.237321 211.099279 
L 101.256459 206.923972 
L 117.275598 202.740249 
L 133.294737 198.83671 
L 149.313876 195.927757 
L 165.333014 193.792877 
L 181.352153 191.837624 
L 197.371292 190.005173 
L 213.390431 188.286231 
L 229.409569 171.03506 
L 245.428708 170.885741 
L 261.447847 170.744718 
L 277.466986 170.585794 
L 293.486124 170.417009 
L 309.505263 170.251582 
L 325.524402 170.088898 
L 341.543541 169.828706 
L 357.562679 169.65638 
L 373.581818 169.454803 
" clip-path="url(#pe276eb661e)" style="fill: none; stroke: #c7ff30; stroke-width: 1.5; stroke-linecap: square"/>
   </g>
   <g id="line2d_77">
    <path d="M 69.218182 66.786825 
L 85.237321 73.664614 
L 101.256459 79.285344 
L 117.275598 82.024568 
L 133.294737 83.120983 
L 149.313876 84.248711 
L 165.333014 85.354317 
L 181.352153 86.442607 
L 197.371292 87.51125 
L 213.390431 88.560852 
L 229.409569 89.550945 
L 245.428708 90.583698 
L 261.447847 91.559519 
L 277.466986 92.664935 
L 293.486124 93.838378 
L 309.505263 94.987981 
L 325.524402 96.118552 
L 341.543541 97.229723 
L 357.562679 99.435338 
L 373.581818 100.821065 
" clip-path="url(#pe276eb661e)" style="fill: none; stroke: #ceff29; stroke-width: 1.5; stroke-linecap: square"/>
   </g>
   <g id="line2d_78">
    <path d="M 69.218182 134.574971 
L 85.237321 139.844579 
L 101.256459 147.408453 
L 117.275598 150.530591 
L 133.294737 154.216669 
L 149.313876 155.28466 
L 165.333014 156.048717 
L 181.352153 156.794159 
L 197.371292 157.481731 
L 213.390431 158.107515 
L 229.409569 171.084001 
L 245.428708 170.969575 
L 261.447847 170.643889 
L 277.466986 170.486559 
L 293.486124 170.318615 
L 309.505263 170.154545 
L 325.524402 169.993517 
L 341.543541 169.835268 
L 357.562679 169.66045 
L 373.581818 169.474224 
" clip-path="url(#pe276eb661e)" style="fill: none; stroke: #d7ff1f; stroke-width: 1.5; stroke-linecap: square"/>
   </g>
   <g id="line2d_79">
    <path d="M 69.218182 135.6409 
L 85.237321 138.928849 
L 101.256459 146.207529 
L 117.275598 150.250785 
L 133.294737 152.632453 
L 149.313876 154.664439 
L 165.333014 155.578668 
L 181.352153 156.365903 
L 197.371292 157.072385 
L 213.390431 157.713133 
L 229.409569 171.036735 
L 245.428708 170.83423 
L 261.447847 170.686404 
L 277.466986 170.535213 
L 293.486124 170.37254 
L 309.505263 170.208109 
L 325.524402 170.04622 
L 341.543541 169.887068 
L 357.562679 169.708307 
L 373.581818 169.529287 
" clip-path="url(#pe276eb661e)" style="fill: none; stroke: #deff19; stroke-width: 1.5; stroke-linecap: square"/>
   </g>
   <g id="line2d_80">
    <path d="M 69.218182 172.867228 
L 85.237321 168.756693 
L 101.256459 161.151974 
L 117.275598 155.610177 
L 133.294737 154.632202 
L 149.313876 155.027839 
L 165.333014 155.871313 
L 181.352153 156.634113 
L 197.371292 157.328518 
L 213.390431 157.95932 
L 229.409569 171.058236 
L 245.428708 170.908646 
L 261.447847 170.767193 
L 277.466986 170.607951 
L 293.486124 170.438809 
L 309.505263 170.273006 
L 325.524402 170.109955 
L 341.543541 169.949707 
L 357.562679 169.65638 
L 373.581818 169.454803 
" clip-path="url(#pe276eb661e)" style="fill: none; stroke: #e7ff0f; stroke-width: 1.5; stroke-linecap: square"/>
   </g>
   <g id="line2d_81">
    <path d="M 69.218182 210.463942 
L 85.237321 209.415891 
L 101.256459 206.423233 
L 117.275598 202.207482 
L 133.294737 198.596332 
L 149.313876 196.036336 
L 165.333014 193.92561 
L 181.352153 191.967184 
L 197.371292 190.129483 
L 213.390431 188.405438 
L 229.409569 171.058236 
L 245.428708 170.908646 
L 261.447847 170.767193 
L 277.466986 170.607951 
L 293.486124 170.438809 
L 309.505263 170.273006 
L 325.524402 170.109955 
L 341.543541 169.949707 
L 357.562679 169.65638 
L 373.581818 169.454803 
" clip-path="url(#pe276eb661e)" style="fill: none; stroke: #eeff09; stroke-width: 1.5; stroke-linecap: square"/>
   </g>
   <g id="line2d_82">
    <path d="M 69.218182 107.152981 
L 85.237321 107.208078 
L 101.256459 96.303353 
L 117.275598 82.72173 
L 133.294737 83.955782 
L 149.313876 85.04039 
L 165.333014 86.126894 
L 181.352153 87.196083 
L 197.371292 88.246956 
L 213.390431 89.279589 
L 229.409569 90.294328 
L 245.428708 91.247737 
L 261.447847 92.718053 
L 277.466986 93.824504 
L 293.486124 94.997917 
L 309.505263 96.133214 
L 325.524402 97.244936 
L 341.543541 98.33691 
L 357.562679 99.541475 
L 373.581818 100.628466 
" clip-path="url(#pe276eb661e)" style="fill: none; stroke: #f8f500; stroke-width: 1.5; stroke-linecap: square"/>
   </g>
   <g id="line2d_83">
    <path d="M 69.218182 236.503287 
L 85.237321 221.537027 
L 101.256459 212.162524 
L 117.275598 205.155527 
L 133.294737 198.990864 
L 149.313876 195.98365 
L 165.333014 193.858702 
L 181.352153 191.884739 
L 197.371292 190.041948 
L 213.390431 188.31392 
L 229.409569 171.036735 
L 245.428708 170.83423 
L 261.447847 170.686404 
L 277.466986 170.535213 
L 293.486124 170.37254 
L 309.505263 170.208109 
L 325.524402 170.04622 
L 341.543541 169.887068 
L 357.562679 169.708307 
L 373.581818 169.529287 
" clip-path="url(#pe276eb661e)" style="fill: none; stroke: #feed00; stroke-width: 1.5; stroke-linecap: square"/>
   </g>
   <g id="line2d_84">
    <path d="M 69.218182 95.766078 
L 85.237321 90.836496 
L 101.256459 83.885805 
L 117.275598 82.639745 
L 133.294737 83.591956 
L 149.313876 84.744738 
L 165.333014 85.841492 
L 181.352153 86.915662 
L 197.371292 87.971139 
L 213.390431 89.008202 
L 229.409569 90.027278 
L 245.428708 90.980616 
L 261.447847 91.950886 
L 277.466986 93.050152 
L 293.486124 94.217022 
L 309.505263 95.360122 
L 325.524402 96.484298 
L 341.543541 98.246893 
L 357.562679 99.435338 
L 373.581818 100.821065 
" clip-path="url(#pe276eb661e)" style="fill: none; stroke: #ffe200; stroke-width: 1.5; stroke-linecap: square"/>
   </g>
   <g id="line2d_85">
    <path d="M 69.218182 170.635637 
L 85.237321 166.798084 
L 101.256459 159.575385 
L 117.275598 154.088591 
L 133.294737 153.714033 
L 149.313876 154.866714 
L 165.333014 155.755919 
L 181.352153 156.527579 
L 197.371292 157.226373 
L 213.390431 157.860577 
L 229.409569 171.03506 
L 245.428708 170.885741 
L 261.447847 170.744718 
L 277.466986 170.585794 
L 293.486124 170.417009 
L 309.505263 170.251582 
L 325.524402 170.088898 
L 341.543541 169.828706 
L 357.562679 169.65638 
L 373.581818 169.454803 
" clip-path="url(#pe276eb661e)" style="fill: none; stroke: #ffd700; stroke-width: 1.5; stroke-linecap: square"/>
   </g>
   <g id="line2d_86">
    <path d="M 69.218182 68.5441 
L 85.237321 75.112274 
L 101.256459 79.56117 
L 117.275598 81.832433 
L 133.294737 83.093923 
L 149.313876 84.21547 
L 165.333014 85.324126 
L 181.352153 86.410632 
L 197.371292 87.477334 
L 213.390431 88.525124 
L 229.409569 89.554527 
L 245.428708 90.548887 
L 261.447847 91.527612 
L 277.466986 92.576406 
L 293.486124 93.708196 
L 309.505263 94.854891 
L 325.524402 95.986672 
L 341.543541 97.099933 
L 357.562679 98.336434 
L 373.581818 99.748204 
" clip-path="url(#pe276eb661e)" style="fill: none; stroke: #ffd000; stroke-width: 1.5; stroke-linecap: square"/>
   </g>
   <g id="line2d_87">
    <path d="M 69.218182 133.534417 
L 85.237321 139.598721 
L 101.256459 146.372981 
L 117.275598 150.250785 
L 133.294737 152.632453 
L 149.313876 154.664439 
L 165.333014 155.578668 
L 181.352153 156.365903 
L 197.371292 157.072385 
L 213.390431 157.713133 
L 229.409569 171.036735 
L 245.428708 170.83423 
L 261.447847 170.686404 
L 277.466986 170.535213 
L 293.486124 170.37254 
L 309.505263 170.208109 
L 325.524402 170.04622 
L 341.543541 169.887068 
L 357.562679 169.708307 
L 373.581818 169.529287 
" clip-path="url(#pe276eb661e)" style="fill: none; stroke: #ffc400; stroke-width: 1.5; stroke-linecap: square"/>
   </g>
   <g id="line2d_88">
    <path d="M 69.218182 137.912286 
L 85.237321 142.836194 
L 101.256459 148.94904 
L 117.275598 152.196867 
L 133.294737 154.00293 
L 149.313876 155.074582 
L 165.333014 155.855343 
L 181.352153 156.607244 
L 197.371292 157.295094 
L 213.390431 157.920732 
L 229.409569 170.939176 
L 245.428708 170.826813 
L 261.447847 170.691399 
L 277.466986 170.486559 
L 293.486124 170.318615 
L 309.505263 170.154545 
L 325.524402 169.993517 
L 341.543541 169.835268 
L 357.562679 169.66045 
L 373.581818 169.474224 
" clip-path="url(#pe276eb661e)" style="fill: none; stroke: #ffbd00; stroke-width: 1.5; stroke-linecap: square"/>
   </g>
   <g id="line2d_89">
    <path d="M 69.218182 204.327215 
L 85.237321 204.949929 
L 101.256459 205.756104 
L 117.275598 202.808182 
L 133.294737 198.990864 
L 149.313876 195.98365 
L 165.333014 193.858702 
L 181.352153 191.884739 
L 197.371292 190.041948 
L 213.390431 188.31392 
L 229.409569 171.036735 
L 245.428708 170.83423 
L 261.447847 170.686404 
L 277.466986 170.535213 
L 293.486124 170.37254 
L 309.505263 170.208109 
L 325.524402 170.04622 
L 341.543541 169.887068 
L 357.562679 169.708307 
L 373.581818 169.529287 
" clip-path="url(#pe276eb661e)" style="fill: none; stroke: #ffb200; stroke-width: 1.5; stroke-linecap: square"/>
   </g>
   <g id="line2d_90">
    <path d="M 69.218182 142.123784 
L 85.237321 146.300249 
L 101.256459 148.94904 
L 117.275598 152.196867 
L 133.294737 154.00293 
L 149.313876 155.074582 
L 165.333014 155.855343 
L 181.352153 156.607244 
L 197.371292 157.295094 
L 213.390431 157.920732 
L 229.409569 170.939176 
L 245.428708 170.826813 
L 261.447847 170.691399 
L 277.466986 170.486559 
L 293.486124 170.318615 
L 309.505263 170.154545 
L 325.524402 169.993517 
L 341.543541 169.835268 
L 357.562679 169.66045 
L 373.581818 169.474224 
" clip-path="url(#pe276eb661e)" style="fill: none; stroke: #ffab00; stroke-width: 1.5; stroke-linecap: square"/>
   </g>
   <g id="line2d_91">
    <path d="M 69.218182 225.670013 
L 85.237321 219.378703 
L 101.256459 210.60499 
L 117.275598 202.082131 
L 133.294737 197.928762 
L 149.313876 195.548824 
L 165.333014 193.519403 
L 181.352153 191.582056 
L 197.371292 189.762884 
L 213.390431 188.055575 
L 229.409569 170.939176 
L 245.428708 170.826813 
L 261.447847 170.691399 
L 277.466986 170.486559 
L 293.486124 170.318615 
L 309.505263 170.154545 
L 325.524402 169.993517 
L 341.543541 169.835268 
L 357.562679 169.66045 
L 373.581818 169.474224 
" clip-path="url(#pe276eb661e)" style="fill: none; stroke: #ff9f00; stroke-width: 1.5; stroke-linecap: square"/>
   </g>
   <g id="line2d_92">
    <path d="M 69.218182 164.285795 
L 85.237321 161.078881 
L 101.256459 157.513984 
L 117.275598 155.143348 
L 133.294737 154.804822 
L 149.313876 155.074582 
L 165.333014 155.855343 
L 181.352153 156.607244 
L 197.371292 157.295094 
L 213.390431 157.920732 
L 229.409569 170.939176 
L 245.428708 170.826813 
L 261.447847 170.691399 
L 277.466986 170.486559 
L 293.486124 170.318615 
L 309.505263 170.154545 
L 325.524402 169.993517 
L 341.543541 169.835268 
L 357.562679 169.66045 
L 373.581818 169.474224 
" clip-path="url(#pe276eb661e)" style="fill: none; stroke: #ff9400; stroke-width: 1.5; stroke-linecap: square"/>
   </g>
   <g id="line2d_93">
    <path d="M 69.218182 184.9034 
L 85.237321 183.060555 
L 101.256459 180.756629 
L 117.275598 186.321119 
L 133.294737 188.674121 
L 149.313876 196.036336 
L 165.333014 193.92561 
L 181.352153 191.967184 
L 197.371292 190.129483 
L 213.390431 188.405438 
L 229.409569 171.058236 
L 245.428708 170.908646 
L 261.447847 170.767193 
L 277.466986 170.607951 
L 293.486124 170.438809 
L 309.505263 170.273006 
L 325.524402 170.109955 
L 341.543541 169.949707 
L 357.562679 169.65638 
L 373.581818 169.454803 
" clip-path="url(#pe276eb661e)" style="fill: none; stroke: #ff8d00; stroke-width: 1.5; stroke-linecap: square"/>
   </g>
   <g id="line2d_94">
    <path d="M 69.218182 128.536084 
L 85.237321 134.834483 
L 101.256459 144.457367 
L 117.275598 150.750865 
L 133.294737 153.898038 
L 149.313876 155.027839 
L 165.333014 155.871313 
L 181.352153 156.634113 
L 197.371292 157.328518 
L 213.390431 157.95932 
L 229.409569 171.058236 
L 245.428708 170.908646 
L 261.447847 170.767193 
L 277.466986 170.607951 
L 293.486124 170.438809 
L 309.505263 170.273006 
L 325.524402 170.109955 
L 341.543541 169.949707 
L 357.562679 169.65638 
L 373.581818 169.454803 
" clip-path="url(#pe276eb661e)" style="fill: none; stroke: #ff8200; stroke-width: 1.5; stroke-linecap: square"/>
   </g>
   <g id="line2d_95">
    <path d="M 69.218182 150.654237 
L 85.237321 148.809293 
L 101.256459 147.905212 
L 117.275598 150.689396 
L 133.294737 153.496436 
L 149.313876 154.664439 
L 165.333014 155.578668 
L 181.352153 156.365903 
L 197.371292 157.072385 
L 213.390431 157.713133 
L 229.409569 171.036735 
L 245.428708 170.83423 
L 261.447847 170.686404 
L 277.466986 170.535213 
L 293.486124 170.37254 
L 309.505263 170.208109 
L 325.524402 170.04622 
L 341.543541 169.887068 
L 357.562679 169.708307 
L 373.581818 169.529287 
" clip-path="url(#pe276eb661e)" style="fill: none; stroke: #ff7a00; stroke-width: 1.5; stroke-linecap: square"/>
   </g>
   <g id="line2d_96">
    <path d="M 69.218182 159.834688 
L 85.237321 158.345079 
L 101.256459 156.809008 
L 117.275598 155.260412 
L 133.294737 154.712385 
L 149.313876 155.027839 
L 165.333014 155.871313 
L 181.352153 156.634113 
L 197.371292 157.328518 
L 213.390431 157.95932 
L 229.409569 171.058236 
L 245.428708 170.908646 
L 261.447847 170.767193 
L 277.466986 170.607951 
L 293.486124 170.438809 
L 309.505263 170.273006 
L 325.524402 170.109955 
L 341.543541 169.949707 
L 357.562679 169.65638 
L 373.581818 169.454803 
" clip-path="url(#pe276eb661e)" style="fill: none; stroke: #ff6f00; stroke-width: 1.5; stroke-linecap: square"/>
   </g>
   <g id="line2d_97">
    <path d="M 69.218182 61.624175 
L 85.237321 71.957363 
L 101.256459 79.311364 
L 117.275598 81.832433 
L 133.294737 83.093923 
L 149.313876 84.21547 
L 165.333014 85.324126 
L 181.352153 86.410632 
L 197.371292 87.477334 
L 213.390431 88.525124 
L 229.409569 89.554527 
L 245.428708 90.548887 
L 261.447847 91.527612 
L 277.466986 92.576406 
L 293.486124 93.708196 
L 309.505263 94.854891 
L 325.524402 95.986672 
L 341.543541 97.099933 
L 357.562679 98.336434 
L 373.581818 99.748204 
" clip-path="url(#pe276eb661e)" style="fill: none; stroke: #ff6800; stroke-width: 1.5; stroke-linecap: square"/>
   </g>
   <g id="line2d_98">
    <path d="M 69.218182 171.660428 
L 85.237321 168.080028 
L 101.256459 161.845198 
L 117.275598 156.415645 
L 133.294737 155.989882 
L 149.313876 155.28466 
L 165.333014 156.048717 
L 181.352153 156.794159 
L 197.371292 157.481731 
L 213.390431 158.107515 
L 229.409569 171.084001 
L 245.428708 170.969575 
L 261.447847 170.643889 
L 277.466986 170.486559 
L 293.486124 170.318615 
L 309.505263 170.154545 
L 325.524402 169.993517 
L 341.543541 169.835268 
L 357.562679 169.66045 
L 373.581818 169.474224 
" clip-path="url(#pe276eb661e)" style="fill: none; stroke: #ff5d00; stroke-width: 1.5; stroke-linecap: square"/>
   </g>
   <g id="line2d_99">
    <path d="M 69.218182 160.511487 
L 85.237321 158.962341 
L 101.256459 157.959483 
L 117.275598 155.488392 
L 133.294737 155.122653 
L 149.313876 155.28466 
L 165.333014 156.048717 
L 181.352153 156.794159 
L 197.371292 157.481731 
L 213.390431 158.107515 
L 229.409569 171.084001 
L 245.428708 170.969575 
L 261.447847 170.643889 
L 277.466986 170.486559 
L 293.486124 170.318615 
L 309.505263 170.154545 
L 325.524402 169.993517 
L 341.543541 169.835268 
L 357.562679 169.66045 
L 373.581818 169.474224 
" clip-path="url(#pe276eb661e)" style="fill: none; stroke: #ff5500; stroke-width: 1.5; stroke-linecap: square"/>
   </g>
   <g id="line2d_100">
    <path d="M 69.218182 138.605871 
L 85.237321 143.326899 
L 101.256459 148.606364 
L 117.275598 152.092228 
L 133.294737 153.898038 
L 149.313876 155.027839 
L 165.333014 155.871313 
L 181.352153 156.634113 
L 197.371292 157.328518 
L 213.390431 157.95932 
L 229.409569 171.058236 
L 245.428708 170.908646 
L 261.447847 170.767193 
L 277.466986 170.607951 
L 293.486124 170.438809 
L 309.505263 170.273006 
L 325.524402 170.109955 
L 341.543541 169.949707 
L 357.562679 169.65638 
L 373.581818 169.454803 
" clip-path="url(#pe276eb661e)" style="fill: none; stroke: #ff4a00; stroke-width: 1.5; stroke-linecap: square"/>
   </g>
   <g id="line2d_101">
    <path d="M 69.218182 210.606027 
L 85.237321 208.388572 
L 101.256459 205.182154 
L 117.275598 201.409987 
L 133.294737 197.928762 
L 149.313876 195.548824 
L 165.333014 193.519403 
L 181.352153 191.582056 
L 197.371292 189.762884 
L 213.390431 188.055575 
L 229.409569 170.939176 
L 245.428708 170.826813 
L 261.447847 170.691399 
L 277.466986 170.486559 
L 293.486124 170.318615 
L 309.505263 170.154545 
L 325.524402 169.993517 
L 341.543541 169.835268 
L 357.562679 169.66045 
L 373.581818 169.474224 
" clip-path="url(#pe276eb661e)" style="fill: none; stroke: #ff3f00; stroke-width: 1.5; stroke-linecap: square"/>
   </g>
   <g id="line2d_102">
    <path d="M 69.218182 100.165512 
L 85.237321 94.634181 
L 101.256459 83.73178 
L 117.275598 82.024568 
L 133.294737 83.120983 
L 149.313876 84.248711 
L 165.333014 85.354317 
L 181.352153 86.442607 
L 197.371292 87.51125 
L 213.390431 88.560852 
L 229.409569 89.550945 
L 245.428708 90.583698 
L 261.447847 91.559519 
L 277.466986 92.664935 
L 293.486124 93.838378 
L 309.505263 94.987981 
L 325.524402 96.118552 
L 341.543541 97.229723 
L 357.562679 99.435338 
L 373.581818 100.821065 
" clip-path="url(#pe276eb661e)" style="fill: none; stroke: #ff3800; stroke-width: 1.5; stroke-linecap: square"/>
   </g>
   <g id="line2d_103">
    <path d="M 69.218182 86.378101 
L 85.237321 84.810138 
L 101.256459 80.769089 
L 117.275598 82.507005 
L 133.294737 83.591956 
L 149.313876 84.744738 
L 165.333014 85.841492 
L 181.352153 86.915662 
L 197.371292 87.971139 
L 213.390431 89.008202 
L 229.409569 90.027278 
L 245.428708 90.980616 
L 261.447847 91.950886 
L 277.466986 93.050152 
L 293.486124 94.217022 
L 309.505263 95.360122 
L 325.524402 96.484298 
L 341.543541 98.246893 
L 357.562679 99.435338 
L 373.581818 100.821065 
" clip-path="url(#pe276eb661e)" style="fill: none; stroke: #ff2d00; stroke-width: 1.5; stroke-linecap: square"/>
   </g>
   <g id="line2d_104">
    <path d="M 69.218182 217.30517 
L 85.237321 214.734605 
L 101.256459 209.475915 
L 117.275598 202.267491 
L 133.294737 198.622391 
L 149.313876 196.036336 
L 165.333014 193.92561 
L 181.352153 191.967184 
L 197.371292 190.129483 
L 213.390431 188.405438 
L 229.409569 171.058236 
L 245.428708 170.908646 
L 261.447847 170.767193 
L 277.466986 170.607951 
L 293.486124 170.438809 
L 309.505263 170.273006 
L 325.524402 170.109955 
L 341.543541 169.949707 
L 357.562679 169.65638 
L 373.581818 169.454803 
" clip-path="url(#pe276eb661e)" style="fill: none; stroke: #ff2500; stroke-width: 1.5; stroke-linecap: square"/>
   </g>
   <g id="line2d_105">
    <path d="M 69.218182 178.721907 
L 85.237321 173.949954 
L 101.256459 164.984047 
L 117.275598 156.03922 
L 133.294737 154.922448 
L 149.313876 154.866714 
L 165.333014 155.755919 
L 181.352153 156.527579 
L 197.371292 157.226373 
L 213.390431 157.860577 
L 229.409569 171.03506 
L 245.428708 170.885741 
L 261.447847 170.744718 
L 277.466986 170.585794 
L 293.486124 170.417009 
L 309.505263 170.251582 
L 325.524402 170.088898 
L 341.543541 169.828706 
L 357.562679 169.65638 
L 373.581818 169.454803 
" clip-path="url(#pe276eb661e)" style="fill: none; stroke: #ff1a00; stroke-width: 1.5; stroke-linecap: square"/>
   </g>
   <g id="line2d_106">
    <path d="M 69.218182 77.45396 
L 85.237321 78.206674 
L 101.256459 81.117822 
L 117.275598 82.821315 
L 133.294737 83.955782 
L 149.313876 85.04039 
L 165.333014 86.126894 
L 181.352153 87.196083 
L 197.371292 88.246956 
L 213.390431 89.279589 
L 229.409569 90.294328 
L 245.428708 91.247737 
L 261.447847 92.718053 
L 277.466986 93.824504 
L 293.486124 94.997917 
L 309.505263 96.133214 
L 325.524402 97.244936 
L 341.543541 98.33691 
L 357.562679 99.541475 
L 373.581818 100.628466 
" clip-path="url(#pe276eb661e)" style="fill: none; stroke: #ff1300; stroke-width: 1.5; stroke-linecap: square"/>
   </g>
   <g id="line2d_107">
    <path d="M 69.218182 207.251408 
L 85.237321 206.750513 
L 101.256459 205.163183 
L 117.275598 201.375195 
L 133.294737 197.928762 
L 149.313876 195.548824 
L 165.333014 193.519403 
L 181.352153 191.582056 
L 197.371292 189.762884 
L 213.390431 188.055575 
L 229.409569 170.939176 
L 245.428708 170.826813 
L 261.447847 170.691399 
L 277.466986 170.486559 
L 293.486124 170.318615 
L 309.505263 170.154545 
L 325.524402 169.993517 
L 341.543541 169.835268 
L 357.562679 169.66045 
L 373.581818 169.474224 
" clip-path="url(#pe276eb661e)" style="fill: none; stroke: #f10800; stroke-width: 1.5; stroke-linecap: square"/>
   </g>
   <g id="line2d_108">
    <path d="M 69.218182 112.91196 
L 85.237321 120.91139 
L 101.256459 133.380586 
L 117.275598 150.388882 
L 133.294737 153.898038 
L 149.313876 155.027839 
L 165.333014 155.871313 
L 181.352153 156.634113 
L 197.371292 157.328518 
L 213.390431 157.95932 
L 229.409569 171.058236 
L 245.428708 170.908646 
L 261.447847 170.767193 
L 277.466986 170.607951 
L 293.486124 170.438809 
L 309.505263 170.273006 
L 325.524402 170.109955 
L 341.543541 169.949707 
L 357.562679 169.65638 
L 373.581818 169.454803 
" clip-path="url(#pe276eb661e)" style="fill: none; stroke: #e80000; stroke-width: 1.5; stroke-linecap: square"/>
   </g>
   <g id="line2d_109">
    <path d="M 69.218182 198.486536 
L 85.237321 198.55615 
L 101.256459 202.49788 
L 117.275598 202.207482 
L 133.294737 198.596332 
L 149.313876 196.036336 
L 165.333014 193.92561 
L 181.352153 191.967184 
L 197.371292 190.129483 
L 213.390431 188.405438 
L 229.409569 171.058236 
L 245.428708 170.908646 
L 261.447847 170.767193 
L 277.466986 170.607951 
L 293.486124 170.438809 
L 309.505263 170.273006 
L 325.524402 170.109955 
L 341.543541 169.949707 
L 357.562679 169.65638 
L 373.581818 169.454803 
" clip-path="url(#pe276eb661e)" style="fill: none; stroke: #da0000; stroke-width: 1.5; stroke-linecap: square"/>
   </g>
   <g id="line2d_110">
    <path d="M 69.218182 89.797458 
L 85.237321 86.719853 
L 101.256459 81.395999 
L 117.275598 83.026355 
L 133.294737 83.955782 
L 149.313876 85.04039 
L 165.333014 86.126894 
L 181.352153 87.196083 
L 197.371292 88.246956 
L 213.390431 89.279589 
L 229.409569 90.294328 
L 245.428708 91.247737 
L 261.447847 92.718053 
L 277.466986 93.824504 
L 293.486124 94.997917 
L 309.505263 96.133214 
L 325.524402 97.244936 
L 341.543541 98.33691 
L 357.562679 99.541475 
L 373.581818 100.628466 
" clip-path="url(#pe276eb661e)" style="fill: none; stroke: #cd0000; stroke-width: 1.5; stroke-linecap: square"/>
   </g>
   <g id="line2d_111">
    <path d="M 69.218182 141.024685 
L 85.237321 145.452448 
L 101.256459 148.944408 
L 117.275598 152.196867 
L 133.294737 154.00293 
L 149.313876 155.074582 
L 165.333014 155.855343 
L 181.352153 156.607244 
L 197.371292 157.295094 
L 213.390431 157.920732 
L 229.409569 170.939176 
L 245.428708 170.826813 
L 261.447847 170.691399 
L 277.466986 170.486559 
L 293.486124 170.318615 
L 309.505263 170.154545 
L 325.524402 169.993517 
L 341.543541 169.835268 
L 357.562679 169.66045 
L 373.581818 169.474224 
" clip-path="url(#pe276eb661e)" style="fill: none; stroke: #c40000; stroke-width: 1.5; stroke-linecap: square"/>
   </g>
   <g id="line2d_112">
    <path d="M 69.218182 135.369469 
L 85.237321 140.030631 
L 101.256459 147.324041 
L 117.275598 150.750865 
L 133.294737 153.898038 
L 149.313876 155.027839 
L 165.333014 155.871313 
L 181.352153 156.634113 
L 197.371292 157.328518 
L 213.390431 157.95932 
L 229.409569 171.058236 
L 245.428708 170.908646 
L 261.447847 170.767193 
L 277.466986 170.607951 
L 293.486124 170.438809 
L 309.505263 170.273006 
L 325.524402 170.109955 
L 341.543541 169.949707 
L 357.562679 169.65638 
L 373.581818 169.454803 
" clip-path="url(#pe276eb661e)" style="fill: none; stroke: #b60000; stroke-width: 1.5; stroke-linecap: square"/>
   </g>
   <g id="line2d_113">
    <path d="M 69.218182 226.0112 
L 85.237321 219.075463 
L 101.256459 211.122495 
L 117.275598 202.990862 
L 133.294737 198.622391 
L 149.313876 196.036336 
L 165.333014 193.92561 
L 181.352153 191.967184 
L 197.371292 190.129483 
L 213.390431 188.405438 
L 229.409569 171.058236 
L 245.428708 170.908646 
L 261.447847 170.767193 
L 277.466986 170.607951 
L 293.486124 170.438809 
L 309.505263 170.273006 
L 325.524402 170.109955 
L 341.543541 169.949707 
L 357.562679 169.65638 
L 373.581818 169.454803 
" clip-path="url(#pe276eb661e)" style="fill: none; stroke: #ad0000; stroke-width: 1.5; stroke-linecap: square"/>
   </g>
   <g id="line2d_114">
    <path d="M 69.218182 193.213594 
L 85.237321 194.283497 
L 101.256459 200.760197 
L 117.275598 202.740249 
L 133.294737 198.83671 
L 149.313876 195.927757 
L 165.333014 193.792877 
L 181.352153 191.837624 
L 197.371292 190.005173 
L 213.390431 188.286231 
L 229.409569 171.03506 
L 245.428708 170.885741 
L 261.447847 170.744718 
L 277.466986 170.585794 
L 293.486124 170.417009 
L 309.505263 170.251582 
L 325.524402 170.088898 
L 341.543541 169.828706 
L 357.562679 169.65638 
L 373.581818 169.454803 
" clip-path="url(#pe276eb661e)" style="fill: none; stroke: #9f0000; stroke-width: 1.5; stroke-linecap: square"/>
   </g>
   <g id="line2d_115">
    <path d="M 69.218182 211.225627 
L 85.237321 209.470544 
L 101.256459 205.132813 
L 117.275598 201.375195 
L 133.294737 197.928762 
L 149.313876 195.548824 
L 165.333014 193.519403 
L 181.352153 191.582056 
L 197.371292 189.762884 
L 213.390431 188.055575 
L 229.409569 170.939176 
L 245.428708 170.826813 
L 261.447847 170.691399 
L 277.466986 170.486559 
L 293.486124 170.318615 
L 309.505263 170.154545 
L 325.524402 169.993517 
L 341.543541 169.835268 
L 357.562679 169.66045 
L 373.581818 169.474224 
" clip-path="url(#pe276eb661e)" style="fill: none; stroke: #960000; stroke-width: 1.5; stroke-linecap: square"/>
   </g>
   <g id="line2d_116">
    <path d="M 69.218182 136.573678 
L 85.237321 140.837571 
L 101.256459 147.810613 
L 117.275598 151.759415 
L 133.294737 154.00293 
L 149.313876 155.074582 
L 165.333014 155.855343 
L 181.352153 156.607244 
L 197.371292 157.295094 
L 213.390431 157.920732 
L 229.409569 170.939176 
L 245.428708 170.826813 
L 261.447847 170.691399 
L 277.466986 170.486559 
L 293.486124 170.318615 
L 309.505263 170.154545 
L 325.524402 169.993517 
L 341.543541 169.835268 
L 357.562679 169.66045 
L 373.581818 169.474224 
" clip-path="url(#pe276eb661e)" style="fill: none; stroke: #890000; stroke-width: 1.5; stroke-linecap: square"/>
   </g>
   <g id="patch_3">
    <path d="M 54 252 
L 54 34.56 
" style="fill: none; stroke: #000000; stroke-width: 0.8; stroke-linejoin: miter; stroke-linecap: square"/>
   </g>
   <g id="patch_4">
    <path d="M 388.8 252 
L 388.8 34.56 
" style="fill: none; stroke: #000000; stroke-width: 0.8; stroke-linejoin: miter; stroke-linecap: square"/>
   </g>
   <g id="patch_5">
    <path d="M 54 252 
L 388.8 252 
" style="fill: none; stroke: #000000; stroke-width: 0.8; stroke-linejoin: miter; stroke-linecap: square"/>
   </g>
   <g id="patch_6">
    <path d="M 54 34.56 
L 388.8 34.56 
" style="fill: none; stroke: #000000; stroke-width: 0.8; stroke-linejoin: miter; stroke-linecap: square"/>
   </g>
   <g id="text_19">
    <!-- topic 1 with confidence interval 0.15 -->
    <g transform="translate(83.950781 28.56)scale(0.15 -0.15)">
     <defs>
      <path id="DejaVuSans-63" d="M 3122 3366 
L 3122 2828 
Q 2878 2963 2633 3030 
Q 2388 3097 2138 3097 
Q 1578 3097 1268 2742 
Q 959 2388 959 1747 
Q 959 1106 1268 751 
Q 1578 397 2138 397 
Q 2388 397 2633 464 
Q 2878 531 3122 666 
L 3122 134 
Q 2881 22 2623 -34 
Q 2366 -91 2075 -91 
Q 1284 -91 818 406 
Q 353 903 353 1747 
Q 353 2603 823 3093 
Q 1294 3584 2113 3584 
Q 2378 3584 2631 3529 
Q 2884 3475 3122 3366 
z
" transform="scale(0.015625)"/>
      <path id="DejaVuSans-20" transform="scale(0.015625)"/>
      <path id="DejaVuSans-77" d="M 269 3500 
L 844 3500 
L 1563 769 
L 2278 3500 
L 2956 3500 
L 3675 769 
L 4391 3500 
L 4966 3500 
L 4050 0 
L 3372 0 
L 2619 2869 
L 1863 0 
L 1184 0 
L 269 3500 
z
" transform="scale(0.015625)"/>
      <path id="DejaVuSans-68" d="M 3513 2113 
L 3513 0 
L 2938 0 
L 2938 2094 
Q 2938 2591 2744 2837 
Q 2550 3084 2163 3084 
Q 1697 3084 1428 2787 
Q 1159 2491 1159 1978 
L 1159 0 
L 581 0 
L 581 4863 
L 1159 4863 
L 1159 2956 
Q 1366 3272 1645 3428 
Q 1925 3584 2291 3584 
Q 2894 3584 3203 3211 
Q 3513 2838 3513 2113 
z
" transform="scale(0.015625)"/>
      <path id="DejaVuSans-66" d="M 2375 4863 
L 2375 4384 
L 1825 4384 
Q 1516 4384 1395 4259 
Q 1275 4134 1275 3809 
L 1275 3500 
L 2222 3500 
L 2222 3053 
L 1275 3053 
L 1275 0 
L 697 0 
L 697 3053 
L 147 3053 
L 147 3500 
L 697 3500 
L 697 3744 
Q 697 4328 969 4595 
Q 1241 4863 1831 4863 
L 2375 4863 
z
" transform="scale(0.015625)"/>
      <path id="DejaVuSans-64" d="M 2906 2969 
L 2906 4863 
L 3481 4863 
L 3481 0 
L 2906 0 
L 2906 525 
Q 2725 213 2448 61 
Q 2172 -91 1784 -91 
Q 1150 -91 751 415 
Q 353 922 353 1747 
Q 353 2572 751 3078 
Q 1150 3584 1784 3584 
Q 2172 3584 2448 3432 
Q 2725 3281 2906 2969 
z
M 947 1747 
Q 947 1113 1208 752 
Q 1469 391 1925 391 
Q 2381 391 2643 752 
Q 2906 1113 2906 1747 
Q 2906 2381 2643 2742 
Q 2381 3103 1925 3103 
Q 1469 3103 1208 2742 
Q 947 2381 947 1747 
z
" transform="scale(0.015625)"/>
      <path id="DejaVuSans-76" d="M 191 3500 
L 800 3500 
L 1894 563 
L 2988 3500 
L 3597 3500 
L 2284 0 
L 1503 0 
L 191 3500 
z
" transform="scale(0.015625)"/>
      <path id="DejaVuSans-6c" d="M 603 4863 
L 1178 4863 
L 1178 0 
L 603 0 
L 603 4863 
z
" transform="scale(0.015625)"/>
      <path id="DejaVuSans-35" d="M 691 4666 
L 3169 4666 
L 3169 4134 
L 1269 4134 
L 1269 2991 
Q 1406 3038 1543 3061 
Q 1681 3084 1819 3084 
Q 2600 3084 3056 2656 
Q 3513 2228 3513 1497 
Q 3513 744 3044 326 
Q 2575 -91 1722 -91 
Q 1428 -91 1123 -41 
Q 819 9 494 109 
L 494 744 
Q 775 591 1075 516 
Q 1375 441 1709 441 
Q 2250 441 2565 725 
Q 2881 1009 2881 1497 
Q 2881 1984 2565 2268 
Q 2250 2553 1709 2553 
Q 1456 2553 1204 2497 
Q 953 2441 691 2322 
L 691 4666 
z
" transform="scale(0.015625)"/>
     </defs>
     <use xlink:href="#DejaVuSans-74"/>
     <use xlink:href="#DejaVuSans-6f" x="39.208984"/>
     <use xlink:href="#DejaVuSans-70" x="100.390625"/>
     <use xlink:href="#DejaVuSans-69" x="163.867188"/>
     <use xlink:href="#DejaVuSans-63" x="191.650391"/>
     <use xlink:href="#DejaVuSans-20" x="246.630859"/>
     <use xlink:href="#DejaVuSans-31" x="278.417969"/>
     <use xlink:href="#DejaVuSans-20" x="342.041016"/>
     <use xlink:href="#DejaVuSans-77" x="373.828125"/>
     <use xlink:href="#DejaVuSans-69" x="455.615234"/>
     <use xlink:href="#DejaVuSans-74" x="483.398438"/>
     <use xlink:href="#DejaVuSans-68" x="522.607422"/>
     <use xlink:href="#DejaVuSans-20" x="585.986328"/>
     <use xlink:href="#DejaVuSans-63" x="617.773438"/>
     <use xlink:href="#DejaVuSans-6f" x="672.753906"/>
     <use xlink:href="#DejaVuSans-6e" x="733.935547"/>
     <use xlink:href="#DejaVuSans-66" x="797.314453"/>
     <use xlink:href="#DejaVuSans-69" x="832.519531"/>
     <use xlink:href="#DejaVuSans-64" x="860.302734"/>
     <use xlink:href="#DejaVuSans-65" x="923.779297"/>
     <use xlink:href="#DejaVuSans-6e" x="985.302734"/>
     <use xlink:href="#DejaVuSans-63" x="1048.681641"/>
     <use xlink:href="#DejaVuSans-65" x="1103.662109"/>
     <use xlink:href="#DejaVuSans-20" x="1165.185547"/>
     <use xlink:href="#DejaVuSans-69" x="1196.972656"/>
     <use xlink:href="#DejaVuSans-6e" x="1224.755859"/>
     <use xlink:href="#DejaVuSans-74" x="1288.134766"/>
     <use xlink:href="#DejaVuSans-65" x="1327.34375"/>
     <use xlink:href="#DejaVuSans-72" x="1388.867188"/>
     <use xlink:href="#DejaVuSans-76" x="1429.980469"/>
     <use xlink:href="#DejaVuSans-61" x="1489.160156"/>
     <use xlink:href="#DejaVuSans-6c" x="1550.439453"/>
     <use xlink:href="#DejaVuSans-20" x="1578.222656"/>
     <use xlink:href="#DejaVuSans-30" x="1610.009766"/>
     <use xlink:href="#DejaVuSans-2e" x="1673.632812"/>
     <use xlink:href="#DejaVuSans-31" x="1705.419922"/>
     <use xlink:href="#DejaVuSans-35" x="1769.042969"/>
    </g>
   </g>
  </g>
 </g>
 <defs>
  <clipPath id="pe276eb661e">
   <rect x="54" y="34.56" width="334.8" height="217.44"/>
  </clipPath>
 </defs>
</svg>
