<?xml version="1.0" encoding="utf-8" standalone="no"?>
<!DOCTYPE svg PUBLIC "-//W3C//DTD SVG 1.1//EN"
  "http://www.w3.org/Graphics/SVG/1.1/DTD/svg11.dtd">
<svg xmlns:xlink="http://www.w3.org/1999/xlink" width="432pt" height="288pt" viewBox="0 0 432 288" xmlns="http://www.w3.org/2000/svg" version="1.1">
 <metadata>
  <rdf:RDF xmlns:dc="http://purl.org/dc/elements/1.1/" xmlns:cc="http://creativecommons.org/ns#" xmlns:rdf="http://www.w3.org/1999/02/22-rdf-syntax-ns#">
   <cc:Work>
    <dc:type rdf:resource="http://purl.org/dc/dcmitype/StillImage"/>
    <dc:date>2023-11-27T23:24:20.917689</dc:date>
    <dc:format>image/svg+xml</dc:format>
    <dc:creator>
     <cc:Agent>
      <dc:title>Matplotlib v3.5.1, https://matplotlib.org/</dc:title>
     </cc:Agent>
    </dc:creator>
   </cc:Work>
  </rdf:RDF>
 </metadata>
 <defs>
  <style type="text/css">*{stroke-linejoin: round; stroke-linecap: butt}</style>
 </defs>
 <g id="figure_1">
  <g id="patch_1">
   <path d="M 0 288 
L 432 288 
L 432 0 
L 0 0 
L 0 288 
z
" style="fill: none"/>
  </g>
  <g id="axes_1">
   <g id="patch_2">
    <path d="M 54 252 
L 388.8 252 
L 388.8 34.56 
L 54 34.56 
z
" style="fill: #ffffff"/>
   </g>
   <g id="matplotlib.axis_1">
    <g id="xtick_1">
     <g id="line2d_1">
      <defs>
       <path id="m06c6f21fb9" d="M 0 0 
L 0 3.5 
" style="stroke: #000000; stroke-width: 0.8"/>
      </defs>
      <g>
       <use xlink:href="#m06c6f21fb9" x="69.218182" y="252" style="stroke: #000000; stroke-width: 0.8"/>
      </g>
     </g>
     <g id="text_1">
      <!-- 0 -->
      <g transform="translate(66.036932 266.598437)scale(0.1 -0.1)">
       <defs>
        <path id="DejaVuSans-30" d="M 2034 4250 
Q 1547 4250 1301 3770 
Q 1056 3291 1056 2328 
Q 1056 1369 1301 889 
Q 1547 409 2034 409 
Q 2525 409 2770 889 
Q 3016 1369 3016 2328 
Q 3016 3291 2770 3770 
Q 2525 4250 2034 4250 
z
M 2034 4750 
Q 2819 4750 3233 4129 
Q 3647 3509 3647 2328 
Q 3647 1150 3233 529 
Q 2819 -91 2034 -91 
Q 1250 -91 836 529 
Q 422 1150 422 2328 
Q 422 3509 836 4129 
Q 1250 4750 2034 4750 
z
" transform="scale(0.015625)"/>
       </defs>
       <use xlink:href="#DejaVuSans-30"/>
      </g>
     </g>
    </g>
    <g id="xtick_2">
     <g id="line2d_2">
      <g>
       <use xlink:href="#m06c6f21fb9" x="101.256459" y="252" style="stroke: #000000; stroke-width: 0.8"/>
      </g>
     </g>
     <g id="text_2">
      <!-- 2 -->
      <g transform="translate(98.075209 266.598437)scale(0.1 -0.1)">
       <defs>
        <path id="DejaVuSans-32" d="M 1228 531 
L 3431 531 
L 3431 0 
L 469 0 
L 469 531 
Q 828 903 1448 1529 
Q 2069 2156 2228 2338 
Q 2531 2678 2651 2914 
Q 2772 3150 2772 3378 
Q 2772 3750 2511 3984 
Q 2250 4219 1831 4219 
Q 1534 4219 1204 4116 
Q 875 4013 500 3803 
L 500 4441 
Q 881 4594 1212 4672 
Q 1544 4750 1819 4750 
Q 2544 4750 2975 4387 
Q 3406 4025 3406 3419 
Q 3406 3131 3298 2873 
Q 3191 2616 2906 2266 
Q 2828 2175 2409 1742 
Q 1991 1309 1228 531 
z
" transform="scale(0.015625)"/>
       </defs>
       <use xlink:href="#DejaVuSans-32"/>
      </g>
     </g>
    </g>
    <g id="xtick_3">
     <g id="line2d_3">
      <g>
       <use xlink:href="#m06c6f21fb9" x="133.294737" y="252" style="stroke: #000000; stroke-width: 0.8"/>
      </g>
     </g>
     <g id="text_3">
      <!-- 4 -->
      <g transform="translate(130.113487 266.598437)scale(0.1 -0.1)">
       <defs>
        <path id="DejaVuSans-34" d="M 2419 4116 
L 825 1625 
L 2419 1625 
L 2419 4116 
z
M 2253 4666 
L 3047 4666 
L 3047 1625 
L 3713 1625 
L 3713 1100 
L 3047 1100 
L 3047 0 
L 2419 0 
L 2419 1100 
L 313 1100 
L 313 1709 
L 2253 4666 
z
" transform="scale(0.015625)"/>
       </defs>
       <use xlink:href="#DejaVuSans-34"/>
      </g>
     </g>
    </g>
    <g id="xtick_4">
     <g id="line2d_4">
      <g>
       <use xlink:href="#m06c6f21fb9" x="165.333014" y="252" style="stroke: #000000; stroke-width: 0.8"/>
      </g>
     </g>
     <g id="text_4">
      <!-- 6 -->
      <g transform="translate(162.151764 266.598437)scale(0.1 -0.1)">
       <defs>
        <path id="DejaVuSans-36" d="M 2113 2584 
Q 1688 2584 1439 2293 
Q 1191 2003 1191 1497 
Q 1191 994 1439 701 
Q 1688 409 2113 409 
Q 2538 409 2786 701 
Q 3034 994 3034 1497 
Q 3034 2003 2786 2293 
Q 2538 2584 2113 2584 
z
M 3366 4563 
L 3366 3988 
Q 3128 4100 2886 4159 
Q 2644 4219 2406 4219 
Q 1781 4219 1451 3797 
Q 1122 3375 1075 2522 
Q 1259 2794 1537 2939 
Q 1816 3084 2150 3084 
Q 2853 3084 3261 2657 
Q 3669 2231 3669 1497 
Q 3669 778 3244 343 
Q 2819 -91 2113 -91 
Q 1303 -91 875 529 
Q 447 1150 447 2328 
Q 447 3434 972 4092 
Q 1497 4750 2381 4750 
Q 2619 4750 2861 4703 
Q 3103 4656 3366 4563 
z
" transform="scale(0.015625)"/>
       </defs>
       <use xlink:href="#DejaVuSans-36"/>
      </g>
     </g>
    </g>
    <g id="xtick_5">
     <g id="line2d_5">
      <g>
       <use xlink:href="#m06c6f21fb9" x="197.371292" y="252" style="stroke: #000000; stroke-width: 0.8"/>
      </g>
     </g>
     <g id="text_5">
      <!-- 8 -->
      <g transform="translate(194.190042 266.598437)scale(0.1 -0.1)">
       <defs>
        <path id="DejaVuSans-38" d="M 2034 2216 
Q 1584 2216 1326 1975 
Q 1069 1734 1069 1313 
Q 1069 891 1326 650 
Q 1584 409 2034 409 
Q 2484 409 2743 651 
Q 3003 894 3003 1313 
Q 3003 1734 2745 1975 
Q 2488 2216 2034 2216 
z
M 1403 2484 
Q 997 2584 770 2862 
Q 544 3141 544 3541 
Q 544 4100 942 4425 
Q 1341 4750 2034 4750 
Q 2731 4750 3128 4425 
Q 3525 4100 3525 3541 
Q 3525 3141 3298 2862 
Q 3072 2584 2669 2484 
Q 3125 2378 3379 2068 
Q 3634 1759 3634 1313 
Q 3634 634 3220 271 
Q 2806 -91 2034 -91 
Q 1263 -91 848 271 
Q 434 634 434 1313 
Q 434 1759 690 2068 
Q 947 2378 1403 2484 
z
M 1172 3481 
Q 1172 3119 1398 2916 
Q 1625 2713 2034 2713 
Q 2441 2713 2670 2916 
Q 2900 3119 2900 3481 
Q 2900 3844 2670 4047 
Q 2441 4250 2034 4250 
Q 1625 4250 1398 4047 
Q 1172 3844 1172 3481 
z
" transform="scale(0.015625)"/>
       </defs>
       <use xlink:href="#DejaVuSans-38"/>
      </g>
     </g>
    </g>
    <g id="xtick_6">
     <g id="line2d_6">
      <g>
       <use xlink:href="#m06c6f21fb9" x="229.409569" y="252" style="stroke: #000000; stroke-width: 0.8"/>
      </g>
     </g>
     <g id="text_6">
      <!-- 10 -->
      <g transform="translate(223.047069 266.598437)scale(0.1 -0.1)">
       <defs>
        <path id="DejaVuSans-31" d="M 794 531 
L 1825 531 
L 1825 4091 
L 703 3866 
L 703 4441 
L 1819 4666 
L 2450 4666 
L 2450 531 
L 3481 531 
L 3481 0 
L 794 0 
L 794 531 
z
" transform="scale(0.015625)"/>
       </defs>
       <use xlink:href="#DejaVuSans-31"/>
       <use xlink:href="#DejaVuSans-30" x="63.623047"/>
      </g>
     </g>
    </g>
    <g id="xtick_7">
     <g id="line2d_7">
      <g>
       <use xlink:href="#m06c6f21fb9" x="261.447847" y="252" style="stroke: #000000; stroke-width: 0.8"/>
      </g>
     </g>
     <g id="text_7">
      <!-- 12 -->
      <g transform="translate(255.085347 266.598437)scale(0.1 -0.1)">
       <use xlink:href="#DejaVuSans-31"/>
       <use xlink:href="#DejaVuSans-32" x="63.623047"/>
      </g>
     </g>
    </g>
    <g id="xtick_8">
     <g id="line2d_8">
      <g>
       <use xlink:href="#m06c6f21fb9" x="293.486124" y="252" style="stroke: #000000; stroke-width: 0.8"/>
      </g>
     </g>
     <g id="text_8">
      <!-- 14 -->
      <g transform="translate(287.123624 266.598437)scale(0.1 -0.1)">
       <use xlink:href="#DejaVuSans-31"/>
       <use xlink:href="#DejaVuSans-34" x="63.623047"/>
      </g>
     </g>
    </g>
    <g id="xtick_9">
     <g id="line2d_9">
      <g>
       <use xlink:href="#m06c6f21fb9" x="325.524402" y="252" style="stroke: #000000; stroke-width: 0.8"/>
      </g>
     </g>
     <g id="text_9">
      <!-- 16 -->
      <g transform="translate(319.161902 266.598437)scale(0.1 -0.1)">
       <use xlink:href="#DejaVuSans-31"/>
       <use xlink:href="#DejaVuSans-36" x="63.623047"/>
      </g>
     </g>
    </g>
    <g id="xtick_10">
     <g id="line2d_10">
      <g>
       <use xlink:href="#m06c6f21fb9" x="357.562679" y="252" style="stroke: #000000; stroke-width: 0.8"/>
      </g>
     </g>
     <g id="text_10">
      <!-- 18 -->
      <g transform="translate(351.200179 266.598437)scale(0.1 -0.1)">
       <use xlink:href="#DejaVuSans-31"/>
       <use xlink:href="#DejaVuSans-38" x="63.623047"/>
      </g>
     </g>
    </g>
    <g id="text_11">
     <!-- Iteration -->
     <g transform="translate(191.707969 283.315938)scale(0.14 -0.14)">
      <defs>
       <path id="DejaVuSans-49" d="M 628 4666 
L 1259 4666 
L 1259 0 
L 628 0 
L 628 4666 
z
" transform="scale(0.015625)"/>
       <path id="DejaVuSans-74" d="M 1172 4494 
L 1172 3500 
L 2356 3500 
L 2356 3053 
L 1172 3053 
L 1172 1153 
Q 1172 725 1289 603 
Q 1406 481 1766 481 
L 2356 481 
L 2356 0 
L 1766 0 
Q 1100 0 847 248 
Q 594 497 594 1153 
L 594 3053 
L 172 3053 
L 172 3500 
L 594 3500 
L 594 4494 
L 1172 4494 
z
" transform="scale(0.015625)"/>
       <path id="DejaVuSans-65" d="M 3597 1894 
L 3597 1613 
L 953 1613 
Q 991 1019 1311 708 
Q 1631 397 2203 397 
Q 2534 397 2845 478 
Q 3156 559 3463 722 
L 3463 178 
Q 3153 47 2828 -22 
Q 2503 -91 2169 -91 
Q 1331 -91 842 396 
Q 353 884 353 1716 
Q 353 2575 817 3079 
Q 1281 3584 2069 3584 
Q 2775 3584 3186 3129 
Q 3597 2675 3597 1894 
z
M 3022 2063 
Q 3016 2534 2758 2815 
Q 2500 3097 2075 3097 
Q 1594 3097 1305 2825 
Q 1016 2553 972 2059 
L 3022 2063 
z
" transform="scale(0.015625)"/>
       <path id="DejaVuSans-72" d="M 2631 2963 
Q 2534 3019 2420 3045 
Q 2306 3072 2169 3072 
Q 1681 3072 1420 2755 
Q 1159 2438 1159 1844 
L 1159 0 
L 581 0 
L 581 3500 
L 1159 3500 
L 1159 2956 
Q 1341 3275 1631 3429 
Q 1922 3584 2338 3584 
Q 2397 3584 2469 3576 
Q 2541 3569 2628 3553 
L 2631 2963 
z
" transform="scale(0.015625)"/>
       <path id="DejaVuSans-61" d="M 2194 1759 
Q 1497 1759 1228 1600 
Q 959 1441 959 1056 
Q 959 750 1161 570 
Q 1363 391 1709 391 
Q 2188 391 2477 730 
Q 2766 1069 2766 1631 
L 2766 1759 
L 2194 1759 
z
M 3341 1997 
L 3341 0 
L 2766 0 
L 2766 531 
Q 2569 213 2275 61 
Q 1981 -91 1556 -91 
Q 1019 -91 701 211 
Q 384 513 384 1019 
Q 384 1609 779 1909 
Q 1175 2209 1959 2209 
L 2766 2209 
L 2766 2266 
Q 2766 2663 2505 2880 
Q 2244 3097 1772 3097 
Q 1472 3097 1187 3025 
Q 903 2953 641 2809 
L 641 3341 
Q 956 3463 1253 3523 
Q 1550 3584 1831 3584 
Q 2591 3584 2966 3190 
Q 3341 2797 3341 1997 
z
" transform="scale(0.015625)"/>
       <path id="DejaVuSans-69" d="M 603 3500 
L 1178 3500 
L 1178 0 
L 603 0 
L 603 3500 
z
M 603 4863 
L 1178 4863 
L 1178 4134 
L 603 4134 
L 603 4863 
z
" transform="scale(0.015625)"/>
       <path id="DejaVuSans-6f" d="M 1959 3097 
Q 1497 3097 1228 2736 
Q 959 2375 959 1747 
Q 959 1119 1226 758 
Q 1494 397 1959 397 
Q 2419 397 2687 759 
Q 2956 1122 2956 1747 
Q 2956 2369 2687 2733 
Q 2419 3097 1959 3097 
z
M 1959 3584 
Q 2709 3584 3137 3096 
Q 3566 2609 3566 1747 
Q 3566 888 3137 398 
Q 2709 -91 1959 -91 
Q 1206 -91 779 398 
Q 353 888 353 1747 
Q 353 2609 779 3096 
Q 1206 3584 1959 3584 
z
" transform="scale(0.015625)"/>
       <path id="DejaVuSans-6e" d="M 3513 2113 
L 3513 0 
L 2938 0 
L 2938 2094 
Q 2938 2591 2744 2837 
Q 2550 3084 2163 3084 
Q 1697 3084 1428 2787 
Q 1159 2491 1159 1978 
L 1159 0 
L 581 0 
L 581 3500 
L 1159 3500 
L 1159 2956 
Q 1366 3272 1645 3428 
Q 1925 3584 2291 3584 
Q 2894 3584 3203 3211 
Q 3513 2838 3513 2113 
z
" transform="scale(0.015625)"/>
      </defs>
      <use xlink:href="#DejaVuSans-49"/>
      <use xlink:href="#DejaVuSans-74" x="29.492188"/>
      <use xlink:href="#DejaVuSans-65" x="68.701172"/>
      <use xlink:href="#DejaVuSans-72" x="130.224609"/>
      <use xlink:href="#DejaVuSans-61" x="171.337891"/>
      <use xlink:href="#DejaVuSans-74" x="232.617188"/>
      <use xlink:href="#DejaVuSans-69" x="271.826172"/>
      <use xlink:href="#DejaVuSans-6f" x="299.609375"/>
      <use xlink:href="#DejaVuSans-6e" x="360.791016"/>
     </g>
    </g>
   </g>
   <g id="matplotlib.axis_2">
    <g id="ytick_1">
     <g id="line2d_11">
      <defs>
       <path id="m9409f2419a" d="M 0 0 
L -3.5 0 
" style="stroke: #000000; stroke-width: 0.8"/>
      </defs>
      <g>
       <use xlink:href="#m9409f2419a" x="54" y="245.191718" style="stroke: #000000; stroke-width: 0.8"/>
      </g>
     </g>
     <g id="text_12">
      <!-- 0.0 -->
      <g transform="translate(31.096875 248.990936)scale(0.1 -0.1)">
       <defs>
        <path id="DejaVuSans-2e" d="M 684 794 
L 1344 794 
L 1344 0 
L 684 0 
L 684 794 
z
" transform="scale(0.015625)"/>
       </defs>
       <use xlink:href="#DejaVuSans-30"/>
       <use xlink:href="#DejaVuSans-2e" x="63.623047"/>
       <use xlink:href="#DejaVuSans-30" x="95.410156"/>
      </g>
     </g>
    </g>
    <g id="ytick_2">
     <g id="line2d_12">
      <g>
       <use xlink:href="#m9409f2419a" x="54" y="204.320078" style="stroke: #000000; stroke-width: 0.8"/>
      </g>
     </g>
     <g id="text_13">
      <!-- 0.2 -->
      <g transform="translate(31.096875 208.119297)scale(0.1 -0.1)">
       <use xlink:href="#DejaVuSans-30"/>
       <use xlink:href="#DejaVuSans-2e" x="63.623047"/>
       <use xlink:href="#DejaVuSans-32" x="95.410156"/>
      </g>
     </g>
    </g>
    <g id="ytick_3">
     <g id="line2d_13">
      <g>
       <use xlink:href="#m9409f2419a" x="54" y="163.448439" style="stroke: #000000; stroke-width: 0.8"/>
      </g>
     </g>
     <g id="text_14">
      <!-- 0.4 -->
      <g transform="translate(31.096875 167.247658)scale(0.1 -0.1)">
       <use xlink:href="#DejaVuSans-30"/>
       <use xlink:href="#DejaVuSans-2e" x="63.623047"/>
       <use xlink:href="#DejaVuSans-34" x="95.410156"/>
      </g>
     </g>
    </g>
    <g id="ytick_4">
     <g id="line2d_14">
      <g>
       <use xlink:href="#m9409f2419a" x="54" y="122.5768" style="stroke: #000000; stroke-width: 0.8"/>
      </g>
     </g>
     <g id="text_15">
      <!-- 0.6 -->
      <g transform="translate(31.096875 126.376018)scale(0.1 -0.1)">
       <use xlink:href="#DejaVuSans-30"/>
       <use xlink:href="#DejaVuSans-2e" x="63.623047"/>
       <use xlink:href="#DejaVuSans-36" x="95.410156"/>
      </g>
     </g>
    </g>
    <g id="ytick_5">
     <g id="line2d_15">
      <g>
       <use xlink:href="#m9409f2419a" x="54" y="81.70516" style="stroke: #000000; stroke-width: 0.8"/>
      </g>
     </g>
     <g id="text_16">
      <!-- 0.8 -->
      <g transform="translate(31.096875 85.504379)scale(0.1 -0.1)">
       <use xlink:href="#DejaVuSans-30"/>
       <use xlink:href="#DejaVuSans-2e" x="63.623047"/>
       <use xlink:href="#DejaVuSans-38" x="95.410156"/>
      </g>
     </g>
    </g>
    <g id="ytick_6">
     <g id="line2d_16">
      <g>
       <use xlink:href="#m9409f2419a" x="54" y="40.833521" style="stroke: #000000; stroke-width: 0.8"/>
      </g>
     </g>
     <g id="text_17">
      <!-- 1.0 -->
      <g transform="translate(31.096875 44.63274)scale(0.1 -0.1)">
       <use xlink:href="#DejaVuSans-31"/>
       <use xlink:href="#DejaVuSans-2e" x="63.623047"/>
       <use xlink:href="#DejaVuSans-30" x="95.410156"/>
      </g>
     </g>
    </g>
    <g id="text_18">
     <!-- Opinion -->
     <g transform="translate(24.185312 170.279219)rotate(-90)scale(0.14 -0.14)">
      <defs>
       <path id="DejaVuSans-4f" d="M 2522 4238 
Q 1834 4238 1429 3725 
Q 1025 3213 1025 2328 
Q 1025 1447 1429 934 
Q 1834 422 2522 422 
Q 3209 422 3611 934 
Q 4013 1447 4013 2328 
Q 4013 3213 3611 3725 
Q 3209 4238 2522 4238 
z
M 2522 4750 
Q 3503 4750 4090 4092 
Q 4678 3434 4678 2328 
Q 4678 1225 4090 567 
Q 3503 -91 2522 -91 
Q 1538 -91 948 565 
Q 359 1222 359 2328 
Q 359 3434 948 4092 
Q 1538 4750 2522 4750 
z
" transform="scale(0.015625)"/>
       <path id="DejaVuSans-70" d="M 1159 525 
L 1159 -1331 
L 581 -1331 
L 581 3500 
L 1159 3500 
L 1159 2969 
Q 1341 3281 1617 3432 
Q 1894 3584 2278 3584 
Q 2916 3584 3314 3078 
Q 3713 2572 3713 1747 
Q 3713 922 3314 415 
Q 2916 -91 2278 -91 
Q 1894 -91 1617 61 
Q 1341 213 1159 525 
z
M 3116 1747 
Q 3116 2381 2855 2742 
Q 2594 3103 2138 3103 
Q 1681 3103 1420 2742 
Q 1159 2381 1159 1747 
Q 1159 1113 1420 752 
Q 1681 391 2138 391 
Q 2594 391 2855 752 
Q 3116 1113 3116 1747 
z
" transform="scale(0.015625)"/>
      </defs>
      <use xlink:href="#DejaVuSans-4f"/>
      <use xlink:href="#DejaVuSans-70" x="78.710938"/>
      <use xlink:href="#DejaVuSans-69" x="142.1875"/>
      <use xlink:href="#DejaVuSans-6e" x="169.970703"/>
      <use xlink:href="#DejaVuSans-69" x="233.349609"/>
      <use xlink:href="#DejaVuSans-6f" x="261.132812"/>
      <use xlink:href="#DejaVuSans-6e" x="322.314453"/>
     </g>
    </g>
   </g>
   <g id="line2d_17">
    <path d="M 69.218182 77.572419 
L 85.237321 77.382929 
L 101.256459 73.45739 
L 117.275598 63.978133 
L 133.294737 64.726389 
L 149.313876 65.740016 
L 165.333014 66.766437 
L 181.352153 67.778831 
L 197.371292 68.781069 
L 213.390431 69.773172 
L 229.409569 71.873982 
L 245.428708 73.469173 
L 261.447847 75.037482 
L 277.466986 76.583458 
L 293.486124 78.106517 
L 309.505263 79.607801 
L 325.524402 81.086329 
L 341.543541 82.542279 
L 357.562679 83.977142 
L 373.581818 88.287884 
" clip-path="url(#p2049c8eb04)" style="fill: none; stroke: #000080; stroke-width: 1.5; stroke-linecap: square"/>
   </g>
   <g id="line2d_18">
    <path d="M 69.218182 191.571521 
L 85.237321 194.917882 
L 101.256459 193.347226 
L 117.275598 190.993702 
L 133.294737 189.036656 
L 149.313876 188.424967 
L 165.333014 187.875992 
L 181.352153 187.331099 
L 197.371292 186.792545 
L 213.390431 186.260332 
L 229.409569 185.734427 
L 245.428708 184.869528 
L 261.447847 188.100699 
L 277.466986 188.204302 
L 293.486124 187.459858 
L 309.505263 186.734477 
L 325.524402 186.028229 
L 341.543541 185.340319 
L 357.562679 184.652769 
L 373.581818 183.66029 
" clip-path="url(#p2049c8eb04)" style="fill: none; stroke: #000089; stroke-width: 1.5; stroke-linecap: square"/>
   </g>
   <g id="line2d_19">
    <path d="M 69.218182 202.085723 
L 85.237321 196.071927 
L 101.256459 192.968061 
L 117.275598 190.908926 
L 133.294737 188.970389 
L 149.313876 188.353785 
L 165.333014 187.80558 
L 181.352153 187.261222 
L 197.371292 186.723202 
L 213.390431 186.191523 
L 229.409569 185.090743 
L 245.428708 184.232837 
L 261.447847 187.477291 
L 277.466986 187.635477 
L 293.486124 186.904662 
L 309.505263 186.193245 
L 325.524402 185.500297 
L 341.543541 184.825307 
L 357.562679 184.168425 
L 373.581818 182.943288 
" clip-path="url(#p2049c8eb04)" style="fill: none; stroke: #000096; stroke-width: 1.5; stroke-linecap: square"/>
   </g>
   <g id="line2d_20">
    <path d="M 69.218182 102.374139 
L 85.237321 103.811705 
L 101.256459 105.788212 
L 117.275598 107.553134 
L 133.294737 108.969241 
L 149.313876 109.830666 
L 165.333014 110.66227 
L 181.352153 111.47885 
L 197.371292 112.275879 
L 213.390431 113.053774 
L 229.409569 115.403304 
L 245.428708 117.147246 
L 261.447847 118.784161 
L 277.466986 120.322376 
L 293.486124 121.819871 
L 309.505263 123.233918 
L 325.524402 124.579995 
L 341.543541 136.323398 
L 357.562679 136.199022 
L 373.581818 136.484569 
" clip-path="url(#p2049c8eb04)" style="fill: none; stroke: #00009f; stroke-width: 1.5; stroke-linecap: square"/>
   </g>
   <g id="line2d_21">
    <path d="M 69.218182 106.290534 
L 85.237321 107.406753 
L 101.256459 106.000982 
L 117.275598 107.706021 
L 133.294737 108.969241 
L 149.313876 109.830666 
L 165.333014 110.66227 
L 181.352153 111.47885 
L 197.371292 112.275879 
L 213.390431 113.053774 
L 229.409569 115.403304 
L 245.428708 117.147246 
L 261.447847 118.784161 
L 277.466986 120.322376 
L 293.486124 121.819871 
L 309.505263 123.233918 
L 325.524402 124.579995 
L 341.543541 136.323398 
L 357.562679 136.199022 
L 373.581818 136.484569 
" clip-path="url(#p2049c8eb04)" style="fill: none; stroke: #0000ad; stroke-width: 1.5; stroke-linecap: square"/>
   </g>
   <g id="line2d_22">
    <path d="M 69.218182 173.155838 
L 85.237321 173.089894 
L 101.256459 173.960023 
L 117.275598 188.430875 
L 133.294737 188.970389 
L 149.313876 188.353785 
L 165.333014 187.80558 
L 181.352153 187.261222 
L 197.371292 186.723202 
L 213.390431 186.191523 
L 229.409569 185.090743 
L 245.428708 184.232837 
L 261.447847 187.477291 
L 277.466986 187.635477 
L 293.486124 186.904662 
L 309.505263 186.193245 
L 325.524402 185.500297 
L 341.543541 184.825307 
L 357.562679 184.168425 
L 373.581818 182.943288 
" clip-path="url(#p2049c8eb04)" style="fill: none; stroke: #0000b6; stroke-width: 1.5; stroke-linecap: square"/>
   </g>
   <g id="line2d_23">
    <path d="M 69.218182 133.345792 
L 85.237321 135.011666 
L 101.256459 140.112239 
L 117.275598 143.212097 
L 133.294737 143.481003 
L 149.313876 144.223239 
L 165.333014 144.272265 
L 181.352153 144.319028 
L 197.371292 144.363424 
L 213.390431 144.40567 
L 229.409569 144.522856 
L 245.428708 144.594564 
L 261.447847 144.654781 
L 277.466986 144.708104 
L 293.486124 144.792887 
L 309.505263 144.880197 
L 325.524402 144.974923 
L 341.543541 138.346405 
L 357.562679 136.199022 
L 373.581818 136.484569 
" clip-path="url(#p2049c8eb04)" style="fill: none; stroke: #0000c4; stroke-width: 1.5; stroke-linecap: square"/>
   </g>
   <g id="line2d_24">
    <path d="M 69.218182 193.754002 
L 85.237321 194.360533 
L 101.256459 192.776792 
L 117.275598 190.762283 
L 133.294737 188.802124 
L 149.313876 188.21634 
L 165.333014 187.66148 
L 181.352153 187.117295 
L 197.371292 186.579616 
L 213.390431 186.048352 
L 229.409569 185.090743 
L 245.428708 184.232837 
L 261.447847 187.477291 
L 277.466986 187.635477 
L 293.486124 186.904662 
L 309.505263 186.193245 
L 325.524402 185.500297 
L 341.543541 184.825307 
L 357.562679 184.168425 
L 373.581818 182.943288 
" clip-path="url(#p2049c8eb04)" style="fill: none; stroke: #0000cd; stroke-width: 1.5; stroke-linecap: square"/>
   </g>
   <g id="line2d_25">
    <path d="M 69.218182 111.94198 
L 85.237321 112.534609 
L 101.256459 112.375215 
L 117.275598 108.34719 
L 133.294737 108.485537 
L 149.313876 109.349456 
L 165.333014 110.199218 
L 181.352153 111.024408 
L 197.371292 111.829759 
L 213.390431 112.615814 
L 229.409569 113.590618 
L 245.428708 115.443662 
L 261.447847 117.176455 
L 277.466986 118.835055 
L 293.486124 120.360253 
L 309.505263 121.836182 
L 325.524402 123.24129 
L 341.543541 124.579164 
L 357.562679 135.877121 
L 373.581818 136.168485 
" clip-path="url(#p2049c8eb04)" style="fill: none; stroke: #0000da; stroke-width: 1.5; stroke-linecap: square"/>
   </g>
   <g id="line2d_26">
    <path d="M 69.218182 144.780377 
L 85.237321 143.157767 
L 101.256459 143.039916 
L 117.275598 142.935831 
L 133.294737 143.191043 
L 149.313876 143.935899 
L 165.333014 143.988678 
L 181.352153 144.039644 
L 197.371292 144.08818 
L 213.390431 144.134507 
L 229.409569 144.178758 
L 245.428708 144.265594 
L 261.447847 144.343285 
L 277.466986 144.43596 
L 293.486124 144.491775 
L 309.505263 144.579191 
L 325.524402 144.674586 
L 341.543541 137.950185 
L 357.562679 135.877121 
L 373.581818 136.168485 
" clip-path="url(#p2049c8eb04)" style="fill: none; stroke: #0000e8; stroke-width: 1.5; stroke-linecap: square"/>
   </g>
   <g id="line2d_27">
    <path d="M 69.218182 169.48981 
L 85.237321 171.899896 
L 101.256459 171.894764 
L 117.275598 178.459028 
L 133.294737 188.162712 
L 149.313876 188.353785 
L 165.333014 187.80558 
L 181.352153 187.261222 
L 197.371292 186.723202 
L 213.390431 186.191523 
L 229.409569 185.090743 
L 245.428708 184.232837 
L 261.447847 187.477291 
L 277.466986 187.635477 
L 293.486124 186.904662 
L 309.505263 186.193245 
L 325.524402 185.500297 
L 341.543541 184.825307 
L 357.562679 184.168425 
L 373.581818 182.943288 
" clip-path="url(#p2049c8eb04)" style="fill: none; stroke: #0000f1; stroke-width: 1.5; stroke-linecap: square"/>
   </g>
   <g id="line2d_28">
    <path d="M 69.218182 199.269567 
L 85.237321 195.145141 
L 101.256459 192.880653 
L 117.275598 190.782036 
L 133.294737 188.970389 
L 149.313876 188.353785 
L 165.333014 187.80558 
L 181.352153 187.261222 
L 197.371292 186.723202 
L 213.390431 186.191523 
L 229.409569 185.090743 
L 245.428708 184.232837 
L 261.447847 187.477291 
L 277.466986 187.635477 
L 293.486124 186.904662 
L 309.505263 186.193245 
L 325.524402 185.500297 
L 341.543541 184.825307 
L 357.562679 184.168425 
L 373.581818 182.943288 
" clip-path="url(#p2049c8eb04)" style="fill: none; stroke: #0000ff; stroke-width: 1.5; stroke-linecap: square"/>
   </g>
   <g id="line2d_29">
    <path d="M 69.218182 181.981294 
L 85.237321 187.137493 
L 101.256459 189.90763 
L 117.275598 189.478152 
L 133.294737 188.832824 
L 149.313876 188.21634 
L 165.333014 187.66148 
L 181.352153 187.117295 
L 197.371292 186.579616 
L 213.390431 186.048352 
L 229.409569 185.090743 
L 245.428708 184.232837 
L 261.447847 187.477291 
L 277.466986 187.635477 
L 293.486124 186.904662 
L 309.505263 186.193245 
L 325.524402 185.500297 
L 341.543541 184.825307 
L 357.562679 184.168425 
L 373.581818 182.943288 
" clip-path="url(#p2049c8eb04)" style="fill: none; stroke: #0000ff; stroke-width: 1.5; stroke-linecap: square"/>
   </g>
   <g id="line2d_30">
    <path d="M 69.218182 87.570856 
L 85.237321 92.158733 
L 101.256459 99.085769 
L 117.275598 107.467719 
L 133.294737 108.969241 
L 149.313876 109.830666 
L 165.333014 110.66227 
L 181.352153 111.47885 
L 197.371292 112.275879 
L 213.390431 113.053774 
L 229.409569 115.403304 
L 245.428708 117.147246 
L 261.447847 118.784161 
L 277.466986 120.322376 
L 293.486124 121.819871 
L 309.505263 123.233918 
L 325.524402 124.579995 
L 341.543541 136.323398 
L 357.562679 136.199022 
L 373.581818 136.484569 
" clip-path="url(#p2049c8eb04)" style="fill: none; stroke: #0004ff; stroke-width: 1.5; stroke-linecap: square"/>
   </g>
   <g id="line2d_31">
    <path d="M 69.218182 203.028973 
L 85.237321 198.14589 
L 101.256459 192.854671 
L 117.275598 190.747012 
L 133.294737 188.832824 
L 149.313876 188.21634 
L 165.333014 187.66148 
L 181.352153 187.117295 
L 197.371292 186.579616 
L 213.390431 186.048352 
L 229.409569 185.090743 
L 245.428708 184.232837 
L 261.447847 187.477291 
L 277.466986 187.635477 
L 293.486124 186.904662 
L 309.505263 186.193245 
L 325.524402 185.500297 
L 341.543541 184.825307 
L 357.562679 184.168425 
L 373.581818 182.943288 
" clip-path="url(#p2049c8eb04)" style="fill: none; stroke: #000cff; stroke-width: 1.5; stroke-linecap: square"/>
   </g>
   <g id="line2d_32">
    <path d="M 69.218182 188.973577 
L 85.237321 190.630914 
L 101.256459 190.832663 
L 117.275598 189.261117 
L 133.294737 188.36579 
L 149.313876 187.753117 
L 165.333014 187.2062 
L 181.352153 186.667754 
L 197.371292 186.135733 
L 213.390431 185.610076 
L 229.409569 185.090743 
L 245.428708 184.232837 
L 261.447847 187.477291 
L 277.466986 187.635477 
L 293.486124 186.904662 
L 309.505263 186.193245 
L 325.524402 185.500297 
L 341.543541 184.825307 
L 357.562679 184.168425 
L 373.581818 182.943288 
" clip-path="url(#p2049c8eb04)" style="fill: none; stroke: #0018ff; stroke-width: 1.5; stroke-linecap: square"/>
   </g>
   <g id="line2d_33">
    <path d="M 69.218182 126.477993 
L 85.237321 128.438235 
L 101.256459 132.816429 
L 117.275598 140.22223 
L 133.294737 143.559292 
L 149.313876 144.269412 
L 165.333014 144.316194 
L 181.352153 144.360145 
L 197.371292 144.402075 
L 213.390431 144.441989 
L 229.409569 144.522856 
L 245.428708 144.594564 
L 261.447847 144.654781 
L 277.466986 144.708104 
L 293.486124 144.792887 
L 309.505263 144.880197 
L 325.524402 144.974923 
L 341.543541 138.346405 
L 357.562679 136.199022 
L 373.581818 136.484569 
" clip-path="url(#p2049c8eb04)" style="fill: none; stroke: #0020ff; stroke-width: 1.5; stroke-linecap: square"/>
   </g>
   <g id="line2d_34">
    <path d="M 69.218182 107.782574 
L 85.237321 106.676887 
L 101.256459 105.535429 
L 117.275598 107.118285 
L 133.294737 108.485537 
L 149.313876 109.349456 
L 165.333014 110.199218 
L 181.352153 111.024408 
L 197.371292 111.829759 
L 213.390431 112.615814 
L 229.409569 113.590618 
L 245.428708 115.443662 
L 261.447847 117.176455 
L 277.466986 118.835055 
L 293.486124 120.360253 
L 309.505263 121.836182 
L 325.524402 123.24129 
L 341.543541 124.579164 
L 357.562679 135.877121 
L 373.581818 136.168485 
" clip-path="url(#p2049c8eb04)" style="fill: none; stroke: #002cff; stroke-width: 1.5; stroke-linecap: square"/>
   </g>
   <g id="line2d_35">
    <path d="M 69.218182 58.413778 
L 85.237321 59.24915 
L 101.256459 61.674781 
L 117.275598 63.293929 
L 133.294737 64.283332 
L 149.313876 65.31345 
L 165.333014 66.345672 
L 181.352153 67.364118 
L 197.371292 68.372329 
L 213.390431 69.370332 
L 229.409569 70.358137 
L 245.428708 71.963201 
L 261.447847 73.555604 
L 277.466986 75.126072 
L 293.486124 76.674223 
L 309.505263 78.198883 
L 325.524402 79.701222 
L 341.543541 81.180822 
L 357.562679 82.600184 
L 373.581818 85.16685 
" clip-path="url(#p2049c8eb04)" style="fill: none; stroke: #0038ff; stroke-width: 1.5; stroke-linecap: square"/>
   </g>
   <g id="line2d_36">
    <path d="M 69.218182 139.254907 
L 85.237321 142.124677 
L 101.256459 143.537122 
L 117.275598 143.744458 
L 133.294737 143.8105 
L 149.313876 144.319442 
L 165.333014 144.364641 
L 181.352153 144.407124 
L 197.371292 144.447599 
L 213.390431 144.486136 
L 229.409569 144.522856 
L 245.428708 144.594564 
L 261.447847 144.654781 
L 277.466986 144.708104 
L 293.486124 144.792887 
L 309.505263 144.880197 
L 325.524402 144.974923 
L 341.543541 138.346405 
L 357.562679 136.199022 
L 373.581818 136.484569 
" clip-path="url(#p2049c8eb04)" style="fill: none; stroke: #0040ff; stroke-width: 1.5; stroke-linecap: square"/>
   </g>
   <g id="line2d_37">
    <path d="M 69.218182 240.932776 
L 85.237321 233.658129 
L 101.256459 228.403726 
L 117.275598 225.357044 
L 133.294737 223.116293 
L 149.313876 221.126331 
L 165.333014 219.100558 
L 181.352153 217.148227 
L 197.371292 215.259437 
L 213.390431 213.431845 
L 229.409569 207.676039 
L 245.428708 203.03161 
L 261.447847 188.428489 
L 277.466986 187.635477 
L 293.486124 186.904662 
L 309.505263 186.193245 
L 325.524402 185.500297 
L 341.543541 184.825307 
L 357.562679 184.168425 
L 373.581818 182.943288 
" clip-path="url(#p2049c8eb04)" style="fill: none; stroke: #004cff; stroke-width: 1.5; stroke-linecap: square"/>
   </g>
   <g id="line2d_38">
    <path d="M 69.218182 181.994453 
L 85.237321 186.519986 
L 101.256459 189.873411 
L 117.275598 189.631925 
L 133.294737 188.970389 
L 149.313876 188.353785 
L 165.333014 187.80558 
L 181.352153 187.261222 
L 197.371292 186.723202 
L 213.390431 186.191523 
L 229.409569 185.090743 
L 245.428708 184.232837 
L 261.447847 187.477291 
L 277.466986 187.635477 
L 293.486124 186.904662 
L 309.505263 186.193245 
L 325.524402 185.500297 
L 341.543541 184.825307 
L 357.562679 184.168425 
L 373.581818 182.943288 
" clip-path="url(#p2049c8eb04)" style="fill: none; stroke: #0054ff; stroke-width: 1.5; stroke-linecap: square"/>
   </g>
   <g id="line2d_39">
    <path d="M 69.218182 154.71511 
L 85.237321 152.655226 
L 101.256459 149.701369 
L 117.275598 144.221597 
L 133.294737 144.305863 
L 149.313876 144.223239 
L 165.333014 144.272265 
L 181.352153 144.319028 
L 197.371292 144.363424 
L 213.390431 144.40567 
L 229.409569 144.522856 
L 245.428708 144.594564 
L 261.447847 144.654781 
L 277.466986 144.708104 
L 293.486124 144.792887 
L 309.505263 144.880197 
L 325.524402 144.974923 
L 341.543541 138.346405 
L 357.562679 136.199022 
L 373.581818 136.484569 
" clip-path="url(#p2049c8eb04)" style="fill: none; stroke: #0060ff; stroke-width: 1.5; stroke-linecap: square"/>
   </g>
   <g id="line2d_40">
    <path d="M 69.218182 159.874514 
L 85.237321 155.880039 
L 101.256459 151.85133 
L 117.275598 146.193913 
L 133.294737 144.305863 
L 149.313876 144.223239 
L 165.333014 144.272265 
L 181.352153 144.319028 
L 197.371292 144.363424 
L 213.390431 144.40567 
L 229.409569 144.522856 
L 245.428708 144.594564 
L 261.447847 144.654781 
L 277.466986 144.708104 
L 293.486124 144.792887 
L 309.505263 144.880197 
L 325.524402 144.974923 
L 341.543541 138.346405 
L 357.562679 136.199022 
L 373.581818 136.484569 
" clip-path="url(#p2049c8eb04)" style="fill: none; stroke: #0068ff; stroke-width: 1.5; stroke-linecap: square"/>
   </g>
   <g id="line2d_41">
    <path d="M 69.218182 211.847145 
L 85.237321 204.963923 
L 101.256459 195.145613 
L 117.275598 191.642357 
L 133.294737 189.036656 
L 149.313876 188.424967 
L 165.333014 187.875992 
L 181.352153 187.331099 
L 197.371292 186.792545 
L 213.390431 186.260332 
L 229.409569 185.734427 
L 245.428708 184.869528 
L 261.447847 188.100699 
L 277.466986 188.204302 
L 293.486124 187.459858 
L 309.505263 186.734477 
L 325.524402 186.028229 
L 341.543541 185.340319 
L 357.562679 184.652769 
L 373.581818 183.66029 
" clip-path="url(#p2049c8eb04)" style="fill: none; stroke: #0074ff; stroke-width: 1.5; stroke-linecap: square"/>
   </g>
   <g id="line2d_42">
    <path d="M 69.218182 195.430588 
L 85.237321 194.991474 
L 101.256459 193.015477 
L 117.275598 190.993702 
L 133.294737 189.036656 
L 149.313876 188.424967 
L 165.333014 187.875992 
L 181.352153 187.331099 
L 197.371292 186.792545 
L 213.390431 186.260332 
L 229.409569 185.734427 
L 245.428708 184.869528 
L 261.447847 188.100699 
L 277.466986 188.204302 
L 293.486124 187.459858 
L 309.505263 186.734477 
L 325.524402 186.028229 
L 341.543541 185.340319 
L 357.562679 184.652769 
L 373.581818 183.66029 
" clip-path="url(#p2049c8eb04)" style="fill: none; stroke: #0080ff; stroke-width: 1.5; stroke-linecap: square"/>
   </g>
   <g id="line2d_43">
    <path d="M 69.218182 111.095909 
L 85.237321 111.141004 
L 101.256459 108.904389 
L 117.275598 107.618931 
L 133.294737 108.969241 
L 149.313876 109.830666 
L 165.333014 110.66227 
L 181.352153 111.47885 
L 197.371292 112.275879 
L 213.390431 113.053774 
L 229.409569 115.403304 
L 245.428708 117.147246 
L 261.447847 118.784161 
L 277.466986 120.322376 
L 293.486124 121.819871 
L 309.505263 123.233918 
L 325.524402 124.579995 
L 341.543541 136.323398 
L 357.562679 136.199022 
L 373.581818 136.484569 
" clip-path="url(#p2049c8eb04)" style="fill: none; stroke: #0088ff; stroke-width: 1.5; stroke-linecap: square"/>
   </g>
   <g id="line2d_44">
    <path d="M 69.218182 114.530786 
L 85.237321 113.755598 
L 101.256459 113.491995 
L 117.275598 109.873105 
L 133.294737 108.969241 
L 149.313876 109.830666 
L 165.333014 110.66227 
L 181.352153 111.47885 
L 197.371292 112.275879 
L 213.390431 113.053774 
L 229.409569 115.403304 
L 245.428708 117.147246 
L 261.447847 118.784161 
L 277.466986 120.322376 
L 293.486124 121.819871 
L 309.505263 123.233918 
L 325.524402 124.579995 
L 341.543541 136.323398 
L 357.562679 136.199022 
L 373.581818 136.484569 
" clip-path="url(#p2049c8eb04)" style="fill: none; stroke: #0094ff; stroke-width: 1.5; stroke-linecap: square"/>
   </g>
   <g id="line2d_45">
    <path d="M 69.218182 98.919066 
L 85.237321 103.417747 
L 101.256459 105.803706 
L 117.275598 107.467719 
L 133.294737 108.969241 
L 149.313876 109.830666 
L 165.333014 110.66227 
L 181.352153 111.47885 
L 197.371292 112.275879 
L 213.390431 113.053774 
L 229.409569 115.403304 
L 245.428708 117.147246 
L 261.447847 118.784161 
L 277.466986 120.322376 
L 293.486124 121.819871 
L 309.505263 123.233918 
L 325.524402 124.579995 
L 341.543541 136.323398 
L 357.562679 136.199022 
L 373.581818 136.484569 
" clip-path="url(#p2049c8eb04)" style="fill: none; stroke: #009cff; stroke-width: 1.5; stroke-linecap: square"/>
   </g>
   <g id="line2d_46">
    <path d="M 69.218182 220.473104 
L 85.237321 219.380615 
L 101.256459 221.83775 
L 117.275598 226.626632 
L 133.294737 224.231032 
L 149.313876 222.047378 
L 165.333014 220.011324 
L 181.352153 218.031474 
L 197.371292 216.116033 
L 213.390431 214.262718 
L 229.409569 211.314907 
L 245.428708 206.339536 
L 261.447847 201.810296 
L 277.466986 188.204302 
L 293.486124 187.459858 
L 309.505263 186.734477 
L 325.524402 186.028229 
L 341.543541 185.340319 
L 357.562679 184.652769 
L 373.581818 183.66029 
" clip-path="url(#p2049c8eb04)" style="fill: none; stroke: #00a8ff; stroke-width: 1.5; stroke-linecap: square"/>
   </g>
   <g id="line2d_47">
    <path d="M 69.218182 77.928866 
L 85.237321 77.086871 
L 101.256459 72.961334 
L 117.275598 63.293929 
L 133.294737 64.283332 
L 149.313876 65.31345 
L 165.333014 66.345672 
L 181.352153 67.364118 
L 197.371292 68.372329 
L 213.390431 69.370332 
L 229.409569 70.358137 
L 245.428708 71.963201 
L 261.447847 73.555604 
L 277.466986 75.126072 
L 293.486124 76.674223 
L 309.505263 78.198883 
L 325.524402 79.701222 
L 341.543541 81.180822 
L 357.562679 82.600184 
L 373.581818 85.16685 
" clip-path="url(#p2049c8eb04)" style="fill: none; stroke: #00b0ff; stroke-width: 1.5; stroke-linecap: square"/>
   </g>
   <g id="line2d_48">
    <path d="M 69.218182 144.746381 
L 85.237321 143.330875 
L 101.256459 143.280205 
L 117.275598 143.315263 
L 133.294737 143.559292 
L 149.313876 144.269412 
L 165.333014 144.316194 
L 181.352153 144.360145 
L 197.371292 144.402075 
L 213.390431 144.441989 
L 229.409569 144.522856 
L 245.428708 144.594564 
L 261.447847 144.654781 
L 277.466986 144.708104 
L 293.486124 144.792887 
L 309.505263 144.880197 
L 325.524402 144.974923 
L 341.543541 138.346405 
L 357.562679 136.199022 
L 373.581818 136.484569 
" clip-path="url(#p2049c8eb04)" style="fill: none; stroke: #00bcff; stroke-width: 1.5; stroke-linecap: square"/>
   </g>
   <g id="line2d_49">
    <path d="M 69.218182 56.502095 
L 85.237321 57.406545 
L 101.256459 62.122825 
L 117.275598 63.938379 
L 133.294737 64.88602 
L 149.313876 65.901399 
L 165.333014 66.916596 
L 181.352153 67.928992 
L 197.371292 68.931235 
L 213.390431 69.923288 
L 229.409569 71.873982 
L 245.428708 73.469173 
L 261.447847 75.037482 
L 277.466986 76.583458 
L 293.486124 78.106517 
L 309.505263 79.607801 
L 325.524402 81.086329 
L 341.543541 82.542279 
L 357.562679 83.977142 
L 373.581818 88.287884 
" clip-path="url(#p2049c8eb04)" style="fill: none; stroke: #00c4ff; stroke-width: 1.5; stroke-linecap: square"/>
   </g>
   <g id="line2d_50">
    <path d="M 69.218182 239.72927 
L 85.237321 232.645296 
L 101.256459 228.39969 
L 117.275598 224.948059 
L 133.294737 223.08788 
L 149.313876 220.96093 
L 165.333014 218.958952 
L 181.352153 217.010621 
L 197.371292 215.125584 
L 213.390431 213.301614 
L 229.409569 207.676039 
L 245.428708 203.03161 
L 261.447847 188.428489 
L 277.466986 187.635477 
L 293.486124 186.904662 
L 309.505263 186.193245 
L 325.524402 185.500297 
L 341.543541 184.825307 
L 357.562679 184.168425 
L 373.581818 182.943288 
" clip-path="url(#p2049c8eb04)" style="fill: none; stroke: #00d0ff; stroke-width: 1.5; stroke-linecap: square"/>
   </g>
   <g id="line2d_51">
    <path d="M 69.218182 113.764228 
L 85.237321 113.716449 
L 101.256459 113.486616 
L 117.275598 109.928545 
L 133.294737 108.969241 
L 149.313876 109.830666 
L 165.333014 110.66227 
L 181.352153 111.47885 
L 197.371292 112.275879 
L 213.390431 113.053774 
L 229.409569 115.403304 
L 245.428708 117.147246 
L 261.447847 118.784161 
L 277.466986 120.322376 
L 293.486124 121.819871 
L 309.505263 123.233918 
L 325.524402 124.579995 
L 341.543541 136.323398 
L 357.562679 136.199022 
L 373.581818 136.484569 
" clip-path="url(#p2049c8eb04)" style="fill: none; stroke: #00dcfe; stroke-width: 1.5; stroke-linecap: square"/>
   </g>
   <g id="line2d_52">
    <path d="M 69.218182 135.108458 
L 85.237321 138.364685 
L 101.256459 143.536648 
L 117.275598 143.184835 
L 133.294737 143.481003 
L 149.313876 144.223239 
L 165.333014 144.272265 
L 181.352153 144.319028 
L 197.371292 144.363424 
L 213.390431 144.40567 
L 229.409569 144.522856 
L 245.428708 144.594564 
L 261.447847 144.654781 
L 277.466986 144.708104 
L 293.486124 144.792887 
L 309.505263 144.880197 
L 325.524402 144.974923 
L 341.543541 138.346405 
L 357.562679 136.199022 
L 373.581818 136.484569 
" clip-path="url(#p2049c8eb04)" style="fill: none; stroke: #00e4f8; stroke-width: 1.5; stroke-linecap: square"/>
   </g>
   <g id="line2d_53">
    <path d="M 69.218182 49.28667 
L 85.237321 55.425793 
L 101.256459 60.165677 
L 117.275598 63.739992 
L 133.294737 64.726389 
L 149.313876 65.740016 
L 165.333014 66.766437 
L 181.352153 67.778831 
L 197.371292 68.781069 
L 213.390431 69.773172 
L 229.409569 71.873982 
L 245.428708 73.469173 
L 261.447847 75.037482 
L 277.466986 76.583458 
L 293.486124 78.106517 
L 309.505263 79.607801 
L 325.524402 81.086329 
L 341.543541 82.542279 
L 357.562679 83.977142 
L 373.581818 88.287884 
" clip-path="url(#p2049c8eb04)" style="fill: none; stroke: #09f0ee; stroke-width: 1.5; stroke-linecap: square"/>
   </g>
   <g id="line2d_54">
    <path d="M 69.218182 190.451091 
L 85.237321 192.829239 
L 101.256459 192.272264 
L 117.275598 189.631925 
L 133.294737 188.970389 
L 149.313876 188.353785 
L 165.333014 187.80558 
L 181.352153 187.261222 
L 197.371292 186.723202 
L 213.390431 186.191523 
L 229.409569 185.090743 
L 245.428708 184.232837 
L 261.447847 187.477291 
L 277.466986 187.635477 
L 293.486124 186.904662 
L 309.505263 186.193245 
L 325.524402 185.500297 
L 341.543541 184.825307 
L 357.562679 184.168425 
L 373.581818 182.943288 
" clip-path="url(#p2049c8eb04)" style="fill: none; stroke: #0ff8e7; stroke-width: 1.5; stroke-linecap: square"/>
   </g>
   <g id="line2d_55">
    <path d="M 69.218182 242.116364 
L 85.237321 234.32618 
L 101.256459 228.981817 
L 117.275598 224.707658 
L 133.294737 223.08788 
L 149.313876 220.96093 
L 165.333014 218.958952 
L 181.352153 217.010621 
L 197.371292 215.125584 
L 213.390431 213.301614 
L 229.409569 207.676039 
L 245.428708 203.03161 
L 261.447847 188.428489 
L 277.466986 187.635477 
L 293.486124 186.904662 
L 309.505263 186.193245 
L 325.524402 185.500297 
L 341.543541 184.825307 
L 357.562679 184.168425 
L 373.581818 182.943288 
" clip-path="url(#p2049c8eb04)" style="fill: none; stroke: #19ffde; stroke-width: 1.5; stroke-linecap: square"/>
   </g>
   <g id="line2d_56">
    <path d="M 69.218182 46.546072 
L 85.237321 53.571711 
L 101.256459 59.777491 
L 117.275598 63.293929 
L 133.294737 64.283332 
L 149.313876 65.31345 
L 165.333014 66.345672 
L 181.352153 67.364118 
L 197.371292 68.372329 
L 213.390431 69.370332 
L 229.409569 70.358137 
L 245.428708 71.963201 
L 261.447847 73.555604 
L 277.466986 75.126072 
L 293.486124 76.674223 
L 309.505263 78.198883 
L 325.524402 79.701222 
L 341.543541 81.180822 
L 357.562679 82.600184 
L 373.581818 85.16685 
" clip-path="url(#p2049c8eb04)" style="fill: none; stroke: #1fffd7; stroke-width: 1.5; stroke-linecap: square"/>
   </g>
   <g id="line2d_57">
    <path d="M 69.218182 236.201332 
L 85.237321 234.061378 
L 101.256459 229.767662 
L 117.275598 226.626632 
L 133.294737 224.231032 
L 149.313876 222.047378 
L 165.333014 220.011324 
L 181.352153 218.031474 
L 197.371292 216.116033 
L 213.390431 214.262718 
L 229.409569 211.314907 
L 245.428708 206.339536 
L 261.447847 201.810296 
L 277.466986 188.204302 
L 293.486124 187.459858 
L 309.505263 186.734477 
L 325.524402 186.028229 
L 341.543541 185.340319 
L 357.562679 184.652769 
L 373.581818 183.66029 
" clip-path="url(#p2049c8eb04)" style="fill: none; stroke: #29ffce; stroke-width: 1.5; stroke-linecap: square"/>
   </g>
   <g id="line2d_58">
    <path d="M 69.218182 158.40387 
L 85.237321 154.598152 
L 101.256459 151.139215 
L 117.275598 143.955389 
L 133.294737 143.191043 
L 149.313876 143.935899 
L 165.333014 143.988678 
L 181.352153 144.039644 
L 197.371292 144.08818 
L 213.390431 144.134507 
L 229.409569 144.178758 
L 245.428708 144.265594 
L 261.447847 144.343285 
L 277.466986 144.43596 
L 293.486124 144.491775 
L 309.505263 144.579191 
L 325.524402 144.674586 
L 341.543541 137.950185 
L 357.562679 135.877121 
L 373.581818 136.168485 
" clip-path="url(#p2049c8eb04)" style="fill: none; stroke: #30ffc7; stroke-width: 1.5; stroke-linecap: square"/>
   </g>
   <g id="line2d_59">
    <path d="M 69.218182 201.728856 
L 85.237321 197.24598 
L 101.256459 193.015477 
L 117.275598 190.993702 
L 133.294737 189.036656 
L 149.313876 188.424967 
L 165.333014 187.875992 
L 181.352153 187.331099 
L 197.371292 186.792545 
L 213.390431 186.260332 
L 229.409569 185.734427 
L 245.428708 184.869528 
L 261.447847 188.100699 
L 277.466986 188.204302 
L 293.486124 187.459858 
L 309.505263 186.734477 
L 325.524402 186.028229 
L 341.543541 185.340319 
L 357.562679 184.652769 
L 373.581818 183.66029 
" clip-path="url(#p2049c8eb04)" style="fill: none; stroke: #39ffbe; stroke-width: 1.5; stroke-linecap: square"/>
   </g>
   <g id="line2d_60">
    <path d="M 69.218182 152.804212 
L 85.237321 151.741652 
L 101.256459 147.318005 
L 117.275598 143.173095 
L 133.294737 143.481003 
L 149.313876 144.223239 
L 165.333014 144.272265 
L 181.352153 144.319028 
L 197.371292 144.363424 
L 213.390431 144.40567 
L 229.409569 144.522856 
L 245.428708 144.594564 
L 261.447847 144.654781 
L 277.466986 144.708104 
L 293.486124 144.792887 
L 309.505263 144.880197 
L 325.524402 144.974923 
L 341.543541 138.346405 
L 357.562679 136.199022 
L 373.581818 136.484569 
" clip-path="url(#p2049c8eb04)" style="fill: none; stroke: #43ffb4; stroke-width: 1.5; stroke-linecap: square"/>
   </g>
   <g id="line2d_61">
    <path d="M 69.218182 235.409417 
L 85.237321 232.670279 
L 101.256459 229.118483 
L 117.275598 225.816117 
L 133.294737 223.269069 
L 149.313876 221.126331 
L 165.333014 219.100558 
L 181.352153 217.148227 
L 197.371292 215.259437 
L 213.390431 213.431845 
L 229.409569 207.676039 
L 245.428708 203.03161 
L 261.447847 188.428489 
L 277.466986 187.635477 
L 293.486124 186.904662 
L 309.505263 186.193245 
L 325.524402 185.500297 
L 341.543541 184.825307 
L 357.562679 184.168425 
L 373.581818 182.943288 
" clip-path="url(#p2049c8eb04)" style="fill: none; stroke: #49ffad; stroke-width: 1.5; stroke-linecap: square"/>
   </g>
   <g id="line2d_62">
    <path d="M 69.218182 67.632508 
L 85.237321 65.403494 
L 101.256459 61.881122 
L 117.275598 63.686277 
L 133.294737 64.800118 
L 149.313876 65.901399 
L 165.333014 66.916596 
L 181.352153 67.928992 
L 197.371292 68.931235 
L 213.390431 69.923288 
L 229.409569 71.873982 
L 245.428708 73.469173 
L 261.447847 75.037482 
L 277.466986 76.583458 
L 293.486124 78.106517 
L 309.505263 79.607801 
L 325.524402 81.086329 
L 341.543541 82.542279 
L 357.562679 83.977142 
L 373.581818 88.287884 
" clip-path="url(#p2049c8eb04)" style="fill: none; stroke: #53ffa4; stroke-width: 1.5; stroke-linecap: square"/>
   </g>
   <g id="line2d_63">
    <path d="M 69.218182 44.443636 
L 85.237321 53.450899 
L 101.256459 60.208838 
L 117.275598 63.686277 
L 133.294737 64.88602 
L 149.313876 65.901399 
L 165.333014 66.916596 
L 181.352153 67.928992 
L 197.371292 68.931235 
L 213.390431 69.923288 
L 229.409569 71.873982 
L 245.428708 73.469173 
L 261.447847 75.037482 
L 277.466986 76.583458 
L 293.486124 78.106517 
L 309.505263 79.607801 
L 325.524402 81.086329 
L 341.543541 82.542279 
L 357.562679 83.977142 
L 373.581818 88.287884 
" clip-path="url(#p2049c8eb04)" style="fill: none; stroke: #5aff9d; stroke-width: 1.5; stroke-linecap: square"/>
   </g>
   <g id="line2d_64">
    <path d="M 69.218182 188.788626 
L 85.237321 190.514307 
L 101.256459 190.69066 
L 117.275598 189.504486 
L 133.294737 188.802124 
L 149.313876 188.21634 
L 165.333014 187.66148 
L 181.352153 187.117295 
L 197.371292 186.579616 
L 213.390431 186.048352 
L 229.409569 185.090743 
L 245.428708 184.232837 
L 261.447847 187.477291 
L 277.466986 187.635477 
L 293.486124 186.904662 
L 309.505263 186.193245 
L 325.524402 185.500297 
L 341.543541 184.825307 
L 357.562679 184.168425 
L 373.581818 182.943288 
" clip-path="url(#p2049c8eb04)" style="fill: none; stroke: #63ff94; stroke-width: 1.5; stroke-linecap: square"/>
   </g>
   <g id="line2d_65">
    <path d="M 69.218182 232.112919 
L 85.237321 230.260557 
L 101.256459 228.10455 
L 117.275598 225.357044 
L 133.294737 223.116293 
L 149.313876 221.126331 
L 165.333014 219.100558 
L 181.352153 217.148227 
L 197.371292 215.259437 
L 213.390431 213.431845 
L 229.409569 207.676039 
L 245.428708 203.03161 
L 261.447847 188.428489 
L 277.466986 187.635477 
L 293.486124 186.904662 
L 309.505263 186.193245 
L 325.524402 185.500297 
L 341.543541 184.825307 
L 357.562679 184.168425 
L 373.581818 182.943288 
" clip-path="url(#p2049c8eb04)" style="fill: none; stroke: #6aff8d; stroke-width: 1.5; stroke-linecap: square"/>
   </g>
   <g id="line2d_66">
    <path d="M 69.218182 73.265313 
L 85.237321 71.270239 
L 101.256459 64.165861 
L 117.275598 63.652687 
L 133.294737 64.726389 
L 149.313876 65.740016 
L 165.333014 66.766437 
L 181.352153 67.778831 
L 197.371292 68.781069 
L 213.390431 69.773172 
L 229.409569 71.873982 
L 245.428708 73.469173 
L 261.447847 75.037482 
L 277.466986 76.583458 
L 293.486124 78.106517 
L 309.505263 79.607801 
L 325.524402 81.086329 
L 341.543541 82.542279 
L 357.562679 83.977142 
L 373.581818 88.287884 
" clip-path="url(#p2049c8eb04)" style="fill: none; stroke: #73ff83; stroke-width: 1.5; stroke-linecap: square"/>
   </g>
   <g id="line2d_67">
    <path d="M 69.218182 83.098878 
L 85.237321 88.711473 
L 101.256459 96.379556 
L 117.275598 107.669717 
L 133.294737 109.035774 
L 149.313876 109.90166 
L 165.333014 110.742591 
L 181.352153 111.558328 
L 197.371292 112.354393 
L 213.390431 113.131327 
L 229.409569 115.403304 
L 245.428708 117.147246 
L 261.447847 118.784161 
L 277.466986 120.322376 
L 293.486124 121.819871 
L 309.505263 123.233918 
L 325.524402 124.579995 
L 341.543541 136.323398 
L 357.562679 136.199022 
L 373.581818 136.484569 
" clip-path="url(#p2049c8eb04)" style="fill: none; stroke: #7dff7a; stroke-width: 1.5; stroke-linecap: square"/>
   </g>
   <g id="line2d_68">
    <path d="M 69.218182 194.717023 
L 85.237321 195.259379 
L 101.256459 193.336766 
L 117.275598 190.993702 
L 133.294737 189.036656 
L 149.313876 188.424967 
L 165.333014 187.875992 
L 181.352153 187.331099 
L 197.371292 186.792545 
L 213.390431 186.260332 
L 229.409569 185.734427 
L 245.428708 184.869528 
L 261.447847 188.100699 
L 277.466986 188.204302 
L 293.486124 187.459858 
L 309.505263 186.734477 
L 325.524402 186.028229 
L 341.543541 185.340319 
L 357.562679 184.652769 
L 373.581818 183.66029 
" clip-path="url(#p2049c8eb04)" style="fill: none; stroke: #83ff73; stroke-width: 1.5; stroke-linecap: square"/>
   </g>
   <g id="line2d_69">
    <path d="M 69.218182 45.396183 
L 85.237321 52.296702 
L 101.256459 59.198574 
L 117.275598 63.293929 
L 133.294737 64.283332 
L 149.313876 65.31345 
L 165.333014 66.345672 
L 181.352153 67.364118 
L 197.371292 68.372329 
L 213.390431 69.370332 
L 229.409569 70.358137 
L 245.428708 71.963201 
L 261.447847 73.555604 
L 277.466986 75.126072 
L 293.486124 76.674223 
L 309.505263 78.198883 
L 325.524402 79.701222 
L 341.543541 81.180822 
L 357.562679 82.600184 
L 373.581818 85.16685 
" clip-path="url(#p2049c8eb04)" style="fill: none; stroke: #8dff6a; stroke-width: 1.5; stroke-linecap: square"/>
   </g>
   <g id="line2d_70">
    <path d="M 69.218182 54.607871 
L 85.237321 55.331698 
L 101.256459 59.777491 
L 117.275598 63.293929 
L 133.294737 64.283332 
L 149.313876 65.31345 
L 165.333014 66.345672 
L 181.352153 67.364118 
L 197.371292 68.372329 
L 213.390431 69.370332 
L 229.409569 70.358137 
L 245.428708 71.963201 
L 261.447847 73.555604 
L 277.466986 75.126072 
L 293.486124 76.674223 
L 309.505263 78.198883 
L 325.524402 79.701222 
L 341.543541 81.180822 
L 357.562679 82.600184 
L 373.581818 85.16685 
" clip-path="url(#p2049c8eb04)" style="fill: none; stroke: #94ff63; stroke-width: 1.5; stroke-linecap: square"/>
   </g>
   <g id="line2d_71">
    <path d="M 69.218182 132.287837 
L 85.237321 132.947684 
L 101.256459 135.287167 
L 117.275598 142.935831 
L 133.294737 143.191043 
L 149.313876 143.935899 
L 165.333014 143.988678 
L 181.352153 144.039644 
L 197.371292 144.08818 
L 213.390431 144.134507 
L 229.409569 144.178758 
L 245.428708 144.265594 
L 261.447847 144.343285 
L 277.466986 144.43596 
L 293.486124 144.491775 
L 309.505263 144.579191 
L 325.524402 144.674586 
L 341.543541 137.950185 
L 357.562679 135.877121 
L 373.581818 136.168485 
" clip-path="url(#p2049c8eb04)" style="fill: none; stroke: #9dff5a; stroke-width: 1.5; stroke-linecap: square"/>
   </g>
   <g id="line2d_72">
    <path d="M 69.218182 140.250072 
L 85.237321 142.846299 
L 101.256459 143.312282 
L 117.275598 143.315263 
L 133.294737 143.559292 
L 149.313876 144.269412 
L 165.333014 144.316194 
L 181.352153 144.360145 
L 197.371292 144.402075 
L 213.390431 144.441989 
L 229.409569 144.522856 
L 245.428708 144.594564 
L 261.447847 144.654781 
L 277.466986 144.708104 
L 293.486124 144.792887 
L 309.505263 144.880197 
L 325.524402 144.974923 
L 341.543541 138.346405 
L 357.562679 136.199022 
L 373.581818 136.484569 
" clip-path="url(#p2049c8eb04)" style="fill: none; stroke: #a4ff53; stroke-width: 1.5; stroke-linecap: square"/>
   </g>
   <g id="line2d_73">
    <path d="M 69.218182 199.521364 
L 85.237321 195.831707 
L 101.256459 193.009487 
L 117.275598 190.843078 
L 133.294737 188.832824 
L 149.313876 188.21634 
L 165.333014 187.66148 
L 181.352153 187.117295 
L 197.371292 186.579616 
L 213.390431 186.048352 
L 229.409569 185.090743 
L 245.428708 184.232837 
L 261.447847 187.477291 
L 277.466986 187.635477 
L 293.486124 186.904662 
L 309.505263 186.193245 
L 325.524402 185.500297 
L 341.543541 184.825307 
L 357.562679 184.168425 
L 373.581818 182.943288 
" clip-path="url(#p2049c8eb04)" style="fill: none; stroke: #adff49; stroke-width: 1.5; stroke-linecap: square"/>
   </g>
   <g id="line2d_74">
    <path d="M 69.218182 116.872888 
L 85.237321 116.034847 
L 101.256459 114.569385 
L 117.275598 111.072897 
L 133.294737 109.035774 
L 149.313876 109.90166 
L 165.333014 110.742591 
L 181.352153 111.558328 
L 197.371292 112.354393 
L 213.390431 113.131327 
L 229.409569 115.403304 
L 245.428708 117.147246 
L 261.447847 118.784161 
L 277.466986 120.322376 
L 293.486124 121.819871 
L 309.505263 123.233918 
L 325.524402 124.579995 
L 341.543541 136.323398 
L 357.562679 136.199022 
L 373.581818 136.484569 
" clip-path="url(#p2049c8eb04)" style="fill: none; stroke: #b4ff43; stroke-width: 1.5; stroke-linecap: square"/>
   </g>
   <g id="line2d_75">
    <path d="M 69.218182 108.372453 
L 85.237321 107.481085 
L 101.256459 105.324522 
L 117.275598 107.118285 
L 133.294737 108.485537 
L 149.313876 109.349456 
L 165.333014 110.199218 
L 181.352153 111.024408 
L 197.371292 111.829759 
L 213.390431 112.615814 
L 229.409569 113.590618 
L 245.428708 115.443662 
L 261.447847 117.176455 
L 277.466986 118.835055 
L 293.486124 120.360253 
L 309.505263 121.836182 
L 325.524402 123.24129 
L 341.543541 124.579164 
L 357.562679 135.877121 
L 373.581818 136.168485 
" clip-path="url(#p2049c8eb04)" style="fill: none; stroke: #beff39; stroke-width: 1.5; stroke-linecap: square"/>
   </g>
   <g id="line2d_76">
    <path d="M 69.218182 99.101167 
L 85.237321 103.685216 
L 101.256459 105.969245 
L 117.275598 107.669717 
L 133.294737 109.035774 
L 149.313876 109.90166 
L 165.333014 110.742591 
L 181.352153 111.558328 
L 197.371292 112.354393 
L 213.390431 113.131327 
L 229.409569 115.403304 
L 245.428708 117.147246 
L 261.447847 118.784161 
L 277.466986 120.322376 
L 293.486124 121.819871 
L 309.505263 123.233918 
L 325.524402 124.579995 
L 341.543541 136.323398 
L 357.562679 136.199022 
L 373.581818 136.484569 
" clip-path="url(#p2049c8eb04)" style="fill: none; stroke: #c7ff30; stroke-width: 1.5; stroke-linecap: square"/>
   </g>
   <g id="line2d_77">
    <path d="M 69.218182 100.515957 
L 85.237321 103.352898 
L 101.256459 105.324522 
L 117.275598 107.118285 
L 133.294737 108.485537 
L 149.313876 109.349456 
L 165.333014 110.199218 
L 181.352153 111.024408 
L 197.371292 111.829759 
L 213.390431 112.615814 
L 229.409569 113.590618 
L 245.428708 115.443662 
L 261.447847 117.176455 
L 277.466986 118.835055 
L 293.486124 120.360253 
L 309.505263 121.836182 
L 325.524402 123.24129 
L 341.543541 124.579164 
L 357.562679 135.877121 
L 373.581818 136.168485 
" clip-path="url(#p2049c8eb04)" style="fill: none; stroke: #ceff29; stroke-width: 1.5; stroke-linecap: square"/>
   </g>
   <g id="line2d_78">
    <path d="M 69.218182 233.323146 
L 85.237321 232.672523 
L 101.256459 228.839356 
L 117.275598 225.816117 
L 133.294737 223.269069 
L 149.313876 221.126331 
L 165.333014 219.100558 
L 181.352153 217.148227 
L 197.371292 215.259437 
L 213.390431 213.431845 
L 229.409569 207.676039 
L 245.428708 203.03161 
L 261.447847 188.428489 
L 277.466986 187.635477 
L 293.486124 186.904662 
L 309.505263 186.193245 
L 325.524402 185.500297 
L 341.543541 184.825307 
L 357.562679 184.168425 
L 373.581818 182.943288 
" clip-path="url(#p2049c8eb04)" style="fill: none; stroke: #d7ff1f; stroke-width: 1.5; stroke-linecap: square"/>
   </g>
   <g id="line2d_79">
    <path d="M 69.218182 47.484536 
L 85.237321 55.197894 
L 101.256459 60.155427 
L 117.275598 63.686277 
L 133.294737 64.800118 
L 149.313876 65.901399 
L 165.333014 66.916596 
L 181.352153 67.928992 
L 197.371292 68.931235 
L 213.390431 69.923288 
L 229.409569 71.873982 
L 245.428708 73.469173 
L 261.447847 75.037482 
L 277.466986 76.583458 
L 293.486124 78.106517 
L 309.505263 79.607801 
L 325.524402 81.086329 
L 341.543541 82.542279 
L 357.562679 83.977142 
L 373.581818 88.287884 
" clip-path="url(#p2049c8eb04)" style="fill: none; stroke: #deff19; stroke-width: 1.5; stroke-linecap: square"/>
   </g>
   <g id="line2d_80">
    <path d="M 69.218182 148.942255 
L 85.237321 147.183711 
L 101.256459 143.513366 
L 117.275598 143.493512 
L 133.294737 143.559292 
L 149.313876 144.269412 
L 165.333014 144.316194 
L 181.352153 144.360145 
L 197.371292 144.402075 
L 213.390431 144.441989 
L 229.409569 144.522856 
L 245.428708 144.594564 
L 261.447847 144.654781 
L 277.466986 144.708104 
L 293.486124 144.792887 
L 309.505263 144.880197 
L 325.524402 144.974923 
L 341.543541 138.346405 
L 357.562679 136.199022 
L 373.581818 136.484569 
" clip-path="url(#p2049c8eb04)" style="fill: none; stroke: #e7ff0f; stroke-width: 1.5; stroke-linecap: square"/>
   </g>
   <g id="line2d_81">
    <path d="M 69.218182 159.371665 
L 85.237321 155.885781 
L 101.256459 152.061815 
L 117.275598 146.226472 
L 133.294737 144.305863 
L 149.313876 144.223239 
L 165.333014 144.272265 
L 181.352153 144.319028 
L 197.371292 144.363424 
L 213.390431 144.40567 
L 229.409569 144.522856 
L 245.428708 144.594564 
L 261.447847 144.654781 
L 277.466986 144.708104 
L 293.486124 144.792887 
L 309.505263 144.880197 
L 325.524402 144.974923 
L 341.543541 138.346405 
L 357.562679 136.199022 
L 373.581818 136.484569 
" clip-path="url(#p2049c8eb04)" style="fill: none; stroke: #eeff09; stroke-width: 1.5; stroke-linecap: square"/>
   </g>
   <g id="line2d_82">
    <path d="M 69.218182 210.474817 
L 85.237321 202.450205 
L 101.256459 195.118373 
L 117.275598 191.642357 
L 133.294737 189.036656 
L 149.313876 188.424967 
L 165.333014 187.875992 
L 181.352153 187.331099 
L 197.371292 186.792545 
L 213.390431 186.260332 
L 229.409569 185.734427 
L 245.428708 184.869528 
L 261.447847 188.100699 
L 277.466986 188.204302 
L 293.486124 187.459858 
L 309.505263 186.734477 
L 325.524402 186.028229 
L 341.543541 185.340319 
L 357.562679 184.652769 
L 373.581818 183.66029 
" clip-path="url(#p2049c8eb04)" style="fill: none; stroke: #f8f500; stroke-width: 1.5; stroke-linecap: square"/>
   </g>
   <g id="line2d_83">
    <path d="M 69.218182 55.625053 
L 85.237321 58.298182 
L 101.256459 62.360936 
L 117.275598 63.573535 
L 133.294737 64.726389 
L 149.313876 65.740016 
L 165.333014 66.766437 
L 181.352153 67.778831 
L 197.371292 68.781069 
L 213.390431 69.773172 
L 229.409569 71.873982 
L 245.428708 73.469173 
L 261.447847 75.037482 
L 277.466986 76.583458 
L 293.486124 78.106517 
L 309.505263 79.607801 
L 325.524402 81.086329 
L 341.543541 82.542279 
L 357.562679 83.977142 
L 373.581818 88.287884 
" clip-path="url(#p2049c8eb04)" style="fill: none; stroke: #feed00; stroke-width: 1.5; stroke-linecap: square"/>
   </g>
   <g id="line2d_84">
    <path d="M 69.218182 126.183232 
L 85.237321 128.266133 
L 101.256459 132.674476 
L 117.275598 138.814561 
L 133.294737 143.191043 
L 149.313876 143.935899 
L 165.333014 143.988678 
L 181.352153 144.039644 
L 197.371292 144.08818 
L 213.390431 144.134507 
L 229.409569 144.178758 
L 245.428708 144.265594 
L 261.447847 144.343285 
L 277.466986 144.43596 
L 293.486124 144.491775 
L 309.505263 144.579191 
L 325.524402 144.674586 
L 341.543541 137.950185 
L 357.562679 135.877121 
L 373.581818 136.168485 
" clip-path="url(#p2049c8eb04)" style="fill: none; stroke: #ffe200; stroke-width: 1.5; stroke-linecap: square"/>
   </g>
   <g id="line2d_85">
    <path d="M 69.218182 100.415157 
L 85.237321 103.789526 
L 101.256459 106.015921 
L 117.275598 107.706021 
L 133.294737 108.969241 
L 149.313876 109.830666 
L 165.333014 110.66227 
L 181.352153 111.47885 
L 197.371292 112.275879 
L 213.390431 113.053774 
L 229.409569 115.403304 
L 245.428708 117.147246 
L 261.447847 118.784161 
L 277.466986 120.322376 
L 293.486124 121.819871 
L 309.505263 123.233918 
L 325.524402 124.579995 
L 341.543541 136.323398 
L 357.562679 136.199022 
L 373.581818 136.484569 
" clip-path="url(#p2049c8eb04)" style="fill: none; stroke: #ffd700; stroke-width: 1.5; stroke-linecap: square"/>
   </g>
   <g id="line2d_86">
    <path d="M 69.218182 57.932854 
L 85.237321 58.707788 
L 101.256459 61.404029 
L 117.275598 63.293929 
L 133.294737 64.283332 
L 149.313876 65.31345 
L 165.333014 66.345672 
L 181.352153 67.364118 
L 197.371292 68.372329 
L 213.390431 69.370332 
L 229.409569 70.358137 
L 245.428708 71.963201 
L 261.447847 73.555604 
L 277.466986 75.126072 
L 293.486124 76.674223 
L 309.505263 78.198883 
L 325.524402 79.701222 
L 341.543541 81.180822 
L 357.562679 82.600184 
L 373.581818 85.16685 
" clip-path="url(#p2049c8eb04)" style="fill: none; stroke: #ffd000; stroke-width: 1.5; stroke-linecap: square"/>
   </g>
   <g id="line2d_87">
    <path d="M 69.218182 75.261005 
L 85.237321 72.659985 
L 101.256459 64.995439 
L 117.275598 63.686277 
L 133.294737 64.800118 
L 149.313876 65.901399 
L 165.333014 66.916596 
L 181.352153 67.928992 
L 197.371292 68.931235 
L 213.390431 69.923288 
L 229.409569 71.873982 
L 245.428708 73.469173 
L 261.447847 75.037482 
L 277.466986 76.583458 
L 293.486124 78.106517 
L 309.505263 79.607801 
L 325.524402 81.086329 
L 341.543541 82.542279 
L 357.562679 83.977142 
L 373.581818 88.287884 
" clip-path="url(#p2049c8eb04)" style="fill: none; stroke: #ffc400; stroke-width: 1.5; stroke-linecap: square"/>
   </g>
   <g id="line2d_88">
    <path d="M 69.218182 199.800234 
L 85.237321 195.853731 
L 101.256459 192.854671 
L 117.275598 190.747012 
L 133.294737 188.832824 
L 149.313876 188.21634 
L 165.333014 187.66148 
L 181.352153 187.117295 
L 197.371292 186.579616 
L 213.390431 186.048352 
L 229.409569 185.090743 
L 245.428708 184.232837 
L 261.447847 187.477291 
L 277.466986 187.635477 
L 293.486124 186.904662 
L 309.505263 186.193245 
L 325.524402 185.500297 
L 341.543541 184.825307 
L 357.562679 184.168425 
L 373.581818 182.943288 
" clip-path="url(#p2049c8eb04)" style="fill: none; stroke: #ffbd00; stroke-width: 1.5; stroke-linecap: square"/>
   </g>
   <g id="line2d_89">
    <path d="M 69.218182 53.584951 
L 85.237321 56.400642 
L 101.256459 60.339286 
L 117.275598 63.739992 
L 133.294737 64.726389 
L 149.313876 65.740016 
L 165.333014 66.766437 
L 181.352153 67.778831 
L 197.371292 68.781069 
L 213.390431 69.773172 
L 229.409569 71.873982 
L 245.428708 73.469173 
L 261.447847 75.037482 
L 277.466986 76.583458 
L 293.486124 78.106517 
L 309.505263 79.607801 
L 325.524402 81.086329 
L 341.543541 82.542279 
L 357.562679 83.977142 
L 373.581818 88.287884 
" clip-path="url(#p2049c8eb04)" style="fill: none; stroke: #ffb200; stroke-width: 1.5; stroke-linecap: square"/>
   </g>
   <g id="line2d_90">
    <path d="M 69.218182 195.785857 
L 85.237321 194.383872 
L 101.256459 192.854671 
L 117.275598 190.747012 
L 133.294737 188.832824 
L 149.313876 188.21634 
L 165.333014 187.66148 
L 181.352153 187.117295 
L 197.371292 186.579616 
L 213.390431 186.048352 
L 229.409569 185.090743 
L 245.428708 184.232837 
L 261.447847 187.477291 
L 277.466986 187.635477 
L 293.486124 186.904662 
L 309.505263 186.193245 
L 325.524402 185.500297 
L 341.543541 184.825307 
L 357.562679 184.168425 
L 373.581818 182.943288 
" clip-path="url(#p2049c8eb04)" style="fill: none; stroke: #ffab00; stroke-width: 1.5; stroke-linecap: square"/>
   </g>
   <g id="line2d_91">
    <path d="M 69.218182 178.946916 
L 85.237321 180.544278 
L 101.256459 188.858469 
L 117.275598 188.9484 
L 133.294737 188.970389 
L 149.313876 188.353785 
L 165.333014 187.80558 
L 181.352153 187.261222 
L 197.371292 186.723202 
L 213.390431 186.191523 
L 229.409569 185.090743 
L 245.428708 184.232837 
L 261.447847 187.477291 
L 277.466986 187.635477 
L 293.486124 186.904662 
L 309.505263 186.193245 
L 325.524402 185.500297 
L 341.543541 184.825307 
L 357.562679 184.168425 
L 373.581818 182.943288 
" clip-path="url(#p2049c8eb04)" style="fill: none; stroke: #ff9f00; stroke-width: 1.5; stroke-linecap: square"/>
   </g>
   <g id="line2d_92">
    <path d="M 69.218182 187.224069 
L 85.237321 188.369701 
L 101.256459 189.959906 
L 117.275598 189.504486 
L 133.294737 188.802124 
L 149.313876 188.21634 
L 165.333014 187.66148 
L 181.352153 187.117295 
L 197.371292 186.579616 
L 213.390431 186.048352 
L 229.409569 185.090743 
L 245.428708 184.232837 
L 261.447847 187.477291 
L 277.466986 187.635477 
L 293.486124 186.904662 
L 309.505263 186.193245 
L 325.524402 185.500297 
L 341.543541 184.825307 
L 357.562679 184.168425 
L 373.581818 182.943288 
" clip-path="url(#p2049c8eb04)" style="fill: none; stroke: #ff9400; stroke-width: 1.5; stroke-linecap: square"/>
   </g>
   <g id="line2d_93">
    <path d="M 69.218182 130.62512 
L 85.237321 132.360053 
L 101.256459 135.918567 
L 117.275598 143.519911 
L 133.294737 143.84802 
L 149.313876 144.223239 
L 165.333014 144.272265 
L 181.352153 144.319028 
L 197.371292 144.363424 
L 213.390431 144.40567 
L 229.409569 144.522856 
L 245.428708 144.594564 
L 261.447847 144.654781 
L 277.466986 144.708104 
L 293.486124 144.792887 
L 309.505263 144.880197 
L 325.524402 144.974923 
L 341.543541 138.346405 
L 357.562679 136.199022 
L 373.581818 136.484569 
" clip-path="url(#p2049c8eb04)" style="fill: none; stroke: #ff8d00; stroke-width: 1.5; stroke-linecap: square"/>
   </g>
   <g id="line2d_94">
    <path d="M 69.218182 129.776586 
L 85.237321 132.002283 
L 101.256459 135.054294 
L 117.275598 143.276693 
L 133.294737 143.559292 
L 149.313876 144.269412 
L 165.333014 144.316194 
L 181.352153 144.360145 
L 197.371292 144.402075 
L 213.390431 144.441989 
L 229.409569 144.522856 
L 245.428708 144.594564 
L 261.447847 144.654781 
L 277.466986 144.708104 
L 293.486124 144.792887 
L 309.505263 144.880197 
L 325.524402 144.974923 
L 341.543541 138.346405 
L 357.562679 136.199022 
L 373.581818 136.484569 
" clip-path="url(#p2049c8eb04)" style="fill: none; stroke: #ff8200; stroke-width: 1.5; stroke-linecap: square"/>
   </g>
   <g id="line2d_95">
    <path d="M 69.218182 66.762319 
L 85.237321 63.05076 
L 101.256459 62.065552 
L 117.275598 63.686277 
L 133.294737 64.88602 
L 149.313876 65.901399 
L 165.333014 66.916596 
L 181.352153 67.928992 
L 197.371292 68.931235 
L 213.390431 69.923288 
L 229.409569 71.873982 
L 245.428708 73.469173 
L 261.447847 75.037482 
L 277.466986 76.583458 
L 293.486124 78.106517 
L 309.505263 79.607801 
L 325.524402 81.086329 
L 341.543541 82.542279 
L 357.562679 83.977142 
L 373.581818 88.287884 
" clip-path="url(#p2049c8eb04)" style="fill: none; stroke: #ff7a00; stroke-width: 1.5; stroke-linecap: square"/>
   </g>
   <g id="line2d_96">
    <path d="M 69.218182 168.288747 
L 85.237321 167.947795 
L 101.256459 168.893776 
L 117.275598 164.465454 
L 133.294737 156.658412 
L 149.313876 144.269412 
L 165.333014 144.316194 
L 181.352153 144.360145 
L 197.371292 144.402075 
L 213.390431 144.441989 
L 229.409569 144.522856 
L 245.428708 144.594564 
L 261.447847 144.654781 
L 277.466986 144.708104 
L 293.486124 144.792887 
L 309.505263 144.880197 
L 325.524402 144.974923 
L 341.543541 138.346405 
L 357.562679 136.199022 
L 373.581818 136.484569 
" clip-path="url(#p2049c8eb04)" style="fill: none; stroke: #ff6f00; stroke-width: 1.5; stroke-linecap: square"/>
   </g>
   <g id="line2d_97">
    <path d="M 69.218182 50.516802 
L 85.237321 54.564695 
L 101.256459 59.448966 
L 117.275598 63.293929 
L 133.294737 64.283332 
L 149.313876 65.31345 
L 165.333014 66.345672 
L 181.352153 67.364118 
L 197.371292 68.372329 
L 213.390431 69.370332 
L 229.409569 70.358137 
L 245.428708 71.963201 
L 261.447847 73.555604 
L 277.466986 75.126072 
L 293.486124 76.674223 
L 309.505263 78.198883 
L 325.524402 79.701222 
L 341.543541 81.180822 
L 357.562679 82.600184 
L 373.581818 85.16685 
" clip-path="url(#p2049c8eb04)" style="fill: none; stroke: #ff6800; stroke-width: 1.5; stroke-linecap: square"/>
   </g>
   <g id="line2d_98">
    <path d="M 69.218182 228.558503 
L 85.237321 227.328113 
L 101.256459 228.154981 
L 117.275598 225.200898 
L 133.294737 223.116293 
L 149.313876 221.126331 
L 165.333014 219.100558 
L 181.352153 217.148227 
L 197.371292 215.259437 
L 213.390431 213.431845 
L 229.409569 207.676039 
L 245.428708 203.03161 
L 261.447847 188.428489 
L 277.466986 187.635477 
L 293.486124 186.904662 
L 309.505263 186.193245 
L 325.524402 185.500297 
L 341.543541 184.825307 
L 357.562679 184.168425 
L 373.581818 182.943288 
" clip-path="url(#p2049c8eb04)" style="fill: none; stroke: #ff5d00; stroke-width: 1.5; stroke-linecap: square"/>
   </g>
   <g id="line2d_99">
    <path d="M 69.218182 235.776714 
L 85.237321 232.198012 
L 101.256459 228.403726 
L 117.275598 225.357044 
L 133.294737 223.116293 
L 149.313876 221.126331 
L 165.333014 219.100558 
L 181.352153 217.148227 
L 197.371292 215.259437 
L 213.390431 213.431845 
L 229.409569 207.676039 
L 245.428708 203.03161 
L 261.447847 188.428489 
L 277.466986 187.635477 
L 293.486124 186.904662 
L 309.505263 186.193245 
L 325.524402 185.500297 
L 341.543541 184.825307 
L 357.562679 184.168425 
L 373.581818 182.943288 
" clip-path="url(#p2049c8eb04)" style="fill: none; stroke: #ff5500; stroke-width: 1.5; stroke-linecap: square"/>
   </g>
   <g id="line2d_100">
    <path d="M 69.218182 140.054533 
L 85.237321 142.788889 
L 101.256459 143.280205 
L 117.275598 143.315263 
L 133.294737 143.559292 
L 149.313876 144.269412 
L 165.333014 144.316194 
L 181.352153 144.360145 
L 197.371292 144.402075 
L 213.390431 144.441989 
L 229.409569 144.522856 
L 245.428708 144.594564 
L 261.447847 144.654781 
L 277.466986 144.708104 
L 293.486124 144.792887 
L 309.505263 144.880197 
L 325.524402 144.974923 
L 341.543541 138.346405 
L 357.562679 136.199022 
L 373.581818 136.484569 
" clip-path="url(#p2049c8eb04)" style="fill: none; stroke: #ff4a00; stroke-width: 1.5; stroke-linecap: square"/>
   </g>
   <g id="line2d_101">
    <path d="M 69.218182 204.196795 
L 85.237321 198.493803 
L 101.256459 193.057943 
L 117.275598 190.908926 
L 133.294737 188.970389 
L 149.313876 188.353785 
L 165.333014 187.80558 
L 181.352153 187.261222 
L 197.371292 186.723202 
L 213.390431 186.191523 
L 229.409569 185.090743 
L 245.428708 184.232837 
L 261.447847 187.477291 
L 277.466986 187.635477 
L 293.486124 186.904662 
L 309.505263 186.193245 
L 325.524402 185.500297 
L 341.543541 184.825307 
L 357.562679 184.168425 
L 373.581818 182.943288 
" clip-path="url(#p2049c8eb04)" style="fill: none; stroke: #ff3f00; stroke-width: 1.5; stroke-linecap: square"/>
   </g>
   <g id="line2d_102">
    <path d="M 69.218182 101.738036 
L 85.237321 103.328867 
L 101.256459 105.556567 
L 117.275598 107.118285 
L 133.294737 108.485537 
L 149.313876 109.349456 
L 165.333014 110.199218 
L 181.352153 111.024408 
L 197.371292 111.829759 
L 213.390431 112.615814 
L 229.409569 113.590618 
L 245.428708 115.443662 
L 261.447847 117.176455 
L 277.466986 118.835055 
L 293.486124 120.360253 
L 309.505263 121.836182 
L 325.524402 123.24129 
L 341.543541 124.579164 
L 357.562679 135.877121 
L 373.581818 136.168485 
" clip-path="url(#p2049c8eb04)" style="fill: none; stroke: #ff3800; stroke-width: 1.5; stroke-linecap: square"/>
   </g>
   <g id="line2d_103">
    <path d="M 69.218182 157.955802 
L 85.237321 154.598152 
L 101.256459 151.139215 
L 117.275598 143.955389 
L 133.294737 143.191043 
L 149.313876 143.935899 
L 165.333014 143.988678 
L 181.352153 144.039644 
L 197.371292 144.08818 
L 213.390431 144.134507 
L 229.409569 144.178758 
L 245.428708 144.265594 
L 261.447847 144.343285 
L 277.466986 144.43596 
L 293.486124 144.491775 
L 309.505263 144.579191 
L 325.524402 144.674586 
L 341.543541 137.950185 
L 357.562679 135.877121 
L 373.581818 136.168485 
" clip-path="url(#p2049c8eb04)" style="fill: none; stroke: #ff2d00; stroke-width: 1.5; stroke-linecap: square"/>
   </g>
   <g id="line2d_104">
    <path d="M 69.218182 130.247711 
L 85.237321 132.143361 
L 101.256459 134.698436 
L 117.275598 142.107854 
L 133.294737 143.481003 
L 149.313876 144.223239 
L 165.333014 144.272265 
L 181.352153 144.319028 
L 197.371292 144.363424 
L 213.390431 144.40567 
L 229.409569 144.522856 
L 245.428708 144.594564 
L 261.447847 144.654781 
L 277.466986 144.708104 
L 293.486124 144.792887 
L 309.505263 144.880197 
L 325.524402 144.974923 
L 341.543541 138.346405 
L 357.562679 136.199022 
L 373.581818 136.484569 
" clip-path="url(#p2049c8eb04)" style="fill: none; stroke: #ff2500; stroke-width: 1.5; stroke-linecap: square"/>
   </g>
   <g id="line2d_105">
    <path d="M 69.218182 102.871139 
L 85.237321 103.792613 
L 101.256459 105.962416 
L 117.275598 107.61926 
L 133.294737 109.004569 
L 149.313876 109.830666 
L 165.333014 110.66227 
L 181.352153 111.47885 
L 197.371292 112.275879 
L 213.390431 113.053774 
L 229.409569 115.403304 
L 245.428708 117.147246 
L 261.447847 118.784161 
L 277.466986 120.322376 
L 293.486124 121.819871 
L 309.505263 123.233918 
L 325.524402 124.579995 
L 341.543541 136.323398 
L 357.562679 136.199022 
L 373.581818 136.484569 
" clip-path="url(#p2049c8eb04)" style="fill: none; stroke: #ff1a00; stroke-width: 1.5; stroke-linecap: square"/>
   </g>
   <g id="line2d_106">
    <path d="M 69.218182 208.084941 
L 85.237321 199.418391 
L 101.256459 193.964002 
L 117.275598 190.993702 
L 133.294737 189.036656 
L 149.313876 188.424967 
L 165.333014 187.875992 
L 181.352153 187.331099 
L 197.371292 186.792545 
L 213.390431 186.260332 
L 229.409569 185.734427 
L 245.428708 184.869528 
L 261.447847 188.100699 
L 277.466986 188.204302 
L 293.486124 187.459858 
L 309.505263 186.734477 
L 325.524402 186.028229 
L 341.543541 185.340319 
L 357.562679 184.652769 
L 373.581818 183.66029 
" clip-path="url(#p2049c8eb04)" style="fill: none; stroke: #ff1300; stroke-width: 1.5; stroke-linecap: square"/>
   </g>
   <g id="line2d_107">
    <path d="M 69.218182 189.636204 
L 85.237321 190.513754 
L 101.256459 190.786161 
L 117.275598 189.631925 
L 133.294737 188.970389 
L 149.313876 188.353785 
L 165.333014 187.80558 
L 181.352153 187.261222 
L 197.371292 186.723202 
L 213.390431 186.191523 
L 229.409569 185.090743 
L 245.428708 184.232837 
L 261.447847 187.477291 
L 277.466986 187.635477 
L 293.486124 186.904662 
L 309.505263 186.193245 
L 325.524402 185.500297 
L 341.543541 184.825307 
L 357.562679 184.168425 
L 373.581818 182.943288 
" clip-path="url(#p2049c8eb04)" style="fill: none; stroke: #f10800; stroke-width: 1.5; stroke-linecap: square"/>
   </g>
   <g id="line2d_108">
    <path d="M 69.218182 143.560257 
L 85.237321 143.239093 
L 101.256459 143.086149 
L 117.275598 143.307006 
L 133.294737 143.559292 
L 149.313876 144.269412 
L 165.333014 144.316194 
L 181.352153 144.360145 
L 197.371292 144.402075 
L 213.390431 144.441989 
L 229.409569 144.522856 
L 245.428708 144.594564 
L 261.447847 144.654781 
L 277.466986 144.708104 
L 293.486124 144.792887 
L 309.505263 144.880197 
L 325.524402 144.974923 
L 341.543541 138.346405 
L 357.562679 136.199022 
L 373.581818 136.484569 
" clip-path="url(#p2049c8eb04)" style="fill: none; stroke: #e80000; stroke-width: 1.5; stroke-linecap: square"/>
   </g>
   <g id="line2d_109">
    <path d="M 69.218182 160.764973 
L 85.237321 158.377835 
L 101.256459 152.088771 
L 117.275598 146.226472 
L 133.294737 144.305863 
L 149.313876 144.223239 
L 165.333014 144.272265 
L 181.352153 144.319028 
L 197.371292 144.363424 
L 213.390431 144.40567 
L 229.409569 144.522856 
L 245.428708 144.594564 
L 261.447847 144.654781 
L 277.466986 144.708104 
L 293.486124 144.792887 
L 309.505263 144.880197 
L 325.524402 144.974923 
L 341.543541 138.346405 
L 357.562679 136.199022 
L 373.581818 136.484569 
" clip-path="url(#p2049c8eb04)" style="fill: none; stroke: #da0000; stroke-width: 1.5; stroke-linecap: square"/>
   </g>
   <g id="line2d_110">
    <path d="M 69.218182 176.060978 
L 85.237321 179.122621 
L 101.256459 188.652379 
L 117.275598 189.007021 
L 133.294737 189.036656 
L 149.313876 188.424967 
L 165.333014 187.875992 
L 181.352153 187.331099 
L 197.371292 186.792545 
L 213.390431 186.260332 
L 229.409569 185.734427 
L 245.428708 184.869528 
L 261.447847 188.100699 
L 277.466986 188.204302 
L 293.486124 187.459858 
L 309.505263 186.734477 
L 325.524402 186.028229 
L 341.543541 185.340319 
L 357.562679 184.652769 
L 373.581818 183.66029 
" clip-path="url(#p2049c8eb04)" style="fill: none; stroke: #cd0000; stroke-width: 1.5; stroke-linecap: square"/>
   </g>
   <g id="line2d_111">
    <path d="M 69.218182 208.351431 
L 85.237321 200.56034 
L 101.256459 194.374988 
L 117.275598 190.747012 
L 133.294737 188.832824 
L 149.313876 188.21634 
L 165.333014 187.66148 
L 181.352153 187.117295 
L 197.371292 186.579616 
L 213.390431 186.048352 
L 229.409569 185.090743 
L 245.428708 184.232837 
L 261.447847 187.477291 
L 277.466986 187.635477 
L 293.486124 186.904662 
L 309.505263 186.193245 
L 325.524402 185.500297 
L 341.543541 184.825307 
L 357.562679 184.168425 
L 373.581818 182.943288 
" clip-path="url(#p2049c8eb04)" style="fill: none; stroke: #c40000; stroke-width: 1.5; stroke-linecap: square"/>
   </g>
   <g id="line2d_112">
    <path d="M 69.218182 146.148103 
L 85.237321 143.492559 
L 101.256459 143.382124 
L 117.275598 143.276693 
L 133.294737 143.559292 
L 149.313876 144.269412 
L 165.333014 144.316194 
L 181.352153 144.360145 
L 197.371292 144.402075 
L 213.390431 144.441989 
L 229.409569 144.522856 
L 245.428708 144.594564 
L 261.447847 144.654781 
L 277.466986 144.708104 
L 293.486124 144.792887 
L 309.505263 144.880197 
L 325.524402 144.974923 
L 341.543541 138.346405 
L 357.562679 136.199022 
L 373.581818 136.484569 
" clip-path="url(#p2049c8eb04)" style="fill: none; stroke: #b60000; stroke-width: 1.5; stroke-linecap: square"/>
   </g>
   <g id="line2d_113">
    <path d="M 69.218182 143.000466 
L 85.237321 143.133516 
L 101.256459 142.963443 
L 117.275598 143.173095 
L 133.294737 143.481003 
L 149.313876 144.223239 
L 165.333014 144.272265 
L 181.352153 144.319028 
L 197.371292 144.363424 
L 213.390431 144.40567 
L 229.409569 144.522856 
L 245.428708 144.594564 
L 261.447847 144.654781 
L 277.466986 144.708104 
L 293.486124 144.792887 
L 309.505263 144.880197 
L 325.524402 144.974923 
L 341.543541 138.346405 
L 357.562679 136.199022 
L 373.581818 136.484569 
" clip-path="url(#p2049c8eb04)" style="fill: none; stroke: #ad0000; stroke-width: 1.5; stroke-linecap: square"/>
   </g>
   <g id="line2d_114">
    <path d="M 69.218182 91.439961 
L 85.237321 95.602537 
L 101.256459 103.336 
L 117.275598 107.669717 
L 133.294737 109.035774 
L 149.313876 109.90166 
L 165.333014 110.742591 
L 181.352153 111.558328 
L 197.371292 112.354393 
L 213.390431 113.131327 
L 229.409569 115.403304 
L 245.428708 117.147246 
L 261.447847 118.784161 
L 277.466986 120.322376 
L 293.486124 121.819871 
L 309.505263 123.233918 
L 325.524402 124.579995 
L 341.543541 136.323398 
L 357.562679 136.199022 
L 373.581818 136.484569 
" clip-path="url(#p2049c8eb04)" style="fill: none; stroke: #9f0000; stroke-width: 1.5; stroke-linecap: square"/>
   </g>
   <g id="line2d_115">
    <path d="M 69.218182 187.469447 
L 85.237321 188.282561 
L 101.256459 190.033413 
L 117.275598 189.631925 
L 133.294737 188.970389 
L 149.313876 188.353785 
L 165.333014 187.80558 
L 181.352153 187.261222 
L 197.371292 186.723202 
L 213.390431 186.191523 
L 229.409569 185.090743 
L 245.428708 184.232837 
L 261.447847 187.477291 
L 277.466986 187.635477 
L 293.486124 186.904662 
L 309.505263 186.193245 
L 325.524402 185.500297 
L 341.543541 184.825307 
L 357.562679 184.168425 
L 373.581818 182.943288 
" clip-path="url(#p2049c8eb04)" style="fill: none; stroke: #960000; stroke-width: 1.5; stroke-linecap: square"/>
   </g>
   <g id="line2d_116">
    <path d="M 69.218182 169.339713 
L 85.237321 170.743458 
L 101.256459 172.075586 
L 117.275598 178.448995 
L 133.294737 188.049359 
L 149.313876 188.21634 
L 165.333014 187.66148 
L 181.352153 187.117295 
L 197.371292 186.579616 
L 213.390431 186.048352 
L 229.409569 185.090743 
L 245.428708 184.232837 
L 261.447847 187.477291 
L 277.466986 187.635477 
L 293.486124 186.904662 
L 309.505263 186.193245 
L 325.524402 185.500297 
L 341.543541 184.825307 
L 357.562679 184.168425 
L 373.581818 182.943288 
" clip-path="url(#p2049c8eb04)" style="fill: none; stroke: #890000; stroke-width: 1.5; stroke-linecap: square"/>
   </g>
   <g id="patch_3">
    <path d="M 54 252 
L 54 34.56 
" style="fill: none; stroke: #000000; stroke-width: 0.8; stroke-linejoin: miter; stroke-linecap: square"/>
   </g>
   <g id="patch_4">
    <path d="M 388.8 252 
L 388.8 34.56 
" style="fill: none; stroke: #000000; stroke-width: 0.8; stroke-linejoin: miter; stroke-linecap: square"/>
   </g>
   <g id="patch_5">
    <path d="M 54 252 
L 388.8 252 
" style="fill: none; stroke: #000000; stroke-width: 0.8; stroke-linejoin: miter; stroke-linecap: square"/>
   </g>
   <g id="patch_6">
    <path d="M 54 34.56 
L 388.8 34.56 
" style="fill: none; stroke: #000000; stroke-width: 0.8; stroke-linejoin: miter; stroke-linecap: square"/>
   </g>
   <g id="text_19">
    <!-- topic 0 with confidence interval 0.1 -->
    <g transform="translate(88.722656 28.56)scale(0.15 -0.15)">
     <defs>
      <path id="DejaVuSans-63" d="M 3122 3366 
L 3122 2828 
Q 2878 2963 2633 3030 
Q 2388 3097 2138 3097 
Q 1578 3097 1268 2742 
Q 959 2388 959 1747 
Q 959 1106 1268 751 
Q 1578 397 2138 397 
Q 2388 397 2633 464 
Q 2878 531 3122 666 
L 3122 134 
Q 2881 22 2623 -34 
Q 2366 -91 2075 -91 
Q 1284 -91 818 406 
Q 353 903 353 1747 
Q 353 2603 823 3093 
Q 1294 3584 2113 3584 
Q 2378 3584 2631 3529 
Q 2884 3475 3122 3366 
z
" transform="scale(0.015625)"/>
      <path id="DejaVuSans-20" transform="scale(0.015625)"/>
      <path id="DejaVuSans-77" d="M 269 3500 
L 844 3500 
L 1563 769 
L 2278 3500 
L 2956 3500 
L 3675 769 
L 4391 3500 
L 4966 3500 
L 4050 0 
L 3372 0 
L 2619 2869 
L 1863 0 
L 1184 0 
L 269 3500 
z
" transform="scale(0.015625)"/>
      <path id="DejaVuSans-68" d="M 3513 2113 
L 3513 0 
L 2938 0 
L 2938 2094 
Q 2938 2591 2744 2837 
Q 2550 3084 2163 3084 
Q 1697 3084 1428 2787 
Q 1159 2491 1159 1978 
L 1159 0 
L 581 0 
L 581 4863 
L 1159 4863 
L 1159 2956 
Q 1366 3272 1645 3428 
Q 1925 3584 2291 3584 
Q 2894 3584 3203 3211 
Q 3513 2838 3513 2113 
z
" transform="scale(0.015625)"/>
      <path id="DejaVuSans-66" d="M 2375 4863 
L 2375 4384 
L 1825 4384 
Q 1516 4384 1395 4259 
Q 1275 4134 1275 3809 
L 1275 3500 
L 2222 3500 
L 2222 3053 
L 1275 3053 
L 1275 0 
L 697 0 
L 697 3053 
L 147 3053 
L 147 3500 
L 697 3500 
L 697 3744 
Q 697 4328 969 4595 
Q 1241 4863 1831 4863 
L 2375 4863 
z
" transform="scale(0.015625)"/>
      <path id="DejaVuSans-64" d="M 2906 2969 
L 2906 4863 
L 3481 4863 
L 3481 0 
L 2906 0 
L 2906 525 
Q 2725 213 2448 61 
Q 2172 -91 1784 -91 
Q 1150 -91 751 415 
Q 353 922 353 1747 
Q 353 2572 751 3078 
Q 1150 3584 1784 3584 
Q 2172 3584 2448 3432 
Q 2725 3281 2906 2969 
z
M 947 1747 
Q 947 1113 1208 752 
Q 1469 391 1925 391 
Q 2381 391 2643 752 
Q 2906 1113 2906 1747 
Q 2906 2381 2643 2742 
Q 2381 3103 1925 3103 
Q 1469 3103 1208 2742 
Q 947 2381 947 1747 
z
" transform="scale(0.015625)"/>
      <path id="DejaVuSans-76" d="M 191 3500 
L 800 3500 
L 1894 563 
L 2988 3500 
L 3597 3500 
L 2284 0 
L 1503 0 
L 191 3500 
z
" transform="scale(0.015625)"/>
      <path id="DejaVuSans-6c" d="M 603 4863 
L 1178 4863 
L 1178 0 
L 603 0 
L 603 4863 
z
" transform="scale(0.015625)"/>
     </defs>
     <use xlink:href="#DejaVuSans-74"/>
     <use xlink:href="#DejaVuSans-6f" x="39.208984"/>
     <use xlink:href="#DejaVuSans-70" x="100.390625"/>
     <use xlink:href="#DejaVuSans-69" x="163.867188"/>
     <use xlink:href="#DejaVuSans-63" x="191.650391"/>
     <use xlink:href="#DejaVuSans-20" x="246.630859"/>
     <use xlink:href="#DejaVuSans-30" x="278.417969"/>
     <use xlink:href="#DejaVuSans-20" x="342.041016"/>
     <use xlink:href="#DejaVuSans-77" x="373.828125"/>
     <use xlink:href="#DejaVuSans-69" x="455.615234"/>
     <use xlink:href="#DejaVuSans-74" x="483.398438"/>
     <use xlink:href="#DejaVuSans-68" x="522.607422"/>
     <use xlink:href="#DejaVuSans-20" x="585.986328"/>
     <use xlink:href="#DejaVuSans-63" x="617.773438"/>
     <use xlink:href="#DejaVuSans-6f" x="672.753906"/>
     <use xlink:href="#DejaVuSans-6e" x="733.935547"/>
     <use xlink:href="#DejaVuSans-66" x="797.314453"/>
     <use xlink:href="#DejaVuSans-69" x="832.519531"/>
     <use xlink:href="#DejaVuSans-64" x="860.302734"/>
     <use xlink:href="#DejaVuSans-65" x="923.779297"/>
     <use xlink:href="#DejaVuSans-6e" x="985.302734"/>
     <use xlink:href="#DejaVuSans-63" x="1048.681641"/>
     <use xlink:href="#DejaVuSans-65" x="1103.662109"/>
     <use xlink:href="#DejaVuSans-20" x="1165.185547"/>
     <use xlink:href="#DejaVuSans-69" x="1196.972656"/>
     <use xlink:href="#DejaVuSans-6e" x="1224.755859"/>
     <use xlink:href="#DejaVuSans-74" x="1288.134766"/>
     <use xlink:href="#DejaVuSans-65" x="1327.34375"/>
     <use xlink:href="#DejaVuSans-72" x="1388.867188"/>
     <use xlink:href="#DejaVuSans-76" x="1429.980469"/>
     <use xlink:href="#DejaVuSans-61" x="1489.160156"/>
     <use xlink:href="#DejaVuSans-6c" x="1550.439453"/>
     <use xlink:href="#DejaVuSans-20" x="1578.222656"/>
     <use xlink:href="#DejaVuSans-30" x="1610.009766"/>
     <use xlink:href="#DejaVuSans-2e" x="1673.632812"/>
     <use xlink:href="#DejaVuSans-31" x="1705.419922"/>
    </g>
   </g>
  </g>
 </g>
 <defs>
  <clipPath id="p2049c8eb04">
   <rect x="54" y="34.56" width="334.8" height="217.44"/>
  </clipPath>
 </defs>
</svg>
