<?xml version="1.0" encoding="utf-8" standalone="no"?>
<!DOCTYPE svg PUBLIC "-//W3C//DTD SVG 1.1//EN"
  "http://www.w3.org/Graphics/SVG/1.1/DTD/svg11.dtd">
<svg xmlns:xlink="http://www.w3.org/1999/xlink" width="432pt" height="288pt" viewBox="0 0 432 288" xmlns="http://www.w3.org/2000/svg" version="1.1">
 <metadata>
  <rdf:RDF xmlns:dc="http://purl.org/dc/elements/1.1/" xmlns:cc="http://creativecommons.org/ns#" xmlns:rdf="http://www.w3.org/1999/02/22-rdf-syntax-ns#">
   <cc:Work>
    <dc:type rdf:resource="http://purl.org/dc/dcmitype/StillImage"/>
    <dc:date>2023-11-28T14:51:00.070125</dc:date>
    <dc:format>image/svg+xml</dc:format>
    <dc:creator>
     <cc:Agent>
      <dc:title>Matplotlib v3.5.1, https://matplotlib.org/</dc:title>
     </cc:Agent>
    </dc:creator>
   </cc:Work>
  </rdf:RDF>
 </metadata>
 <defs>
  <style type="text/css">*{stroke-linejoin: round; stroke-linecap: butt}</style>
 </defs>
 <g id="figure_1">
  <g id="patch_1">
   <path d="M 0 288 
L 432 288 
L 432 0 
L 0 0 
L 0 288 
z
" style="fill: none"/>
  </g>
  <g id="axes_1">
   <g id="patch_2">
    <path d="M 54 252 
L 388.8 252 
L 388.8 34.56 
L 54 34.56 
z
" style="fill: #ffffff"/>
   </g>
   <g id="matplotlib.axis_1">
    <g id="xtick_1">
     <g id="line2d_1">
      <defs>
       <path id="m7d5f7195db" d="M 0 0 
L 0 3.5 
" style="stroke: #000000; stroke-width: 0.8"/>
      </defs>
      <g>
       <use xlink:href="#m7d5f7195db" x="69.218182" y="252" style="stroke: #000000; stroke-width: 0.8"/>
      </g>
     </g>
     <g id="text_1">
      <!-- 0 -->
      <g transform="translate(66.036932 266.598437)scale(0.1 -0.1)">
       <defs>
        <path id="DejaVuSans-30" d="M 2034 4250 
Q 1547 4250 1301 3770 
Q 1056 3291 1056 2328 
Q 1056 1369 1301 889 
Q 1547 409 2034 409 
Q 2525 409 2770 889 
Q 3016 1369 3016 2328 
Q 3016 3291 2770 3770 
Q 2525 4250 2034 4250 
z
M 2034 4750 
Q 2819 4750 3233 4129 
Q 3647 3509 3647 2328 
Q 3647 1150 3233 529 
Q 2819 -91 2034 -91 
Q 1250 -91 836 529 
Q 422 1150 422 2328 
Q 422 3509 836 4129 
Q 1250 4750 2034 4750 
z
" transform="scale(0.015625)"/>
       </defs>
       <use xlink:href="#DejaVuSans-30"/>
      </g>
     </g>
    </g>
    <g id="xtick_2">
     <g id="line2d_2">
      <g>
       <use xlink:href="#m7d5f7195db" x="101.256459" y="252" style="stroke: #000000; stroke-width: 0.8"/>
      </g>
     </g>
     <g id="text_2">
      <!-- 2 -->
      <g transform="translate(98.075209 266.598437)scale(0.1 -0.1)">
       <defs>
        <path id="DejaVuSans-32" d="M 1228 531 
L 3431 531 
L 3431 0 
L 469 0 
L 469 531 
Q 828 903 1448 1529 
Q 2069 2156 2228 2338 
Q 2531 2678 2651 2914 
Q 2772 3150 2772 3378 
Q 2772 3750 2511 3984 
Q 2250 4219 1831 4219 
Q 1534 4219 1204 4116 
Q 875 4013 500 3803 
L 500 4441 
Q 881 4594 1212 4672 
Q 1544 4750 1819 4750 
Q 2544 4750 2975 4387 
Q 3406 4025 3406 3419 
Q 3406 3131 3298 2873 
Q 3191 2616 2906 2266 
Q 2828 2175 2409 1742 
Q 1991 1309 1228 531 
z
" transform="scale(0.015625)"/>
       </defs>
       <use xlink:href="#DejaVuSans-32"/>
      </g>
     </g>
    </g>
    <g id="xtick_3">
     <g id="line2d_3">
      <g>
       <use xlink:href="#m7d5f7195db" x="133.294737" y="252" style="stroke: #000000; stroke-width: 0.8"/>
      </g>
     </g>
     <g id="text_3">
      <!-- 4 -->
      <g transform="translate(130.113487 266.598437)scale(0.1 -0.1)">
       <defs>
        <path id="DejaVuSans-34" d="M 2419 4116 
L 825 1625 
L 2419 1625 
L 2419 4116 
z
M 2253 4666 
L 3047 4666 
L 3047 1625 
L 3713 1625 
L 3713 1100 
L 3047 1100 
L 3047 0 
L 2419 0 
L 2419 1100 
L 313 1100 
L 313 1709 
L 2253 4666 
z
" transform="scale(0.015625)"/>
       </defs>
       <use xlink:href="#DejaVuSans-34"/>
      </g>
     </g>
    </g>
    <g id="xtick_4">
     <g id="line2d_4">
      <g>
       <use xlink:href="#m7d5f7195db" x="165.333014" y="252" style="stroke: #000000; stroke-width: 0.8"/>
      </g>
     </g>
     <g id="text_4">
      <!-- 6 -->
      <g transform="translate(162.151764 266.598437)scale(0.1 -0.1)">
       <defs>
        <path id="DejaVuSans-36" d="M 2113 2584 
Q 1688 2584 1439 2293 
Q 1191 2003 1191 1497 
Q 1191 994 1439 701 
Q 1688 409 2113 409 
Q 2538 409 2786 701 
Q 3034 994 3034 1497 
Q 3034 2003 2786 2293 
Q 2538 2584 2113 2584 
z
M 3366 4563 
L 3366 3988 
Q 3128 4100 2886 4159 
Q 2644 4219 2406 4219 
Q 1781 4219 1451 3797 
Q 1122 3375 1075 2522 
Q 1259 2794 1537 2939 
Q 1816 3084 2150 3084 
Q 2853 3084 3261 2657 
Q 3669 2231 3669 1497 
Q 3669 778 3244 343 
Q 2819 -91 2113 -91 
Q 1303 -91 875 529 
Q 447 1150 447 2328 
Q 447 3434 972 4092 
Q 1497 4750 2381 4750 
Q 2619 4750 2861 4703 
Q 3103 4656 3366 4563 
z
" transform="scale(0.015625)"/>
       </defs>
       <use xlink:href="#DejaVuSans-36"/>
      </g>
     </g>
    </g>
    <g id="xtick_5">
     <g id="line2d_5">
      <g>
       <use xlink:href="#m7d5f7195db" x="197.371292" y="252" style="stroke: #000000; stroke-width: 0.8"/>
      </g>
     </g>
     <g id="text_5">
      <!-- 8 -->
      <g transform="translate(194.190042 266.598437)scale(0.1 -0.1)">
       <defs>
        <path id="DejaVuSans-38" d="M 2034 2216 
Q 1584 2216 1326 1975 
Q 1069 1734 1069 1313 
Q 1069 891 1326 650 
Q 1584 409 2034 409 
Q 2484 409 2743 651 
Q 3003 894 3003 1313 
Q 3003 1734 2745 1975 
Q 2488 2216 2034 2216 
z
M 1403 2484 
Q 997 2584 770 2862 
Q 544 3141 544 3541 
Q 544 4100 942 4425 
Q 1341 4750 2034 4750 
Q 2731 4750 3128 4425 
Q 3525 4100 3525 3541 
Q 3525 3141 3298 2862 
Q 3072 2584 2669 2484 
Q 3125 2378 3379 2068 
Q 3634 1759 3634 1313 
Q 3634 634 3220 271 
Q 2806 -91 2034 -91 
Q 1263 -91 848 271 
Q 434 634 434 1313 
Q 434 1759 690 2068 
Q 947 2378 1403 2484 
z
M 1172 3481 
Q 1172 3119 1398 2916 
Q 1625 2713 2034 2713 
Q 2441 2713 2670 2916 
Q 2900 3119 2900 3481 
Q 2900 3844 2670 4047 
Q 2441 4250 2034 4250 
Q 1625 4250 1398 4047 
Q 1172 3844 1172 3481 
z
" transform="scale(0.015625)"/>
       </defs>
       <use xlink:href="#DejaVuSans-38"/>
      </g>
     </g>
    </g>
    <g id="xtick_6">
     <g id="line2d_6">
      <g>
       <use xlink:href="#m7d5f7195db" x="229.409569" y="252" style="stroke: #000000; stroke-width: 0.8"/>
      </g>
     </g>
     <g id="text_6">
      <!-- 10 -->
      <g transform="translate(223.047069 266.598437)scale(0.1 -0.1)">
       <defs>
        <path id="DejaVuSans-31" d="M 794 531 
L 1825 531 
L 1825 4091 
L 703 3866 
L 703 4441 
L 1819 4666 
L 2450 4666 
L 2450 531 
L 3481 531 
L 3481 0 
L 794 0 
L 794 531 
z
" transform="scale(0.015625)"/>
       </defs>
       <use xlink:href="#DejaVuSans-31"/>
       <use xlink:href="#DejaVuSans-30" x="63.623047"/>
      </g>
     </g>
    </g>
    <g id="xtick_7">
     <g id="line2d_7">
      <g>
       <use xlink:href="#m7d5f7195db" x="261.447847" y="252" style="stroke: #000000; stroke-width: 0.8"/>
      </g>
     </g>
     <g id="text_7">
      <!-- 12 -->
      <g transform="translate(255.085347 266.598437)scale(0.1 -0.1)">
       <use xlink:href="#DejaVuSans-31"/>
       <use xlink:href="#DejaVuSans-32" x="63.623047"/>
      </g>
     </g>
    </g>
    <g id="xtick_8">
     <g id="line2d_8">
      <g>
       <use xlink:href="#m7d5f7195db" x="293.486124" y="252" style="stroke: #000000; stroke-width: 0.8"/>
      </g>
     </g>
     <g id="text_8">
      <!-- 14 -->
      <g transform="translate(287.123624 266.598437)scale(0.1 -0.1)">
       <use xlink:href="#DejaVuSans-31"/>
       <use xlink:href="#DejaVuSans-34" x="63.623047"/>
      </g>
     </g>
    </g>
    <g id="xtick_9">
     <g id="line2d_9">
      <g>
       <use xlink:href="#m7d5f7195db" x="325.524402" y="252" style="stroke: #000000; stroke-width: 0.8"/>
      </g>
     </g>
     <g id="text_9">
      <!-- 16 -->
      <g transform="translate(319.161902 266.598437)scale(0.1 -0.1)">
       <use xlink:href="#DejaVuSans-31"/>
       <use xlink:href="#DejaVuSans-36" x="63.623047"/>
      </g>
     </g>
    </g>
    <g id="xtick_10">
     <g id="line2d_10">
      <g>
       <use xlink:href="#m7d5f7195db" x="357.562679" y="252" style="stroke: #000000; stroke-width: 0.8"/>
      </g>
     </g>
     <g id="text_10">
      <!-- 18 -->
      <g transform="translate(351.200179 266.598437)scale(0.1 -0.1)">
       <use xlink:href="#DejaVuSans-31"/>
       <use xlink:href="#DejaVuSans-38" x="63.623047"/>
      </g>
     </g>
    </g>
    <g id="text_11">
     <!-- Iteration -->
     <g transform="translate(191.707969 283.315938)scale(0.14 -0.14)">
      <defs>
       <path id="DejaVuSans-49" d="M 628 4666 
L 1259 4666 
L 1259 0 
L 628 0 
L 628 4666 
z
" transform="scale(0.015625)"/>
       <path id="DejaVuSans-74" d="M 1172 4494 
L 1172 3500 
L 2356 3500 
L 2356 3053 
L 1172 3053 
L 1172 1153 
Q 1172 725 1289 603 
Q 1406 481 1766 481 
L 2356 481 
L 2356 0 
L 1766 0 
Q 1100 0 847 248 
Q 594 497 594 1153 
L 594 3053 
L 172 3053 
L 172 3500 
L 594 3500 
L 594 4494 
L 1172 4494 
z
" transform="scale(0.015625)"/>
       <path id="DejaVuSans-65" d="M 3597 1894 
L 3597 1613 
L 953 1613 
Q 991 1019 1311 708 
Q 1631 397 2203 397 
Q 2534 397 2845 478 
Q 3156 559 3463 722 
L 3463 178 
Q 3153 47 2828 -22 
Q 2503 -91 2169 -91 
Q 1331 -91 842 396 
Q 353 884 353 1716 
Q 353 2575 817 3079 
Q 1281 3584 2069 3584 
Q 2775 3584 3186 3129 
Q 3597 2675 3597 1894 
z
M 3022 2063 
Q 3016 2534 2758 2815 
Q 2500 3097 2075 3097 
Q 1594 3097 1305 2825 
Q 1016 2553 972 2059 
L 3022 2063 
z
" transform="scale(0.015625)"/>
       <path id="DejaVuSans-72" d="M 2631 2963 
Q 2534 3019 2420 3045 
Q 2306 3072 2169 3072 
Q 1681 3072 1420 2755 
Q 1159 2438 1159 1844 
L 1159 0 
L 581 0 
L 581 3500 
L 1159 3500 
L 1159 2956 
Q 1341 3275 1631 3429 
Q 1922 3584 2338 3584 
Q 2397 3584 2469 3576 
Q 2541 3569 2628 3553 
L 2631 2963 
z
" transform="scale(0.015625)"/>
       <path id="DejaVuSans-61" d="M 2194 1759 
Q 1497 1759 1228 1600 
Q 959 1441 959 1056 
Q 959 750 1161 570 
Q 1363 391 1709 391 
Q 2188 391 2477 730 
Q 2766 1069 2766 1631 
L 2766 1759 
L 2194 1759 
z
M 3341 1997 
L 3341 0 
L 2766 0 
L 2766 531 
Q 2569 213 2275 61 
Q 1981 -91 1556 -91 
Q 1019 -91 701 211 
Q 384 513 384 1019 
Q 384 1609 779 1909 
Q 1175 2209 1959 2209 
L 2766 2209 
L 2766 2266 
Q 2766 2663 2505 2880 
Q 2244 3097 1772 3097 
Q 1472 3097 1187 3025 
Q 903 2953 641 2809 
L 641 3341 
Q 956 3463 1253 3523 
Q 1550 3584 1831 3584 
Q 2591 3584 2966 3190 
Q 3341 2797 3341 1997 
z
" transform="scale(0.015625)"/>
       <path id="DejaVuSans-69" d="M 603 3500 
L 1178 3500 
L 1178 0 
L 603 0 
L 603 3500 
z
M 603 4863 
L 1178 4863 
L 1178 4134 
L 603 4134 
L 603 4863 
z
" transform="scale(0.015625)"/>
       <path id="DejaVuSans-6f" d="M 1959 3097 
Q 1497 3097 1228 2736 
Q 959 2375 959 1747 
Q 959 1119 1226 758 
Q 1494 397 1959 397 
Q 2419 397 2687 759 
Q 2956 1122 2956 1747 
Q 2956 2369 2687 2733 
Q 2419 3097 1959 3097 
z
M 1959 3584 
Q 2709 3584 3137 3096 
Q 3566 2609 3566 1747 
Q 3566 888 3137 398 
Q 2709 -91 1959 -91 
Q 1206 -91 779 398 
Q 353 888 353 1747 
Q 353 2609 779 3096 
Q 1206 3584 1959 3584 
z
" transform="scale(0.015625)"/>
       <path id="DejaVuSans-6e" d="M 3513 2113 
L 3513 0 
L 2938 0 
L 2938 2094 
Q 2938 2591 2744 2837 
Q 2550 3084 2163 3084 
Q 1697 3084 1428 2787 
Q 1159 2491 1159 1978 
L 1159 0 
L 581 0 
L 581 3500 
L 1159 3500 
L 1159 2956 
Q 1366 3272 1645 3428 
Q 1925 3584 2291 3584 
Q 2894 3584 3203 3211 
Q 3513 2838 3513 2113 
z
" transform="scale(0.015625)"/>
      </defs>
      <use xlink:href="#DejaVuSans-49"/>
      <use xlink:href="#DejaVuSans-74" x="29.492188"/>
      <use xlink:href="#DejaVuSans-65" x="68.701172"/>
      <use xlink:href="#DejaVuSans-72" x="130.224609"/>
      <use xlink:href="#DejaVuSans-61" x="171.337891"/>
      <use xlink:href="#DejaVuSans-74" x="232.617188"/>
      <use xlink:href="#DejaVuSans-69" x="271.826172"/>
      <use xlink:href="#DejaVuSans-6f" x="299.609375"/>
      <use xlink:href="#DejaVuSans-6e" x="360.791016"/>
     </g>
    </g>
   </g>
   <g id="matplotlib.axis_2">
    <g id="ytick_1">
     <g id="line2d_11">
      <defs>
       <path id="mf67f03c3a3" d="M 0 0 
L -3.5 0 
" style="stroke: #000000; stroke-width: 0.8"/>
      </defs>
      <g>
       <use xlink:href="#mf67f03c3a3" x="54" y="243.124001" style="stroke: #000000; stroke-width: 0.8"/>
      </g>
     </g>
     <g id="text_12">
      <!-- 0.0 -->
      <g transform="translate(31.096875 246.92322)scale(0.1 -0.1)">
       <defs>
        <path id="DejaVuSans-2e" d="M 684 794 
L 1344 794 
L 1344 0 
L 684 0 
L 684 794 
z
" transform="scale(0.015625)"/>
       </defs>
       <use xlink:href="#DejaVuSans-30"/>
       <use xlink:href="#DejaVuSans-2e" x="63.623047"/>
       <use xlink:href="#DejaVuSans-30" x="95.410156"/>
      </g>
     </g>
    </g>
    <g id="ytick_2">
     <g id="line2d_12">
      <g>
       <use xlink:href="#mf67f03c3a3" x="54" y="203.21379" style="stroke: #000000; stroke-width: 0.8"/>
      </g>
     </g>
     <g id="text_13">
      <!-- 0.2 -->
      <g transform="translate(31.096875 207.013009)scale(0.1 -0.1)">
       <use xlink:href="#DejaVuSans-30"/>
       <use xlink:href="#DejaVuSans-2e" x="63.623047"/>
       <use xlink:href="#DejaVuSans-32" x="95.410156"/>
      </g>
     </g>
    </g>
    <g id="ytick_3">
     <g id="line2d_13">
      <g>
       <use xlink:href="#mf67f03c3a3" x="54" y="163.30358" style="stroke: #000000; stroke-width: 0.8"/>
      </g>
     </g>
     <g id="text_14">
      <!-- 0.4 -->
      <g transform="translate(31.096875 167.102798)scale(0.1 -0.1)">
       <use xlink:href="#DejaVuSans-30"/>
       <use xlink:href="#DejaVuSans-2e" x="63.623047"/>
       <use xlink:href="#DejaVuSans-34" x="95.410156"/>
      </g>
     </g>
    </g>
    <g id="ytick_4">
     <g id="line2d_14">
      <g>
       <use xlink:href="#mf67f03c3a3" x="54" y="123.393369" style="stroke: #000000; stroke-width: 0.8"/>
      </g>
     </g>
     <g id="text_15">
      <!-- 0.6 -->
      <g transform="translate(31.096875 127.192588)scale(0.1 -0.1)">
       <use xlink:href="#DejaVuSans-30"/>
       <use xlink:href="#DejaVuSans-2e" x="63.623047"/>
       <use xlink:href="#DejaVuSans-36" x="95.410156"/>
      </g>
     </g>
    </g>
    <g id="ytick_5">
     <g id="line2d_15">
      <g>
       <use xlink:href="#mf67f03c3a3" x="54" y="83.483158" style="stroke: #000000; stroke-width: 0.8"/>
      </g>
     </g>
     <g id="text_16">
      <!-- 0.8 -->
      <g transform="translate(31.096875 87.282377)scale(0.1 -0.1)">
       <use xlink:href="#DejaVuSans-30"/>
       <use xlink:href="#DejaVuSans-2e" x="63.623047"/>
       <use xlink:href="#DejaVuSans-38" x="95.410156"/>
      </g>
     </g>
    </g>
    <g id="ytick_6">
     <g id="line2d_16">
      <g>
       <use xlink:href="#mf67f03c3a3" x="54" y="43.572948" style="stroke: #000000; stroke-width: 0.8"/>
      </g>
     </g>
     <g id="text_17">
      <!-- 1.0 -->
      <g transform="translate(31.096875 47.372166)scale(0.1 -0.1)">
       <use xlink:href="#DejaVuSans-31"/>
       <use xlink:href="#DejaVuSans-2e" x="63.623047"/>
       <use xlink:href="#DejaVuSans-30" x="95.410156"/>
      </g>
     </g>
    </g>
    <g id="text_18">
     <!-- Opinion -->
     <g transform="translate(24.185312 170.279219)rotate(-90)scale(0.14 -0.14)">
      <defs>
       <path id="DejaVuSans-4f" d="M 2522 4238 
Q 1834 4238 1429 3725 
Q 1025 3213 1025 2328 
Q 1025 1447 1429 934 
Q 1834 422 2522 422 
Q 3209 422 3611 934 
Q 4013 1447 4013 2328 
Q 4013 3213 3611 3725 
Q 3209 4238 2522 4238 
z
M 2522 4750 
Q 3503 4750 4090 4092 
Q 4678 3434 4678 2328 
Q 4678 1225 4090 567 
Q 3503 -91 2522 -91 
Q 1538 -91 948 565 
Q 359 1222 359 2328 
Q 359 3434 948 4092 
Q 1538 4750 2522 4750 
z
" transform="scale(0.015625)"/>
       <path id="DejaVuSans-70" d="M 1159 525 
L 1159 -1331 
L 581 -1331 
L 581 3500 
L 1159 3500 
L 1159 2969 
Q 1341 3281 1617 3432 
Q 1894 3584 2278 3584 
Q 2916 3584 3314 3078 
Q 3713 2572 3713 1747 
Q 3713 922 3314 415 
Q 2916 -91 2278 -91 
Q 1894 -91 1617 61 
Q 1341 213 1159 525 
z
M 3116 1747 
Q 3116 2381 2855 2742 
Q 2594 3103 2138 3103 
Q 1681 3103 1420 2742 
Q 1159 2381 1159 1747 
Q 1159 1113 1420 752 
Q 1681 391 2138 391 
Q 2594 391 2855 752 
Q 3116 1113 3116 1747 
z
" transform="scale(0.015625)"/>
      </defs>
      <use xlink:href="#DejaVuSans-4f"/>
      <use xlink:href="#DejaVuSans-70" x="78.710938"/>
      <use xlink:href="#DejaVuSans-69" x="142.1875"/>
      <use xlink:href="#DejaVuSans-6e" x="169.970703"/>
      <use xlink:href="#DejaVuSans-69" x="233.349609"/>
      <use xlink:href="#DejaVuSans-6f" x="261.132812"/>
      <use xlink:href="#DejaVuSans-6e" x="322.314453"/>
     </g>
    </g>
   </g>
   <g id="line2d_17">
    <path d="M 69.218182 81.455848 
L 85.237321 83.869242 
L 101.256459 91.445498 
L 117.275598 100.665243 
L 133.294737 114.934137 
L 149.313876 135.594674 
L 165.333014 138.766406 
L 181.352153 139.940802 
L 197.371292 140.988355 
L 213.390431 153.204386 
L 229.409569 153.204386 
L 245.428708 153.204386 
L 261.447847 153.204386 
L 277.466986 153.204386 
L 293.486124 153.204386 
L 309.505263 153.204386 
L 325.524402 153.204386 
L 341.543541 153.204386 
L 357.562679 153.204386 
L 373.581818 153.204386 
" clip-path="url(#p642656d0f5)" style="fill: none; stroke: #000080; stroke-width: 1.5; stroke-linecap: square"/>
   </g>
   <g id="line2d_18">
    <path d="M 69.218182 214.655824 
L 85.237321 211.417476 
L 101.256459 205.048022 
L 117.275598 199.535509 
L 133.294737 194.45716 
L 149.313876 190.572393 
L 165.333014 186.606251 
L 181.352153 182.205901 
L 197.371292 178.344087 
L 213.390431 153.204386 
L 229.409569 153.204386 
L 245.428708 153.204386 
L 261.447847 153.204386 
L 277.466986 153.204386 
L 293.486124 153.204386 
L 309.505263 153.204386 
L 325.524402 153.204386 
L 341.543541 153.204386 
L 357.562679 153.204386 
L 373.581818 153.204386 
" clip-path="url(#p642656d0f5)" style="fill: none; stroke: #000089; stroke-width: 1.5; stroke-linecap: square"/>
   </g>
   <g id="line2d_19">
    <path d="M 69.218182 94.42465 
L 85.237321 99.711843 
L 101.256459 102.999702 
L 117.275598 112.180067 
L 133.294737 131.806775 
L 149.313876 137.266365 
L 165.333014 138.588909 
L 181.352153 139.7825 
L 197.371292 140.848537 
L 213.390431 153.204386 
L 229.409569 153.204386 
L 245.428708 153.204386 
L 261.447847 153.204386 
L 277.466986 153.204386 
L 293.486124 153.204386 
L 309.505263 153.204386 
L 325.524402 153.204386 
L 341.543541 153.204386 
L 357.562679 153.204386 
L 373.581818 153.204386 
" clip-path="url(#p642656d0f5)" style="fill: none; stroke: #000096; stroke-width: 1.5; stroke-linecap: square"/>
   </g>
   <g id="line2d_20">
    <path d="M 69.218182 124.587238 
L 85.237321 132.137322 
L 101.256459 137.729531 
L 117.275598 140.552325 
L 133.294737 141.044271 
L 149.313876 137.266365 
L 165.333014 138.588909 
L 181.352153 139.7825 
L 197.371292 140.848537 
L 213.390431 153.204386 
L 229.409569 153.204386 
L 245.428708 153.204386 
L 261.447847 153.204386 
L 277.466986 153.204386 
L 293.486124 153.204386 
L 309.505263 153.204386 
L 325.524402 153.204386 
L 341.543541 153.204386 
L 357.562679 153.204386 
L 373.581818 153.204386 
" clip-path="url(#p642656d0f5)" style="fill: none; stroke: #00009f; stroke-width: 1.5; stroke-linecap: square"/>
   </g>
   <g id="line2d_21">
    <path d="M 69.218182 105.91456 
L 85.237321 115.422279 
L 101.256459 126.859781 
L 117.275598 133.147753 
L 133.294737 133.89854 
L 149.313876 137.480452 
L 165.333014 138.766406 
L 181.352153 139.940802 
L 197.371292 140.988355 
L 213.390431 153.204386 
L 229.409569 153.204386 
L 245.428708 153.204386 
L 261.447847 153.204386 
L 277.466986 153.204386 
L 293.486124 153.204386 
L 309.505263 153.204386 
L 325.524402 153.204386 
L 341.543541 153.204386 
L 357.562679 153.204386 
L 373.581818 153.204386 
" clip-path="url(#p642656d0f5)" style="fill: none; stroke: #0000ad; stroke-width: 1.5; stroke-linecap: square"/>
   </g>
   <g id="line2d_22">
    <path d="M 69.218182 137.006321 
L 85.237321 141.360165 
L 101.256459 143.500681 
L 117.275598 146.015807 
L 133.294737 143.360313 
L 149.313876 137.430725 
L 165.333014 138.766406 
L 181.352153 139.940802 
L 197.371292 140.988355 
L 213.390431 153.204386 
L 229.409569 153.204386 
L 245.428708 153.204386 
L 261.447847 153.204386 
L 277.466986 153.204386 
L 293.486124 153.204386 
L 309.505263 153.204386 
L 325.524402 153.204386 
L 341.543541 153.204386 
L 357.562679 153.204386 
L 373.581818 153.204386 
" clip-path="url(#p642656d0f5)" style="fill: none; stroke: #0000b6; stroke-width: 1.5; stroke-linecap: square"/>
   </g>
   <g id="line2d_23">
    <path d="M 69.218182 62.061792 
L 85.237321 76.337416 
L 101.256459 89.411044 
L 117.275598 100.877458 
L 133.294737 119.473969 
L 149.313876 135.594674 
L 165.333014 138.766406 
L 181.352153 139.940802 
L 197.371292 140.988355 
L 213.390431 153.204386 
L 229.409569 153.204386 
L 245.428708 153.204386 
L 261.447847 153.204386 
L 277.466986 153.204386 
L 293.486124 153.204386 
L 309.505263 153.204386 
L 325.524402 153.204386 
L 341.543541 153.204386 
L 357.562679 153.204386 
L 373.581818 153.204386 
" clip-path="url(#p642656d0f5)" style="fill: none; stroke: #0000c4; stroke-width: 1.5; stroke-linecap: square"/>
   </g>
   <g id="line2d_24">
    <path d="M 69.218182 101.970607 
L 85.237321 112.190137 
L 101.256459 122.795079 
L 117.275598 129.32494 
L 133.294737 132.504779 
L 149.313876 137.266365 
L 165.333014 138.588909 
L 181.352153 139.7825 
L 197.371292 140.848537 
L 213.390431 153.204386 
L 229.409569 153.204386 
L 245.428708 153.204386 
L 261.447847 153.204386 
L 277.466986 153.204386 
L 293.486124 153.204386 
L 309.505263 153.204386 
L 325.524402 153.204386 
L 341.543541 153.204386 
L 357.562679 153.204386 
L 373.581818 153.204386 
" clip-path="url(#p642656d0f5)" style="fill: none; stroke: #0000cd; stroke-width: 1.5; stroke-linecap: square"/>
   </g>
   <g id="line2d_25">
    <path d="M 69.218182 150.80182 
L 85.237321 148.746996 
L 101.256459 147.403576 
L 117.275598 146.038128 
L 133.294737 143.360313 
L 149.313876 137.430725 
L 165.333014 138.766406 
L 181.352153 139.940802 
L 197.371292 140.988355 
L 213.390431 153.204386 
L 229.409569 153.204386 
L 245.428708 153.204386 
L 261.447847 153.204386 
L 277.466986 153.204386 
L 293.486124 153.204386 
L 309.505263 153.204386 
L 325.524402 153.204386 
L 341.543541 153.204386 
L 357.562679 153.204386 
L 373.581818 153.204386 
" clip-path="url(#p642656d0f5)" style="fill: none; stroke: #0000da; stroke-width: 1.5; stroke-linecap: square"/>
   </g>
   <g id="line2d_26">
    <path d="M 69.218182 71.946457 
L 85.237321 77.500307 
L 101.256459 88.412783 
L 117.275598 97.830853 
L 133.294737 109.541087 
L 149.313876 135.395072 
L 165.333014 138.588909 
L 181.352153 139.7825 
L 197.371292 140.848537 
L 213.390431 153.204386 
L 229.409569 153.204386 
L 245.428708 153.204386 
L 261.447847 153.204386 
L 277.466986 153.204386 
L 293.486124 153.204386 
L 309.505263 153.204386 
L 325.524402 153.204386 
L 341.543541 153.204386 
L 357.562679 153.204386 
L 373.581818 153.204386 
" clip-path="url(#p642656d0f5)" style="fill: none; stroke: #0000e8; stroke-width: 1.5; stroke-linecap: square"/>
   </g>
   <g id="line2d_27">
    <path d="M 69.218182 147.005726 
L 85.237321 146.999939 
L 101.256459 145.859685 
L 117.275598 146.038128 
L 133.294737 143.360313 
L 149.313876 137.430725 
L 165.333014 138.766406 
L 181.352153 139.940802 
L 197.371292 140.988355 
L 213.390431 153.204386 
L 229.409569 153.204386 
L 245.428708 153.204386 
L 261.447847 153.204386 
L 277.466986 153.204386 
L 293.486124 153.204386 
L 309.505263 153.204386 
L 325.524402 153.204386 
L 341.543541 153.204386 
L 357.562679 153.204386 
L 373.581818 153.204386 
" clip-path="url(#p642656d0f5)" style="fill: none; stroke: #0000f1; stroke-width: 1.5; stroke-linecap: square"/>
   </g>
   <g id="line2d_28">
    <path d="M 69.218182 98.237054 
L 85.237321 108.075216 
L 101.256459 118.518253 
L 117.275598 128.321817 
L 133.294737 132.709629 
L 149.313876 137.430725 
L 165.333014 138.766406 
L 181.352153 139.940802 
L 197.371292 140.988355 
L 213.390431 153.204386 
L 229.409569 153.204386 
L 245.428708 153.204386 
L 261.447847 153.204386 
L 277.466986 153.204386 
L 293.486124 153.204386 
L 309.505263 153.204386 
L 325.524402 153.204386 
L 341.543541 153.204386 
L 357.562679 153.204386 
L 373.581818 153.204386 
" clip-path="url(#p642656d0f5)" style="fill: none; stroke: #0000ff; stroke-width: 1.5; stroke-linecap: square"/>
   </g>
   <g id="line2d_29">
    <path d="M 69.218182 141.633434 
L 85.237321 143.580193 
L 101.256459 145.665172 
L 117.275598 145.848201 
L 133.294737 143.177854 
L 149.313876 137.266365 
L 165.333014 138.588909 
L 181.352153 139.7825 
L 197.371292 140.848537 
L 213.390431 153.204386 
L 229.409569 153.204386 
L 245.428708 153.204386 
L 261.447847 153.204386 
L 277.466986 153.204386 
L 293.486124 153.204386 
L 309.505263 153.204386 
L 325.524402 153.204386 
L 341.543541 153.204386 
L 357.562679 153.204386 
L 373.581818 153.204386 
" clip-path="url(#p642656d0f5)" style="fill: none; stroke: #0000ff; stroke-width: 1.5; stroke-linecap: square"/>
   </g>
   <g id="line2d_30">
    <path d="M 69.218182 89.145992 
L 85.237321 98.265712 
L 101.256459 103.07354 
L 117.275598 113.100955 
L 133.294737 132.33142 
L 149.313876 137.430725 
L 165.333014 138.766406 
L 181.352153 139.940802 
L 197.371292 140.988355 
L 213.390431 153.204386 
L 229.409569 153.204386 
L 245.428708 153.204386 
L 261.447847 153.204386 
L 277.466986 153.204386 
L 293.486124 153.204386 
L 309.505263 153.204386 
L 325.524402 153.204386 
L 341.543541 153.204386 
L 357.562679 153.204386 
L 373.581818 153.204386 
" clip-path="url(#p642656d0f5)" style="fill: none; stroke: #0004ff; stroke-width: 1.5; stroke-linecap: square"/>
   </g>
   <g id="line2d_31">
    <path d="M 69.218182 242.116364 
L 85.237321 221.496826 
L 101.256459 206.585748 
L 117.275598 199.00639 
L 133.294737 194.338929 
L 149.313876 190.213255 
L 165.333014 186.048933 
L 181.352153 181.71305 
L 197.371292 177.908392 
L 213.390431 153.204386 
L 229.409569 153.204386 
L 245.428708 153.204386 
L 261.447847 153.204386 
L 277.466986 153.204386 
L 293.486124 153.204386 
L 309.505263 153.204386 
L 325.524402 153.204386 
L 341.543541 153.204386 
L 357.562679 153.204386 
L 373.581818 153.204386 
" clip-path="url(#p642656d0f5)" style="fill: none; stroke: #000cff; stroke-width: 1.5; stroke-linecap: square"/>
   </g>
   <g id="line2d_32">
    <path d="M 69.218182 66.914161 
L 85.237321 76.354827 
L 101.256459 87.242781 
L 117.275598 97.830853 
L 133.294737 109.541087 
L 149.313876 135.395072 
L 165.333014 138.588909 
L 181.352153 139.7825 
L 197.371292 140.848537 
L 213.390431 153.204386 
L 229.409569 153.204386 
L 245.428708 153.204386 
L 261.447847 153.204386 
L 277.466986 153.204386 
L 293.486124 153.204386 
L 309.505263 153.204386 
L 325.524402 153.204386 
L 341.543541 153.204386 
L 357.562679 153.204386 
L 373.581818 153.204386 
" clip-path="url(#p642656d0f5)" style="fill: none; stroke: #0018ff; stroke-width: 1.5; stroke-linecap: square"/>
   </g>
   <g id="line2d_33">
    <path d="M 69.218182 177.555811 
L 85.237321 174.468233 
L 101.256459 170.882696 
L 117.275598 170.659893 
L 133.294737 167.505818 
L 149.313876 161.606387 
L 165.333014 154.90688 
L 181.352153 154.402029 
L 197.371292 153.762611 
L 213.390431 153.204386 
L 229.409569 153.204386 
L 245.428708 153.204386 
L 261.447847 153.204386 
L 277.466986 153.204386 
L 293.486124 153.204386 
L 309.505263 153.204386 
L 325.524402 153.204386 
L 341.543541 153.204386 
L 357.562679 153.204386 
L 373.581818 153.204386 
" clip-path="url(#p642656d0f5)" style="fill: none; stroke: #0020ff; stroke-width: 1.5; stroke-linecap: square"/>
   </g>
   <g id="line2d_34">
    <path d="M 69.218182 201.14146 
L 85.237321 201.472901 
L 101.256459 201.186653 
L 117.275598 198.582007 
L 133.294737 194.981339 
L 149.313876 190.861606 
L 165.333014 186.021454 
L 181.352153 181.71305 
L 197.371292 177.908392 
L 213.390431 153.204386 
L 229.409569 153.204386 
L 245.428708 153.204386 
L 261.447847 153.204386 
L 277.466986 153.204386 
L 293.486124 153.204386 
L 309.505263 153.204386 
L 325.524402 153.204386 
L 341.543541 153.204386 
L 357.562679 153.204386 
L 373.581818 153.204386 
" clip-path="url(#p642656d0f5)" style="fill: none; stroke: #002cff; stroke-width: 1.5; stroke-linecap: square"/>
   </g>
   <g id="line2d_35">
    <path d="M 69.218182 128.093189 
L 85.237321 134.868343 
L 101.256459 138.494429 
L 117.275598 140.552325 
L 133.294737 141.044271 
L 149.313876 137.266365 
L 165.333014 138.588909 
L 181.352153 139.7825 
L 197.371292 140.848537 
L 213.390431 153.204386 
L 229.409569 153.204386 
L 245.428708 153.204386 
L 261.447847 153.204386 
L 277.466986 153.204386 
L 293.486124 153.204386 
L 309.505263 153.204386 
L 325.524402 153.204386 
L 341.543541 153.204386 
L 357.562679 153.204386 
L 373.581818 153.204386 
" clip-path="url(#p642656d0f5)" style="fill: none; stroke: #0038ff; stroke-width: 1.5; stroke-linecap: square"/>
   </g>
   <g id="line2d_36">
    <path d="M 69.218182 203.601965 
L 85.237321 205.621223 
L 101.256459 202.995418 
L 117.275598 198.404811 
L 133.294737 194.728669 
L 149.313876 190.696333 
L 165.333014 186.606251 
L 181.352153 182.205901 
L 197.371292 178.344087 
L 213.390431 153.204386 
L 229.409569 153.204386 
L 245.428708 153.204386 
L 261.447847 153.204386 
L 277.466986 153.204386 
L 293.486124 153.204386 
L 309.505263 153.204386 
L 325.524402 153.204386 
L 341.543541 153.204386 
L 357.562679 153.204386 
L 373.581818 153.204386 
" clip-path="url(#p642656d0f5)" style="fill: none; stroke: #0040ff; stroke-width: 1.5; stroke-linecap: square"/>
   </g>
   <g id="line2d_37">
    <path d="M 69.218182 160.987864 
L 85.237321 156.673737 
L 101.256459 150.533568 
L 117.275598 147.535952 
L 133.294737 143.360313 
L 149.313876 137.430725 
L 165.333014 138.766406 
L 181.352153 139.940802 
L 197.371292 140.988355 
L 213.390431 153.204386 
L 229.409569 153.204386 
L 245.428708 153.204386 
L 261.447847 153.204386 
L 277.466986 153.204386 
L 293.486124 153.204386 
L 309.505263 153.204386 
L 325.524402 153.204386 
L 341.543541 153.204386 
L 357.562679 153.204386 
L 373.581818 153.204386 
" clip-path="url(#p642656d0f5)" style="fill: none; stroke: #004cff; stroke-width: 1.5; stroke-linecap: square"/>
   </g>
   <g id="line2d_38">
    <path d="M 69.218182 155.020169 
L 85.237321 150.228738 
L 101.256459 147.181947 
L 117.275598 145.848201 
L 133.294737 143.177854 
L 149.313876 137.266365 
L 165.333014 138.588909 
L 181.352153 139.7825 
L 197.371292 140.848537 
L 213.390431 153.204386 
L 229.409569 153.204386 
L 245.428708 153.204386 
L 261.447847 153.204386 
L 277.466986 153.204386 
L 293.486124 153.204386 
L 309.505263 153.204386 
L 325.524402 153.204386 
L 341.543541 153.204386 
L 357.562679 153.204386 
L 373.581818 153.204386 
" clip-path="url(#p642656d0f5)" style="fill: none; stroke: #0054ff; stroke-width: 1.5; stroke-linecap: square"/>
   </g>
   <g id="line2d_39">
    <path d="M 69.218182 222.72818 
L 85.237321 212.800497 
L 101.256459 204.402923 
L 117.275598 198.89786 
L 133.294737 194.338929 
L 149.313876 190.213255 
L 165.333014 186.048933 
L 181.352153 181.71305 
L 197.371292 177.908392 
L 213.390431 153.204386 
L 229.409569 153.204386 
L 245.428708 153.204386 
L 261.447847 153.204386 
L 277.466986 153.204386 
L 293.486124 153.204386 
L 309.505263 153.204386 
L 325.524402 153.204386 
L 341.543541 153.204386 
L 357.562679 153.204386 
L 373.581818 153.204386 
" clip-path="url(#p642656d0f5)" style="fill: none; stroke: #0060ff; stroke-width: 1.5; stroke-linecap: square"/>
   </g>
   <g id="line2d_40">
    <path d="M 69.218182 44.870893 
L 85.237321 65.157329 
L 101.256459 84.129263 
L 117.275598 96.841522 
L 133.294737 109.541087 
L 149.313876 135.395072 
L 165.333014 138.588909 
L 181.352153 139.7825 
L 197.371292 140.848537 
L 213.390431 153.204386 
L 229.409569 153.204386 
L 245.428708 153.204386 
L 261.447847 153.204386 
L 277.466986 153.204386 
L 293.486124 153.204386 
L 309.505263 153.204386 
L 325.524402 153.204386 
L 341.543541 153.204386 
L 357.562679 153.204386 
L 373.581818 153.204386 
" clip-path="url(#p642656d0f5)" style="fill: none; stroke: #0068ff; stroke-width: 1.5; stroke-linecap: square"/>
   </g>
   <g id="line2d_41">
    <path d="M 69.218182 222.092339 
L 85.237321 212.961539 
L 101.256459 204.529861 
L 117.275598 198.957055 
L 133.294737 194.338929 
L 149.313876 190.213255 
L 165.333014 186.048933 
L 181.352153 181.71305 
L 197.371292 177.908392 
L 213.390431 153.204386 
L 229.409569 153.204386 
L 245.428708 153.204386 
L 261.447847 153.204386 
L 277.466986 153.204386 
L 293.486124 153.204386 
L 309.505263 153.204386 
L 325.524402 153.204386 
L 341.543541 153.204386 
L 357.562679 153.204386 
L 373.581818 153.204386 
" clip-path="url(#p642656d0f5)" style="fill: none; stroke: #0074ff; stroke-width: 1.5; stroke-linecap: square"/>
   </g>
   <g id="line2d_42">
    <path d="M 69.218182 147.381865 
L 85.237321 148.112672 
L 101.256459 147.484916 
L 117.275598 146.061758 
L 133.294737 143.261193 
L 149.313876 137.333072 
L 165.333014 138.588909 
L 181.352153 139.7825 
L 197.371292 140.848537 
L 213.390431 153.204386 
L 229.409569 153.204386 
L 245.428708 153.204386 
L 261.447847 153.204386 
L 277.466986 153.204386 
L 293.486124 153.204386 
L 309.505263 153.204386 
L 325.524402 153.204386 
L 341.543541 153.204386 
L 357.562679 153.204386 
L 373.581818 153.204386 
" clip-path="url(#p642656d0f5)" style="fill: none; stroke: #0080ff; stroke-width: 1.5; stroke-linecap: square"/>
   </g>
   <g id="line2d_43">
    <path d="M 69.218182 236.807487 
L 85.237321 217.125857 
L 101.256459 206.583174 
L 117.275598 199.41469 
L 133.294737 194.728669 
L 149.313876 190.696333 
L 165.333014 186.606251 
L 181.352153 182.205901 
L 197.371292 178.344087 
L 213.390431 153.204386 
L 229.409569 153.204386 
L 245.428708 153.204386 
L 261.447847 153.204386 
L 277.466986 153.204386 
L 293.486124 153.204386 
L 309.505263 153.204386 
L 325.524402 153.204386 
L 341.543541 153.204386 
L 357.562679 153.204386 
L 373.581818 153.204386 
" clip-path="url(#p642656d0f5)" style="fill: none; stroke: #0088ff; stroke-width: 1.5; stroke-linecap: square"/>
   </g>
   <g id="line2d_44">
    <path d="M 69.218182 160.268832 
L 85.237321 153.009786 
L 101.256459 148.976477 
L 117.275598 147.580386 
L 133.294737 143.360313 
L 149.313876 137.430725 
L 165.333014 138.766406 
L 181.352153 139.940802 
L 197.371292 140.988355 
L 213.390431 153.204386 
L 229.409569 153.204386 
L 245.428708 153.204386 
L 261.447847 153.204386 
L 277.466986 153.204386 
L 293.486124 153.204386 
L 309.505263 153.204386 
L 325.524402 153.204386 
L 341.543541 153.204386 
L 357.562679 153.204386 
L 373.581818 153.204386 
" clip-path="url(#p642656d0f5)" style="fill: none; stroke: #0094ff; stroke-width: 1.5; stroke-linecap: square"/>
   </g>
   <g id="line2d_45">
    <path d="M 69.218182 206.124804 
L 85.237321 208.31665 
L 101.256459 203.153256 
L 117.275598 199.55492 
L 133.294737 194.981339 
L 149.313876 190.861606 
L 165.333014 186.021454 
L 181.352153 181.71305 
L 197.371292 177.908392 
L 213.390431 153.204386 
L 229.409569 153.204386 
L 245.428708 153.204386 
L 261.447847 153.204386 
L 277.466986 153.204386 
L 293.486124 153.204386 
L 309.505263 153.204386 
L 325.524402 153.204386 
L 341.543541 153.204386 
L 357.562679 153.204386 
L 373.581818 153.204386 
" clip-path="url(#p642656d0f5)" style="fill: none; stroke: #009cff; stroke-width: 1.5; stroke-linecap: square"/>
   </g>
   <g id="line2d_46">
    <path d="M 69.218182 140.099594 
L 85.237321 143.7276 
L 101.256459 145.810007 
L 117.275598 145.982478 
L 133.294737 143.249626 
L 149.313876 137.497051 
L 165.333014 138.766406 
L 181.352153 139.940802 
L 197.371292 140.988355 
L 213.390431 153.204386 
L 229.409569 153.204386 
L 245.428708 153.204386 
L 261.447847 153.204386 
L 277.466986 153.204386 
L 293.486124 153.204386 
L 309.505263 153.204386 
L 325.524402 153.204386 
L 341.543541 153.204386 
L 357.562679 153.204386 
L 373.581818 153.204386 
" clip-path="url(#p642656d0f5)" style="fill: none; stroke: #00a8ff; stroke-width: 1.5; stroke-linecap: square"/>
   </g>
   <g id="line2d_47">
    <path d="M 69.218182 142.027699 
L 85.237321 144.691369 
L 101.256459 145.868592 
L 117.275598 145.992479 
L 133.294737 143.360313 
L 149.313876 137.430725 
L 165.333014 138.766406 
L 181.352153 139.940802 
L 197.371292 140.988355 
L 213.390431 153.204386 
L 229.409569 153.204386 
L 245.428708 153.204386 
L 261.447847 153.204386 
L 277.466986 153.204386 
L 293.486124 153.204386 
L 309.505263 153.204386 
L 325.524402 153.204386 
L 341.543541 153.204386 
L 357.562679 153.204386 
L 373.581818 153.204386 
" clip-path="url(#p642656d0f5)" style="fill: none; stroke: #00b0ff; stroke-width: 1.5; stroke-linecap: square"/>
   </g>
   <g id="line2d_48">
    <path d="M 69.218182 177.722955 
L 85.237321 175.305659 
L 101.256459 173.752948 
L 117.275598 171.162636 
L 133.294737 167.505818 
L 149.313876 161.606387 
L 165.333014 154.90688 
L 181.352153 154.402029 
L 197.371292 153.762611 
L 213.390431 153.204386 
L 229.409569 153.204386 
L 245.428708 153.204386 
L 261.447847 153.204386 
L 277.466986 153.204386 
L 293.486124 153.204386 
L 309.505263 153.204386 
L 325.524402 153.204386 
L 341.543541 153.204386 
L 357.562679 153.204386 
L 373.581818 153.204386 
" clip-path="url(#p642656d0f5)" style="fill: none; stroke: #00bcff; stroke-width: 1.5; stroke-linecap: square"/>
   </g>
   <g id="line2d_49">
    <path d="M 69.218182 212.21315 
L 85.237321 210.466992 
L 101.256459 205.166703 
L 117.275598 199.653724 
L 133.294737 195.128818 
L 149.313876 191.049115 
L 165.333014 186.525146 
L 181.352153 182.205901 
L 197.371292 178.344087 
L 213.390431 153.204386 
L 229.409569 153.204386 
L 245.428708 153.204386 
L 261.447847 153.204386 
L 277.466986 153.204386 
L 293.486124 153.204386 
L 309.505263 153.204386 
L 325.524402 153.204386 
L 341.543541 153.204386 
L 357.562679 153.204386 
L 373.581818 153.204386 
" clip-path="url(#p642656d0f5)" style="fill: none; stroke: #00c4ff; stroke-width: 1.5; stroke-linecap: square"/>
   </g>
   <g id="line2d_50">
    <path d="M 69.218182 241.74678 
L 85.237321 221.131329 
L 101.256459 206.802593 
L 117.275598 199.535509 
L 133.294737 194.45716 
L 149.313876 190.572393 
L 165.333014 186.606251 
L 181.352153 182.205901 
L 197.371292 178.344087 
L 213.390431 153.204386 
L 229.409569 153.204386 
L 245.428708 153.204386 
L 261.447847 153.204386 
L 277.466986 153.204386 
L 293.486124 153.204386 
L 309.505263 153.204386 
L 325.524402 153.204386 
L 341.543541 153.204386 
L 357.562679 153.204386 
L 373.581818 153.204386 
" clip-path="url(#p642656d0f5)" style="fill: none; stroke: #00d0ff; stroke-width: 1.5; stroke-linecap: square"/>
   </g>
   <g id="line2d_51">
    <path d="M 69.218182 153.03344 
L 85.237321 150.789213 
L 101.256459 147.43711 
L 117.275598 145.992479 
L 133.294737 143.360313 
L 149.313876 137.430725 
L 165.333014 138.766406 
L 181.352153 139.940802 
L 197.371292 140.988355 
L 213.390431 153.204386 
L 229.409569 153.204386 
L 245.428708 153.204386 
L 261.447847 153.204386 
L 277.466986 153.204386 
L 293.486124 153.204386 
L 309.505263 153.204386 
L 325.524402 153.204386 
L 341.543541 153.204386 
L 357.562679 153.204386 
L 373.581818 153.204386 
" clip-path="url(#p642656d0f5)" style="fill: none; stroke: #00dcfe; stroke-width: 1.5; stroke-linecap: square"/>
   </g>
   <g id="line2d_52">
    <path d="M 69.218182 55.262803 
L 85.237321 70.753817 
L 101.256459 84.556289 
L 117.275598 96.470547 
L 133.294737 109.541087 
L 149.313876 135.395072 
L 165.333014 138.588909 
L 181.352153 139.7825 
L 197.371292 140.848537 
L 213.390431 153.204386 
L 229.409569 153.204386 
L 245.428708 153.204386 
L 261.447847 153.204386 
L 277.466986 153.204386 
L 293.486124 153.204386 
L 309.505263 153.204386 
L 325.524402 153.204386 
L 341.543541 153.204386 
L 357.562679 153.204386 
L 373.581818 153.204386 
" clip-path="url(#p642656d0f5)" style="fill: none; stroke: #00e4f8; stroke-width: 1.5; stroke-linecap: square"/>
   </g>
   <g id="line2d_53">
    <path d="M 69.218182 141.611251 
L 85.237321 143.737481 
L 101.256459 145.82702 
L 117.275598 146.003266 
L 133.294737 143.280359 
L 149.313876 137.267628 
L 165.333014 138.78146 
L 181.352153 139.940802 
L 197.371292 140.988355 
L 213.390431 153.204386 
L 229.409569 153.204386 
L 245.428708 153.204386 
L 261.447847 153.204386 
L 277.466986 153.204386 
L 293.486124 153.204386 
L 309.505263 153.204386 
L 325.524402 153.204386 
L 341.543541 153.204386 
L 357.562679 153.204386 
L 373.581818 153.204386 
" clip-path="url(#p642656d0f5)" style="fill: none; stroke: #09f0ee; stroke-width: 1.5; stroke-linecap: square"/>
   </g>
   <g id="line2d_54">
    <path d="M 69.218182 201.442741 
L 85.237321 201.852915 
L 101.256459 201.009494 
L 117.275598 198.007755 
L 133.294737 194.338929 
L 149.313876 190.213255 
L 165.333014 186.048933 
L 181.352153 181.71305 
L 197.371292 177.908392 
L 213.390431 153.204386 
L 229.409569 153.204386 
L 245.428708 153.204386 
L 261.447847 153.204386 
L 277.466986 153.204386 
L 293.486124 153.204386 
L 309.505263 153.204386 
L 325.524402 153.204386 
L 341.543541 153.204386 
L 357.562679 153.204386 
L 373.581818 153.204386 
" clip-path="url(#p642656d0f5)" style="fill: none; stroke: #0ff8e7; stroke-width: 1.5; stroke-linecap: square"/>
   </g>
   <g id="line2d_55">
    <path d="M 69.218182 216.524418 
L 85.237321 211.419123 
L 101.256459 205.006334 
L 117.275598 199.55492 
L 133.294737 194.981339 
L 149.313876 190.861606 
L 165.333014 186.021454 
L 181.352153 181.71305 
L 197.371292 177.908392 
L 213.390431 153.204386 
L 229.409569 153.204386 
L 245.428708 153.204386 
L 261.447847 153.204386 
L 277.466986 153.204386 
L 293.486124 153.204386 
L 309.505263 153.204386 
L 325.524402 153.204386 
L 341.543541 153.204386 
L 357.562679 153.204386 
L 373.581818 153.204386 
" clip-path="url(#p642656d0f5)" style="fill: none; stroke: #19ffde; stroke-width: 1.5; stroke-linecap: square"/>
   </g>
   <g id="line2d_56">
    <path d="M 69.218182 44.443636 
L 85.237321 64.7851 
L 101.256459 86.069629 
L 117.275598 98.421411 
L 133.294737 110.685177 
L 149.313876 135.594674 
L 165.333014 138.766406 
L 181.352153 139.940802 
L 197.371292 140.988355 
L 213.390431 153.204386 
L 229.409569 153.204386 
L 245.428708 153.204386 
L 261.447847 153.204386 
L 277.466986 153.204386 
L 293.486124 153.204386 
L 309.505263 153.204386 
L 325.524402 153.204386 
L 341.543541 153.204386 
L 357.562679 153.204386 
L 373.581818 153.204386 
" clip-path="url(#p642656d0f5)" style="fill: none; stroke: #1fffd7; stroke-width: 1.5; stroke-linecap: square"/>
   </g>
   <g id="line2d_57">
    <path d="M 69.218182 45.514003 
L 85.237321 63.369865 
L 101.256459 82.242652 
L 117.275598 95.203453 
L 133.294737 108.390317 
L 149.313876 135.192046 
L 165.333014 138.588909 
L 181.352153 139.7825 
L 197.371292 140.848537 
L 213.390431 153.204386 
L 229.409569 153.204386 
L 245.428708 153.204386 
L 261.447847 153.204386 
L 277.466986 153.204386 
L 293.486124 153.204386 
L 309.505263 153.204386 
L 325.524402 153.204386 
L 341.543541 153.204386 
L 357.562679 153.204386 
L 373.581818 153.204386 
" clip-path="url(#p642656d0f5)" style="fill: none; stroke: #29ffce; stroke-width: 1.5; stroke-linecap: square"/>
   </g>
   <g id="line2d_58">
    <path d="M 69.218182 136.994084 
L 85.237321 141.295766 
L 101.256459 143.473876 
L 117.275598 145.966 
L 133.294737 143.249626 
L 149.313876 137.497051 
L 165.333014 138.766406 
L 181.352153 139.940802 
L 197.371292 140.988355 
L 213.390431 153.204386 
L 229.409569 153.204386 
L 245.428708 153.204386 
L 261.447847 153.204386 
L 277.466986 153.204386 
L 293.486124 153.204386 
L 309.505263 153.204386 
L 325.524402 153.204386 
L 341.543541 153.204386 
L 357.562679 153.204386 
L 373.581818 153.204386 
" clip-path="url(#p642656d0f5)" style="fill: none; stroke: #30ffc7; stroke-width: 1.5; stroke-linecap: square"/>
   </g>
   <g id="line2d_59">
    <path d="M 69.218182 231.289545 
L 85.237321 215.870209 
L 101.256459 206.583174 
L 117.275598 199.41469 
L 133.294737 194.728669 
L 149.313876 190.696333 
L 165.333014 186.606251 
L 181.352153 182.205901 
L 197.371292 178.344087 
L 213.390431 153.204386 
L 229.409569 153.204386 
L 245.428708 153.204386 
L 261.447847 153.204386 
L 277.466986 153.204386 
L 293.486124 153.204386 
L 309.505263 153.204386 
L 325.524402 153.204386 
L 341.543541 153.204386 
L 357.562679 153.204386 
L 373.581818 153.204386 
" clip-path="url(#p642656d0f5)" style="fill: none; stroke: #39ffbe; stroke-width: 1.5; stroke-linecap: square"/>
   </g>
   <g id="line2d_60">
    <path d="M 69.218182 54.664934 
L 85.237321 73.021629 
L 101.256459 87.968123 
L 117.275598 99.599138 
L 133.294737 110.685177 
L 149.313876 135.594674 
L 165.333014 138.766406 
L 181.352153 139.940802 
L 197.371292 140.988355 
L 213.390431 153.204386 
L 229.409569 153.204386 
L 245.428708 153.204386 
L 261.447847 153.204386 
L 277.466986 153.204386 
L 293.486124 153.204386 
L 309.505263 153.204386 
L 325.524402 153.204386 
L 341.543541 153.204386 
L 357.562679 153.204386 
L 373.581818 153.204386 
" clip-path="url(#p642656d0f5)" style="fill: none; stroke: #43ffb4; stroke-width: 1.5; stroke-linecap: square"/>
   </g>
   <g id="line2d_61">
    <path d="M 69.218182 133.12602 
L 85.237321 138.558782 
L 101.256459 142.671578 
L 117.275598 142.976339 
L 133.294737 143.360313 
L 149.313876 137.430725 
L 165.333014 138.766406 
L 181.352153 139.940802 
L 197.371292 140.988355 
L 213.390431 153.204386 
L 229.409569 153.204386 
L 245.428708 153.204386 
L 261.447847 153.204386 
L 277.466986 153.204386 
L 293.486124 153.204386 
L 309.505263 153.204386 
L 325.524402 153.204386 
L 341.543541 153.204386 
L 357.562679 153.204386 
L 373.581818 153.204386 
" clip-path="url(#p642656d0f5)" style="fill: none; stroke: #49ffad; stroke-width: 1.5; stroke-linecap: square"/>
   </g>
   <g id="line2d_62">
    <path d="M 69.218182 95.189325 
L 85.237321 103.469455 
L 101.256459 108.525059 
L 117.275598 124.151781 
L 133.294737 132.790984 
L 149.313876 137.480452 
L 165.333014 138.766406 
L 181.352153 139.940802 
L 197.371292 140.988355 
L 213.390431 153.204386 
L 229.409569 153.204386 
L 245.428708 153.204386 
L 261.447847 153.204386 
L 277.466986 153.204386 
L 293.486124 153.204386 
L 309.505263 153.204386 
L 325.524402 153.204386 
L 341.543541 153.204386 
L 357.562679 153.204386 
L 373.581818 153.204386 
" clip-path="url(#p642656d0f5)" style="fill: none; stroke: #53ffa4; stroke-width: 1.5; stroke-linecap: square"/>
   </g>
   <g id="line2d_63">
    <path d="M 69.218182 107.417418 
L 85.237321 117.116644 
L 101.256459 129.202223 
L 117.275598 135.891378 
L 133.294737 134.216773 
L 149.313876 137.266365 
L 165.333014 138.588909 
L 181.352153 139.7825 
L 197.371292 140.848537 
L 213.390431 153.204386 
L 229.409569 153.204386 
L 245.428708 153.204386 
L 261.447847 153.204386 
L 277.466986 153.204386 
L 293.486124 153.204386 
L 309.505263 153.204386 
L 325.524402 153.204386 
L 341.543541 153.204386 
L 357.562679 153.204386 
L 373.581818 153.204386 
" clip-path="url(#p642656d0f5)" style="fill: none; stroke: #5aff9d; stroke-width: 1.5; stroke-linecap: square"/>
   </g>
   <g id="line2d_64">
    <path d="M 69.218182 57.942802 
L 85.237321 73.977066 
L 101.256459 88.123186 
L 117.275598 99.677771 
L 133.294737 110.685177 
L 149.313876 135.594674 
L 165.333014 138.766406 
L 181.352153 139.940802 
L 197.371292 140.988355 
L 213.390431 153.204386 
L 229.409569 153.204386 
L 245.428708 153.204386 
L 261.447847 153.204386 
L 277.466986 153.204386 
L 293.486124 153.204386 
L 309.505263 153.204386 
L 325.524402 153.204386 
L 341.543541 153.204386 
L 357.562679 153.204386 
L 373.581818 153.204386 
" clip-path="url(#p642656d0f5)" style="fill: none; stroke: #63ff94; stroke-width: 1.5; stroke-linecap: square"/>
   </g>
   <g id="line2d_65">
    <path d="M 69.218182 126.25101 
L 85.237321 133.368261 
L 101.256459 138.085268 
L 117.275598 140.764414 
L 133.294737 141.94542 
L 149.313876 137.430725 
L 165.333014 138.766406 
L 181.352153 139.940802 
L 197.371292 140.988355 
L 213.390431 153.204386 
L 229.409569 153.204386 
L 245.428708 153.204386 
L 261.447847 153.204386 
L 277.466986 153.204386 
L 293.486124 153.204386 
L 309.505263 153.204386 
L 325.524402 153.204386 
L 341.543541 153.204386 
L 357.562679 153.204386 
L 373.581818 153.204386 
" clip-path="url(#p642656d0f5)" style="fill: none; stroke: #6aff8d; stroke-width: 1.5; stroke-linecap: square"/>
   </g>
   <g id="line2d_66">
    <path d="M 69.218182 173.929692 
L 85.237321 169.789988 
L 101.256459 163.18742 
L 117.275598 157.073798 
L 133.294737 148.699446 
L 149.313876 137.681299 
L 165.333014 138.588909 
L 181.352153 139.7825 
L 197.371292 140.848537 
L 213.390431 153.204386 
L 229.409569 153.204386 
L 245.428708 153.204386 
L 261.447847 153.204386 
L 277.466986 153.204386 
L 293.486124 153.204386 
L 309.505263 153.204386 
L 325.524402 153.204386 
L 341.543541 153.204386 
L 357.562679 153.204386 
L 373.581818 153.204386 
" clip-path="url(#p642656d0f5)" style="fill: none; stroke: #73ff83; stroke-width: 1.5; stroke-linecap: square"/>
   </g>
   <g id="line2d_67">
    <path d="M 69.218182 195.109655 
L 85.237321 193.945335 
L 101.256459 195.999005 
L 117.275598 195.075621 
L 133.294737 193.350464 
L 149.313876 190.213255 
L 165.333014 186.048933 
L 181.352153 181.71305 
L 197.371292 177.908392 
L 213.390431 153.204386 
L 229.409569 153.204386 
L 245.428708 153.204386 
L 261.447847 153.204386 
L 277.466986 153.204386 
L 293.486124 153.204386 
L 309.505263 153.204386 
L 325.524402 153.204386 
L 341.543541 153.204386 
L 357.562679 153.204386 
L 373.581818 153.204386 
" clip-path="url(#p642656d0f5)" style="fill: none; stroke: #7dff7a; stroke-width: 1.5; stroke-linecap: square"/>
   </g>
   <g id="line2d_68">
    <path d="M 69.218182 155.794319 
L 85.237321 151.496756 
L 101.256459 148.249651 
L 117.275598 146.015807 
L 133.294737 143.360313 
L 149.313876 137.430725 
L 165.333014 138.766406 
L 181.352153 139.940802 
L 197.371292 140.988355 
L 213.390431 153.204386 
L 229.409569 153.204386 
L 245.428708 153.204386 
L 261.447847 153.204386 
L 277.466986 153.204386 
L 293.486124 153.204386 
L 309.505263 153.204386 
L 325.524402 153.204386 
L 341.543541 153.204386 
L 357.562679 153.204386 
L 373.581818 153.204386 
" clip-path="url(#p642656d0f5)" style="fill: none; stroke: #83ff73; stroke-width: 1.5; stroke-linecap: square"/>
   </g>
   <g id="line2d_69">
    <path d="M 69.218182 89.151425 
L 85.237321 98.371631 
L 101.256459 103.175869 
L 117.275598 113.100955 
L 133.294737 132.33142 
L 149.313876 137.430725 
L 165.333014 138.766406 
L 181.352153 139.940802 
L 197.371292 140.988355 
L 213.390431 153.204386 
L 229.409569 153.204386 
L 245.428708 153.204386 
L 261.447847 153.204386 
L 277.466986 153.204386 
L 293.486124 153.204386 
L 309.505263 153.204386 
L 325.524402 153.204386 
L 341.543541 153.204386 
L 357.562679 153.204386 
L 373.581818 153.204386 
" clip-path="url(#p642656d0f5)" style="fill: none; stroke: #8dff6a; stroke-width: 1.5; stroke-linecap: square"/>
   </g>
   <g id="line2d_70">
    <path d="M 69.218182 140.211152 
L 85.237321 143.64269 
L 101.256459 145.759173 
L 117.275598 145.970938 
L 133.294737 143.443 
L 149.313876 137.480452 
L 165.333014 138.766406 
L 181.352153 139.940802 
L 197.371292 140.988355 
L 213.390431 153.204386 
L 229.409569 153.204386 
L 245.428708 153.204386 
L 261.447847 153.204386 
L 277.466986 153.204386 
L 293.486124 153.204386 
L 309.505263 153.204386 
L 325.524402 153.204386 
L 341.543541 153.204386 
L 357.562679 153.204386 
L 373.581818 153.204386 
" clip-path="url(#p642656d0f5)" style="fill: none; stroke: #94ff63; stroke-width: 1.5; stroke-linecap: square"/>
   </g>
   <g id="line2d_71">
    <path d="M 69.218182 89.338025 
L 85.237321 98.259935 
L 101.256459 102.5195 
L 117.275598 112.634548 
L 133.294737 132.103775 
L 149.313876 137.480452 
L 165.333014 138.766406 
L 181.352153 139.940802 
L 197.371292 140.988355 
L 213.390431 153.204386 
L 229.409569 153.204386 
L 245.428708 153.204386 
L 261.447847 153.204386 
L 277.466986 153.204386 
L 293.486124 153.204386 
L 309.505263 153.204386 
L 325.524402 153.204386 
L 341.543541 153.204386 
L 357.562679 153.204386 
L 373.581818 153.204386 
" clip-path="url(#p642656d0f5)" style="fill: none; stroke: #9dff5a; stroke-width: 1.5; stroke-linecap: square"/>
   </g>
   <g id="line2d_72">
    <path d="M 69.218182 214.022761 
L 85.237321 211.048532 
L 101.256459 204.529861 
L 117.275598 198.957055 
L 133.294737 194.338929 
L 149.313876 190.213255 
L 165.333014 186.048933 
L 181.352153 181.71305 
L 197.371292 177.908392 
L 213.390431 153.204386 
L 229.409569 153.204386 
L 245.428708 153.204386 
L 261.447847 153.204386 
L 277.466986 153.204386 
L 293.486124 153.204386 
L 309.505263 153.204386 
L 325.524402 153.204386 
L 341.543541 153.204386 
L 357.562679 153.204386 
L 373.581818 153.204386 
" clip-path="url(#p642656d0f5)" style="fill: none; stroke: #a4ff53; stroke-width: 1.5; stroke-linecap: square"/>
   </g>
   <g id="line2d_73">
    <path d="M 69.218182 117.716788 
L 85.237321 124.065335 
L 101.256459 134.254234 
L 117.275598 140.656924 
L 133.294737 141.833882 
L 149.313876 137.267628 
L 165.333014 138.78146 
L 181.352153 139.940802 
L 197.371292 140.988355 
L 213.390431 153.204386 
L 229.409569 153.204386 
L 245.428708 153.204386 
L 261.447847 153.204386 
L 277.466986 153.204386 
L 293.486124 153.204386 
L 309.505263 153.204386 
L 325.524402 153.204386 
L 341.543541 153.204386 
L 357.562679 153.204386 
L 373.581818 153.204386 
" clip-path="url(#p642656d0f5)" style="fill: none; stroke: #adff49; stroke-width: 1.5; stroke-linecap: square"/>
   </g>
   <g id="line2d_74">
    <path d="M 69.218182 163.947501 
L 85.237321 159.564312 
L 101.256459 151.915586 
L 117.275598 147.665171 
L 133.294737 143.439463 
L 149.313876 137.480452 
L 165.333014 138.766406 
L 181.352153 139.940802 
L 197.371292 140.988355 
L 213.390431 153.204386 
L 229.409569 153.204386 
L 245.428708 153.204386 
L 261.447847 153.204386 
L 277.466986 153.204386 
L 293.486124 153.204386 
L 309.505263 153.204386 
L 325.524402 153.204386 
L 341.543541 153.204386 
L 357.562679 153.204386 
L 373.581818 153.204386 
" clip-path="url(#p642656d0f5)" style="fill: none; stroke: #b4ff43; stroke-width: 1.5; stroke-linecap: square"/>
   </g>
   <g id="line2d_75">
    <path d="M 69.218182 204.698825 
L 85.237321 207.035011 
L 101.256459 202.928943 
L 117.275598 198.404811 
L 133.294737 194.728669 
L 149.313876 190.696333 
L 165.333014 186.606251 
L 181.352153 182.205901 
L 197.371292 178.344087 
L 213.390431 153.204386 
L 229.409569 153.204386 
L 245.428708 153.204386 
L 261.447847 153.204386 
L 277.466986 153.204386 
L 293.486124 153.204386 
L 309.505263 153.204386 
L 325.524402 153.204386 
L 341.543541 153.204386 
L 357.562679 153.204386 
L 373.581818 153.204386 
" clip-path="url(#p642656d0f5)" style="fill: none; stroke: #beff39; stroke-width: 1.5; stroke-linecap: square"/>
   </g>
   <g id="line2d_76">
    <path d="M 69.218182 130.588603 
L 85.237321 137.977644 
L 101.256459 140.122654 
L 117.275598 140.656924 
L 133.294737 141.818066 
L 149.313876 137.497051 
L 165.333014 138.766406 
L 181.352153 139.940802 
L 197.371292 140.988355 
L 213.390431 153.204386 
L 229.409569 153.204386 
L 245.428708 153.204386 
L 261.447847 153.204386 
L 277.466986 153.204386 
L 293.486124 153.204386 
L 309.505263 153.204386 
L 325.524402 153.204386 
L 341.543541 153.204386 
L 357.562679 153.204386 
L 373.581818 153.204386 
" clip-path="url(#p642656d0f5)" style="fill: none; stroke: #c7ff30; stroke-width: 1.5; stroke-linecap: square"/>
   </g>
   <g id="line2d_77">
    <path d="M 69.218182 162.257656 
L 85.237321 157.480128 
L 101.256459 152.046639 
L 117.275598 147.535952 
L 133.294737 143.360313 
L 149.313876 137.430725 
L 165.333014 138.766406 
L 181.352153 139.940802 
L 197.371292 140.988355 
L 213.390431 153.204386 
L 229.409569 153.204386 
L 245.428708 153.204386 
L 261.447847 153.204386 
L 277.466986 153.204386 
L 293.486124 153.204386 
L 309.505263 153.204386 
L 325.524402 153.204386 
L 341.543541 153.204386 
L 357.562679 153.204386 
L 373.581818 153.204386 
" clip-path="url(#p642656d0f5)" style="fill: none; stroke: #ceff29; stroke-width: 1.5; stroke-linecap: square"/>
   </g>
   <g id="line2d_78">
    <path d="M 69.218182 170.898879 
L 85.237321 168.406631 
L 101.256459 161.091957 
L 117.275598 152.554963 
L 133.294737 145.787271 
L 149.313876 137.497051 
L 165.333014 138.766406 
L 181.352153 139.940802 
L 197.371292 140.988355 
L 213.390431 153.204386 
L 229.409569 153.204386 
L 245.428708 153.204386 
L 261.447847 153.204386 
L 277.466986 153.204386 
L 293.486124 153.204386 
L 309.505263 153.204386 
L 325.524402 153.204386 
L 341.543541 153.204386 
L 357.562679 153.204386 
L 373.581818 153.204386 
" clip-path="url(#p642656d0f5)" style="fill: none; stroke: #d7ff1f; stroke-width: 1.5; stroke-linecap: square"/>
   </g>
   <g id="line2d_79">
    <path d="M 69.218182 186.433539 
L 85.237321 183.1741 
L 101.256459 182.573099 
L 117.275598 176.116681 
L 133.294737 168.340242 
L 149.313876 161.606387 
L 165.333014 154.90688 
L 181.352153 154.402029 
L 197.371292 153.762611 
L 213.390431 153.204386 
L 229.409569 153.204386 
L 245.428708 153.204386 
L 261.447847 153.204386 
L 277.466986 153.204386 
L 293.486124 153.204386 
L 309.505263 153.204386 
L 325.524402 153.204386 
L 341.543541 153.204386 
L 357.562679 153.204386 
L 373.581818 153.204386 
" clip-path="url(#p642656d0f5)" style="fill: none; stroke: #deff19; stroke-width: 1.5; stroke-linecap: square"/>
   </g>
   <g id="line2d_80">
    <path d="M 69.218182 159.842566 
L 85.237321 152.976983 
L 101.256459 148.926321 
L 117.275598 147.580386 
L 133.294737 143.360313 
L 149.313876 137.430725 
L 165.333014 138.766406 
L 181.352153 139.940802 
L 197.371292 140.988355 
L 213.390431 153.204386 
L 229.409569 153.204386 
L 245.428708 153.204386 
L 261.447847 153.204386 
L 277.466986 153.204386 
L 293.486124 153.204386 
L 309.505263 153.204386 
L 325.524402 153.204386 
L 341.543541 153.204386 
L 357.562679 153.204386 
L 373.581818 153.204386 
" clip-path="url(#p642656d0f5)" style="fill: none; stroke: #e7ff0f; stroke-width: 1.5; stroke-linecap: square"/>
   </g>
   <g id="line2d_81">
    <path d="M 69.218182 160.20623 
L 85.237321 153.157772 
L 101.256459 148.963983 
L 117.275598 147.535952 
L 133.294737 143.360313 
L 149.313876 137.430725 
L 165.333014 138.766406 
L 181.352153 139.940802 
L 197.371292 140.988355 
L 213.390431 153.204386 
L 229.409569 153.204386 
L 245.428708 153.204386 
L 261.447847 153.204386 
L 277.466986 153.204386 
L 293.486124 153.204386 
L 309.505263 153.204386 
L 325.524402 153.204386 
L 341.543541 153.204386 
L 357.562679 153.204386 
L 373.581818 153.204386 
" clip-path="url(#p642656d0f5)" style="fill: none; stroke: #eeff09; stroke-width: 1.5; stroke-linecap: square"/>
   </g>
   <g id="line2d_82">
    <path d="M 69.218182 192.665072 
L 85.237321 191.375535 
L 101.256459 192.643506 
L 117.275598 195.099891 
L 133.294737 193.350464 
L 149.313876 190.213255 
L 165.333014 186.048933 
L 181.352153 181.71305 
L 197.371292 177.908392 
L 213.390431 153.204386 
L 229.409569 153.204386 
L 245.428708 153.204386 
L 261.447847 153.204386 
L 277.466986 153.204386 
L 293.486124 153.204386 
L 309.505263 153.204386 
L 325.524402 153.204386 
L 341.543541 153.204386 
L 357.562679 153.204386 
L 373.581818 153.204386 
" clip-path="url(#p642656d0f5)" style="fill: none; stroke: #f8f500; stroke-width: 1.5; stroke-linecap: square"/>
   </g>
   <g id="line2d_83">
    <path d="M 69.218182 166.505033 
L 85.237321 164.884777 
L 101.256459 156.855934 
L 117.275598 149.250597 
L 133.294737 144.134483 
L 149.313876 137.430725 
L 165.333014 138.766406 
L 181.352153 139.940802 
L 197.371292 140.988355 
L 213.390431 153.204386 
L 229.409569 153.204386 
L 245.428708 153.204386 
L 261.447847 153.204386 
L 277.466986 153.204386 
L 293.486124 153.204386 
L 309.505263 153.204386 
L 325.524402 153.204386 
L 341.543541 153.204386 
L 357.562679 153.204386 
L 373.581818 153.204386 
" clip-path="url(#p642656d0f5)" style="fill: none; stroke: #feed00; stroke-width: 1.5; stroke-linecap: square"/>
   </g>
   <g id="line2d_84">
    <path d="M 69.218182 228.204291 
L 85.237321 215.441804 
L 101.256459 206.347543 
L 117.275598 198.957055 
L 133.294737 194.338929 
L 149.313876 190.213255 
L 165.333014 186.048933 
L 181.352153 181.71305 
L 197.371292 177.908392 
L 213.390431 153.204386 
L 229.409569 153.204386 
L 245.428708 153.204386 
L 261.447847 153.204386 
L 277.466986 153.204386 
L 293.486124 153.204386 
L 309.505263 153.204386 
L 325.524402 153.204386 
L 341.543541 153.204386 
L 357.562679 153.204386 
L 373.581818 153.204386 
" clip-path="url(#p642656d0f5)" style="fill: none; stroke: #ffe200; stroke-width: 1.5; stroke-linecap: square"/>
   </g>
   <g id="line2d_85">
    <path d="M 69.218182 237.146094 
L 85.237321 216.726136 
L 101.256459 206.085437 
L 117.275598 198.96315 
L 133.294737 194.071383 
L 149.313876 190.135289 
L 165.333014 186.048933 
L 181.352153 181.71305 
L 197.371292 177.908392 
L 213.390431 153.204386 
L 229.409569 153.204386 
L 245.428708 153.204386 
L 261.447847 153.204386 
L 277.466986 153.204386 
L 293.486124 153.204386 
L 309.505263 153.204386 
L 325.524402 153.204386 
L 341.543541 153.204386 
L 357.562679 153.204386 
L 373.581818 153.204386 
" clip-path="url(#p642656d0f5)" style="fill: none; stroke: #ffd700; stroke-width: 1.5; stroke-linecap: square"/>
   </g>
   <g id="line2d_86">
    <path d="M 69.218182 240.186522 
L 85.237321 217.999792 
L 101.256459 206.277939 
L 117.275598 198.957055 
L 133.294737 194.338929 
L 149.313876 190.213255 
L 165.333014 186.048933 
L 181.352153 181.71305 
L 197.371292 177.908392 
L 213.390431 153.204386 
L 229.409569 153.204386 
L 245.428708 153.204386 
L 261.447847 153.204386 
L 277.466986 153.204386 
L 293.486124 153.204386 
L 309.505263 153.204386 
L 325.524402 153.204386 
L 341.543541 153.204386 
L 357.562679 153.204386 
L 373.581818 153.204386 
" clip-path="url(#p642656d0f5)" style="fill: none; stroke: #ffd000; stroke-width: 1.5; stroke-linecap: square"/>
   </g>
   <g id="line2d_87">
    <path d="M 69.218182 87.513459 
L 85.237321 95.304101 
L 101.256459 100.878926 
L 117.275598 111.290064 
L 133.294737 131.806775 
L 149.313876 137.266365 
L 165.333014 138.588909 
L 181.352153 139.7825 
L 197.371292 140.848537 
L 213.390431 153.204386 
L 229.409569 153.204386 
L 245.428708 153.204386 
L 261.447847 153.204386 
L 277.466986 153.204386 
L 293.486124 153.204386 
L 309.505263 153.204386 
L 325.524402 153.204386 
L 341.543541 153.204386 
L 357.562679 153.204386 
L 373.581818 153.204386 
" clip-path="url(#p642656d0f5)" style="fill: none; stroke: #ffc400; stroke-width: 1.5; stroke-linecap: square"/>
   </g>
   <g id="line2d_88">
    <path d="M 69.218182 198.245518 
L 85.237321 196.668924 
L 101.256459 196.91193 
L 117.275598 197.026856 
L 133.294737 194.338929 
L 149.313876 190.213255 
L 165.333014 186.048933 
L 181.352153 181.71305 
L 197.371292 177.908392 
L 213.390431 153.204386 
L 229.409569 153.204386 
L 245.428708 153.204386 
L 261.447847 153.204386 
L 277.466986 153.204386 
L 293.486124 153.204386 
L 309.505263 153.204386 
L 325.524402 153.204386 
L 341.543541 153.204386 
L 357.562679 153.204386 
L 373.581818 153.204386 
" clip-path="url(#p642656d0f5)" style="fill: none; stroke: #ffbd00; stroke-width: 1.5; stroke-linecap: square"/>
   </g>
   <g id="line2d_89">
    <path d="M 69.218182 219.694158 
L 85.237321 213.118142 
L 101.256459 204.578581 
L 117.275598 198.957055 
L 133.294737 194.338929 
L 149.313876 190.213255 
L 165.333014 186.048933 
L 181.352153 181.71305 
L 197.371292 177.908392 
L 213.390431 153.204386 
L 229.409569 153.204386 
L 245.428708 153.204386 
L 261.447847 153.204386 
L 277.466986 153.204386 
L 293.486124 153.204386 
L 309.505263 153.204386 
L 325.524402 153.204386 
L 341.543541 153.204386 
L 357.562679 153.204386 
L 373.581818 153.204386 
" clip-path="url(#p642656d0f5)" style="fill: none; stroke: #ffb200; stroke-width: 1.5; stroke-linecap: square"/>
   </g>
   <g id="line2d_90">
    <path d="M 69.218182 111.944926 
L 85.237321 121.047107 
L 101.256459 132.785771 
L 117.275598 140.112009 
L 133.294737 141.264596 
L 149.313876 137.430725 
L 165.333014 138.766406 
L 181.352153 139.940802 
L 197.371292 140.988355 
L 213.390431 153.204386 
L 229.409569 153.204386 
L 245.428708 153.204386 
L 261.447847 153.204386 
L 277.466986 153.204386 
L 293.486124 153.204386 
L 309.505263 153.204386 
L 325.524402 153.204386 
L 341.543541 153.204386 
L 357.562679 153.204386 
L 373.581818 153.204386 
" clip-path="url(#p642656d0f5)" style="fill: none; stroke: #ffab00; stroke-width: 1.5; stroke-linecap: square"/>
   </g>
   <g id="line2d_91">
    <path d="M 69.218182 151.890251 
L 85.237321 149.704563 
L 101.256459 147.383638 
L 117.275598 145.982478 
L 133.294737 143.249626 
L 149.313876 137.497051 
L 165.333014 138.766406 
L 181.352153 139.940802 
L 197.371292 140.988355 
L 213.390431 153.204386 
L 229.409569 153.204386 
L 245.428708 153.204386 
L 261.447847 153.204386 
L 277.466986 153.204386 
L 293.486124 153.204386 
L 309.505263 153.204386 
L 325.524402 153.204386 
L 341.543541 153.204386 
L 357.562679 153.204386 
L 373.581818 153.204386 
" clip-path="url(#p642656d0f5)" style="fill: none; stroke: #ff9f00; stroke-width: 1.5; stroke-linecap: square"/>
   </g>
   <g id="line2d_92">
    <path d="M 69.218182 123.648265 
L 85.237321 130.247385 
L 101.256459 138.007212 
L 117.275598 140.721676 
L 133.294737 141.820324 
L 149.313876 137.333072 
L 165.333014 138.588909 
L 181.352153 139.7825 
L 197.371292 140.848537 
L 213.390431 153.204386 
L 229.409569 153.204386 
L 245.428708 153.204386 
L 261.447847 153.204386 
L 277.466986 153.204386 
L 293.486124 153.204386 
L 309.505263 153.204386 
L 325.524402 153.204386 
L 341.543541 153.204386 
L 357.562679 153.204386 
L 373.581818 153.204386 
" clip-path="url(#p642656d0f5)" style="fill: none; stroke: #ff9400; stroke-width: 1.5; stroke-linecap: square"/>
   </g>
   <g id="line2d_93">
    <path d="M 69.218182 226.866191 
L 85.237321 214.551593 
L 101.256459 205.140297 
L 117.275598 198.928064 
L 133.294737 194.338929 
L 149.313876 190.213255 
L 165.333014 186.048933 
L 181.352153 181.71305 
L 197.371292 177.908392 
L 213.390431 153.204386 
L 229.409569 153.204386 
L 245.428708 153.204386 
L 261.447847 153.204386 
L 277.466986 153.204386 
L 293.486124 153.204386 
L 309.505263 153.204386 
L 325.524402 153.204386 
L 341.543541 153.204386 
L 357.562679 153.204386 
L 373.581818 153.204386 
" clip-path="url(#p642656d0f5)" style="fill: none; stroke: #ff8d00; stroke-width: 1.5; stroke-linecap: square"/>
   </g>
   <g id="line2d_94">
    <path d="M 69.218182 122.934207 
L 85.237321 129.652684 
L 101.256459 137.411569 
L 117.275598 140.717373 
L 133.294737 141.94542 
L 149.313876 137.430725 
L 165.333014 138.766406 
L 181.352153 139.940802 
L 197.371292 140.988355 
L 213.390431 153.204386 
L 229.409569 153.204386 
L 245.428708 153.204386 
L 261.447847 153.204386 
L 277.466986 153.204386 
L 293.486124 153.204386 
L 309.505263 153.204386 
L 325.524402 153.204386 
L 341.543541 153.204386 
L 357.562679 153.204386 
L 373.581818 153.204386 
" clip-path="url(#p642656d0f5)" style="fill: none; stroke: #ff8200; stroke-width: 1.5; stroke-linecap: square"/>
   </g>
   <g id="line2d_95">
    <path d="M 69.218182 200.594837 
L 85.237321 200.167135 
L 101.256459 200.647386 
L 117.275598 197.026856 
L 133.294737 194.338929 
L 149.313876 190.213255 
L 165.333014 186.048933 
L 181.352153 181.71305 
L 197.371292 177.908392 
L 213.390431 153.204386 
L 229.409569 153.204386 
L 245.428708 153.204386 
L 261.447847 153.204386 
L 277.466986 153.204386 
L 293.486124 153.204386 
L 309.505263 153.204386 
L 325.524402 153.204386 
L 341.543541 153.204386 
L 357.562679 153.204386 
L 373.581818 153.204386 
" clip-path="url(#p642656d0f5)" style="fill: none; stroke: #ff7a00; stroke-width: 1.5; stroke-linecap: square"/>
   </g>
   <g id="line2d_96">
    <path d="M 69.218182 126.460689 
L 85.237321 132.732953 
L 101.256459 137.710281 
L 117.275598 140.488599 
L 133.294737 141.044271 
L 149.313876 137.266365 
L 165.333014 138.588909 
L 181.352153 139.7825 
L 197.371292 140.848537 
L 213.390431 153.204386 
L 229.409569 153.204386 
L 245.428708 153.204386 
L 261.447847 153.204386 
L 277.466986 153.204386 
L 293.486124 153.204386 
L 309.505263 153.204386 
L 325.524402 153.204386 
L 341.543541 153.204386 
L 357.562679 153.204386 
L 373.581818 153.204386 
" clip-path="url(#p642656d0f5)" style="fill: none; stroke: #ff6f00; stroke-width: 1.5; stroke-linecap: square"/>
   </g>
   <g id="line2d_97">
    <path d="M 69.218182 186.019506 
L 85.237321 182.922905 
L 101.256459 182.695083 
L 117.275598 176.804362 
L 133.294737 168.343418 
L 149.313876 161.587664 
L 165.333014 154.90688 
L 181.352153 154.402029 
L 197.371292 153.762611 
L 213.390431 153.204386 
L 229.409569 153.204386 
L 245.428708 153.204386 
L 261.447847 153.204386 
L 277.466986 153.204386 
L 293.486124 153.204386 
L 309.505263 153.204386 
L 325.524402 153.204386 
L 341.543541 153.204386 
L 357.562679 153.204386 
L 373.581818 153.204386 
" clip-path="url(#p642656d0f5)" style="fill: none; stroke: #ff6800; stroke-width: 1.5; stroke-linecap: square"/>
   </g>
   <g id="line2d_98">
    <path d="M 69.218182 145.401714 
L 85.237321 143.315618 
L 101.256459 144.770731 
L 117.275598 145.801357 
L 133.294737 143.177854 
L 149.313876 137.266365 
L 165.333014 138.588909 
L 181.352153 139.7825 
L 197.371292 140.848537 
L 213.390431 153.204386 
L 229.409569 153.204386 
L 245.428708 153.204386 
L 261.447847 153.204386 
L 277.466986 153.204386 
L 293.486124 153.204386 
L 309.505263 153.204386 
L 325.524402 153.204386 
L 341.543541 153.204386 
L 357.562679 153.204386 
L 373.581818 153.204386 
" clip-path="url(#p642656d0f5)" style="fill: none; stroke: #ff5d00; stroke-width: 1.5; stroke-linecap: square"/>
   </g>
   <g id="line2d_99">
    <path d="M 69.218182 162.959834 
L 85.237321 157.978436 
L 101.256459 152.054257 
L 117.275598 147.580386 
L 133.294737 143.360313 
L 149.313876 137.430725 
L 165.333014 138.766406 
L 181.352153 139.940802 
L 197.371292 140.988355 
L 213.390431 153.204386 
L 229.409569 153.204386 
L 245.428708 153.204386 
L 261.447847 153.204386 
L 277.466986 153.204386 
L 293.486124 153.204386 
L 309.505263 153.204386 
L 325.524402 153.204386 
L 341.543541 153.204386 
L 357.562679 153.204386 
L 373.581818 153.204386 
" clip-path="url(#p642656d0f5)" style="fill: none; stroke: #ff5500; stroke-width: 1.5; stroke-linecap: square"/>
   </g>
   <g id="line2d_100">
    <path d="M 69.218182 150.021548 
L 85.237321 147.826717 
L 101.256459 145.665172 
L 117.275598 145.848201 
L 133.294737 143.177854 
L 149.313876 137.266365 
L 165.333014 138.588909 
L 181.352153 139.7825 
L 197.371292 140.848537 
L 213.390431 153.204386 
L 229.409569 153.204386 
L 245.428708 153.204386 
L 261.447847 153.204386 
L 277.466986 153.204386 
L 293.486124 153.204386 
L 309.505263 153.204386 
L 325.524402 153.204386 
L 341.543541 153.204386 
L 357.562679 153.204386 
L 373.581818 153.204386 
" clip-path="url(#p642656d0f5)" style="fill: none; stroke: #ff4a00; stroke-width: 1.5; stroke-linecap: square"/>
   </g>
   <g id="line2d_101">
    <path d="M 69.218182 190.212489 
L 85.237321 188.00991 
L 101.256459 188.794134 
L 117.275598 187.859596 
L 133.294737 190.40261 
L 149.313876 190.651849 
L 165.333014 186.606251 
L 181.352153 182.205901 
L 197.371292 178.344087 
L 213.390431 153.204386 
L 229.409569 153.204386 
L 245.428708 153.204386 
L 261.447847 153.204386 
L 277.466986 153.204386 
L 293.486124 153.204386 
L 309.505263 153.204386 
L 325.524402 153.204386 
L 341.543541 153.204386 
L 357.562679 153.204386 
L 373.581818 153.204386 
" clip-path="url(#p642656d0f5)" style="fill: none; stroke: #ff3f00; stroke-width: 1.5; stroke-linecap: square"/>
   </g>
   <g id="line2d_102">
    <path d="M 69.218182 234.582378 
L 85.237321 217.116146 
L 101.256459 206.347543 
L 117.275598 198.957055 
L 133.294737 194.338929 
L 149.313876 190.213255 
L 165.333014 186.048933 
L 181.352153 181.71305 
L 197.371292 177.908392 
L 213.390431 153.204386 
L 229.409569 153.204386 
L 245.428708 153.204386 
L 261.447847 153.204386 
L 277.466986 153.204386 
L 293.486124 153.204386 
L 309.505263 153.204386 
L 325.524402 153.204386 
L 341.543541 153.204386 
L 357.562679 153.204386 
L 373.581818 153.204386 
" clip-path="url(#p642656d0f5)" style="fill: none; stroke: #ff3800; stroke-width: 1.5; stroke-linecap: square"/>
   </g>
   <g id="line2d_103">
    <path d="M 69.218182 120.825464 
L 85.237321 126.39856 
L 101.256459 135.773814 
L 117.275598 140.656924 
L 133.294737 141.833882 
L 149.313876 137.267628 
L 165.333014 138.78146 
L 181.352153 139.940802 
L 197.371292 140.988355 
L 213.390431 153.204386 
L 229.409569 153.204386 
L 245.428708 153.204386 
L 261.447847 153.204386 
L 277.466986 153.204386 
L 293.486124 153.204386 
L 309.505263 153.204386 
L 325.524402 153.204386 
L 341.543541 153.204386 
L 357.562679 153.204386 
L 373.581818 153.204386 
" clip-path="url(#p642656d0f5)" style="fill: none; stroke: #ff2d00; stroke-width: 1.5; stroke-linecap: square"/>
   </g>
   <g id="line2d_104">
    <path d="M 69.218182 227.45587 
L 85.237321 214.949715 
L 101.256459 205.658063 
L 117.275598 199.585817 
L 133.294737 194.929902 
L 149.313876 190.09164 
L 165.333014 186.048933 
L 181.352153 181.71305 
L 197.371292 177.908392 
L 213.390431 153.204386 
L 229.409569 153.204386 
L 245.428708 153.204386 
L 261.447847 153.204386 
L 277.466986 153.204386 
L 293.486124 153.204386 
L 309.505263 153.204386 
L 325.524402 153.204386 
L 341.543541 153.204386 
L 357.562679 153.204386 
L 373.581818 153.204386 
" clip-path="url(#p642656d0f5)" style="fill: none; stroke: #ff2500; stroke-width: 1.5; stroke-linecap: square"/>
   </g>
   <g id="line2d_105">
    <path d="M 69.218182 128.026703 
L 85.237321 134.931849 
L 101.256459 138.542066 
L 117.275598 140.85961 
L 133.294737 142.724644 
L 149.313876 137.480452 
L 165.333014 138.766406 
L 181.352153 139.940802 
L 197.371292 140.988355 
L 213.390431 153.204386 
L 229.409569 153.204386 
L 245.428708 153.204386 
L 261.447847 153.204386 
L 277.466986 153.204386 
L 293.486124 153.204386 
L 309.505263 153.204386 
L 325.524402 153.204386 
L 341.543541 153.204386 
L 357.562679 153.204386 
L 373.581818 153.204386 
" clip-path="url(#p642656d0f5)" style="fill: none; stroke: #ff1a00; stroke-width: 1.5; stroke-linecap: square"/>
   </g>
   <g id="line2d_106">
    <path d="M 69.218182 84.214355 
L 85.237321 85.933494 
L 101.256459 92.723155 
L 117.275598 101.469377 
L 133.294737 120.184914 
L 149.313876 135.649074 
L 165.333014 138.766406 
L 181.352153 139.940802 
L 197.371292 140.988355 
L 213.390431 153.204386 
L 229.409569 153.204386 
L 245.428708 153.204386 
L 261.447847 153.204386 
L 277.466986 153.204386 
L 293.486124 153.204386 
L 309.505263 153.204386 
L 325.524402 153.204386 
L 341.543541 153.204386 
L 357.562679 153.204386 
L 373.581818 153.204386 
" clip-path="url(#p642656d0f5)" style="fill: none; stroke: #ff1300; stroke-width: 1.5; stroke-linecap: square"/>
   </g>
   <g id="line2d_107">
    <path d="M 69.218182 200.67576 
L 85.237321 200.229984 
L 101.256459 200.778131 
L 117.275598 197.053365 
L 133.294737 194.338929 
L 149.313876 190.213255 
L 165.333014 186.048933 
L 181.352153 181.71305 
L 197.371292 177.908392 
L 213.390431 153.204386 
L 229.409569 153.204386 
L 245.428708 153.204386 
L 261.447847 153.204386 
L 277.466986 153.204386 
L 293.486124 153.204386 
L 309.505263 153.204386 
L 325.524402 153.204386 
L 341.543541 153.204386 
L 357.562679 153.204386 
L 373.581818 153.204386 
" clip-path="url(#p642656d0f5)" style="fill: none; stroke: #f10800; stroke-width: 1.5; stroke-linecap: square"/>
   </g>
   <g id="line2d_108">
    <path d="M 69.218182 139.087728 
L 85.237321 143.562271 
L 101.256459 145.862274 
L 117.275598 146.038128 
L 133.294737 143.360313 
L 149.313876 137.430725 
L 165.333014 138.766406 
L 181.352153 139.940802 
L 197.371292 140.988355 
L 213.390431 153.204386 
L 229.409569 153.204386 
L 245.428708 153.204386 
L 261.447847 153.204386 
L 277.466986 153.204386 
L 293.486124 153.204386 
L 309.505263 153.204386 
L 325.524402 153.204386 
L 341.543541 153.204386 
L 357.562679 153.204386 
L 373.581818 153.204386 
" clip-path="url(#p642656d0f5)" style="fill: none; stroke: #e80000; stroke-width: 1.5; stroke-linecap: square"/>
   </g>
   <g id="line2d_109">
    <path d="M 69.218182 84.593316 
L 85.237321 86.600991 
L 101.256459 92.526179 
L 117.275598 99.149204 
L 133.294737 109.541087 
L 149.313876 135.395072 
L 165.333014 138.588909 
L 181.352153 139.7825 
L 197.371292 140.848537 
L 213.390431 153.204386 
L 229.409569 153.204386 
L 245.428708 153.204386 
L 261.447847 153.204386 
L 277.466986 153.204386 
L 293.486124 153.204386 
L 309.505263 153.204386 
L 325.524402 153.204386 
L 341.543541 153.204386 
L 357.562679 153.204386 
L 373.581818 153.204386 
" clip-path="url(#p642656d0f5)" style="fill: none; stroke: #da0000; stroke-width: 1.5; stroke-linecap: square"/>
   </g>
   <g id="line2d_110">
    <path d="M 69.218182 136.133222 
L 85.237321 141.246047 
L 101.256459 143.383523 
L 117.275598 145.914168 
L 133.294737 143.181593 
L 149.313876 137.283088 
L 165.333014 138.588909 
L 181.352153 139.7825 
L 197.371292 140.848537 
L 213.390431 153.204386 
L 229.409569 153.204386 
L 245.428708 153.204386 
L 261.447847 153.204386 
L 277.466986 153.204386 
L 293.486124 153.204386 
L 309.505263 153.204386 
L 325.524402 153.204386 
L 341.543541 153.204386 
L 357.562679 153.204386 
L 373.581818 153.204386 
" clip-path="url(#p642656d0f5)" style="fill: none; stroke: #cd0000; stroke-width: 1.5; stroke-linecap: square"/>
   </g>
   <g id="line2d_111">
    <path d="M 69.218182 206.450017 
L 85.237321 209.37397 
L 101.256459 203.661918 
L 117.275598 199.289357 
L 133.294737 194.728669 
L 149.313876 190.696333 
L 165.333014 186.606251 
L 181.352153 182.205901 
L 197.371292 178.344087 
L 213.390431 153.204386 
L 229.409569 153.204386 
L 245.428708 153.204386 
L 261.447847 153.204386 
L 277.466986 153.204386 
L 293.486124 153.204386 
L 309.505263 153.204386 
L 325.524402 153.204386 
L 341.543541 153.204386 
L 357.562679 153.204386 
L 373.581818 153.204386 
" clip-path="url(#p642656d0f5)" style="fill: none; stroke: #c40000; stroke-width: 1.5; stroke-linecap: square"/>
   </g>
   <g id="line2d_112">
    <path d="M 69.218182 210.462903 
L 85.237321 208.984015 
L 101.256459 203.536163 
L 117.275598 198.959735 
L 133.294737 194.071383 
L 149.313876 190.135289 
L 165.333014 186.048933 
L 181.352153 181.71305 
L 197.371292 177.908392 
L 213.390431 153.204386 
L 229.409569 153.204386 
L 245.428708 153.204386 
L 261.447847 153.204386 
L 277.466986 153.204386 
L 293.486124 153.204386 
L 309.505263 153.204386 
L 325.524402 153.204386 
L 341.543541 153.204386 
L 357.562679 153.204386 
L 373.581818 153.204386 
" clip-path="url(#p642656d0f5)" style="fill: none; stroke: #b60000; stroke-width: 1.5; stroke-linecap: square"/>
   </g>
   <g id="line2d_113">
    <path d="M 69.218182 231.968164 
L 85.237321 216.247338 
L 101.256459 206.378428 
L 117.275598 198.957055 
L 133.294737 194.338929 
L 149.313876 190.213255 
L 165.333014 186.048933 
L 181.352153 181.71305 
L 197.371292 177.908392 
L 213.390431 153.204386 
L 229.409569 153.204386 
L 245.428708 153.204386 
L 261.447847 153.204386 
L 277.466986 153.204386 
L 293.486124 153.204386 
L 309.505263 153.204386 
L 325.524402 153.204386 
L 341.543541 153.204386 
L 357.562679 153.204386 
L 373.581818 153.204386 
" clip-path="url(#p642656d0f5)" style="fill: none; stroke: #ad0000; stroke-width: 1.5; stroke-linecap: square"/>
   </g>
   <g id="line2d_114">
    <path d="M 69.218182 165.301321 
L 85.237321 162.049628 
L 101.256459 156.241417 
L 117.275598 149.250597 
L 133.294737 144.134483 
L 149.313876 137.430725 
L 165.333014 138.766406 
L 181.352153 139.940802 
L 197.371292 140.988355 
L 213.390431 153.204386 
L 229.409569 153.204386 
L 245.428708 153.204386 
L 261.447847 153.204386 
L 277.466986 153.204386 
L 293.486124 153.204386 
L 309.505263 153.204386 
L 325.524402 153.204386 
L 341.543541 153.204386 
L 357.562679 153.204386 
L 373.581818 153.204386 
" clip-path="url(#p642656d0f5)" style="fill: none; stroke: #9f0000; stroke-width: 1.5; stroke-linecap: square"/>
   </g>
   <g id="line2d_115">
    <path d="M 69.218182 205.344971 
L 85.237321 208.094242 
L 101.256459 202.928943 
L 117.275598 198.404811 
L 133.294737 194.728669 
L 149.313876 190.696333 
L 165.333014 186.606251 
L 181.352153 182.205901 
L 197.371292 178.344087 
L 213.390431 153.204386 
L 229.409569 153.204386 
L 245.428708 153.204386 
L 261.447847 153.204386 
L 277.466986 153.204386 
L 293.486124 153.204386 
L 309.505263 153.204386 
L 325.524402 153.204386 
L 341.543541 153.204386 
L 357.562679 153.204386 
L 373.581818 153.204386 
" clip-path="url(#p642656d0f5)" style="fill: none; stroke: #960000; stroke-width: 1.5; stroke-linecap: square"/>
   </g>
   <g id="line2d_116">
    <path d="M 69.218182 45.93181 
L 85.237321 64.992876 
L 101.256459 84.39565 
L 117.275598 97.235598 
L 133.294737 109.64753 
L 149.313876 135.377283 
L 165.333014 138.634193 
L 181.352153 139.7825 
L 197.371292 140.848537 
L 213.390431 153.204386 
L 229.409569 153.204386 
L 245.428708 153.204386 
L 261.447847 153.204386 
L 277.466986 153.204386 
L 293.486124 153.204386 
L 309.505263 153.204386 
L 325.524402 153.204386 
L 341.543541 153.204386 
L 357.562679 153.204386 
L 373.581818 153.204386 
" clip-path="url(#p642656d0f5)" style="fill: none; stroke: #890000; stroke-width: 1.5; stroke-linecap: square"/>
   </g>
   <g id="patch_3">
    <path d="M 54 252 
L 54 34.56 
" style="fill: none; stroke: #000000; stroke-width: 0.8; stroke-linejoin: miter; stroke-linecap: square"/>
   </g>
   <g id="patch_4">
    <path d="M 388.8 252 
L 388.8 34.56 
" style="fill: none; stroke: #000000; stroke-width: 0.8; stroke-linejoin: miter; stroke-linecap: square"/>
   </g>
   <g id="patch_5">
    <path d="M 54 252 
L 388.8 252 
" style="fill: none; stroke: #000000; stroke-width: 0.8; stroke-linejoin: miter; stroke-linecap: square"/>
   </g>
   <g id="patch_6">
    <path d="M 54 34.56 
L 388.8 34.56 
" style="fill: none; stroke: #000000; stroke-width: 0.8; stroke-linejoin: miter; stroke-linecap: square"/>
   </g>
   <g id="text_19">
    <!-- topic 0 with confidence interval 0.2 -->
    <g transform="translate(88.722656 28.56)scale(0.15 -0.15)">
     <defs>
      <path id="DejaVuSans-63" d="M 3122 3366 
L 3122 2828 
Q 2878 2963 2633 3030 
Q 2388 3097 2138 3097 
Q 1578 3097 1268 2742 
Q 959 2388 959 1747 
Q 959 1106 1268 751 
Q 1578 397 2138 397 
Q 2388 397 2633 464 
Q 2878 531 3122 666 
L 3122 134 
Q 2881 22 2623 -34 
Q 2366 -91 2075 -91 
Q 1284 -91 818 406 
Q 353 903 353 1747 
Q 353 2603 823 3093 
Q 1294 3584 2113 3584 
Q 2378 3584 2631 3529 
Q 2884 3475 3122 3366 
z
" transform="scale(0.015625)"/>
      <path id="DejaVuSans-20" transform="scale(0.015625)"/>
      <path id="DejaVuSans-77" d="M 269 3500 
L 844 3500 
L 1563 769 
L 2278 3500 
L 2956 3500 
L 3675 769 
L 4391 3500 
L 4966 3500 
L 4050 0 
L 3372 0 
L 2619 2869 
L 1863 0 
L 1184 0 
L 269 3500 
z
" transform="scale(0.015625)"/>
      <path id="DejaVuSans-68" d="M 3513 2113 
L 3513 0 
L 2938 0 
L 2938 2094 
Q 2938 2591 2744 2837 
Q 2550 3084 2163 3084 
Q 1697 3084 1428 2787 
Q 1159 2491 1159 1978 
L 1159 0 
L 581 0 
L 581 4863 
L 1159 4863 
L 1159 2956 
Q 1366 3272 1645 3428 
Q 1925 3584 2291 3584 
Q 2894 3584 3203 3211 
Q 3513 2838 3513 2113 
z
" transform="scale(0.015625)"/>
      <path id="DejaVuSans-66" d="M 2375 4863 
L 2375 4384 
L 1825 4384 
Q 1516 4384 1395 4259 
Q 1275 4134 1275 3809 
L 1275 3500 
L 2222 3500 
L 2222 3053 
L 1275 3053 
L 1275 0 
L 697 0 
L 697 3053 
L 147 3053 
L 147 3500 
L 697 3500 
L 697 3744 
Q 697 4328 969 4595 
Q 1241 4863 1831 4863 
L 2375 4863 
z
" transform="scale(0.015625)"/>
      <path id="DejaVuSans-64" d="M 2906 2969 
L 2906 4863 
L 3481 4863 
L 3481 0 
L 2906 0 
L 2906 525 
Q 2725 213 2448 61 
Q 2172 -91 1784 -91 
Q 1150 -91 751 415 
Q 353 922 353 1747 
Q 353 2572 751 3078 
Q 1150 3584 1784 3584 
Q 2172 3584 2448 3432 
Q 2725 3281 2906 2969 
z
M 947 1747 
Q 947 1113 1208 752 
Q 1469 391 1925 391 
Q 2381 391 2643 752 
Q 2906 1113 2906 1747 
Q 2906 2381 2643 2742 
Q 2381 3103 1925 3103 
Q 1469 3103 1208 2742 
Q 947 2381 947 1747 
z
" transform="scale(0.015625)"/>
      <path id="DejaVuSans-76" d="M 191 3500 
L 800 3500 
L 1894 563 
L 2988 3500 
L 3597 3500 
L 2284 0 
L 1503 0 
L 191 3500 
z
" transform="scale(0.015625)"/>
      <path id="DejaVuSans-6c" d="M 603 4863 
L 1178 4863 
L 1178 0 
L 603 0 
L 603 4863 
z
" transform="scale(0.015625)"/>
     </defs>
     <use xlink:href="#DejaVuSans-74"/>
     <use xlink:href="#DejaVuSans-6f" x="39.208984"/>
     <use xlink:href="#DejaVuSans-70" x="100.390625"/>
     <use xlink:href="#DejaVuSans-69" x="163.867188"/>
     <use xlink:href="#DejaVuSans-63" x="191.650391"/>
     <use xlink:href="#DejaVuSans-20" x="246.630859"/>
     <use xlink:href="#DejaVuSans-30" x="278.417969"/>
     <use xlink:href="#DejaVuSans-20" x="342.041016"/>
     <use xlink:href="#DejaVuSans-77" x="373.828125"/>
     <use xlink:href="#DejaVuSans-69" x="455.615234"/>
     <use xlink:href="#DejaVuSans-74" x="483.398438"/>
     <use xlink:href="#DejaVuSans-68" x="522.607422"/>
     <use xlink:href="#DejaVuSans-20" x="585.986328"/>
     <use xlink:href="#DejaVuSans-63" x="617.773438"/>
     <use xlink:href="#DejaVuSans-6f" x="672.753906"/>
     <use xlink:href="#DejaVuSans-6e" x="733.935547"/>
     <use xlink:href="#DejaVuSans-66" x="797.314453"/>
     <use xlink:href="#DejaVuSans-69" x="832.519531"/>
     <use xlink:href="#DejaVuSans-64" x="860.302734"/>
     <use xlink:href="#DejaVuSans-65" x="923.779297"/>
     <use xlink:href="#DejaVuSans-6e" x="985.302734"/>
     <use xlink:href="#DejaVuSans-63" x="1048.681641"/>
     <use xlink:href="#DejaVuSans-65" x="1103.662109"/>
     <use xlink:href="#DejaVuSans-20" x="1165.185547"/>
     <use xlink:href="#DejaVuSans-69" x="1196.972656"/>
     <use xlink:href="#DejaVuSans-6e" x="1224.755859"/>
     <use xlink:href="#DejaVuSans-74" x="1288.134766"/>
     <use xlink:href="#DejaVuSans-65" x="1327.34375"/>
     <use xlink:href="#DejaVuSans-72" x="1388.867188"/>
     <use xlink:href="#DejaVuSans-76" x="1429.980469"/>
     <use xlink:href="#DejaVuSans-61" x="1489.160156"/>
     <use xlink:href="#DejaVuSans-6c" x="1550.439453"/>
     <use xlink:href="#DejaVuSans-20" x="1578.222656"/>
     <use xlink:href="#DejaVuSans-30" x="1610.009766"/>
     <use xlink:href="#DejaVuSans-2e" x="1673.632812"/>
     <use xlink:href="#DejaVuSans-32" x="1705.419922"/>
    </g>
   </g>
  </g>
 </g>
 <defs>
  <clipPath id="p642656d0f5">
   <rect x="54" y="34.56" width="334.8" height="217.44"/>
  </clipPath>
 </defs>
</svg>
